<svg xmlns="http://www.w3.org/2000/svg" xmlns:xlink="http://www.w3.org/1999/xlink" width="500" zoomAndPan="magnify" viewBox="0 0 375 374.999991" height="500" preserveAspectRatio="xMidYMid meet" version="1.0"><defs><g/><clipPath id="88f1dbcae2"><path d="M 1.316406 1 L 336 1 L 336 336 L 1.316406 336 Z M 1.316406 1 " clip-rule="nonzero"/></clipPath><clipPath id="d50a31a70d"><path d="M 71 242 L 267 242 L 267 367.554688 L 71 367.554688 Z M 71 242 " clip-rule="nonzero"/></clipPath><clipPath id="99352443c4"><rect x="0" width="337" y="0" height="369"/></clipPath></defs><g transform="matrix(1, 0, 0, 1, 19, 3)"><g clip-path="url(#99352443c4)"><g clip-path="url(#88f1dbcae2)"><path fill="#f1975f" d="M 335.691406 168.160156 C 335.691406 260.476562 260.863281 335.304688 168.546875 335.304688 C 76.234375 335.304688 1.40625 260.476562 1.40625 168.160156 C 1.402344 75.847656 76.234375 1.015625 168.546875 1.015625 C 260.863281 1.015625 335.691406 75.847656 335.691406 168.160156 " fill-opacity="1" fill-rule="nonzero"/></g><path fill="#1495ff" d="M 243.441406 292.054688 L 97.496094 292.054688 L 97.496094 152.984375 L 243.441406 152.984375 L 243.441406 292.054688 " fill-opacity="1" fill-rule="nonzero"/><g clip-path="url(#d50a31a70d)"><path fill="#ffffff" d="M 266.066406 335.761719 C 257.796875 341.9375 248.921875 347.34375 239.546875 351.867188 C 238.121094 352.558594 236.695312 353.21875 235.246094 353.867188 C 214.886719 362.996094 192.3125 368.074219 168.546875 368.074219 C 144.785156 368.074219 122.222656 362.996094 101.859375 353.867188 C 100.402344 353.21875 98.964844 352.558594 97.550781 351.867188 C 88.175781 347.332031 79.296875 341.9375 71.039062 335.761719 C 72.488281 303.453125 89.652344 275.226562 115.078125 258.5625 C 130.4375 248.480469 148.804688 242.628906 168.546875 242.628906 C 171.558594 242.628906 174.539062 242.765625 177.46875 243.03125 C 193.824219 244.511719 209 250.015625 222.019531 258.5625 C 233.726562 266.234375 243.675781 276.355469 251.148438 288.191406 C 259.917969 302.078125 265.269531 318.332031 266.066406 335.761719 " fill-opacity="1" fill-rule="nonzero"/></g><path fill="#f8c0f1" d="M 222.019531 258.5625 C 220.527344 269.832031 215.558594 280.015625 208.203125 287.976562 C 198.347656 298.652344 184.234375 305.347656 168.546875 305.347656 C 143.421875 305.347656 122.304688 288.15625 116.3125 264.894531 C 115.78125 262.828125 115.367188 260.710938 115.078125 258.5625 C 130.4375 248.480469 148.804688 242.628906 168.546875 242.628906 C 171.558594 242.628906 174.539062 242.757812 177.476562 243.03125 C 177.988281 243.074219 178.5 243.128906 179 243.183594 C 179.320312 243.214844 179.636719 243.246094 179.945312 243.289062 C 180.296875 243.320312 180.648438 243.375 180.988281 243.414062 C 181.203125 243.4375 181.425781 243.46875 181.640625 243.5 C 181.949219 243.53125 182.265625 243.585938 182.585938 243.628906 C 182.832031 243.660156 183.074219 243.703125 183.332031 243.734375 C 183.542969 243.765625 183.757812 243.800781 183.96875 243.839844 C 184.332031 243.894531 184.683594 243.957031 185.042969 244.011719 C 186.597656 244.277344 188.140625 244.574219 189.664062 244.917969 L 190.683594 245.140625 C 190.878906 245.191406 191.078125 245.234375 191.269531 245.289062 C 191.632812 245.375 192.003906 245.460938 192.355469 245.554688 C 192.421875 245.566406 192.472656 245.578125 192.515625 245.585938 C 192.972656 245.703125 193.429688 245.820312 193.878906 245.949219 C 194.367188 246.066406 194.847656 246.203125 195.316406 246.34375 C 195.859375 246.492188 196.390625 246.652344 196.933594 246.8125 C 197.347656 246.9375 197.761719 247.066406 198.179688 247.203125 C 198.445312 247.289062 198.722656 247.375 198.976562 247.460938 C 199.414062 247.597656 199.847656 247.746094 200.273438 247.898438 C 200.808594 248.078125 201.328125 248.257812 201.851562 248.449219 C 201.890625 248.472656 201.925781 248.480469 201.957031 248.492188 C 202.5 248.683594 203.03125 248.886719 203.5625 249.089844 C 203.957031 249.25 204.363281 249.398438 204.765625 249.566406 C 205.820312 249.984375 206.851562 250.417969 207.875 250.867188 L 209.214844 251.472656 C 209.617188 251.652344 210.023438 251.84375 210.429688 252.035156 C 210.800781 252.21875 211.164062 252.386719 211.523438 252.570312 C 211.863281 252.726562 212.195312 252.898438 212.523438 253.070312 C 212.738281 253.175781 212.960938 253.28125 213.171875 253.398438 C 214.058594 253.847656 214.917969 254.3125 215.769531 254.78125 C 216.078125 254.953125 216.398438 255.132812 216.695312 255.304688 C 216.898438 255.421875 217.089844 255.527344 217.28125 255.632812 L 218.003906 256.058594 L 218.738281 256.507812 L 219.21875 256.792969 C 219.675781 257.058594 220.125 257.335938 220.570312 257.625 C 221.058594 257.933594 221.539062 258.242188 222.019531 258.5625 " fill-opacity="1" fill-rule="nonzero"/><path fill="#f8c0f1" d="M 187.34375 220.757812 L 187.34375 257.730469 C 187.34375 267.085938 179.691406 274.75 170.347656 274.75 L 166.75 274.75 C 157.40625 274.75 149.765625 267.085938 149.765625 257.730469 L 149.765625 220.757812 C 149.765625 211.402344 157.40625 203.75 166.75 203.75 L 170.347656 203.75 C 179.691406 203.75 187.34375 211.402344 187.34375 220.757812 " fill-opacity="1" fill-rule="nonzero"/><path fill="#f8a29e" d="M 187.34375 220.757812 L 187.34375 240.320312 C 181.757812 243.425781 175.828125 245.234375 169.816406 245.234375 C 162.714844 245.234375 155.949219 243.257812 149.765625 239.820312 L 149.765625 220.757812 C 149.765625 211.402344 157.40625 203.75 166.75 203.75 L 170.347656 203.75 C 179.691406 203.75 187.34375 211.402344 187.34375 220.757812 " fill-opacity="1" fill-rule="nonzero"/><path fill="#f8c0f1" d="M 226.5 197.832031 C 226.5 197.832031 237.628906 194.042969 244.738281 181.636719 C 252.464844 168.160156 247.613281 159.765625 246.082031 157.945312 C 241.898438 152.972656 235.4375 156.167969 234.375 157.945312 C 233.308594 159.722656 217.898438 187.710938 226.5 197.832031 " fill-opacity="1" fill-rule="nonzero"/><path fill="#f8a29e" d="M 237.40625 162.359375 C 237.40625 162.359375 244.472656 163.265625 241.992188 173.195312 C 239.503906 183.136719 232.980469 187.0625 224.105469 192.140625 C 215.238281 197.214844 228.542969 164.382812 237.40625 162.359375 " fill-opacity="1" fill-rule="nonzero"/><path fill="#f8c0f1" d="M 113.492188 197.832031 C 113.492188 197.832031 102.363281 194.042969 95.253906 181.636719 C 87.515625 168.160156 92.367188 159.765625 93.898438 157.945312 C 98.082031 152.972656 104.542969 156.167969 105.605469 157.945312 C 106.671875 159.722656 122.09375 187.710938 113.492188 197.832031 " fill-opacity="1" fill-rule="nonzero"/><path fill="#f8a29e" d="M 102.574219 162.359375 C 102.574219 162.359375 95.519531 163.265625 97.996094 173.195312 C 100.476562 183.136719 107.011719 187.0625 115.878906 192.140625 C 124.753906 197.214844 111.449219 164.382812 102.574219 162.359375 " fill-opacity="1" fill-rule="nonzero"/><path fill="#f8c0f1" d="M 237.40625 155.804688 C 237.40625 115.011719 207.296875 81.933594 170.144531 81.933594 C 133 81.933594 102.871094 115.011719 102.871094 155.804688 C 102.871094 196.597656 133 239.242188 170.144531 239.242188 C 205.054688 239.242188 237.40625 196.257812 237.40625 155.804688 " fill-opacity="1" fill-rule="nonzero"/><path fill="#1495ff" d="M 242.515625 130.804688 C 239.652344 104.230469 221.1875 62.519531 176.242188 67.84375 C 157.085938 63.585938 97.476562 71.949219 97.476562 155.285156 C 97.476562 155.285156 109.386719 164.871094 136.386719 169.9375 C 137.621094 150.835938 141.121094 136.488281 141.121094 136.488281 C 138.375 151.792969 144.335938 162.007812 144.589844 171.269531 C 167.3125 174.355469 198.914062 174.066406 240.792969 164.234375 C 240.792969 164.234375 245.335938 156.933594 242.515625 130.804688 " fill-opacity="1" fill-rule="nonzero"/><path fill="#1495ff" d="M 118.804688 250.546875 L 97.496094 250.546875 L 97.496094 152.984375 L 118.804688 152.984375 L 118.804688 250.546875 " fill-opacity="1" fill-rule="nonzero"/><path fill="#1495ff" d="M 243.441406 250.546875 L 222.125 250.546875 L 222.125 152.984375 L 243.441406 152.984375 L 243.441406 250.546875 " fill-opacity="1" fill-rule="nonzero"/><path fill="#f1975f" d="M 135.738281 303.042969 L 201.261719 303.042969 C 204.773438 303.042969 208.140625 304.441406 210.625 306.921875 C 213.109375 309.40625 214.503906 312.773438 214.503906 316.285156 L 214.503906 342.769531 C 214.503906 346.28125 213.109375 349.648438 210.625 352.132812 C 208.140625 354.617188 204.773438 356.011719 201.261719 356.011719 L 135.738281 356.011719 C 128.425781 356.011719 122.496094 350.082031 122.496094 342.769531 L 122.496094 316.285156 C 122.496094 308.972656 128.425781 303.042969 135.738281 303.042969 Z M 135.738281 303.042969 " fill-opacity="0.61" fill-rule="nonzero"/><g fill="#000000" fill-opacity="1"><g transform="translate(135.615982, 341.481732)"><g><path d="M 0.71875 0 L 9.421875 -23.859375 L 12.875 -23.859375 L 21.640625 0 L 18.46875 0 L 13.421875 -14.203125 C 13.097656 -15.097656 12.726562 -16.1875 12.3125 -17.46875 C 11.90625 -18.757812 11.410156 -20.414062 10.828125 -22.4375 L 11.453125 -22.4375 C 10.859375 -20.40625 10.347656 -18.734375 9.921875 -17.421875 C 9.503906 -16.117188 9.15625 -15.046875 8.875 -14.203125 L 3.90625 0 Z M 5.125 -6.65625 L 5.125 -9.296875 L 17.25 -9.296875 L 17.25 -6.65625 Z M 5.125 -6.65625 "/></g></g></g><g fill="#000000" fill-opacity="1"><g transform="translate(155.74164, 341.481732)"><g><path d="M 7.546875 0 L 0.78125 -17.671875 L 3.890625 -17.671875 L 7.671875 -7.25 C 8.054688 -6.21875 8.382812 -5.1875 8.65625 -4.15625 C 8.9375 -3.125 9.226562 -2.125 9.53125 -1.15625 L 8.5625 -1.15625 C 8.863281 -2.125 9.15625 -3.125 9.4375 -4.15625 C 9.71875 -5.1875 10.046875 -6.21875 10.421875 -7.25 L 14.1875 -17.671875 L 17.28125 -17.671875 L 10.515625 0 Z M 7.546875 0 "/></g></g></g><g fill="#000000" fill-opacity="1"><g transform="translate(173.802097, 341.481732)"><g><path d="M 2.421875 0 L 2.421875 -17.671875 L 5.15625 -17.671875 L 5.15625 -14.953125 L 5.3125 -14.953125 C 5.644531 -15.847656 6.21875 -16.566406 7.03125 -17.109375 C 7.84375 -17.660156 8.773438 -17.9375 9.828125 -17.9375 C 10.054688 -17.9375 10.304688 -17.929688 10.578125 -17.921875 C 10.859375 -17.910156 11.070312 -17.898438 11.21875 -17.890625 L 11.21875 -15.015625 C 11.132812 -15.035156 10.925781 -15.066406 10.59375 -15.109375 C 10.257812 -15.160156 9.898438 -15.1875 9.515625 -15.1875 C 8.710938 -15.1875 7.988281 -15.015625 7.34375 -14.671875 C 6.695312 -14.328125 6.1875 -13.84375 5.8125 -13.21875 C 5.445312 -12.601562 5.265625 -11.875 5.265625 -11.03125 L 5.265625 0 Z M 2.421875 0 "/></g></g></g><g fill="#000000" fill-opacity="1"><g transform="translate(186.002533, 341.481732)"><g><path d="M 2.421875 0 L 2.421875 -17.671875 L 5.265625 -17.671875 L 5.265625 0 Z M 3.84375 -20.6875 C 3.3125 -20.6875 2.847656 -20.875 2.453125 -21.25 C 2.066406 -21.625 1.875 -22.070312 1.875 -22.59375 C 1.875 -23.113281 2.066406 -23.554688 2.453125 -23.921875 C 2.847656 -24.296875 3.3125 -24.484375 3.84375 -24.484375 C 4.382812 -24.484375 4.847656 -24.296875 5.234375 -23.921875 C 5.628906 -23.554688 5.828125 -23.113281 5.828125 -22.59375 C 5.828125 -22.070312 5.628906 -21.625 5.234375 -21.25 C 4.847656 -20.875 4.382812 -20.6875 3.84375 -20.6875 Z M 3.84375 -20.6875 "/></g></g></g><g fill="#000000" fill-opacity="1"><g transform="translate(193.687833, 341.481732)"><g><path d="M 5.265625 -23.859375 L 5.265625 0 L 2.421875 0 L 2.421875 -23.859375 Z M 5.265625 -23.859375 "/></g></g></g></g></g></svg>