<svg xmlns="http://www.w3.org/2000/svg" xmlns:xlink="http://www.w3.org/1999/xlink" width="500" zoomAndPan="magnify" viewBox="0 0 375 374.999991" height="500" preserveAspectRatio="xMidYMid meet" version="1.0"><defs><g/><clipPath id="8406de2122"><path d="M 1.371094 1.027344 L 335.984375 1.027344 L 335.984375 336 L 1.371094 336 Z M 1.371094 1.027344 " clip-rule="nonzero"/></clipPath><clipPath id="4e9ea4ebdf"><rect x="0" width="337" y="0" height="369"/></clipPath></defs><g transform="matrix(1, 0, 0, 1, 19, 3)"><g clip-path="url(#4e9ea4ebdf)"><g clip-path="url(#8406de2122)"><path fill="#e87e8d" d="M 1.464844 168.160156 C 1.464844 260.4375 76.269531 335.238281 168.542969 335.238281 C 260.824219 335.238281 335.625 260.441406 335.625 168.160156 C 335.625 75.878906 260.824219 1.078125 168.542969 1.078125 C 76.265625 1.078125 1.464844 75.878906 1.464844 168.160156 " fill-opacity="1" fill-rule="nonzero"/></g><path fill="#ffed71" d="M 234.175781 172.308594 C 234.175781 172.308594 231.945312 211.671875 238.773438 226.035156 C 238.773438 226.035156 227.433594 234.277344 221.144531 226.035156 L 221.144531 224.4375 C 221.144531 224.4375 210.582031 243.203125 192.453125 234.621094 C 174.335938 226.035156 192.453125 176.554688 192.453125 176.554688 L 214.761719 135.605469 L 234.175781 172.308594 " fill-opacity="1" fill-rule="nonzero"/><path fill="#ffffff" d="M 268.378906 335.695312 C 260.113281 341.867188 251.242188 347.273438 241.871094 351.792969 C 240.445312 352.484375 239.019531 353.144531 237.570312 353.792969 C 217.21875 362.921875 194.65625 367.996094 170.898438 367.996094 C 147.144531 367.996094 124.589844 362.921875 104.226562 353.792969 C 102.789062 353.144531 101.34375 352.484375 99.929688 351.792969 C 90.554688 347.261719 81.683594 341.867188 73.425781 335.695312 C 74.875 303.398438 92.035156 275.183594 117.449219 258.523438 C 132.800781 248.449219 151.175781 242.597656 170.898438 242.597656 C 173.910156 242.597656 176.886719 242.738281 179.824219 243.003906 C 196.164062 244.480469 211.335938 249.980469 224.347656 258.523438 C 236.050781 266.195312 245.996094 276.3125 253.464844 288.140625 C 262.230469 302.027344 267.59375 318.269531 268.378906 335.695312 " fill-opacity="1" fill-rule="nonzero"/><path fill="#1495ff" d="M 224.347656 258.523438 C 222.859375 269.789062 217.890625 279.972656 210.539062 287.929688 C 200.6875 298.601562 186.582031 305.292969 170.898438 305.292969 C 145.78125 305.292969 124.675781 288.109375 118.683594 264.855469 C 118.152344 262.789062 117.738281 260.671875 117.449219 258.523438 C 132.800781 248.449219 151.164062 242.597656 170.898438 242.597656 C 173.910156 242.597656 176.886719 242.726562 179.824219 243.003906 C 180.335938 243.046875 180.847656 243.097656 181.347656 243.152344 C 181.664062 243.183594 181.984375 243.214844 182.292969 243.257812 C 182.644531 243.289062 182.996094 243.34375 183.335938 243.386719 C 183.546875 243.40625 183.773438 243.4375 183.984375 243.472656 C 184.292969 243.503906 184.613281 243.554688 184.929688 243.597656 C 185.175781 243.628906 185.421875 243.671875 185.675781 243.703125 C 185.890625 243.738281 186.101562 243.769531 186.3125 243.8125 C 186.675781 243.863281 187.027344 243.929688 187.390625 243.980469 C 188.941406 244.246094 190.484375 244.546875 192.007812 244.886719 L 193.027344 245.109375 C 193.21875 245.164062 193.421875 245.203125 193.613281 245.257812 C 193.972656 245.34375 194.347656 245.429688 194.699219 245.523438 C 194.761719 245.535156 194.816406 245.546875 194.855469 245.554688 C 195.316406 245.671875 195.773438 245.789062 196.21875 245.917969 C 196.707031 246.035156 197.1875 246.171875 197.65625 246.3125 C 198.199219 246.460938 198.730469 246.621094 199.273438 246.78125 C 199.6875 246.90625 200.101562 247.035156 200.515625 247.171875 C 200.78125 247.257812 201.058594 247.34375 201.316406 247.429688 C 201.75 247.566406 202.1875 247.714844 202.613281 247.863281 C 203.144531 248.046875 203.664062 248.226562 204.1875 248.417969 C 204.230469 248.4375 204.261719 248.449219 204.292969 248.460938 C 204.835938 248.652344 205.367188 248.855469 205.898438 249.054688 C 206.292969 249.214844 206.699219 249.363281 207.101562 249.535156 C 208.15625 249.949219 209.1875 250.386719 210.207031 250.832031 L 211.550781 251.4375 C 211.953125 251.621094 212.359375 251.8125 212.761719 252.003906 C 213.132812 252.183594 213.496094 252.355469 213.859375 252.535156 C 214.199219 252.695312 214.527344 252.863281 214.859375 253.035156 C 215.070312 253.140625 215.292969 253.246094 215.507812 253.363281 C 216.390625 253.8125 217.25 254.28125 218.101562 254.746094 C 218.410156 254.917969 218.730469 255.097656 219.027344 255.269531 C 219.230469 255.386719 219.421875 255.492188 219.613281 255.597656 L 220.335938 256.023438 L 221.070312 256.472656 L 221.550781 256.757812 C 222.007812 257.023438 222.453125 257.300781 222.902344 257.589844 C 223.390625 257.898438 223.867188 258.207031 224.347656 258.523438 " fill-opacity="1" fill-rule="nonzero"/><path fill="#1495ff" d="M 194.65625 215.84375 L 194.65625 262.578125 C 194.65625 274.398438 184.984375 284.078125 173.164062 284.078125 L 168.632812 284.078125 C 156.8125 284.078125 147.152344 274.398438 147.152344 262.578125 L 147.152344 215.84375 C 147.152344 204.023438 156.8125 194.363281 168.632812 194.363281 L 173.164062 194.363281 C 184.984375 194.363281 194.65625 204.023438 194.65625 215.84375 " fill-opacity="1" fill-rule="nonzero"/><path fill="#5e17eb" d="M 194.65625 215.84375 L 194.65625 240.578125 C 187.589844 244.503906 180.101562 246.78125 172.496094 246.78125 C 163.527344 246.78125 154.972656 244.289062 147.152344 239.9375 L 147.152344 215.84375 C 147.152344 204.023438 156.8125 194.363281 168.632812 194.363281 L 173.164062 194.363281 C 184.984375 194.363281 194.65625 204.023438 194.65625 215.84375 " fill-opacity="1" fill-rule="nonzero"/><path fill="#1495ff" d="M 228.828125 197.820312 C 228.828125 197.820312 239.953125 194.03125 247.0625 181.628906 C 254.796875 168.160156 249.945312 159.765625 248.410156 157.945312 C 244.21875 152.976562 237.773438 156.171875 236.710938 157.945312 C 235.644531 159.722656 220.230469 187.703125 228.828125 197.820312 " fill-opacity="1" fill-rule="nonzero"/><path fill="#5e17eb" d="M 239.742188 162.363281 C 239.742188 162.363281 246.796875 163.265625 244.316406 173.191406 C 241.828125 183.128906 235.304688 187.054688 226.441406 192.128906 C 217.570312 197.203125 230.867188 164.382812 239.742188 162.363281 " fill-opacity="1" fill-rule="nonzero"/><path fill="#1495ff" d="M 115.863281 197.820312 C 115.863281 197.820312 104.738281 194.03125 97.628906 181.628906 C 89.90625 168.160156 94.746094 159.765625 96.289062 157.945312 C 100.472656 152.976562 106.929688 156.171875 107.992188 157.945312 C 109.054688 159.722656 124.460938 187.703125 115.863281 197.820312 " fill-opacity="1" fill-rule="nonzero"/><path fill="#5e17eb" d="M 104.949219 162.363281 C 104.949219 162.363281 97.894531 163.265625 100.375 173.191406 C 102.863281 183.128906 109.386719 187.054688 118.25 192.128906 C 127.121094 197.203125 113.824219 164.382812 104.949219 162.363281 " fill-opacity="1" fill-rule="nonzero"/><path fill="#1495ff" d="M 239.742188 155.808594 C 239.742188 115.03125 209.632812 81.964844 172.496094 81.964844 C 135.367188 81.964844 105.257812 115.03125 105.257812 155.808594 C 105.257812 196.585938 135.367188 239.214844 172.496094 239.214844 C 207.390625 239.214844 239.742188 196.246094 239.742188 155.808594 " fill-opacity="1" fill-rule="nonzero"/><path fill="#ffed71" d="M 178.546875 126.03125 C 178.546875 126.03125 191.199219 166.722656 238.773438 162.691406 C 238.773438 162.691406 247.082031 150.679688 244.273438 124.5625 C 241.101562 95.125 215.027344 70.359375 172.496094 79.21875 C 172.496094 79.21875 168.613281 100.148438 178.546875 126.03125 " fill-opacity="1" fill-rule="nonzero"/><path fill="#ffed71" d="M 180.675781 81.964844 C 180.675781 81.964844 182.441406 74.261719 176.058594 68.230469 C 169.675781 62.199219 85.160156 74.582031 105.257812 155.808594 C 105.257812 155.808594 124.949219 107.230469 177.121094 102.976562 L 180.675781 81.964844 " fill-opacity="1" fill-rule="nonzero"/><path fill="#ffed71" d="M 144.621094 98.890625 C 144.621094 98.890625 144.269531 99.230469 143.683594 99.890625 C 139.28125 104.859375 121.515625 127.796875 139.183594 156.914062 C 139.183594 156.914062 156.644531 119.796875 177.195312 112.199219 C 197.75 104.625 167.792969 92.210938 167.792969 92.210938 " fill-opacity="1" fill-rule="nonzero"/><path fill="#e87e8d" d="M 129.542969 306.863281 L 207.445312 306.863281 C 211.339844 306.863281 215.078125 308.410156 217.835938 311.167969 C 220.589844 313.921875 222.140625 317.660156 222.140625 321.558594 L 222.140625 350.949219 C 222.140625 354.847656 220.589844 358.585938 217.835938 361.339844 C 215.078125 364.097656 211.339844 365.644531 207.445312 365.644531 L 129.542969 365.644531 C 121.429688 365.644531 114.847656 359.066406 114.847656 350.949219 L 114.847656 321.558594 C 114.847656 313.441406 121.429688 306.863281 129.542969 306.863281 Z M 129.542969 306.863281 " fill-opacity="0.61" fill-rule="nonzero"/><g fill="#000000" fill-opacity="1"><g transform="translate(129.408485, 349.520161)"><g><path d="M 13.890625 0.375 C 11.597656 0.375 9.554688 -0.179688 7.765625 -1.296875 C 5.972656 -2.410156 4.570312 -3.984375 3.5625 -6.015625 C 2.550781 -8.054688 2.046875 -10.457031 2.046875 -13.21875 C 2.046875 -16 2.550781 -18.40625 3.5625 -20.4375 C 4.570312 -22.46875 5.972656 -24.039062 7.765625 -25.15625 C 9.554688 -26.28125 11.597656 -26.84375 13.890625 -26.84375 C 15.242188 -26.84375 16.519531 -26.644531 17.71875 -26.25 C 18.914062 -25.851562 19.988281 -25.273438 20.9375 -24.515625 C 21.894531 -23.765625 22.6875 -22.847656 23.3125 -21.765625 C 23.945312 -20.691406 24.382812 -19.46875 24.625 -18.09375 L 21.265625 -18.09375 C 21.078125 -19.007812 20.753906 -19.816406 20.296875 -20.515625 C 19.835938 -21.222656 19.273438 -21.816406 18.609375 -22.296875 C 17.953125 -22.785156 17.222656 -23.148438 16.421875 -23.390625 C 15.628906 -23.628906 14.785156 -23.75 13.890625 -23.75 C 12.242188 -23.75 10.769531 -23.332031 9.46875 -22.5 C 8.175781 -21.675781 7.160156 -20.476562 6.421875 -18.90625 C 5.679688 -17.34375 5.3125 -15.445312 5.3125 -13.21875 C 5.3125 -11 5.679688 -9.101562 6.421875 -7.53125 C 7.171875 -5.96875 8.191406 -4.773438 9.484375 -3.953125 C 10.785156 -3.128906 12.253906 -2.71875 13.890625 -2.71875 C 14.785156 -2.71875 15.628906 -2.84375 16.421875 -3.09375 C 17.222656 -3.34375 17.953125 -3.707031 18.609375 -4.1875 C 19.265625 -4.664062 19.820312 -5.253906 20.28125 -5.953125 C 20.75 -6.648438 21.082031 -7.457031 21.28125 -8.375 L 24.625 -8.375 C 24.40625 -7.019531 23.972656 -5.804688 23.328125 -4.734375 C 22.691406 -3.660156 21.898438 -2.738281 20.953125 -1.96875 C 20.003906 -1.207031 18.929688 -0.625 17.734375 -0.21875 C 16.535156 0.175781 15.253906 0.375 13.890625 0.375 Z M 13.890625 0.375 "/></g></g></g><g fill="#000000" fill-opacity="1"><g transform="translate(155.919885, 349.520161)"><g><path d="M 8.28125 0.421875 C 7.019531 0.421875 5.882812 0.191406 4.875 -0.265625 C 3.863281 -0.722656 3.054688 -1.398438 2.453125 -2.296875 C 1.859375 -3.203125 1.5625 -4.300781 1.5625 -5.59375 C 1.5625 -6.71875 1.78125 -7.628906 2.21875 -8.328125 C 2.664062 -9.023438 3.257812 -9.578125 4 -9.984375 C 4.75 -10.398438 5.578125 -10.707031 6.484375 -10.90625 C 7.390625 -11.113281 8.300781 -11.273438 9.21875 -11.390625 C 10.414062 -11.546875 11.378906 -11.664062 12.109375 -11.75 C 12.835938 -11.832031 13.375 -11.96875 13.71875 -12.15625 C 14.070312 -12.351562 14.25 -12.695312 14.25 -13.1875 L 14.25 -13.3125 C 14.25 -14.101562 14.09375 -14.78125 13.78125 -15.34375 C 13.46875 -15.914062 13 -16.351562 12.375 -16.65625 C 11.757812 -16.957031 11 -17.109375 10.09375 -17.109375 C 9.15625 -17.109375 8.351562 -16.960938 7.6875 -16.671875 C 7.019531 -16.378906 6.472656 -16.003906 6.046875 -15.546875 C 5.628906 -15.097656 5.335938 -14.617188 5.171875 -14.109375 L 2.09375 -14.90625 C 2.5 -16.101562 3.109375 -17.066406 3.921875 -17.796875 C 4.742188 -18.523438 5.679688 -19.054688 6.734375 -19.390625 C 7.796875 -19.734375 8.890625 -19.90625 10.015625 -19.90625 C 10.773438 -19.90625 11.582031 -19.804688 12.4375 -19.609375 C 13.289062 -19.410156 14.09375 -19.066406 14.84375 -18.578125 C 15.59375 -18.097656 16.203125 -17.410156 16.671875 -16.515625 C 17.148438 -15.617188 17.390625 -14.46875 17.390625 -13.0625 L 17.390625 0 L 14.28125 0 L 14.28125 -2.703125 L 14.109375 -2.703125 C 13.878906 -2.242188 13.519531 -1.769531 13.03125 -1.28125 C 12.550781 -0.789062 11.921875 -0.382812 11.140625 -0.0625 C 10.359375 0.257812 9.40625 0.421875 8.28125 0.421875 Z M 8.796875 -2.375 C 9.992188 -2.375 10.992188 -2.601562 11.796875 -3.0625 C 12.597656 -3.519531 13.207031 -4.113281 13.625 -4.84375 C 14.039062 -5.582031 14.25 -6.351562 14.25 -7.15625 L 14.25 -9.828125 C 14.125 -9.679688 13.851562 -9.546875 13.4375 -9.421875 C 13.03125 -9.304688 12.554688 -9.203125 12.015625 -9.109375 C 11.484375 -9.015625 10.953125 -8.9375 10.421875 -8.875 C 9.890625 -8.8125 9.441406 -8.753906 9.078125 -8.703125 C 8.316406 -8.609375 7.601562 -8.445312 6.9375 -8.21875 C 6.28125 -7.988281 5.75 -7.65625 5.34375 -7.21875 C 4.945312 -6.78125 4.75 -6.1875 4.75 -5.4375 C 4.75 -4.769531 4.921875 -4.207031 5.265625 -3.75 C 5.617188 -3.300781 6.097656 -2.957031 6.703125 -2.71875 C 7.304688 -2.488281 8.003906 -2.375 8.796875 -2.375 Z M 8.796875 -2.375 "/></g></g></g><g fill="#000000" fill-opacity="1"><g transform="translate(175.998895, 349.520161)"><g><path d="M 2.6875 0 L 2.6875 -19.609375 L 5.75 -19.609375 L 5.78125 -15.3125 L 5.484375 -15.3125 C 5.785156 -16.351562 6.226562 -17.21875 6.8125 -17.90625 C 7.394531 -18.59375 8.082031 -19.109375 8.875 -19.453125 C 9.664062 -19.796875 10.488281 -19.96875 11.34375 -19.96875 C 12.78125 -19.96875 13.960938 -19.53125 14.890625 -18.65625 C 15.816406 -17.78125 16.410156 -16.65625 16.671875 -15.28125 L 16.1875 -15.28125 C 16.4375 -16.226562 16.867188 -17.050781 17.484375 -17.75 C 18.097656 -18.457031 18.847656 -19.003906 19.734375 -19.390625 C 20.617188 -19.773438 21.585938 -19.96875 22.640625 -19.96875 C 23.785156 -19.96875 24.832031 -19.71875 25.78125 -19.21875 C 26.726562 -18.726562 27.484375 -17.976562 28.046875 -16.96875 C 28.609375 -15.957031 28.890625 -14.6875 28.890625 -13.15625 L 28.890625 0 L 25.734375 0 L 25.734375 -13.078125 C 25.734375 -14.523438 25.328125 -15.554688 24.515625 -16.171875 C 23.710938 -16.785156 22.78125 -17.09375 21.71875 -17.09375 C 20.8125 -17.09375 20.035156 -16.90625 19.390625 -16.53125 C 18.742188 -16.15625 18.242188 -15.640625 17.890625 -14.984375 C 17.535156 -14.328125 17.359375 -13.578125 17.359375 -12.734375 L 17.359375 0 L 14.21875 0 L 14.21875 -13.390625 C 14.21875 -14.503906 13.847656 -15.398438 13.109375 -16.078125 C 12.367188 -16.753906 11.4375 -17.09375 10.3125 -17.09375 C 9.53125 -17.09375 8.796875 -16.910156 8.109375 -16.546875 C 7.429688 -16.191406 6.882812 -15.65625 6.46875 -14.9375 C 6.050781 -14.21875 5.84375 -13.332031 5.84375 -12.28125 L 5.84375 0 Z M 2.6875 0 "/></g></g></g></g></g></svg>