<svg xmlns="http://www.w3.org/2000/svg" xmlns:xlink="http://www.w3.org/1999/xlink" width="500" zoomAndPan="magnify" viewBox="0 0 375 374.999991" height="500" preserveAspectRatio="xMidYMid meet" version="1.0"><defs><g/><clipPath id="c32160948b"><path d="M 93.683594 65.949219 L 281.183594 65.949219 L 281.183594 254 L 93.683594 254 Z M 93.683594 65.949219 " clip-rule="nonzero"/></clipPath></defs><g clip-path="url(#c32160948b)"><path fill="#a2fdf2" d="M 93.734375 159.769531 C 93.734375 211.574219 135.726562 253.5625 187.527344 253.5625 C 239.328125 253.5625 281.320312 211.574219 281.320312 159.769531 C 281.320312 107.96875 239.328125 65.976562 187.527344 65.976562 C 135.722656 65.976562 93.734375 107.96875 93.734375 159.769531 " fill-opacity="1" fill-rule="nonzero"/></g><path fill="#ffa51f" d="M 228.71875 135.296875 L 228.71875 225.308594 L 148.949219 225.308594 L 148.949219 139.011719 L 228.71875 135.296875 " fill-opacity="1" fill-rule="nonzero"/><path fill="#ffa51f" d="M 226.824219 152.222656 C 226.824219 152.222656 224.25 174.320312 238.585938 174.019531 C 238.585938 174.019531 232.324219 181.785156 226.648438 178.5 C 220.96875 175.214844 223.71875 155.804688 223.71875 155.804688 L 226.9375 150.730469 " fill-opacity="1" fill-rule="nonzero"/><path fill="#ffffff" d="M 242.246094 253.820312 C 237.613281 257.285156 232.628906 260.320312 227.367188 262.855469 C 226.570312 263.246094 225.761719 263.617188 224.957031 263.980469 C 213.527344 269.105469 200.863281 271.953125 187.527344 271.953125 C 174.191406 271.953125 161.53125 269.105469 150.105469 263.980469 C 149.289062 263.617188 148.484375 263.246094 147.6875 262.855469 C 142.425781 260.3125 137.445312 257.285156 132.8125 253.820312 C 133.625 235.691406 143.257812 219.851562 157.523438 210.5 C 166.140625 204.84375 176.449219 201.558594 187.527344 201.558594 C 189.21875 201.558594 190.890625 201.636719 192.535156 201.785156 C 201.710938 202.617188 210.230469 205.703125 217.53125 210.5 C 224.101562 214.804688 229.6875 220.484375 233.878906 227.125 C 238.800781 234.917969 241.804688 244.039062 242.246094 253.820312 " fill-opacity="1" fill-rule="nonzero"/><path fill="#cb6ce6" d="M 217.53125 210.5 C 216.695312 216.824219 213.90625 222.539062 209.78125 227.007812 C 204.25 232.996094 196.332031 236.753906 187.527344 236.753906 C 173.429688 236.753906 161.578125 227.109375 158.21875 214.050781 C 157.917969 212.894531 157.6875 211.707031 157.523438 210.5 C 166.140625 204.84375 176.449219 201.558594 187.527344 201.558594 C 189.21875 201.558594 190.890625 201.628906 192.539062 201.785156 C 192.824219 201.808594 193.113281 201.839844 193.394531 201.871094 C 193.574219 201.886719 193.75 201.90625 193.925781 201.929688 C 194.121094 201.945312 194.320312 201.976562 194.511719 202 C 194.628906 202.011719 194.753906 202.03125 194.875 202.046875 C 195.046875 202.066406 195.226562 202.097656 195.40625 202.121094 C 195.542969 202.136719 195.679688 202.160156 195.824219 202.179688 C 195.945312 202.199219 196.0625 202.214844 196.183594 202.238281 C 196.386719 202.269531 196.582031 202.304688 196.785156 202.335938 C 197.65625 202.484375 198.523438 202.652344 199.378906 202.84375 L 199.949219 202.96875 C 200.058594 202.996094 200.171875 203.023438 200.28125 203.050781 C 200.480469 203.097656 200.691406 203.148438 200.886719 203.199219 C 200.925781 203.207031 200.953125 203.214844 200.976562 203.21875 C 201.234375 203.285156 201.492188 203.351562 201.742188 203.421875 C 202.015625 203.488281 202.285156 203.566406 202.546875 203.644531 C 202.851562 203.726562 203.152344 203.816406 203.457031 203.90625 C 203.6875 203.976562 203.921875 204.050781 204.15625 204.125 C 204.304688 204.175781 204.460938 204.222656 204.601562 204.269531 C 204.847656 204.347656 205.09375 204.429688 205.332031 204.515625 C 205.628906 204.617188 205.921875 204.71875 206.214844 204.824219 C 206.238281 204.835938 206.257812 204.84375 206.277344 204.847656 C 206.578125 204.957031 206.878906 205.070312 207.175781 205.183594 C 207.398438 205.273438 207.625 205.355469 207.851562 205.453125 C 208.441406 205.683594 209.023438 205.929688 209.597656 206.179688 L 210.347656 206.523438 C 210.574219 206.625 210.800781 206.730469 211.027344 206.839844 C 211.238281 206.941406 211.441406 207.035156 211.644531 207.136719 C 211.835938 207.226562 212.019531 207.320312 212.207031 207.417969 C 212.324219 207.476562 212.449219 207.535156 212.570312 207.601562 C 213.066406 207.851562 213.550781 208.117188 214.027344 208.378906 C 214.199219 208.472656 214.378906 208.574219 214.546875 208.671875 C 214.660156 208.738281 214.769531 208.796875 214.875 208.855469 L 215.28125 209.09375 L 215.695312 209.347656 L 215.960938 209.507812 C 216.21875 209.65625 216.46875 209.8125 216.722656 209.972656 C 216.996094 210.148438 217.265625 210.320312 217.53125 210.5 " fill-opacity="1" fill-rule="nonzero"/><path fill="#cb6ce6" d="M 198.074219 189.285156 L 198.074219 210.03125 C 198.074219 215.28125 193.78125 219.582031 188.539062 219.582031 L 186.519531 219.582031 C 181.277344 219.582031 176.988281 215.28125 176.988281 210.03125 L 176.988281 189.285156 C 176.988281 184.035156 181.277344 179.742188 186.519531 179.742188 L 188.539062 179.742188 C 193.78125 179.742188 198.074219 184.035156 198.074219 189.285156 " fill-opacity="1" fill-rule="nonzero"/><path fill="#5e17eb" d="M 198.074219 189.285156 L 198.074219 200.261719 C 194.941406 202.007812 191.613281 203.023438 188.238281 203.023438 C 184.257812 203.023438 180.457031 201.910156 176.988281 199.980469 L 176.988281 189.285156 C 176.988281 184.035156 181.277344 179.742188 186.519531 179.742188 L 188.539062 179.742188 C 193.78125 179.742188 198.074219 184.035156 198.074219 189.285156 " fill-opacity="1" fill-rule="nonzero"/><path fill="#cb6ce6" d="M 220.046875 176.421875 C 220.046875 176.421875 226.292969 174.296875 230.285156 167.332031 C 234.621094 159.769531 231.894531 155.058594 231.035156 154.039062 C 228.6875 151.25 225.0625 153.039062 224.464844 154.039062 C 223.871094 155.035156 215.222656 170.742188 220.046875 176.421875 " fill-opacity="1" fill-rule="nonzero"/><path fill="#5e17eb" d="M 226.167969 156.515625 C 226.167969 156.515625 230.132812 157.023438 228.742188 162.597656 C 227.34375 168.175781 223.683594 170.378906 218.703125 173.226562 C 213.730469 176.074219 221.195312 157.652344 226.167969 156.515625 " fill-opacity="1" fill-rule="nonzero"/><path fill="#cb6ce6" d="M 156.632812 176.421875 C 156.632812 176.421875 150.386719 174.296875 146.398438 167.332031 C 142.054688 159.769531 144.78125 155.058594 145.640625 154.039062 C 147.988281 151.25 151.613281 153.039062 152.210938 154.039062 C 152.804688 155.035156 161.460938 170.742188 156.632812 176.421875 " fill-opacity="1" fill-rule="nonzero"/><path fill="#5e17eb" d="M 150.507812 156.515625 C 150.507812 156.515625 146.546875 157.023438 147.9375 162.597656 C 149.332031 168.175781 152.996094 170.378906 157.972656 173.226562 C 162.953125 176.074219 155.488281 157.652344 150.507812 156.515625 " fill-opacity="1" fill-rule="nonzero"/><path fill="#cb6ce6" d="M 226.167969 152.835938 C 226.167969 129.945312 209.273438 111.382812 188.425781 111.382812 C 167.582031 111.382812 150.675781 129.945312 150.675781 152.835938 C 150.675781 175.730469 167.582031 199.660156 188.425781 199.660156 C 208.011719 199.660156 226.167969 175.539062 226.167969 152.835938 " fill-opacity="1" fill-rule="nonzero"/><path fill="#ffa51f" d="M 191.824219 136.121094 C 191.824219 136.121094 198.921875 158.964844 225.632812 156.703125 C 225.632812 156.703125 230.296875 149.960938 228.71875 135.296875 C 226.9375 118.773438 212.300781 104.867188 188.425781 109.84375 C 188.425781 109.84375 186.246094 121.589844 191.824219 136.121094 " fill-opacity="1" fill-rule="nonzero"/><path fill="#ffa51f" d="M 193.015625 111.382812 C 193.015625 111.382812 194.007812 107.0625 190.425781 103.675781 C 186.84375 100.289062 139.394531 107.238281 150.675781 152.835938 C 150.675781 152.835938 161.734375 125.570312 191.023438 123.179688 L 193.015625 111.382812 " fill-opacity="1" fill-rule="nonzero"/><path fill="#a2fdf2" d="M 67.488281 73.535156 L 67.488281 58.582031 C 67.488281 54.453125 70.835938 51.105469 74.964844 51.105469 L 96.960938 51.105469 C 98.945312 51.105469 100.847656 50.316406 102.25 48.914062 C 103.652344 47.511719 104.4375 45.613281 104.4375 43.628906 L 104.4375 39.832031 C 104.4375 35.703125 107.785156 32.355469 111.914062 32.355469 L 263.078125 32.355469 C 267.207031 32.355469 270.554688 35.703125 270.554688 39.832031 L 270.554688 43.628906 C 270.554688 47.757812 273.902344 51.105469 278.03125 51.105469 L 300.015625 51.105469 C 304.144531 51.105469 307.492188 54.453125 307.492188 58.582031 L 307.492188 73.535156 C 307.492188 77.664062 304.144531 81.011719 300.015625 81.011719 L 74.964844 81.011719 C 70.835938 81.011719 67.488281 77.664062 67.488281 73.535156 Z M 67.488281 73.535156 " fill-opacity="0.61" fill-rule="nonzero"/><g fill="#000000" fill-opacity="1"><g transform="translate(111.846676, 54.059411)"><g><path d="M 0.78125 -11.96875 L 0.78125 -13.46875 L 11.015625 -13.46875 L 11.015625 -11.96875 L 6.765625 -11.96875 L 6.765625 0 L 5.0625 0 L 5.0625 -11.96875 Z M 0.78125 -11.96875 "/></g></g></g><g fill="#000000" fill-opacity="1"><g transform="translate(123.654002, 54.059411)"><g><path d="M 2.96875 -5.953125 L 2.96875 0 L 1.359375 0 L 1.359375 -13.46875 L 2.96875 -13.46875 L 2.96875 -7.5625 L 2.65625 -7.5625 C 2.957031 -8.476562 3.390625 -9.132812 3.953125 -9.53125 C 4.523438 -9.925781 5.191406 -10.125 5.953125 -10.125 C 6.628906 -10.125 7.226562 -9.984375 7.75 -9.703125 C 8.269531 -9.421875 8.675781 -9 8.96875 -8.4375 C 9.257812 -7.875 9.40625 -7.164062 9.40625 -6.3125 L 9.40625 0 L 7.78125 0 L 7.78125 -6.1875 C 7.78125 -6.96875 7.578125 -7.578125 7.171875 -8.015625 C 6.773438 -8.453125 6.222656 -8.671875 5.515625 -8.671875 C 5.035156 -8.671875 4.601562 -8.566406 4.21875 -8.359375 C 3.832031 -8.160156 3.523438 -7.859375 3.296875 -7.453125 C 3.078125 -7.046875 2.96875 -6.546875 2.96875 -5.953125 Z M 2.96875 -5.953125 "/></g></g></g><g fill="#000000" fill-opacity="1"><g transform="translate(134.421633, 54.059411)"><g><path d="M 5.546875 0.21875 C 4.578125 0.21875 3.742188 0.00390625 3.046875 -0.421875 C 2.347656 -0.859375 1.8125 -1.460938 1.4375 -2.234375 C 1.0625 -3.015625 0.875 -3.910156 0.875 -4.921875 C 0.875 -5.941406 1.054688 -6.84375 1.421875 -7.625 C 1.796875 -8.414062 2.320312 -9.03125 3 -9.46875 C 3.675781 -9.90625 4.46875 -10.125 5.375 -10.125 C 5.9375 -10.125 6.476562 -10.03125 7 -9.84375 C 7.53125 -9.65625 8.003906 -9.351562 8.421875 -8.9375 C 8.835938 -8.53125 9.164062 -8.007812 9.40625 -7.375 C 9.644531 -6.738281 9.765625 -5.976562 9.765625 -5.09375 L 9.765625 -4.46875 L 1.921875 -4.46875 L 1.921875 -5.828125 L 8.890625 -5.828125 L 8.15625 -5.328125 C 8.15625 -5.984375 8.046875 -6.566406 7.828125 -7.078125 C 7.617188 -7.585938 7.304688 -7.984375 6.890625 -8.265625 C 6.484375 -8.554688 5.976562 -8.703125 5.375 -8.703125 C 4.769531 -8.703125 4.253906 -8.554688 3.828125 -8.265625 C 3.398438 -7.972656 3.070312 -7.585938 2.84375 -7.109375 C 2.613281 -6.628906 2.5 -6.101562 2.5 -5.53125 L 2.5 -4.6875 C 2.5 -3.957031 2.625 -3.332031 2.875 -2.8125 C 3.125 -2.289062 3.476562 -1.894531 3.9375 -1.625 C 4.394531 -1.351562 4.929688 -1.21875 5.546875 -1.21875 C 5.960938 -1.21875 6.332031 -1.273438 6.65625 -1.390625 C 6.988281 -1.515625 7.269531 -1.691406 7.5 -1.921875 C 7.738281 -2.160156 7.914062 -2.453125 8.03125 -2.796875 L 9.59375 -2.453125 C 9.445312 -1.929688 9.1875 -1.46875 8.8125 -1.0625 C 8.4375 -0.664062 7.96875 -0.351562 7.40625 -0.125 C 6.851562 0.101562 6.234375 0.21875 5.546875 0.21875 Z M 5.546875 0.21875 "/></g></g></g><g fill="#000000" fill-opacity="1"><g transform="translate(145.026529, 54.059411)"><g/></g></g><g fill="#000000" fill-opacity="1"><g transform="translate(150.107477, 54.059411)"><g><path d="M 3.59375 0 L 0.546875 -9.984375 L 2.25 -9.984375 L 3.484375 -5.625 C 3.648438 -5.007812 3.828125 -4.328125 4.015625 -3.578125 C 4.203125 -2.835938 4.390625 -2.019531 4.578125 -1.125 L 4.3125 -1.125 C 4.488281 -1.988281 4.671875 -2.789062 4.859375 -3.53125 C 5.046875 -4.28125 5.222656 -4.976562 5.390625 -5.625 L 6.609375 -9.984375 L 8.296875 -9.984375 L 9.5 -5.625 C 9.664062 -5 9.835938 -4.3125 10.015625 -3.5625 C 10.203125 -2.820312 10.382812 -2.007812 10.5625 -1.125 L 10.28125 -1.125 C 10.46875 -2 10.65625 -2.804688 10.84375 -3.546875 C 11.03125 -4.296875 11.21875 -4.988281 11.40625 -5.625 L 12.625 -9.984375 L 14.328125 -9.984375 L 11.28125 0 L 9.671875 0 L 8.375 -4.515625 C 8.238281 -4.972656 8.109375 -5.4375 7.984375 -5.90625 C 7.859375 -6.382812 7.734375 -6.867188 7.609375 -7.359375 C 7.492188 -7.859375 7.375 -8.363281 7.25 -8.875 L 7.625 -8.875 C 7.507812 -8.375 7.390625 -7.875 7.265625 -7.375 C 7.140625 -6.875 7.015625 -6.382812 6.890625 -5.90625 C 6.765625 -5.4375 6.640625 -4.972656 6.515625 -4.515625 L 5.203125 0 Z M 3.59375 0 "/></g></g></g><g fill="#000000" fill-opacity="1"><g transform="translate(164.654141, 54.059411)"><g><path d="M 5.4375 0.21875 C 4.53125 0.21875 3.734375 0.00390625 3.046875 -0.421875 C 2.367188 -0.859375 1.835938 -1.460938 1.453125 -2.234375 C 1.066406 -3.015625 0.875 -3.914062 0.875 -4.9375 C 0.875 -5.96875 1.066406 -6.875 1.453125 -7.65625 C 1.835938 -8.4375 2.367188 -9.039062 3.046875 -9.46875 C 3.734375 -9.90625 4.53125 -10.125 5.4375 -10.125 C 6.351562 -10.125 7.15625 -9.90625 7.84375 -9.46875 C 8.53125 -9.039062 9.0625 -8.4375 9.4375 -7.65625 C 9.820312 -6.875 10.015625 -5.96875 10.015625 -4.9375 C 10.015625 -3.914062 9.820312 -3.015625 9.4375 -2.234375 C 9.0625 -1.460938 8.53125 -0.859375 7.84375 -0.421875 C 7.15625 0.00390625 6.351562 0.21875 5.4375 0.21875 Z M 5.4375 -1.21875 C 6.101562 -1.21875 6.65625 -1.382812 7.09375 -1.71875 C 7.53125 -2.0625 7.851562 -2.515625 8.0625 -3.078125 C 8.28125 -3.640625 8.390625 -4.257812 8.390625 -4.9375 C 8.390625 -5.613281 8.28125 -6.238281 8.0625 -6.8125 C 7.851562 -7.382812 7.53125 -7.835938 7.09375 -8.171875 C 6.65625 -8.515625 6.101562 -8.6875 5.4375 -8.6875 C 4.78125 -8.6875 4.234375 -8.515625 3.796875 -8.171875 C 3.367188 -7.835938 3.046875 -7.382812 2.828125 -6.8125 C 2.609375 -6.25 2.5 -5.625 2.5 -4.9375 C 2.5 -4.257812 2.609375 -3.640625 2.828125 -3.078125 C 3.046875 -2.515625 3.367188 -2.0625 3.796875 -1.71875 C 4.234375 -1.382812 4.78125 -1.21875 5.4375 -1.21875 Z M 5.4375 -1.21875 "/></g></g></g><g fill="#000000" fill-opacity="1"><g transform="translate(175.548344, 54.059411)"><g><path d="M 1.359375 0 L 1.359375 -9.984375 L 2.90625 -9.984375 L 2.90625 -8.4375 L 3 -8.4375 C 3.1875 -8.945312 3.507812 -9.351562 3.96875 -9.65625 C 4.425781 -9.96875 4.953125 -10.125 5.546875 -10.125 C 5.671875 -10.125 5.8125 -10.117188 5.96875 -10.109375 C 6.132812 -10.109375 6.257812 -10.101562 6.34375 -10.09375 L 6.34375 -8.484375 C 6.289062 -8.492188 6.171875 -8.507812 5.984375 -8.53125 C 5.796875 -8.5625 5.59375 -8.578125 5.375 -8.578125 C 4.914062 -8.578125 4.503906 -8.476562 4.140625 -8.28125 C 3.773438 -8.082031 3.488281 -7.804688 3.28125 -7.453125 C 3.070312 -7.109375 2.96875 -6.703125 2.96875 -6.234375 L 2.96875 0 Z M 1.359375 0 "/></g></g></g><g fill="#000000" fill-opacity="1"><g transform="translate(182.473644, 54.059411)"><g><path d="M 2.875 -3.59375 L 2.875 -5.5625 L 3.125 -5.5625 L 7.484375 -9.984375 L 9.484375 -9.984375 L 4.8125 -5.25 L 4.640625 -5.25 Z M 1.359375 0 L 1.359375 -13.46875 L 2.96875 -13.46875 L 2.96875 0 Z M 7.75 0 L 3.875 -4.890625 L 5.015625 -6.015625 L 9.796875 0 Z M 7.75 0 "/></g></g></g><g fill="#000000" fill-opacity="1"><g transform="translate(192.047839, 54.059411)"><g><path d="M 5.546875 0.21875 C 4.578125 0.21875 3.742188 0.00390625 3.046875 -0.421875 C 2.347656 -0.859375 1.8125 -1.460938 1.4375 -2.234375 C 1.0625 -3.015625 0.875 -3.910156 0.875 -4.921875 C 0.875 -5.941406 1.054688 -6.84375 1.421875 -7.625 C 1.796875 -8.414062 2.320312 -9.03125 3 -9.46875 C 3.675781 -9.90625 4.46875 -10.125 5.375 -10.125 C 5.9375 -10.125 6.476562 -10.03125 7 -9.84375 C 7.53125 -9.65625 8.003906 -9.351562 8.421875 -8.9375 C 8.835938 -8.53125 9.164062 -8.007812 9.40625 -7.375 C 9.644531 -6.738281 9.765625 -5.976562 9.765625 -5.09375 L 9.765625 -4.46875 L 1.921875 -4.46875 L 1.921875 -5.828125 L 8.890625 -5.828125 L 8.15625 -5.328125 C 8.15625 -5.984375 8.046875 -6.566406 7.828125 -7.078125 C 7.617188 -7.585938 7.304688 -7.984375 6.890625 -8.265625 C 6.484375 -8.554688 5.976562 -8.703125 5.375 -8.703125 C 4.769531 -8.703125 4.253906 -8.554688 3.828125 -8.265625 C 3.398438 -7.972656 3.070312 -7.585938 2.84375 -7.109375 C 2.613281 -6.628906 2.5 -6.101562 2.5 -5.53125 L 2.5 -4.6875 C 2.5 -3.957031 2.625 -3.332031 2.875 -2.8125 C 3.125 -2.289062 3.476562 -1.894531 3.9375 -1.625 C 4.394531 -1.351562 4.929688 -1.21875 5.546875 -1.21875 C 5.960938 -1.21875 6.332031 -1.273438 6.65625 -1.390625 C 6.988281 -1.515625 7.269531 -1.691406 7.5 -1.921875 C 7.738281 -2.160156 7.914062 -2.453125 8.03125 -2.796875 L 9.59375 -2.453125 C 9.445312 -1.929688 9.1875 -1.46875 8.8125 -1.0625 C 8.4375 -0.664062 7.96875 -0.351562 7.40625 -0.125 C 6.851562 0.101562 6.234375 0.21875 5.546875 0.21875 Z M 5.546875 0.21875 "/></g></g></g><g fill="#000000" fill-opacity="1"><g transform="translate(202.652735, 54.059411)"><g><path d="M 1.359375 0 L 1.359375 -9.984375 L 2.90625 -9.984375 L 2.90625 -8.4375 L 3 -8.4375 C 3.1875 -8.945312 3.507812 -9.351562 3.96875 -9.65625 C 4.425781 -9.96875 4.953125 -10.125 5.546875 -10.125 C 5.671875 -10.125 5.8125 -10.117188 5.96875 -10.109375 C 6.132812 -10.109375 6.257812 -10.101562 6.34375 -10.09375 L 6.34375 -8.484375 C 6.289062 -8.492188 6.171875 -8.507812 5.984375 -8.53125 C 5.796875 -8.5625 5.59375 -8.578125 5.375 -8.578125 C 4.914062 -8.578125 4.503906 -8.476562 4.140625 -8.28125 C 3.773438 -8.082031 3.488281 -7.804688 3.28125 -7.453125 C 3.070312 -7.109375 2.96875 -6.703125 2.96875 -6.234375 L 2.96875 0 Z M 1.359375 0 "/></g></g></g><g fill="#000000" fill-opacity="1"><g transform="translate(209.397195, 54.059411)"><g/></g></g><g fill="#000000" fill-opacity="1"><g transform="translate(214.478143, 54.059411)"><g><path d="M 4.21875 0.21875 C 3.570312 0.21875 2.988281 0.101562 2.46875 -0.125 C 1.957031 -0.363281 1.550781 -0.710938 1.25 -1.171875 C 0.945312 -1.628906 0.796875 -2.1875 0.796875 -2.84375 C 0.796875 -3.414062 0.90625 -3.878906 1.125 -4.234375 C 1.351562 -4.597656 1.65625 -4.878906 2.03125 -5.078125 C 2.414062 -5.285156 2.835938 -5.441406 3.296875 -5.546875 C 3.753906 -5.648438 4.21875 -5.734375 4.6875 -5.796875 C 5.300781 -5.867188 5.789062 -5.925781 6.15625 -5.96875 C 6.53125 -6.019531 6.804688 -6.09375 6.984375 -6.1875 C 7.160156 -6.289062 7.25 -6.460938 7.25 -6.703125 L 7.25 -6.765625 C 7.25 -7.171875 7.164062 -7.519531 7 -7.8125 C 6.84375 -8.101562 6.609375 -8.320312 6.296875 -8.46875 C 5.984375 -8.625 5.597656 -8.703125 5.140625 -8.703125 C 4.660156 -8.703125 4.25 -8.628906 3.90625 -8.484375 C 3.570312 -8.335938 3.296875 -8.144531 3.078125 -7.90625 C 2.859375 -7.675781 2.707031 -7.429688 2.625 -7.171875 L 1.0625 -7.578125 C 1.269531 -8.191406 1.582031 -8.679688 2 -9.046875 C 2.414062 -9.421875 2.890625 -9.691406 3.421875 -9.859375 C 3.960938 -10.035156 4.519531 -10.125 5.09375 -10.125 C 5.476562 -10.125 5.890625 -10.070312 6.328125 -9.96875 C 6.765625 -9.875 7.171875 -9.703125 7.546875 -9.453125 C 7.929688 -9.210938 8.242188 -8.863281 8.484375 -8.40625 C 8.722656 -7.945312 8.84375 -7.359375 8.84375 -6.640625 L 8.84375 0 L 7.265625 0 L 7.265625 -1.375 L 7.171875 -1.375 C 7.054688 -1.132812 6.875 -0.890625 6.625 -0.640625 C 6.382812 -0.398438 6.066406 -0.195312 5.671875 -0.03125 C 5.273438 0.132812 4.789062 0.21875 4.21875 0.21875 Z M 4.46875 -1.21875 C 5.082031 -1.21875 5.59375 -1.332031 6 -1.5625 C 6.414062 -1.789062 6.726562 -2.09375 6.9375 -2.46875 C 7.144531 -2.84375 7.25 -3.234375 7.25 -3.640625 L 7.25 -5 C 7.1875 -4.925781 7.050781 -4.859375 6.84375 -4.796875 C 6.632812 -4.734375 6.390625 -4.675781 6.109375 -4.625 C 5.835938 -4.582031 5.566406 -4.546875 5.296875 -4.515625 C 5.035156 -4.484375 4.8125 -4.457031 4.625 -4.4375 C 4.238281 -4.382812 3.875 -4.296875 3.53125 -4.171875 C 3.195312 -4.054688 2.925781 -3.890625 2.71875 -3.671875 C 2.507812 -3.453125 2.40625 -3.148438 2.40625 -2.765625 C 2.40625 -2.429688 2.492188 -2.144531 2.671875 -1.90625 C 2.859375 -1.675781 3.101562 -1.503906 3.40625 -1.390625 C 3.71875 -1.273438 4.070312 -1.21875 4.46875 -1.21875 Z M 4.46875 -1.21875 "/></g></g></g><g fill="#000000" fill-opacity="1"><g transform="translate(224.694283, 54.059411)"><g><path d="M 5.390625 -9.984375 L 5.390625 -8.609375 L 0.171875 -8.609375 L 0.171875 -9.984375 Z M 1.734375 -12.4375 L 3.34375 -12.4375 L 3.34375 -2.546875 C 3.34375 -2.117188 3.429688 -1.804688 3.609375 -1.609375 C 3.785156 -1.410156 4.082031 -1.3125 4.5 -1.3125 C 4.613281 -1.3125 4.75 -1.320312 4.90625 -1.34375 C 5.0625 -1.363281 5.207031 -1.382812 5.34375 -1.40625 L 5.609375 -0.046875 C 5.441406 0.00390625 5.253906 0.0390625 5.046875 0.0625 C 4.835938 0.0820312 4.632812 0.09375 4.4375 0.09375 C 3.570312 0.09375 2.90625 -0.125 2.4375 -0.5625 C 1.96875 -1 1.734375 -1.617188 1.734375 -2.421875 Z M 1.734375 -12.4375 "/></g></g></g><g fill="#000000" fill-opacity="1"><g transform="translate(230.688355, 54.059411)"><g/></g></g><g fill="#000000" fill-opacity="1"><g transform="translate(235.769302, 54.059411)"><g><path d="M 5.390625 -9.984375 L 5.390625 -8.609375 L 0.171875 -8.609375 L 0.171875 -9.984375 Z M 1.734375 -12.4375 L 3.34375 -12.4375 L 3.34375 -2.546875 C 3.34375 -2.117188 3.429688 -1.804688 3.609375 -1.609375 C 3.785156 -1.410156 4.082031 -1.3125 4.5 -1.3125 C 4.613281 -1.3125 4.75 -1.320312 4.90625 -1.34375 C 5.0625 -1.363281 5.207031 -1.382812 5.34375 -1.40625 L 5.609375 -0.046875 C 5.441406 0.00390625 5.253906 0.0390625 5.046875 0.0625 C 4.835938 0.0820312 4.632812 0.09375 4.4375 0.09375 C 3.570312 0.09375 2.90625 -0.125 2.4375 -0.5625 C 1.96875 -1 1.734375 -1.617188 1.734375 -2.421875 Z M 1.734375 -12.4375 "/></g></g></g><g fill="#000000" fill-opacity="1"><g transform="translate(241.763374, 54.059411)"><g><path d="M 2.96875 -5.953125 L 2.96875 0 L 1.359375 0 L 1.359375 -13.46875 L 2.96875 -13.46875 L 2.96875 -7.5625 L 2.65625 -7.5625 C 2.957031 -8.476562 3.390625 -9.132812 3.953125 -9.53125 C 4.523438 -9.925781 5.191406 -10.125 5.953125 -10.125 C 6.628906 -10.125 7.226562 -9.984375 7.75 -9.703125 C 8.269531 -9.421875 8.675781 -9 8.96875 -8.4375 C 9.257812 -7.875 9.40625 -7.164062 9.40625 -6.3125 L 9.40625 0 L 7.78125 0 L 7.78125 -6.1875 C 7.78125 -6.96875 7.578125 -7.578125 7.171875 -8.015625 C 6.773438 -8.453125 6.222656 -8.671875 5.515625 -8.671875 C 5.035156 -8.671875 4.601562 -8.566406 4.21875 -8.359375 C 3.832031 -8.160156 3.523438 -7.859375 3.296875 -7.453125 C 3.078125 -7.046875 2.96875 -6.546875 2.96875 -5.953125 Z M 2.96875 -5.953125 "/></g></g></g><g fill="#000000" fill-opacity="1"><g transform="translate(252.531004, 54.059411)"><g><path d="M 5.546875 0.21875 C 4.578125 0.21875 3.742188 0.00390625 3.046875 -0.421875 C 2.347656 -0.859375 1.8125 -1.460938 1.4375 -2.234375 C 1.0625 -3.015625 0.875 -3.910156 0.875 -4.921875 C 0.875 -5.941406 1.054688 -6.84375 1.421875 -7.625 C 1.796875 -8.414062 2.320312 -9.03125 3 -9.46875 C 3.675781 -9.90625 4.46875 -10.125 5.375 -10.125 C 5.9375 -10.125 6.476562 -10.03125 7 -9.84375 C 7.53125 -9.65625 8.003906 -9.351562 8.421875 -8.9375 C 8.835938 -8.53125 9.164062 -8.007812 9.40625 -7.375 C 9.644531 -6.738281 9.765625 -5.976562 9.765625 -5.09375 L 9.765625 -4.46875 L 1.921875 -4.46875 L 1.921875 -5.828125 L 8.890625 -5.828125 L 8.15625 -5.328125 C 8.15625 -5.984375 8.046875 -6.566406 7.828125 -7.078125 C 7.617188 -7.585938 7.304688 -7.984375 6.890625 -8.265625 C 6.484375 -8.554688 5.976562 -8.703125 5.375 -8.703125 C 4.769531 -8.703125 4.253906 -8.554688 3.828125 -8.265625 C 3.398438 -7.972656 3.070312 -7.585938 2.84375 -7.109375 C 2.613281 -6.628906 2.5 -6.101562 2.5 -5.53125 L 2.5 -4.6875 C 2.5 -3.957031 2.625 -3.332031 2.875 -2.8125 C 3.125 -2.289062 3.476562 -1.894531 3.9375 -1.625 C 4.394531 -1.351562 4.929688 -1.21875 5.546875 -1.21875 C 5.960938 -1.21875 6.332031 -1.273438 6.65625 -1.390625 C 6.988281 -1.515625 7.269531 -1.691406 7.5 -1.921875 C 7.738281 -2.160156 7.914062 -2.453125 8.03125 -2.796875 L 9.59375 -2.453125 C 9.445312 -1.929688 9.1875 -1.46875 8.8125 -1.0625 C 8.4375 -0.664062 7.96875 -0.351562 7.40625 -0.125 C 6.851562 0.101562 6.234375 0.21875 5.546875 0.21875 Z M 5.546875 0.21875 "/></g></g></g><g fill="#000000" fill-opacity="1"><g transform="translate(74.89746, 72.809409)"><g><path d="M 5.546875 0.21875 C 4.578125 0.21875 3.742188 0.00390625 3.046875 -0.421875 C 2.347656 -0.859375 1.8125 -1.460938 1.4375 -2.234375 C 1.0625 -3.015625 0.875 -3.910156 0.875 -4.921875 C 0.875 -5.941406 1.054688 -6.84375 1.421875 -7.625 C 1.796875 -8.414062 2.320312 -9.03125 3 -9.46875 C 3.675781 -9.90625 4.46875 -10.125 5.375 -10.125 C 5.9375 -10.125 6.476562 -10.03125 7 -9.84375 C 7.53125 -9.65625 8.003906 -9.351562 8.421875 -8.9375 C 8.835938 -8.53125 9.164062 -8.007812 9.40625 -7.375 C 9.644531 -6.738281 9.765625 -5.976562 9.765625 -5.09375 L 9.765625 -4.46875 L 1.921875 -4.46875 L 1.921875 -5.828125 L 8.890625 -5.828125 L 8.15625 -5.328125 C 8.15625 -5.984375 8.046875 -6.566406 7.828125 -7.078125 C 7.617188 -7.585938 7.304688 -7.984375 6.890625 -8.265625 C 6.484375 -8.554688 5.976562 -8.703125 5.375 -8.703125 C 4.769531 -8.703125 4.253906 -8.554688 3.828125 -8.265625 C 3.398438 -7.972656 3.070312 -7.585938 2.84375 -7.109375 C 2.613281 -6.628906 2.5 -6.101562 2.5 -5.53125 L 2.5 -4.6875 C 2.5 -3.957031 2.625 -3.332031 2.875 -2.8125 C 3.125 -2.289062 3.476562 -1.894531 3.9375 -1.625 C 4.394531 -1.351562 4.929688 -1.21875 5.546875 -1.21875 C 5.960938 -1.21875 6.332031 -1.273438 6.65625 -1.390625 C 6.988281 -1.515625 7.269531 -1.691406 7.5 -1.921875 C 7.738281 -2.160156 7.914062 -2.453125 8.03125 -2.796875 L 9.59375 -2.453125 C 9.445312 -1.929688 9.1875 -1.46875 8.8125 -1.0625 C 8.4375 -0.664062 7.96875 -0.351562 7.40625 -0.125 C 6.851562 0.101562 6.234375 0.21875 5.546875 0.21875 Z M 5.546875 0.21875 "/></g></g></g><g fill="#000000" fill-opacity="1"><g transform="translate(85.059309, 72.809409)"><g><path d="M 0.515625 0 L 4.5 -5.734375 L 4.5 -4.5 L 0.71875 -9.984375 L 2.609375 -9.984375 L 3.875 -8.03125 C 4.175781 -7.5625 4.445312 -7.113281 4.6875 -6.6875 C 4.925781 -6.257812 5.175781 -5.84375 5.4375 -5.4375 L 4.609375 -5.4375 C 4.859375 -5.84375 5.09375 -6.257812 5.3125 -6.6875 C 5.539062 -7.113281 5.8125 -7.5625 6.125 -8.03125 L 7.421875 -9.984375 L 9.265625 -9.984375 L 5.484375 -4.453125 L 5.484375 -5.640625 L 9.421875 0 L 7.5625 0 L 6.0625 -2.25 C 5.757812 -2.71875 5.488281 -3.15625 5.25 -3.5625 C 5.019531 -3.96875 4.78125 -4.363281 4.53125 -4.75 L 5.375 -4.75 C 5.132812 -4.363281 4.898438 -3.96875 4.671875 -3.5625 C 4.453125 -3.15625 4.191406 -2.71875 3.890625 -2.25 L 2.375 0 Z M 0.515625 0 "/></g></g></g><g fill="#000000" fill-opacity="1"><g transform="translate(95.004224, 72.809409)"><g><path d="M 1.359375 3.78125 L 1.359375 -9.984375 L 2.921875 -9.984375 L 2.921875 -8.40625 L 3.0625 -8.40625 C 3.195312 -8.632812 3.378906 -8.878906 3.609375 -9.140625 C 3.835938 -9.398438 4.144531 -9.628906 4.53125 -9.828125 C 4.914062 -10.023438 5.410156 -10.125 6.015625 -10.125 C 6.859375 -10.125 7.597656 -9.910156 8.234375 -9.484375 C 8.867188 -9.066406 9.363281 -8.472656 9.71875 -7.703125 C 10.082031 -6.929688 10.265625 -6.019531 10.265625 -4.96875 C 10.265625 -3.914062 10.082031 -3 9.71875 -2.21875 C 9.363281 -1.445312 8.867188 -0.847656 8.234375 -0.421875 C 7.597656 -0.00390625 6.859375 0.203125 6.015625 0.203125 C 5.429688 0.203125 4.945312 0.109375 4.5625 -0.078125 C 4.175781 -0.273438 3.863281 -0.507812 3.625 -0.78125 C 3.394531 -1.050781 3.210938 -1.300781 3.078125 -1.53125 L 2.96875 -1.53125 L 2.96875 3.78125 Z M 5.78125 -1.234375 C 6.394531 -1.234375 6.910156 -1.394531 7.328125 -1.71875 C 7.753906 -2.039062 8.078125 -2.484375 8.296875 -3.046875 C 8.523438 -3.617188 8.640625 -4.265625 8.640625 -4.984375 C 8.640625 -5.703125 8.53125 -6.335938 8.3125 -6.890625 C 8.09375 -7.453125 7.769531 -7.890625 7.34375 -8.203125 C 6.914062 -8.523438 6.394531 -8.6875 5.78125 -8.6875 C 5.164062 -8.6875 4.644531 -8.53125 4.21875 -8.21875 C 3.800781 -7.90625 3.476562 -7.472656 3.25 -6.921875 C 3.03125 -6.367188 2.921875 -5.722656 2.921875 -4.984375 C 2.921875 -4.242188 3.03125 -3.585938 3.25 -3.015625 C 3.476562 -2.453125 3.804688 -2.015625 4.234375 -1.703125 C 4.660156 -1.390625 5.175781 -1.234375 5.78125 -1.234375 Z M 5.78125 -1.234375 "/></g></g></g><g fill="#000000" fill-opacity="1"><g transform="translate(106.314316, 72.809409)"><g><path d="M 4.21875 0.21875 C 3.570312 0.21875 2.988281 0.101562 2.46875 -0.125 C 1.957031 -0.363281 1.550781 -0.710938 1.25 -1.171875 C 0.945312 -1.628906 0.796875 -2.1875 0.796875 -2.84375 C 0.796875 -3.414062 0.90625 -3.878906 1.125 -4.234375 C 1.351562 -4.597656 1.65625 -4.878906 2.03125 -5.078125 C 2.414062 -5.285156 2.835938 -5.441406 3.296875 -5.546875 C 3.753906 -5.648438 4.21875 -5.734375 4.6875 -5.796875 C 5.300781 -5.867188 5.789062 -5.925781 6.15625 -5.96875 C 6.53125 -6.019531 6.804688 -6.09375 6.984375 -6.1875 C 7.160156 -6.289062 7.25 -6.460938 7.25 -6.703125 L 7.25 -6.765625 C 7.25 -7.171875 7.164062 -7.519531 7 -7.8125 C 6.84375 -8.101562 6.609375 -8.320312 6.296875 -8.46875 C 5.984375 -8.625 5.597656 -8.703125 5.140625 -8.703125 C 4.660156 -8.703125 4.25 -8.628906 3.90625 -8.484375 C 3.570312 -8.335938 3.296875 -8.144531 3.078125 -7.90625 C 2.859375 -7.675781 2.707031 -7.429688 2.625 -7.171875 L 1.0625 -7.578125 C 1.269531 -8.191406 1.582031 -8.679688 2 -9.046875 C 2.414062 -9.421875 2.890625 -9.691406 3.421875 -9.859375 C 3.960938 -10.035156 4.519531 -10.125 5.09375 -10.125 C 5.476562 -10.125 5.890625 -10.070312 6.328125 -9.96875 C 6.765625 -9.875 7.171875 -9.703125 7.546875 -9.453125 C 7.929688 -9.210938 8.242188 -8.863281 8.484375 -8.40625 C 8.722656 -7.945312 8.84375 -7.359375 8.84375 -6.640625 L 8.84375 0 L 7.265625 0 L 7.265625 -1.375 L 7.171875 -1.375 C 7.054688 -1.132812 6.875 -0.890625 6.625 -0.640625 C 6.382812 -0.398438 6.066406 -0.195312 5.671875 -0.03125 C 5.273438 0.132812 4.789062 0.21875 4.21875 0.21875 Z M 4.46875 -1.21875 C 5.082031 -1.21875 5.59375 -1.332031 6 -1.5625 C 6.414062 -1.789062 6.726562 -2.09375 6.9375 -2.46875 C 7.144531 -2.84375 7.25 -3.234375 7.25 -3.640625 L 7.25 -5 C 7.1875 -4.925781 7.050781 -4.859375 6.84375 -4.796875 C 6.632812 -4.734375 6.390625 -4.675781 6.109375 -4.625 C 5.835938 -4.582031 5.566406 -4.546875 5.296875 -4.515625 C 5.035156 -4.484375 4.8125 -4.457031 4.625 -4.4375 C 4.238281 -4.382812 3.875 -4.296875 3.53125 -4.171875 C 3.195312 -4.054688 2.925781 -3.890625 2.71875 -3.671875 C 2.507812 -3.453125 2.40625 -3.148438 2.40625 -2.765625 C 2.40625 -2.429688 2.492188 -2.144531 2.671875 -1.90625 C 2.859375 -1.675781 3.101562 -1.503906 3.40625 -1.390625 C 3.71875 -1.273438 4.070312 -1.21875 4.46875 -1.21875 Z M 4.46875 -1.21875 "/></g></g></g><g fill="#000000" fill-opacity="1"><g transform="translate(116.530456, 72.809409)"><g><path d="M 5.390625 -9.984375 L 5.390625 -8.609375 L 0.171875 -8.609375 L 0.171875 -9.984375 Z M 1.734375 -12.4375 L 3.34375 -12.4375 L 3.34375 -2.546875 C 3.34375 -2.117188 3.429688 -1.804688 3.609375 -1.609375 C 3.785156 -1.410156 4.082031 -1.3125 4.5 -1.3125 C 4.613281 -1.3125 4.75 -1.320312 4.90625 -1.34375 C 5.0625 -1.363281 5.207031 -1.382812 5.34375 -1.40625 L 5.609375 -0.046875 C 5.441406 0.00390625 5.253906 0.0390625 5.046875 0.0625 C 4.835938 0.0820312 4.632812 0.09375 4.4375 0.09375 C 3.570312 0.09375 2.90625 -0.125 2.4375 -0.5625 C 1.96875 -1 1.734375 -1.617188 1.734375 -2.421875 Z M 1.734375 -12.4375 "/></g></g></g><g fill="#000000" fill-opacity="1"><g transform="translate(122.524528, 72.809409)"><g/></g></g><g fill="#000000" fill-opacity="1"><g transform="translate(127.605475, 72.809409)"><g><path d="M 5.4375 0.21875 C 4.53125 0.21875 3.734375 0.00390625 3.046875 -0.421875 C 2.367188 -0.859375 1.835938 -1.460938 1.453125 -2.234375 C 1.066406 -3.015625 0.875 -3.914062 0.875 -4.9375 C 0.875 -5.96875 1.066406 -6.875 1.453125 -7.65625 C 1.835938 -8.4375 2.367188 -9.039062 3.046875 -9.46875 C 3.734375 -9.90625 4.53125 -10.125 5.4375 -10.125 C 5.9375 -10.125 6.40625 -10.054688 6.84375 -9.921875 C 7.289062 -9.796875 7.691406 -9.601562 8.046875 -9.34375 C 8.398438 -9.09375 8.703125 -8.785156 8.953125 -8.421875 C 9.210938 -8.066406 9.398438 -7.664062 9.515625 -7.21875 L 7.953125 -6.875 C 7.890625 -7.132812 7.78125 -7.375 7.625 -7.59375 C 7.476562 -7.8125 7.300781 -8.003906 7.09375 -8.171875 C 6.882812 -8.335938 6.640625 -8.460938 6.359375 -8.546875 C 6.085938 -8.640625 5.78125 -8.6875 5.4375 -8.6875 C 4.78125 -8.6875 4.234375 -8.515625 3.796875 -8.171875 C 3.367188 -7.835938 3.046875 -7.382812 2.828125 -6.8125 C 2.609375 -6.25 2.5 -5.625 2.5 -4.9375 C 2.5 -4.257812 2.609375 -3.640625 2.828125 -3.078125 C 3.046875 -2.515625 3.367188 -2.0625 3.796875 -1.71875 C 4.234375 -1.382812 4.78125 -1.21875 5.4375 -1.21875 C 5.78125 -1.21875 6.09375 -1.257812 6.375 -1.34375 C 6.65625 -1.4375 6.898438 -1.566406 7.109375 -1.734375 C 7.328125 -1.910156 7.507812 -2.113281 7.65625 -2.34375 C 7.800781 -2.570312 7.910156 -2.820312 7.984375 -3.09375 L 9.546875 -2.75 C 9.421875 -2.300781 9.234375 -1.894531 8.984375 -1.53125 C 8.734375 -1.164062 8.425781 -0.851562 8.0625 -0.59375 C 7.707031 -0.332031 7.304688 -0.132812 6.859375 0 C 6.410156 0.144531 5.9375 0.21875 5.4375 0.21875 Z M 5.4375 0.21875 "/></g></g></g><g fill="#000000" fill-opacity="1"><g transform="translate(137.98435, 72.809409)"><g><path d="M 5.546875 0.21875 C 4.578125 0.21875 3.742188 0.00390625 3.046875 -0.421875 C 2.347656 -0.859375 1.8125 -1.460938 1.4375 -2.234375 C 1.0625 -3.015625 0.875 -3.910156 0.875 -4.921875 C 0.875 -5.941406 1.054688 -6.84375 1.421875 -7.625 C 1.796875 -8.414062 2.320312 -9.03125 3 -9.46875 C 3.675781 -9.90625 4.46875 -10.125 5.375 -10.125 C 5.9375 -10.125 6.476562 -10.03125 7 -9.84375 C 7.53125 -9.65625 8.003906 -9.351562 8.421875 -8.9375 C 8.835938 -8.53125 9.164062 -8.007812 9.40625 -7.375 C 9.644531 -6.738281 9.765625 -5.976562 9.765625 -5.09375 L 9.765625 -4.46875 L 1.921875 -4.46875 L 1.921875 -5.828125 L 8.890625 -5.828125 L 8.15625 -5.328125 C 8.15625 -5.984375 8.046875 -6.566406 7.828125 -7.078125 C 7.617188 -7.585938 7.304688 -7.984375 6.890625 -8.265625 C 6.484375 -8.554688 5.976562 -8.703125 5.375 -8.703125 C 4.769531 -8.703125 4.253906 -8.554688 3.828125 -8.265625 C 3.398438 -7.972656 3.070312 -7.585938 2.84375 -7.109375 C 2.613281 -6.628906 2.5 -6.101562 2.5 -5.53125 L 2.5 -4.6875 C 2.5 -3.957031 2.625 -3.332031 2.875 -2.8125 C 3.125 -2.289062 3.476562 -1.894531 3.9375 -1.625 C 4.394531 -1.351562 4.929688 -1.21875 5.546875 -1.21875 C 5.960938 -1.21875 6.332031 -1.273438 6.65625 -1.390625 C 6.988281 -1.515625 7.269531 -1.691406 7.5 -1.921875 C 7.738281 -2.160156 7.914062 -2.453125 8.03125 -2.796875 L 9.59375 -2.453125 C 9.445312 -1.929688 9.1875 -1.46875 8.8125 -1.0625 C 8.4375 -0.664062 7.96875 -0.351562 7.40625 -0.125 C 6.851562 0.101562 6.234375 0.21875 5.546875 0.21875 Z M 5.546875 0.21875 "/></g></g></g><g fill="#000000" fill-opacity="1"><g transform="translate(148.589246, 72.809409)"><g><path d="M 2.96875 -5.953125 L 2.96875 0 L 1.359375 0 L 1.359375 -9.984375 L 2.90625 -9.984375 L 2.921875 -7.5625 L 2.65625 -7.5625 C 2.957031 -8.476562 3.390625 -9.132812 3.953125 -9.53125 C 4.523438 -9.925781 5.191406 -10.125 5.953125 -10.125 C 6.628906 -10.125 7.222656 -9.984375 7.734375 -9.703125 C 8.253906 -9.421875 8.660156 -9 8.953125 -8.4375 C 9.242188 -7.875 9.390625 -7.164062 9.390625 -6.3125 L 9.390625 0 L 7.78125 0 L 7.78125 -6.1875 C 7.78125 -6.96875 7.578125 -7.578125 7.171875 -8.015625 C 6.773438 -8.453125 6.222656 -8.671875 5.515625 -8.671875 C 5.035156 -8.671875 4.601562 -8.566406 4.21875 -8.359375 C 3.832031 -8.160156 3.523438 -7.859375 3.296875 -7.453125 C 3.078125 -7.046875 2.96875 -6.546875 2.96875 -5.953125 Z M 2.96875 -5.953125 "/></g></g></g><g fill="#000000" fill-opacity="1"><g transform="translate(159.347836, 72.809409)"><g><path d="M 5.390625 -9.984375 L 5.390625 -8.609375 L 0.171875 -8.609375 L 0.171875 -9.984375 Z M 1.734375 -12.4375 L 3.34375 -12.4375 L 3.34375 -2.546875 C 3.34375 -2.117188 3.429688 -1.804688 3.609375 -1.609375 C 3.785156 -1.410156 4.082031 -1.3125 4.5 -1.3125 C 4.613281 -1.3125 4.75 -1.320312 4.90625 -1.34375 C 5.0625 -1.363281 5.207031 -1.382812 5.34375 -1.40625 L 5.609375 -0.046875 C 5.441406 0.00390625 5.253906 0.0390625 5.046875 0.0625 C 4.835938 0.0820312 4.632812 0.09375 4.4375 0.09375 C 3.570312 0.09375 2.90625 -0.125 2.4375 -0.5625 C 1.96875 -1 1.734375 -1.617188 1.734375 -2.421875 Z M 1.734375 -12.4375 "/></g></g></g><g fill="#000000" fill-opacity="1"><g transform="translate(165.161068, 72.809409)"><g><path d="M 5.546875 0.21875 C 4.578125 0.21875 3.742188 0.00390625 3.046875 -0.421875 C 2.347656 -0.859375 1.8125 -1.460938 1.4375 -2.234375 C 1.0625 -3.015625 0.875 -3.910156 0.875 -4.921875 C 0.875 -5.941406 1.054688 -6.84375 1.421875 -7.625 C 1.796875 -8.414062 2.320312 -9.03125 3 -9.46875 C 3.675781 -9.90625 4.46875 -10.125 5.375 -10.125 C 5.9375 -10.125 6.476562 -10.03125 7 -9.84375 C 7.53125 -9.65625 8.003906 -9.351562 8.421875 -8.9375 C 8.835938 -8.53125 9.164062 -8.007812 9.40625 -7.375 C 9.644531 -6.738281 9.765625 -5.976562 9.765625 -5.09375 L 9.765625 -4.46875 L 1.921875 -4.46875 L 1.921875 -5.828125 L 8.890625 -5.828125 L 8.15625 -5.328125 C 8.15625 -5.984375 8.046875 -6.566406 7.828125 -7.078125 C 7.617188 -7.585938 7.304688 -7.984375 6.890625 -8.265625 C 6.484375 -8.554688 5.976562 -8.703125 5.375 -8.703125 C 4.769531 -8.703125 4.253906 -8.554688 3.828125 -8.265625 C 3.398438 -7.972656 3.070312 -7.585938 2.84375 -7.109375 C 2.613281 -6.628906 2.5 -6.101562 2.5 -5.53125 L 2.5 -4.6875 C 2.5 -3.957031 2.625 -3.332031 2.875 -2.8125 C 3.125 -2.289062 3.476562 -1.894531 3.9375 -1.625 C 4.394531 -1.351562 4.929688 -1.21875 5.546875 -1.21875 C 5.960938 -1.21875 6.332031 -1.273438 6.65625 -1.390625 C 6.988281 -1.515625 7.269531 -1.691406 7.5 -1.921875 C 7.738281 -2.160156 7.914062 -2.453125 8.03125 -2.796875 L 9.59375 -2.453125 C 9.445312 -1.929688 9.1875 -1.46875 8.8125 -1.0625 C 8.4375 -0.664062 7.96875 -0.351562 7.40625 -0.125 C 6.851562 0.101562 6.234375 0.21875 5.546875 0.21875 Z M 5.546875 0.21875 "/></g></g></g><g fill="#000000" fill-opacity="1"><g transform="translate(175.765964, 72.809409)"><g><path d="M 1.359375 0 L 1.359375 -9.984375 L 2.90625 -9.984375 L 2.90625 -8.4375 L 3 -8.4375 C 3.1875 -8.945312 3.507812 -9.351562 3.96875 -9.65625 C 4.425781 -9.96875 4.953125 -10.125 5.546875 -10.125 C 5.671875 -10.125 5.8125 -10.117188 5.96875 -10.109375 C 6.132812 -10.109375 6.257812 -10.101562 6.34375 -10.09375 L 6.34375 -8.484375 C 6.289062 -8.492188 6.171875 -8.507812 5.984375 -8.53125 C 5.796875 -8.5625 5.59375 -8.578125 5.375 -8.578125 C 4.914062 -8.578125 4.503906 -8.476562 4.140625 -8.28125 C 3.773438 -8.082031 3.488281 -7.804688 3.28125 -7.453125 C 3.070312 -7.109375 2.96875 -6.703125 2.96875 -6.234375 L 2.96875 0 Z M 1.359375 0 "/></g></g></g><g fill="#000000" fill-opacity="1"><g transform="translate(182.510425, 72.809409)"><g/></g></g><g fill="#000000" fill-opacity="1"><g transform="translate(187.591372, 72.809409)"><g><path d="M 3.59375 0 L 0.546875 -9.984375 L 2.25 -9.984375 L 3.484375 -5.625 C 3.648438 -5.007812 3.828125 -4.328125 4.015625 -3.578125 C 4.203125 -2.835938 4.390625 -2.019531 4.578125 -1.125 L 4.3125 -1.125 C 4.488281 -1.988281 4.671875 -2.789062 4.859375 -3.53125 C 5.046875 -4.28125 5.222656 -4.976562 5.390625 -5.625 L 6.609375 -9.984375 L 8.296875 -9.984375 L 9.5 -5.625 C 9.664062 -5 9.835938 -4.3125 10.015625 -3.5625 C 10.203125 -2.820312 10.382812 -2.007812 10.5625 -1.125 L 10.28125 -1.125 C 10.46875 -2 10.65625 -2.804688 10.84375 -3.546875 C 11.03125 -4.296875 11.21875 -4.988281 11.40625 -5.625 L 12.625 -9.984375 L 14.328125 -9.984375 L 11.28125 0 L 9.671875 0 L 8.375 -4.515625 C 8.238281 -4.972656 8.109375 -5.4375 7.984375 -5.90625 C 7.859375 -6.382812 7.734375 -6.867188 7.609375 -7.359375 C 7.492188 -7.859375 7.375 -8.363281 7.25 -8.875 L 7.625 -8.875 C 7.507812 -8.375 7.390625 -7.875 7.265625 -7.375 C 7.140625 -6.875 7.015625 -6.382812 6.890625 -5.90625 C 6.765625 -5.4375 6.640625 -4.972656 6.515625 -4.515625 L 5.203125 0 Z M 3.59375 0 "/></g></g></g><g fill="#000000" fill-opacity="1"><g transform="translate(202.138037, 72.809409)"><g><path d="M 5.4375 0.21875 C 4.53125 0.21875 3.734375 0.00390625 3.046875 -0.421875 C 2.367188 -0.859375 1.835938 -1.460938 1.453125 -2.234375 C 1.066406 -3.015625 0.875 -3.914062 0.875 -4.9375 C 0.875 -5.96875 1.066406 -6.875 1.453125 -7.65625 C 1.835938 -8.4375 2.367188 -9.039062 3.046875 -9.46875 C 3.734375 -9.90625 4.53125 -10.125 5.4375 -10.125 C 6.351562 -10.125 7.15625 -9.90625 7.84375 -9.46875 C 8.53125 -9.039062 9.0625 -8.4375 9.4375 -7.65625 C 9.820312 -6.875 10.015625 -5.96875 10.015625 -4.9375 C 10.015625 -3.914062 9.820312 -3.015625 9.4375 -2.234375 C 9.0625 -1.460938 8.53125 -0.859375 7.84375 -0.421875 C 7.15625 0.00390625 6.351562 0.21875 5.4375 0.21875 Z M 5.4375 -1.21875 C 6.101562 -1.21875 6.65625 -1.382812 7.09375 -1.71875 C 7.53125 -2.0625 7.851562 -2.515625 8.0625 -3.078125 C 8.28125 -3.640625 8.390625 -4.257812 8.390625 -4.9375 C 8.390625 -5.613281 8.28125 -6.238281 8.0625 -6.8125 C 7.851562 -7.382812 7.53125 -7.835938 7.09375 -8.171875 C 6.65625 -8.515625 6.101562 -8.6875 5.4375 -8.6875 C 4.78125 -8.6875 4.234375 -8.515625 3.796875 -8.171875 C 3.367188 -7.835938 3.046875 -7.382812 2.828125 -6.8125 C 2.609375 -6.25 2.5 -5.625 2.5 -4.9375 C 2.5 -4.257812 2.609375 -3.640625 2.828125 -3.078125 C 3.046875 -2.515625 3.367188 -2.0625 3.796875 -1.71875 C 4.234375 -1.382812 4.78125 -1.21875 5.4375 -1.21875 Z M 5.4375 -1.21875 "/></g></g></g><g fill="#000000" fill-opacity="1"><g transform="translate(213.032239, 72.809409)"><g><path d="M 4.8125 0.140625 C 4.132812 0.140625 3.535156 0 3.015625 -0.28125 C 2.492188 -0.5625 2.085938 -0.984375 1.796875 -1.546875 C 1.503906 -2.109375 1.359375 -2.816406 1.359375 -3.671875 L 1.359375 -9.984375 L 2.96875 -9.984375 L 2.96875 -3.8125 C 2.96875 -3.019531 3.171875 -2.40625 3.578125 -1.96875 C 3.984375 -1.53125 4.539062 -1.3125 5.25 -1.3125 C 5.726562 -1.3125 6.15625 -1.414062 6.53125 -1.625 C 6.914062 -1.832031 7.21875 -2.132812 7.4375 -2.53125 C 7.664062 -2.9375 7.78125 -3.4375 7.78125 -4.03125 L 7.78125 -9.984375 L 9.40625 -9.984375 L 9.40625 0 L 7.84375 0 L 7.84375 -2.421875 L 8.109375 -2.421875 C 7.796875 -1.492188 7.351562 -0.832031 6.78125 -0.4375 C 6.207031 -0.0507812 5.550781 0.140625 4.8125 0.140625 Z M 4.8125 0.140625 "/></g></g></g><g fill="#000000" fill-opacity="1"><g transform="translate(223.79987, 72.809409)"><g><path d="M 2.96875 -13.46875 L 2.96875 0 L 1.359375 0 L 1.359375 -13.46875 Z M 2.96875 -13.46875 "/></g></g></g><g fill="#000000" fill-opacity="1"><g transform="translate(228.139469, 72.809409)"><g><path d="M 5.125 0.203125 C 4.289062 0.203125 3.550781 -0.00390625 2.90625 -0.421875 C 2.269531 -0.847656 1.769531 -1.445312 1.40625 -2.21875 C 1.050781 -3 0.875 -3.914062 0.875 -4.96875 C 0.875 -6.019531 1.050781 -6.929688 1.40625 -7.703125 C 1.769531 -8.472656 2.269531 -9.066406 2.90625 -9.484375 C 3.550781 -9.910156 4.289062 -10.125 5.125 -10.125 C 5.726562 -10.125 6.222656 -10.023438 6.609375 -9.828125 C 6.992188 -9.628906 7.300781 -9.398438 7.53125 -9.140625 C 7.757812 -8.878906 7.941406 -8.632812 8.078125 -8.40625 L 8.171875 -8.40625 L 8.171875 -13.46875 L 9.78125 -13.46875 L 9.78125 0 L 8.234375 0 L 8.234375 -1.53125 L 8.078125 -1.53125 C 7.941406 -1.300781 7.753906 -1.050781 7.515625 -0.78125 C 7.285156 -0.507812 6.976562 -0.273438 6.59375 -0.078125 C 6.207031 0.109375 5.71875 0.203125 5.125 0.203125 Z M 5.359375 -1.234375 C 5.972656 -1.234375 6.488281 -1.390625 6.90625 -1.703125 C 7.332031 -2.015625 7.65625 -2.453125 7.875 -3.015625 C 8.101562 -3.585938 8.21875 -4.242188 8.21875 -4.984375 C 8.21875 -5.722656 8.109375 -6.367188 7.890625 -6.921875 C 7.671875 -7.472656 7.347656 -7.90625 6.921875 -8.21875 C 6.492188 -8.53125 5.972656 -8.6875 5.359375 -8.6875 C 4.742188 -8.6875 4.222656 -8.523438 3.796875 -8.203125 C 3.378906 -7.890625 3.054688 -7.453125 2.828125 -6.890625 C 2.609375 -6.335938 2.5 -5.703125 2.5 -4.984375 C 2.5 -4.265625 2.609375 -3.617188 2.828125 -3.046875 C 3.054688 -2.484375 3.382812 -2.039062 3.8125 -1.71875 C 4.238281 -1.394531 4.753906 -1.234375 5.359375 -1.234375 Z M 5.359375 -1.234375 "/></g></g></g><g fill="#000000" fill-opacity="1"><g transform="translate(239.286815, 72.809409)"><g/></g></g><g fill="#000000" fill-opacity="1"><g transform="translate(244.367763, 72.809409)"><g><path d="M 2.875 -3.59375 L 2.875 -5.5625 L 3.125 -5.5625 L 7.484375 -9.984375 L 9.484375 -9.984375 L 4.8125 -5.25 L 4.640625 -5.25 Z M 1.359375 0 L 1.359375 -13.46875 L 2.96875 -13.46875 L 2.96875 0 Z M 7.75 0 L 3.875 -4.890625 L 5.015625 -6.015625 L 9.796875 0 Z M 7.75 0 "/></g></g></g><g fill="#000000" fill-opacity="1"><g transform="translate(254.357882, 72.809409)"><g><path d="M 2.96875 -5.953125 L 2.96875 0 L 1.359375 0 L 1.359375 -9.984375 L 2.90625 -9.984375 L 2.921875 -7.5625 L 2.65625 -7.5625 C 2.957031 -8.476562 3.390625 -9.132812 3.953125 -9.53125 C 4.523438 -9.925781 5.191406 -10.125 5.953125 -10.125 C 6.628906 -10.125 7.222656 -9.984375 7.734375 -9.703125 C 8.253906 -9.421875 8.660156 -9 8.953125 -8.4375 C 9.242188 -7.875 9.390625 -7.164062 9.390625 -6.3125 L 9.390625 0 L 7.78125 0 L 7.78125 -6.1875 C 7.78125 -6.96875 7.578125 -7.578125 7.171875 -8.015625 C 6.773438 -8.453125 6.222656 -8.671875 5.515625 -8.671875 C 5.035156 -8.671875 4.601562 -8.566406 4.21875 -8.359375 C 3.832031 -8.160156 3.523438 -7.859375 3.296875 -7.453125 C 3.078125 -7.046875 2.96875 -6.546875 2.96875 -5.953125 Z M 2.96875 -5.953125 "/></g></g></g><g fill="#000000" fill-opacity="1"><g transform="translate(265.116472, 72.809409)"><g><path d="M 5.4375 0.21875 C 4.53125 0.21875 3.734375 0.00390625 3.046875 -0.421875 C 2.367188 -0.859375 1.835938 -1.460938 1.453125 -2.234375 C 1.066406 -3.015625 0.875 -3.914062 0.875 -4.9375 C 0.875 -5.96875 1.066406 -6.875 1.453125 -7.65625 C 1.835938 -8.4375 2.367188 -9.039062 3.046875 -9.46875 C 3.734375 -9.90625 4.53125 -10.125 5.4375 -10.125 C 6.351562 -10.125 7.15625 -9.90625 7.84375 -9.46875 C 8.53125 -9.039062 9.0625 -8.4375 9.4375 -7.65625 C 9.820312 -6.875 10.015625 -5.96875 10.015625 -4.9375 C 10.015625 -3.914062 9.820312 -3.015625 9.4375 -2.234375 C 9.0625 -1.460938 8.53125 -0.859375 7.84375 -0.421875 C 7.15625 0.00390625 6.351562 0.21875 5.4375 0.21875 Z M 5.4375 -1.21875 C 6.101562 -1.21875 6.65625 -1.382812 7.09375 -1.71875 C 7.53125 -2.0625 7.851562 -2.515625 8.0625 -3.078125 C 8.28125 -3.640625 8.390625 -4.257812 8.390625 -4.9375 C 8.390625 -5.613281 8.28125 -6.238281 8.0625 -6.8125 C 7.851562 -7.382812 7.53125 -7.835938 7.09375 -8.171875 C 6.65625 -8.515625 6.101562 -8.6875 5.4375 -8.6875 C 4.78125 -8.6875 4.234375 -8.515625 3.796875 -8.171875 C 3.367188 -7.835938 3.046875 -7.382812 2.828125 -6.8125 C 2.609375 -6.25 2.5 -5.625 2.5 -4.9375 C 2.5 -4.257812 2.609375 -3.640625 2.828125 -3.078125 C 3.046875 -2.515625 3.367188 -2.0625 3.796875 -1.71875 C 4.234375 -1.382812 4.78125 -1.21875 5.4375 -1.21875 Z M 5.4375 -1.21875 "/></g></g></g><g fill="#000000" fill-opacity="1"><g transform="translate(275.676118, 72.809409)"><g><path d="M 3.59375 0 L 0.546875 -9.984375 L 2.25 -9.984375 L 3.484375 -5.625 C 3.648438 -5.007812 3.828125 -4.328125 4.015625 -3.578125 C 4.203125 -2.835938 4.390625 -2.019531 4.578125 -1.125 L 4.3125 -1.125 C 4.488281 -1.988281 4.671875 -2.789062 4.859375 -3.53125 C 5.046875 -4.28125 5.222656 -4.976562 5.390625 -5.625 L 6.609375 -9.984375 L 8.296875 -9.984375 L 9.5 -5.625 C 9.664062 -5 9.835938 -4.3125 10.015625 -3.5625 C 10.203125 -2.820312 10.382812 -2.007812 10.5625 -1.125 L 10.28125 -1.125 C 10.46875 -2 10.65625 -2.804688 10.84375 -3.546875 C 11.03125 -4.296875 11.21875 -4.988281 11.40625 -5.625 L 12.625 -9.984375 L 14.328125 -9.984375 L 11.28125 0 L 9.671875 0 L 8.375 -4.515625 C 8.238281 -4.972656 8.109375 -5.4375 7.984375 -5.90625 C 7.859375 -6.382812 7.734375 -6.867188 7.609375 -7.359375 C 7.492188 -7.859375 7.375 -8.363281 7.25 -8.875 L 7.625 -8.875 C 7.507812 -8.375 7.390625 -7.875 7.265625 -7.375 C 7.140625 -6.875 7.015625 -6.382812 6.890625 -5.90625 C 6.765625 -5.4375 6.640625 -4.972656 6.515625 -4.515625 L 5.203125 0 Z M 3.59375 0 "/></g></g></g><g fill="#000000" fill-opacity="1"><g transform="translate(290.557328, 72.809409)"><g><path d="M 3.53125 -3.953125 L 3.53125 -4.265625 C 3.53125 -5.054688 3.613281 -5.664062 3.78125 -6.09375 C 3.945312 -6.519531 4.179688 -6.859375 4.484375 -7.109375 C 4.796875 -7.367188 5.160156 -7.628906 5.578125 -7.890625 C 6.003906 -8.160156 6.34375 -8.484375 6.59375 -8.859375 C 6.851562 -9.234375 6.984375 -9.664062 6.984375 -10.15625 C 6.984375 -10.582031 6.882812 -10.945312 6.6875 -11.25 C 6.488281 -11.5625 6.21875 -11.800781 5.875 -11.96875 C 5.539062 -12.132812 5.15625 -12.21875 4.71875 -12.21875 C 4.320312 -12.21875 3.953125 -12.132812 3.609375 -11.96875 C 3.265625 -11.8125 2.984375 -11.566406 2.765625 -11.234375 C 2.546875 -10.898438 2.425781 -10.472656 2.40625 -9.953125 L 0.703125 -9.953125 C 0.722656 -10.734375 0.910156 -11.398438 1.265625 -11.953125 C 1.628906 -12.503906 2.109375 -12.925781 2.703125 -13.21875 C 3.304688 -13.507812 3.976562 -13.65625 4.71875 -13.65625 C 5.5 -13.65625 6.179688 -13.503906 6.765625 -13.203125 C 7.359375 -12.898438 7.8125 -12.476562 8.125 -11.9375 C 8.445312 -11.40625 8.609375 -10.796875 8.609375 -10.109375 C 8.609375 -9.398438 8.445312 -8.78125 8.125 -8.25 C 7.8125 -7.726562 7.359375 -7.28125 6.765625 -6.90625 C 6.367188 -6.65625 6.050781 -6.421875 5.8125 -6.203125 C 5.582031 -5.992188 5.414062 -5.738281 5.3125 -5.4375 C 5.207031 -5.132812 5.15625 -4.734375 5.15625 -4.234375 L 5.15625 -3.953125 Z M 4.359375 0.125 C 4.035156 0.125 3.753906 0.0078125 3.515625 -0.21875 C 3.285156 -0.457031 3.171875 -0.738281 3.171875 -1.0625 C 3.171875 -1.394531 3.285156 -1.675781 3.515625 -1.90625 C 3.753906 -2.144531 4.035156 -2.265625 4.359375 -2.265625 C 4.691406 -2.265625 4.972656 -2.144531 5.203125 -1.90625 C 5.441406 -1.675781 5.5625 -1.394531 5.5625 -1.0625 C 5.5625 -0.738281 5.441406 -0.457031 5.203125 -0.21875 C 4.972656 0.0078125 4.691406 0.125 4.359375 0.125 Z M 4.359375 0.125 "/></g></g></g></svg>