<svg xmlns="http://www.w3.org/2000/svg" xmlns:xlink="http://www.w3.org/1999/xlink" width="500" zoomAndPan="magnify" viewBox="0 0 375 374.999991" height="500" preserveAspectRatio="xMidYMid meet" version="1.0"><defs><g/><clipPath id="9a0620baaf"><path d="M 93.097656 83.863281 L 282 83.863281 L 282 273 L 93.097656 273 Z M 93.097656 83.863281 " clip-rule="nonzero"/></clipPath><clipPath id="6e602401b7"><path d="M 132 220 L 243 220 L 243 290.863281 L 132 290.863281 Z M 132 220 " clip-rule="nonzero"/></clipPath></defs><g clip-path="url(#9a0620baaf)"><path fill="#f1975f" d="M 281.90625 178.273438 C 281.90625 230.402344 239.652344 272.652344 187.527344 272.652344 C 135.402344 272.652344 93.148438 230.402344 93.148438 178.273438 C 93.144531 126.148438 135.402344 83.894531 187.527344 83.894531 C 239.652344 83.890625 281.90625 126.148438 281.90625 178.273438 " fill-opacity="1" fill-rule="nonzero"/></g><path fill="#1495ff" d="M 229.816406 248.230469 L 147.40625 248.230469 L 147.40625 169.703125 L 229.816406 169.703125 L 229.816406 248.230469 " fill-opacity="1" fill-rule="nonzero"/><g clip-path="url(#6e602401b7)"><path fill="#ffffff" d="M 242.59375 272.914062 C 237.921875 276.398438 232.910156 279.449219 227.617188 282.003906 C 226.8125 282.394531 226.007812 282.769531 225.1875 283.132812 C 213.691406 288.289062 200.945312 291.15625 187.527344 291.15625 C 174.109375 291.15625 161.367188 288.289062 149.871094 283.132812 C 149.046875 282.769531 148.238281 282.394531 147.4375 282.003906 C 142.144531 279.445312 137.132812 276.398438 132.46875 272.914062 C 133.285156 254.667969 142.980469 238.730469 157.335938 229.320312 C 166.007812 223.628906 176.378906 220.324219 187.527344 220.324219 C 189.226562 220.324219 190.910156 220.402344 192.5625 220.550781 C 201.800781 221.386719 210.371094 224.492188 217.71875 229.320312 C 224.328125 233.652344 229.949219 239.367188 234.167969 246.050781 C 239.121094 253.890625 242.140625 263.070312 242.59375 272.914062 " fill-opacity="1" fill-rule="nonzero"/></g><path fill="#f8c0f1" d="M 217.71875 229.320312 C 216.878906 235.683594 214.070312 241.433594 209.917969 245.929688 C 204.355469 251.957031 196.386719 255.738281 187.527344 255.738281 C 173.339844 255.738281 161.414062 246.03125 158.03125 232.894531 C 157.730469 231.730469 157.496094 230.53125 157.335938 229.320312 C 166.007812 223.628906 176.378906 220.324219 187.527344 220.324219 C 189.226562 220.324219 190.910156 220.394531 192.570312 220.550781 C 192.859375 220.574219 193.144531 220.605469 193.429688 220.636719 C 193.609375 220.652344 193.789062 220.671875 193.964844 220.695312 C 194.160156 220.714844 194.359375 220.742188 194.550781 220.769531 C 194.671875 220.78125 194.800781 220.796875 194.917969 220.816406 C 195.09375 220.832031 195.273438 220.863281 195.453125 220.886719 C 195.59375 220.90625 195.730469 220.929688 195.875 220.949219 C 195.996094 220.964844 196.113281 220.984375 196.234375 221.007812 C 196.441406 221.039062 196.636719 221.074219 196.84375 221.105469 C 197.71875 221.253906 198.589844 221.421875 199.449219 221.613281 L 200.027344 221.742188 C 200.136719 221.769531 200.25 221.796875 200.359375 221.824219 C 200.5625 221.875 200.773438 221.921875 200.972656 221.976562 C 201.007812 221.980469 201.035156 221.988281 201.0625 221.992188 C 201.320312 222.058594 201.578125 222.125 201.832031 222.199219 C 202.105469 222.265625 202.378906 222.34375 202.640625 222.421875 C 202.949219 222.503906 203.25 222.59375 203.554688 222.683594 C 203.789062 222.757812 204.023438 222.828125 204.257812 222.90625 C 204.410156 222.953125 204.566406 223.003906 204.707031 223.050781 C 204.957031 223.128906 205.203125 223.214844 205.441406 223.296875 C 205.742188 223.398438 206.035156 223.5 206.332031 223.609375 C 206.355469 223.621094 206.375 223.628906 206.390625 223.632812 C 206.699219 223.742188 207 223.855469 207.300781 223.96875 C 207.519531 224.0625 207.75 224.144531 207.976562 224.242188 C 208.574219 224.476562 209.15625 224.722656 209.734375 224.972656 L 210.488281 225.316406 C 210.71875 225.417969 210.945312 225.527344 211.175781 225.636719 C 211.386719 225.738281 211.589844 225.832031 211.792969 225.9375 C 211.984375 226.027344 212.171875 226.121094 212.359375 226.21875 C 212.480469 226.277344 212.605469 226.339844 212.726562 226.40625 C 213.222656 226.65625 213.710938 226.921875 214.191406 227.1875 C 214.367188 227.28125 214.546875 227.382812 214.714844 227.480469 C 214.828125 227.546875 214.9375 227.605469 215.046875 227.667969 L 215.453125 227.90625 L 215.867188 228.160156 L 216.140625 228.320312 C 216.398438 228.472656 216.648438 228.628906 216.902344 228.789062 C 217.179688 228.964844 217.449219 229.140625 217.71875 229.320312 " fill-opacity="1" fill-rule="nonzero"/><path fill="#f8c0f1" d="M 198.140625 207.972656 L 198.140625 228.851562 C 198.140625 234.132812 193.820312 238.460938 188.542969 238.460938 L 186.511719 238.460938 C 181.234375 238.460938 176.921875 234.132812 176.921875 228.851562 L 176.921875 207.972656 C 176.921875 202.691406 181.234375 198.371094 186.511719 198.371094 L 188.542969 198.371094 C 193.820312 198.371094 198.140625 202.691406 198.140625 207.972656 " fill-opacity="1" fill-rule="nonzero"/><path fill="#f8a29e" d="M 198.140625 207.972656 L 198.140625 219.019531 C 194.984375 220.773438 191.636719 221.796875 188.242188 221.796875 C 184.234375 221.796875 180.410156 220.675781 176.921875 218.738281 L 176.921875 207.972656 C 176.921875 202.691406 181.234375 198.371094 186.511719 198.371094 L 188.542969 198.371094 C 193.820312 198.371094 198.140625 202.691406 198.140625 207.972656 " fill-opacity="1" fill-rule="nonzero"/><path fill="#f8c0f1" d="M 220.25 195.027344 C 220.25 195.027344 226.535156 192.890625 230.550781 185.882812 C 234.914062 178.273438 232.171875 173.53125 231.308594 172.503906 C 228.945312 169.699219 225.296875 171.5 224.695312 172.503906 C 224.09375 173.507812 215.394531 189.3125 220.25 195.027344 " fill-opacity="1" fill-rule="nonzero"/><path fill="#f8a29e" d="M 226.410156 175 C 226.410156 175 230.398438 175.507812 229 181.117188 C 227.59375 186.730469 223.910156 188.945312 218.898438 191.8125 C 213.890625 194.679688 221.402344 176.140625 226.410156 175 " fill-opacity="1" fill-rule="nonzero"/><path fill="#f8c0f1" d="M 156.441406 195.027344 C 156.441406 195.027344 150.152344 192.890625 146.140625 185.882812 C 141.769531 178.273438 144.511719 173.53125 145.375 172.503906 C 147.738281 169.699219 151.386719 171.5 151.988281 172.503906 C 152.585938 173.507812 161.296875 189.3125 156.441406 195.027344 " fill-opacity="1" fill-rule="nonzero"/><path fill="#f8a29e" d="M 150.273438 175 C 150.273438 175 146.289062 175.507812 147.691406 181.117188 C 149.089844 186.730469 152.78125 188.945312 157.785156 191.8125 C 162.796875 194.679688 155.285156 176.140625 150.273438 175 " fill-opacity="1" fill-rule="nonzero"/><path fill="#f8c0f1" d="M 226.410156 171.296875 C 226.410156 148.261719 209.40625 129.585938 188.429688 129.585938 C 167.457031 129.585938 150.441406 148.261719 150.441406 171.296875 C 150.441406 194.332031 167.457031 218.410156 188.429688 218.410156 C 208.140625 218.410156 226.410156 194.140625 226.410156 171.296875 " fill-opacity="1" fill-rule="nonzero"/><path fill="#1495ff" d="M 229.292969 157.179688 C 227.675781 142.175781 217.25 118.625 191.871094 121.628906 C 181.054688 119.222656 147.394531 123.949219 147.394531 171.003906 C 147.394531 171.003906 154.121094 176.417969 169.367188 179.277344 C 170.0625 168.492188 172.039062 160.390625 172.039062 160.390625 C 170.492188 169.03125 173.855469 174.800781 174 180.027344 C 186.832031 181.773438 204.671875 181.609375 228.320312 176.054688 C 228.320312 176.054688 230.886719 171.933594 229.292969 157.179688 " fill-opacity="1" fill-rule="nonzero"/><path fill="#1495ff" d="M 159.4375 224.792969 L 147.40625 224.792969 L 147.40625 169.703125 L 159.4375 169.703125 L 159.4375 224.792969 " fill-opacity="1" fill-rule="nonzero"/><path fill="#1495ff" d="M 229.816406 224.792969 L 217.78125 224.792969 L 217.78125 169.703125 L 229.816406 169.703125 L 229.816406 224.792969 " fill-opacity="1" fill-rule="nonzero"/><path fill="#f1975f" d="M 154.917969 91.453125 L 154.917969 87.65625 C 154.917969 85.671875 154.128906 83.769531 152.726562 82.367188 C 151.324219 80.964844 149.421875 80.179688 147.441406 80.179688 L 130.707031 80.179688 C 126.578125 80.179688 123.230469 76.832031 123.230469 72.703125 L 123.230469 57.746094 C 123.230469 53.617188 126.578125 50.269531 130.707031 50.269531 L 244.289062 50.269531 C 248.417969 50.269531 251.765625 53.617188 251.765625 57.746094 L 251.765625 72.703125 C 251.765625 76.832031 248.417969 80.179688 244.289062 80.179688 L 227.542969 80.179688 C 223.414062 80.179688 220.066406 83.527344 220.066406 87.65625 L 220.066406 91.453125 C 220.066406 93.433594 219.277344 95.335938 217.875 96.738281 C 216.472656 98.140625 214.570312 98.929688 212.589844 98.929688 L 162.394531 98.929688 C 158.265625 98.929688 154.917969 95.582031 154.917969 91.453125 Z M 154.917969 91.453125 " fill-opacity="0.61" fill-rule="nonzero"/><g fill="#000000" fill-opacity="1"><g transform="translate(130.637691, 71.975004)"><g><path d="M 1.5625 0 L 1.5625 -13.46875 L 3.953125 -13.46875 L 7.296875 -4.921875 C 7.367188 -4.722656 7.457031 -4.476562 7.5625 -4.1875 C 7.664062 -3.894531 7.773438 -3.578125 7.890625 -3.234375 C 8.003906 -2.898438 8.109375 -2.566406 8.203125 -2.234375 C 8.304688 -1.898438 8.394531 -1.597656 8.46875 -1.328125 L 8.09375 -1.328125 C 8.164062 -1.585938 8.253906 -1.878906 8.359375 -2.203125 C 8.460938 -2.523438 8.566406 -2.859375 8.671875 -3.203125 C 8.785156 -3.546875 8.894531 -3.867188 9 -4.171875 C 9.113281 -4.472656 9.207031 -4.722656 9.28125 -4.921875 L 12.578125 -13.46875 L 14.96875 -13.46875 L 14.96875 0 L 13.296875 0 L 13.296875 -7.71875 C 13.296875 -8 13.296875 -8.3125 13.296875 -8.65625 C 13.304688 -9.007812 13.3125 -9.375 13.3125 -9.75 C 13.320312 -10.132812 13.332031 -10.523438 13.34375 -10.921875 C 13.351562 -11.316406 13.363281 -11.695312 13.375 -12.0625 L 13.53125 -12.0625 C 13.40625 -11.65625 13.269531 -11.238281 13.125 -10.8125 C 12.976562 -10.394531 12.835938 -9.988281 12.703125 -9.59375 C 12.578125 -9.195312 12.453125 -8.835938 12.328125 -8.515625 C 12.210938 -8.203125 12.113281 -7.9375 12.03125 -7.71875 L 9 0 L 7.546875 0 L 4.453125 -7.71875 C 4.367188 -7.925781 4.269531 -8.1875 4.15625 -8.5 C 4.050781 -8.820312 3.929688 -9.175781 3.796875 -9.5625 C 3.660156 -9.945312 3.515625 -10.351562 3.359375 -10.78125 C 3.210938 -11.207031 3.066406 -11.632812 2.921875 -12.0625 L 3.109375 -12.0625 C 3.117188 -11.726562 3.128906 -11.367188 3.140625 -10.984375 C 3.148438 -10.609375 3.15625 -10.222656 3.15625 -9.828125 C 3.164062 -9.441406 3.171875 -9.066406 3.171875 -8.703125 C 3.179688 -8.335938 3.1875 -8.007812 3.1875 -7.71875 L 3.1875 0 Z M 1.5625 0 "/></g></g></g><g fill="#000000" fill-opacity="1"><g transform="translate(147.173373, 71.975004)"><g><path d="M 4.21875 0.21875 C 3.570312 0.21875 2.988281 0.101562 2.46875 -0.125 C 1.957031 -0.363281 1.550781 -0.710938 1.25 -1.171875 C 0.945312 -1.628906 0.796875 -2.1875 0.796875 -2.84375 C 0.796875 -3.414062 0.90625 -3.878906 1.125 -4.234375 C 1.351562 -4.597656 1.65625 -4.878906 2.03125 -5.078125 C 2.414062 -5.285156 2.835938 -5.441406 3.296875 -5.546875 C 3.753906 -5.648438 4.21875 -5.734375 4.6875 -5.796875 C 5.300781 -5.867188 5.789062 -5.925781 6.15625 -5.96875 C 6.53125 -6.019531 6.804688 -6.09375 6.984375 -6.1875 C 7.160156 -6.289062 7.25 -6.460938 7.25 -6.703125 L 7.25 -6.765625 C 7.25 -7.171875 7.164062 -7.519531 7 -7.8125 C 6.84375 -8.101562 6.609375 -8.320312 6.296875 -8.46875 C 5.984375 -8.625 5.597656 -8.703125 5.140625 -8.703125 C 4.660156 -8.703125 4.25 -8.628906 3.90625 -8.484375 C 3.570312 -8.335938 3.296875 -8.144531 3.078125 -7.90625 C 2.859375 -7.675781 2.707031 -7.429688 2.625 -7.171875 L 1.0625 -7.578125 C 1.269531 -8.191406 1.582031 -8.679688 2 -9.046875 C 2.414062 -9.421875 2.890625 -9.691406 3.421875 -9.859375 C 3.960938 -10.035156 4.519531 -10.125 5.09375 -10.125 C 5.476562 -10.125 5.890625 -10.070312 6.328125 -9.96875 C 6.765625 -9.875 7.171875 -9.703125 7.546875 -9.453125 C 7.929688 -9.210938 8.242188 -8.863281 8.484375 -8.40625 C 8.722656 -7.945312 8.84375 -7.359375 8.84375 -6.640625 L 8.84375 0 L 7.265625 0 L 7.265625 -1.375 L 7.171875 -1.375 C 7.054688 -1.132812 6.875 -0.890625 6.625 -0.640625 C 6.382812 -0.398438 6.066406 -0.195312 5.671875 -0.03125 C 5.273438 0.132812 4.789062 0.21875 4.21875 0.21875 Z M 4.46875 -1.21875 C 5.082031 -1.21875 5.59375 -1.332031 6 -1.5625 C 6.414062 -1.789062 6.726562 -2.09375 6.9375 -2.46875 C 7.144531 -2.84375 7.25 -3.234375 7.25 -3.640625 L 7.25 -5 C 7.1875 -4.925781 7.050781 -4.859375 6.84375 -4.796875 C 6.632812 -4.734375 6.390625 -4.675781 6.109375 -4.625 C 5.835938 -4.582031 5.566406 -4.546875 5.296875 -4.515625 C 5.035156 -4.484375 4.8125 -4.457031 4.625 -4.4375 C 4.238281 -4.382812 3.875 -4.296875 3.53125 -4.171875 C 3.195312 -4.054688 2.925781 -3.890625 2.71875 -3.671875 C 2.507812 -3.453125 2.40625 -3.148438 2.40625 -2.765625 C 2.40625 -2.429688 2.492188 -2.144531 2.671875 -1.90625 C 2.859375 -1.675781 3.101562 -1.503906 3.40625 -1.390625 C 3.71875 -1.273438 4.070312 -1.21875 4.46875 -1.21875 Z M 4.46875 -1.21875 "/></g></g></g><g fill="#000000" fill-opacity="1"><g transform="translate(157.08209, 71.975004)"><g><path d="M 1.25 3.6875 L 1.578125 2.28125 L 1.921875 2.328125 C 2.222656 2.390625 2.492188 2.394531 2.734375 2.34375 C 2.984375 2.300781 3.207031 2.171875 3.40625 1.953125 C 3.601562 1.734375 3.773438 1.40625 3.921875 0.96875 L 4.265625 0.03125 L 0.4375 -9.984375 L 2.203125 -9.984375 L 4.328125 -4.09375 C 4.546875 -3.507812 4.734375 -2.925781 4.890625 -2.34375 C 5.046875 -1.757812 5.207031 -1.195312 5.375 -0.65625 L 4.828125 -0.65625 C 4.992188 -1.195312 5.15625 -1.757812 5.3125 -2.34375 C 5.476562 -2.925781 5.664062 -3.507812 5.875 -4.09375 L 8.015625 -9.984375 L 9.75 -9.984375 L 5.328125 1.5625 C 5.128906 2.070312 4.890625 2.492188 4.609375 2.828125 C 4.328125 3.171875 4 3.421875 3.625 3.578125 C 3.257812 3.742188 2.847656 3.828125 2.390625 3.828125 C 2.128906 3.828125 1.898438 3.8125 1.703125 3.78125 C 1.503906 3.75 1.351562 3.71875 1.25 3.6875 Z M 1.25 3.6875 "/></g></g></g><g fill="#000000" fill-opacity="1"><g transform="translate(167.370568, 71.975004)"><g><path d="M 6.015625 0.203125 C 5.429688 0.203125 4.945312 0.109375 4.5625 -0.078125 C 4.175781 -0.273438 3.863281 -0.507812 3.625 -0.78125 C 3.382812 -1.050781 3.195312 -1.300781 3.0625 -1.53125 L 2.921875 -1.53125 L 2.921875 0 L 1.359375 0 L 1.359375 -13.46875 L 2.96875 -13.46875 L 2.96875 -8.40625 L 3.078125 -8.40625 C 3.203125 -8.632812 3.378906 -8.878906 3.609375 -9.140625 C 3.835938 -9.398438 4.144531 -9.628906 4.53125 -9.828125 C 4.914062 -10.023438 5.410156 -10.125 6.015625 -10.125 C 6.859375 -10.125 7.597656 -9.910156 8.234375 -9.484375 C 8.867188 -9.066406 9.363281 -8.472656 9.71875 -7.703125 C 10.082031 -6.929688 10.265625 -6.019531 10.265625 -4.96875 C 10.265625 -3.914062 10.082031 -3 9.71875 -2.21875 C 9.363281 -1.445312 8.867188 -0.847656 8.234375 -0.421875 C 7.597656 -0.00390625 6.859375 0.203125 6.015625 0.203125 Z M 5.78125 -1.234375 C 6.394531 -1.234375 6.910156 -1.394531 7.328125 -1.71875 C 7.753906 -2.039062 8.078125 -2.484375 8.296875 -3.046875 C 8.523438 -3.617188 8.640625 -4.265625 8.640625 -4.984375 C 8.640625 -5.703125 8.53125 -6.335938 8.3125 -6.890625 C 8.09375 -7.453125 7.769531 -7.890625 7.34375 -8.203125 C 6.914062 -8.523438 6.394531 -8.6875 5.78125 -8.6875 C 5.164062 -8.6875 4.644531 -8.53125 4.21875 -8.21875 C 3.800781 -7.90625 3.476562 -7.472656 3.25 -6.921875 C 3.03125 -6.367188 2.921875 -5.722656 2.921875 -4.984375 C 2.921875 -4.242188 3.03125 -3.585938 3.25 -3.015625 C 3.476562 -2.453125 3.804688 -2.015625 4.234375 -1.703125 C 4.660156 -1.390625 5.175781 -1.234375 5.78125 -1.234375 Z M 5.78125 -1.234375 "/></g></g></g><g fill="#000000" fill-opacity="1"><g transform="translate(178.517914, 71.975004)"><g><path d="M 5.546875 0.21875 C 4.578125 0.21875 3.742188 0.00390625 3.046875 -0.421875 C 2.347656 -0.859375 1.8125 -1.460938 1.4375 -2.234375 C 1.0625 -3.015625 0.875 -3.910156 0.875 -4.921875 C 0.875 -5.941406 1.054688 -6.84375 1.421875 -7.625 C 1.796875 -8.414062 2.320312 -9.03125 3 -9.46875 C 3.675781 -9.90625 4.46875 -10.125 5.375 -10.125 C 5.9375 -10.125 6.476562 -10.03125 7 -9.84375 C 7.53125 -9.65625 8.003906 -9.351562 8.421875 -8.9375 C 8.835938 -8.53125 9.164062 -8.007812 9.40625 -7.375 C 9.644531 -6.738281 9.765625 -5.976562 9.765625 -5.09375 L 9.765625 -4.46875 L 1.921875 -4.46875 L 1.921875 -5.828125 L 8.890625 -5.828125 L 8.15625 -5.328125 C 8.15625 -5.984375 8.046875 -6.566406 7.828125 -7.078125 C 7.617188 -7.585938 7.304688 -7.984375 6.890625 -8.265625 C 6.484375 -8.554688 5.976562 -8.703125 5.375 -8.703125 C 4.769531 -8.703125 4.253906 -8.554688 3.828125 -8.265625 C 3.398438 -7.972656 3.070312 -7.585938 2.84375 -7.109375 C 2.613281 -6.628906 2.5 -6.101562 2.5 -5.53125 L 2.5 -4.6875 C 2.5 -3.957031 2.625 -3.332031 2.875 -2.8125 C 3.125 -2.289062 3.476562 -1.894531 3.9375 -1.625 C 4.394531 -1.351562 4.929688 -1.21875 5.546875 -1.21875 C 5.960938 -1.21875 6.332031 -1.273438 6.65625 -1.390625 C 6.988281 -1.515625 7.269531 -1.691406 7.5 -1.921875 C 7.738281 -2.160156 7.914062 -2.453125 8.03125 -2.796875 L 9.59375 -2.453125 C 9.445312 -1.929688 9.1875 -1.46875 8.8125 -1.0625 C 8.4375 -0.664062 7.96875 -0.351562 7.40625 -0.125 C 6.851562 0.101562 6.234375 0.21875 5.546875 0.21875 Z M 5.546875 0.21875 "/></g></g></g><g fill="#000000" fill-opacity="1"><g transform="translate(189.12281, 71.975004)"><g/></g></g><g fill="#000000" fill-opacity="1"><g transform="translate(194.203758, 71.975004)"><g><path d="M 4.21875 0.21875 C 3.570312 0.21875 2.988281 0.101562 2.46875 -0.125 C 1.957031 -0.363281 1.550781 -0.710938 1.25 -1.171875 C 0.945312 -1.628906 0.796875 -2.1875 0.796875 -2.84375 C 0.796875 -3.414062 0.90625 -3.878906 1.125 -4.234375 C 1.351562 -4.597656 1.65625 -4.878906 2.03125 -5.078125 C 2.414062 -5.285156 2.835938 -5.441406 3.296875 -5.546875 C 3.753906 -5.648438 4.21875 -5.734375 4.6875 -5.796875 C 5.300781 -5.867188 5.789062 -5.925781 6.15625 -5.96875 C 6.53125 -6.019531 6.804688 -6.09375 6.984375 -6.1875 C 7.160156 -6.289062 7.25 -6.460938 7.25 -6.703125 L 7.25 -6.765625 C 7.25 -7.171875 7.164062 -7.519531 7 -7.8125 C 6.84375 -8.101562 6.609375 -8.320312 6.296875 -8.46875 C 5.984375 -8.625 5.597656 -8.703125 5.140625 -8.703125 C 4.660156 -8.703125 4.25 -8.628906 3.90625 -8.484375 C 3.570312 -8.335938 3.296875 -8.144531 3.078125 -7.90625 C 2.859375 -7.675781 2.707031 -7.429688 2.625 -7.171875 L 1.0625 -7.578125 C 1.269531 -8.191406 1.582031 -8.679688 2 -9.046875 C 2.414062 -9.421875 2.890625 -9.691406 3.421875 -9.859375 C 3.960938 -10.035156 4.519531 -10.125 5.09375 -10.125 C 5.476562 -10.125 5.890625 -10.070312 6.328125 -9.96875 C 6.765625 -9.875 7.171875 -9.703125 7.546875 -9.453125 C 7.929688 -9.210938 8.242188 -8.863281 8.484375 -8.40625 C 8.722656 -7.945312 8.84375 -7.359375 8.84375 -6.640625 L 8.84375 0 L 7.265625 0 L 7.265625 -1.375 L 7.171875 -1.375 C 7.054688 -1.132812 6.875 -0.890625 6.625 -0.640625 C 6.382812 -0.398438 6.066406 -0.195312 5.671875 -0.03125 C 5.273438 0.132812 4.789062 0.21875 4.21875 0.21875 Z M 4.46875 -1.21875 C 5.082031 -1.21875 5.59375 -1.332031 6 -1.5625 C 6.414062 -1.789062 6.726562 -2.09375 6.9375 -2.46875 C 7.144531 -2.84375 7.25 -3.234375 7.25 -3.640625 L 7.25 -5 C 7.1875 -4.925781 7.050781 -4.859375 6.84375 -4.796875 C 6.632812 -4.734375 6.390625 -4.675781 6.109375 -4.625 C 5.835938 -4.582031 5.566406 -4.546875 5.296875 -4.515625 C 5.035156 -4.484375 4.8125 -4.457031 4.625 -4.4375 C 4.238281 -4.382812 3.875 -4.296875 3.53125 -4.171875 C 3.195312 -4.054688 2.925781 -3.890625 2.71875 -3.671875 C 2.507812 -3.453125 2.40625 -3.148438 2.40625 -2.765625 C 2.40625 -2.429688 2.492188 -2.144531 2.671875 -1.90625 C 2.859375 -1.675781 3.101562 -1.503906 3.40625 -1.390625 C 3.71875 -1.273438 4.070312 -1.21875 4.46875 -1.21875 Z M 4.46875 -1.21875 "/></g></g></g><g fill="#000000" fill-opacity="1"><g transform="translate(204.419898, 71.975004)"><g><path d="M 4.78125 0.21875 C 4.09375 0.21875 3.472656 0.113281 2.921875 -0.09375 C 2.378906 -0.300781 1.929688 -0.609375 1.578125 -1.015625 C 1.234375 -1.429688 1.007812 -1.941406 0.90625 -2.546875 L 2.453125 -2.828125 C 2.578125 -2.265625 2.835938 -1.847656 3.234375 -1.578125 C 3.628906 -1.316406 4.132812 -1.1875 4.75 -1.1875 C 5.445312 -1.1875 6 -1.332031 6.40625 -1.625 C 6.820312 -1.925781 7.03125 -2.285156 7.03125 -2.703125 C 7.03125 -3.054688 6.90625 -3.347656 6.65625 -3.578125 C 6.40625 -3.804688 6.039062 -3.972656 5.5625 -4.078125 L 3.90625 -4.46875 C 3 -4.6875 2.320312 -5.019531 1.875 -5.46875 C 1.425781 -5.925781 1.203125 -6.507812 1.203125 -7.21875 C 1.203125 -7.789062 1.359375 -8.296875 1.671875 -8.734375 C 1.992188 -9.171875 2.429688 -9.507812 2.984375 -9.75 C 3.535156 -10 4.164062 -10.125 4.875 -10.125 C 5.5625 -10.125 6.148438 -10.015625 6.640625 -9.796875 C 7.140625 -9.578125 7.539062 -9.273438 7.84375 -8.890625 C 8.15625 -8.503906 8.367188 -8.0625 8.484375 -7.5625 L 7.015625 -7.265625 C 6.910156 -7.648438 6.6875 -7.992188 6.34375 -8.296875 C 6.007812 -8.609375 5.523438 -8.765625 4.890625 -8.765625 C 4.285156 -8.765625 3.789062 -8.625 3.40625 -8.34375 C 3.019531 -8.0625 2.828125 -7.710938 2.828125 -7.296875 C 2.828125 -6.921875 2.960938 -6.617188 3.234375 -6.390625 C 3.503906 -6.171875 3.914062 -6 4.46875 -5.875 L 6 -5.5 C 6.914062 -5.289062 7.59375 -4.957031 8.03125 -4.5 C 8.46875 -4.050781 8.6875 -3.484375 8.6875 -2.796875 C 8.6875 -2.203125 8.519531 -1.675781 8.1875 -1.21875 C 7.851562 -0.769531 7.394531 -0.414062 6.8125 -0.15625 C 6.226562 0.09375 5.550781 0.21875 4.78125 0.21875 Z M 4.78125 0.21875 "/></g></g></g><g fill="#000000" fill-opacity="1"><g transform="translate(213.976057, 71.975004)"><g><path d="M 2.875 -3.59375 L 2.875 -5.5625 L 3.125 -5.5625 L 7.484375 -9.984375 L 9.484375 -9.984375 L 4.8125 -5.25 L 4.640625 -5.25 Z M 1.359375 0 L 1.359375 -13.46875 L 2.96875 -13.46875 L 2.96875 0 Z M 7.75 0 L 3.875 -4.890625 L 5.015625 -6.015625 L 9.796875 0 Z M 7.75 0 "/></g></g></g><g fill="#000000" fill-opacity="1"><g transform="translate(223.966176, 71.975004)"><g/></g></g><g fill="#000000" fill-opacity="1"><g transform="translate(229.047124, 71.975004)"><g><path d="M 4.21875 0.21875 C 3.570312 0.21875 2.988281 0.101562 2.46875 -0.125 C 1.957031 -0.363281 1.550781 -0.710938 1.25 -1.171875 C 0.945312 -1.628906 0.796875 -2.1875 0.796875 -2.84375 C 0.796875 -3.414062 0.90625 -3.878906 1.125 -4.234375 C 1.351562 -4.597656 1.65625 -4.878906 2.03125 -5.078125 C 2.414062 -5.285156 2.835938 -5.441406 3.296875 -5.546875 C 3.753906 -5.648438 4.21875 -5.734375 4.6875 -5.796875 C 5.300781 -5.867188 5.789062 -5.925781 6.15625 -5.96875 C 6.53125 -6.019531 6.804688 -6.09375 6.984375 -6.1875 C 7.160156 -6.289062 7.25 -6.460938 7.25 -6.703125 L 7.25 -6.765625 C 7.25 -7.171875 7.164062 -7.519531 7 -7.8125 C 6.84375 -8.101562 6.609375 -8.320312 6.296875 -8.46875 C 5.984375 -8.625 5.597656 -8.703125 5.140625 -8.703125 C 4.660156 -8.703125 4.25 -8.628906 3.90625 -8.484375 C 3.570312 -8.335938 3.296875 -8.144531 3.078125 -7.90625 C 2.859375 -7.675781 2.707031 -7.429688 2.625 -7.171875 L 1.0625 -7.578125 C 1.269531 -8.191406 1.582031 -8.679688 2 -9.046875 C 2.414062 -9.421875 2.890625 -9.691406 3.421875 -9.859375 C 3.960938 -10.035156 4.519531 -10.125 5.09375 -10.125 C 5.476562 -10.125 5.890625 -10.070312 6.328125 -9.96875 C 6.765625 -9.875 7.171875 -9.703125 7.546875 -9.453125 C 7.929688 -9.210938 8.242188 -8.863281 8.484375 -8.40625 C 8.722656 -7.945312 8.84375 -7.359375 8.84375 -6.640625 L 8.84375 0 L 7.265625 0 L 7.265625 -1.375 L 7.171875 -1.375 C 7.054688 -1.132812 6.875 -0.890625 6.625 -0.640625 C 6.382812 -0.398438 6.066406 -0.195312 5.671875 -0.03125 C 5.273438 0.132812 4.789062 0.21875 4.21875 0.21875 Z M 4.46875 -1.21875 C 5.082031 -1.21875 5.59375 -1.332031 6 -1.5625 C 6.414062 -1.789062 6.726562 -2.09375 6.9375 -2.46875 C 7.144531 -2.84375 7.25 -3.234375 7.25 -3.640625 L 7.25 -5 C 7.1875 -4.925781 7.050781 -4.859375 6.84375 -4.796875 C 6.632812 -4.734375 6.390625 -4.675781 6.109375 -4.625 C 5.835938 -4.582031 5.566406 -4.546875 5.296875 -4.515625 C 5.035156 -4.484375 4.8125 -4.457031 4.625 -4.4375 C 4.238281 -4.382812 3.875 -4.296875 3.53125 -4.171875 C 3.195312 -4.054688 2.925781 -3.890625 2.71875 -3.671875 C 2.507812 -3.453125 2.40625 -3.148438 2.40625 -2.765625 C 2.40625 -2.429688 2.492188 -2.144531 2.671875 -1.90625 C 2.859375 -1.675781 3.101562 -1.503906 3.40625 -1.390625 C 3.71875 -1.273438 4.070312 -1.21875 4.46875 -1.21875 Z M 4.46875 -1.21875 "/></g></g></g><g fill="#000000" fill-opacity="1"><g transform="translate(239.270496, 71.975004)"><g/></g></g><g fill="#000000" fill-opacity="1"><g transform="translate(162.325189, 90.725003)"><g><path d="M 5.953125 -9.984375 L 5.953125 -8.609375 L 0.171875 -8.609375 L 0.171875 -9.984375 Z M 2.09375 0 L 2.09375 -11.40625 C 2.09375 -11.957031 2.222656 -12.421875 2.484375 -12.796875 C 2.742188 -13.179688 3.085938 -13.46875 3.515625 -13.65625 C 3.941406 -13.851562 4.398438 -13.953125 4.890625 -13.953125 C 5.234375 -13.953125 5.523438 -13.925781 5.765625 -13.875 C 6.003906 -13.832031 6.175781 -13.789062 6.28125 -13.75 L 5.9375 -12.375 C 5.851562 -12.394531 5.738281 -12.421875 5.59375 -12.453125 C 5.445312 -12.484375 5.273438 -12.5 5.078125 -12.5 C 4.585938 -12.5 4.234375 -12.378906 4.015625 -12.140625 C 3.804688 -11.898438 3.703125 -11.546875 3.703125 -11.078125 L 3.703125 0 Z M 2.09375 0 "/></g></g></g><g fill="#000000" fill-opacity="1"><g transform="translate(168.915956, 90.725003)"><g><path d="M 1.359375 0 L 1.359375 -9.984375 L 2.90625 -9.984375 L 2.90625 -8.4375 L 3 -8.4375 C 3.1875 -8.945312 3.507812 -9.351562 3.96875 -9.65625 C 4.425781 -9.96875 4.953125 -10.125 5.546875 -10.125 C 5.671875 -10.125 5.8125 -10.117188 5.96875 -10.109375 C 6.132812 -10.109375 6.257812 -10.101562 6.34375 -10.09375 L 6.34375 -8.484375 C 6.289062 -8.492188 6.171875 -8.507812 5.984375 -8.53125 C 5.796875 -8.5625 5.59375 -8.578125 5.375 -8.578125 C 4.914062 -8.578125 4.503906 -8.476562 4.140625 -8.28125 C 3.773438 -8.082031 3.488281 -7.804688 3.28125 -7.453125 C 3.070312 -7.109375 2.96875 -6.703125 2.96875 -6.234375 L 2.96875 0 Z M 1.359375 0 "/></g></g></g><g fill="#000000" fill-opacity="1"><g transform="translate(175.805081, 90.725003)"><g><path d="M 1.359375 0 L 1.359375 -9.984375 L 2.96875 -9.984375 L 2.96875 0 Z M 2.171875 -11.6875 C 1.867188 -11.6875 1.609375 -11.789062 1.390625 -12 C 1.171875 -12.207031 1.0625 -12.457031 1.0625 -12.75 C 1.0625 -13.050781 1.171875 -13.304688 1.390625 -13.515625 C 1.609375 -13.722656 1.867188 -13.828125 2.171875 -13.828125 C 2.484375 -13.828125 2.75 -13.722656 2.96875 -13.515625 C 3.1875 -13.304688 3.296875 -13.050781 3.296875 -12.75 C 3.296875 -12.457031 3.1875 -12.207031 2.96875 -12 C 2.75 -11.789062 2.484375 -11.6875 2.171875 -11.6875 Z M 2.171875 -11.6875 "/></g></g></g><g fill="#000000" fill-opacity="1"><g transform="translate(180.14468, 90.725003)"><g><path d="M 5.546875 0.21875 C 4.578125 0.21875 3.742188 0.00390625 3.046875 -0.421875 C 2.347656 -0.859375 1.8125 -1.460938 1.4375 -2.234375 C 1.0625 -3.015625 0.875 -3.910156 0.875 -4.921875 C 0.875 -5.941406 1.054688 -6.84375 1.421875 -7.625 C 1.796875 -8.414062 2.320312 -9.03125 3 -9.46875 C 3.675781 -9.90625 4.46875 -10.125 5.375 -10.125 C 5.9375 -10.125 6.476562 -10.03125 7 -9.84375 C 7.53125 -9.65625 8.003906 -9.351562 8.421875 -8.9375 C 8.835938 -8.53125 9.164062 -8.007812 9.40625 -7.375 C 9.644531 -6.738281 9.765625 -5.976562 9.765625 -5.09375 L 9.765625 -4.46875 L 1.921875 -4.46875 L 1.921875 -5.828125 L 8.890625 -5.828125 L 8.15625 -5.328125 C 8.15625 -5.984375 8.046875 -6.566406 7.828125 -7.078125 C 7.617188 -7.585938 7.304688 -7.984375 6.890625 -8.265625 C 6.484375 -8.554688 5.976562 -8.703125 5.375 -8.703125 C 4.769531 -8.703125 4.253906 -8.554688 3.828125 -8.265625 C 3.398438 -7.972656 3.070312 -7.585938 2.84375 -7.109375 C 2.613281 -6.628906 2.5 -6.101562 2.5 -5.53125 L 2.5 -4.6875 C 2.5 -3.957031 2.625 -3.332031 2.875 -2.8125 C 3.125 -2.289062 3.476562 -1.894531 3.9375 -1.625 C 4.394531 -1.351562 4.929688 -1.21875 5.546875 -1.21875 C 5.960938 -1.21875 6.332031 -1.273438 6.65625 -1.390625 C 6.988281 -1.515625 7.269531 -1.691406 7.5 -1.921875 C 7.738281 -2.160156 7.914062 -2.453125 8.03125 -2.796875 L 9.59375 -2.453125 C 9.445312 -1.929688 9.1875 -1.46875 8.8125 -1.0625 C 8.4375 -0.664062 7.96875 -0.351562 7.40625 -0.125 C 6.851562 0.101562 6.234375 0.21875 5.546875 0.21875 Z M 5.546875 0.21875 "/></g></g></g><g fill="#000000" fill-opacity="1"><g transform="translate(190.749576, 90.725003)"><g><path d="M 2.96875 -5.953125 L 2.96875 0 L 1.359375 0 L 1.359375 -9.984375 L 2.90625 -9.984375 L 2.921875 -7.5625 L 2.65625 -7.5625 C 2.957031 -8.476562 3.390625 -9.132812 3.953125 -9.53125 C 4.523438 -9.925781 5.191406 -10.125 5.953125 -10.125 C 6.628906 -10.125 7.222656 -9.984375 7.734375 -9.703125 C 8.253906 -9.421875 8.660156 -9 8.953125 -8.4375 C 9.242188 -7.875 9.390625 -7.164062 9.390625 -6.3125 L 9.390625 0 L 7.78125 0 L 7.78125 -6.1875 C 7.78125 -6.96875 7.578125 -7.578125 7.171875 -8.015625 C 6.773438 -8.453125 6.222656 -8.671875 5.515625 -8.671875 C 5.035156 -8.671875 4.601562 -8.566406 4.21875 -8.359375 C 3.832031 -8.160156 3.523438 -7.859375 3.296875 -7.453125 C 3.078125 -7.046875 2.96875 -6.546875 2.96875 -5.953125 Z M 2.96875 -5.953125 "/></g></g></g><g fill="#000000" fill-opacity="1"><g transform="translate(201.508166, 90.725003)"><g><path d="M 5.125 0.203125 C 4.289062 0.203125 3.550781 -0.00390625 2.90625 -0.421875 C 2.269531 -0.847656 1.769531 -1.445312 1.40625 -2.21875 C 1.050781 -3 0.875 -3.914062 0.875 -4.96875 C 0.875 -6.019531 1.050781 -6.929688 1.40625 -7.703125 C 1.769531 -8.472656 2.269531 -9.066406 2.90625 -9.484375 C 3.550781 -9.910156 4.289062 -10.125 5.125 -10.125 C 5.726562 -10.125 6.222656 -10.023438 6.609375 -9.828125 C 6.992188 -9.628906 7.300781 -9.398438 7.53125 -9.140625 C 7.757812 -8.878906 7.941406 -8.632812 8.078125 -8.40625 L 8.171875 -8.40625 L 8.171875 -13.46875 L 9.78125 -13.46875 L 9.78125 0 L 8.234375 0 L 8.234375 -1.53125 L 8.078125 -1.53125 C 7.941406 -1.300781 7.753906 -1.050781 7.515625 -0.78125 C 7.285156 -0.507812 6.976562 -0.273438 6.59375 -0.078125 C 6.207031 0.109375 5.71875 0.203125 5.125 0.203125 Z M 5.359375 -1.234375 C 5.972656 -1.234375 6.488281 -1.390625 6.90625 -1.703125 C 7.332031 -2.015625 7.65625 -2.453125 7.875 -3.015625 C 8.101562 -3.585938 8.21875 -4.242188 8.21875 -4.984375 C 8.21875 -5.722656 8.109375 -6.367188 7.890625 -6.921875 C 7.671875 -7.472656 7.347656 -7.90625 6.921875 -8.21875 C 6.492188 -8.53125 5.972656 -8.6875 5.359375 -8.6875 C 4.742188 -8.6875 4.222656 -8.523438 3.796875 -8.203125 C 3.378906 -7.890625 3.054688 -7.453125 2.828125 -6.890625 C 2.609375 -6.335938 2.5 -5.703125 2.5 -4.984375 C 2.5 -4.265625 2.609375 -3.617188 2.828125 -3.046875 C 3.054688 -2.484375 3.382812 -2.039062 3.8125 -1.71875 C 4.238281 -1.394531 4.753906 -1.234375 5.359375 -1.234375 Z M 5.359375 -1.234375 "/></g></g></g></svg>