<svg xmlns="http://www.w3.org/2000/svg" xmlns:xlink="http://www.w3.org/1999/xlink" width="500" zoomAndPan="magnify" viewBox="0 0 375 374.999991" height="500" preserveAspectRatio="xMidYMid meet" version="1.0"><defs><g/><clipPath id="e02b66b1f5"><path d="M 1.113281 1.644531 L 337.574219 1.644531 L 337.574219 339 L 1.113281 339 Z M 1.113281 1.644531 " clip-rule="nonzero"/></clipPath><clipPath id="e04060cb6a"><path d="M 71 245 L 268 245 L 268 370.933594 L 71 370.933594 Z M 71 245 " clip-rule="nonzero"/></clipPath><clipPath id="52409fb5c4"><rect x="0" width="339" y="0" height="373"/></clipPath></defs><g transform="matrix(1, 0, 0, 1, 18, 1)"><g clip-path="url(#52409fb5c4)"><g clip-path="url(#e02b66b1f5)"><path fill="#b3f4f0" d="M 337.890625 170.046875 C 337.890625 263.023438 262.523438 338.390625 169.546875 338.390625 C 76.566406 338.390625 1.199219 263.023438 1.199219 170.046875 C 1.195312 77.066406 76.566406 1.699219 169.546875 1.699219 C 262.523438 1.695312 337.890625 77.066406 337.890625 170.046875 " fill-opacity="1" fill-rule="nonzero"/></g><path fill="#ff657a" d="M 241.203125 147.074219 C 241.203125 147.074219 241.40625 207.101562 238.898438 216.214844 C 236.402344 225.324219 228.363281 235.035156 228.363281 235.035156 C 228.363281 235.035156 222.464844 238.863281 218.179688 235.035156 L 218.179688 221.039062 L 213.355469 235.035156 C 213.355469 235.035156 201.371094 241.949219 187.8125 236.742188 C 174.238281 231.519531 187.8125 186.433594 187.8125 186.433594 L 241.214844 144.929688 " fill-opacity="1" fill-rule="nonzero"/><path fill="#ff657a" d="M 97.960938 147.074219 C 97.960938 147.074219 97.757812 207.101562 100.265625 216.214844 C 102.765625 225.324219 110.804688 235.035156 110.804688 235.035156 C 110.804688 235.035156 116.699219 238.863281 120.988281 235.035156 L 120.988281 221.039062 L 125.808594 235.035156 C 125.808594 235.035156 137.792969 241.949219 151.355469 236.742188 C 164.925781 231.519531 151.355469 186.433594 151.355469 186.433594 L 97.960938 144.929688 " fill-opacity="1" fill-rule="nonzero"/><g clip-path="url(#e04060cb6a)"><path fill="#ffffff" d="M 267.753906 338.851562 C 259.4375 345.070312 250.496094 350.515625 241.054688 355.070312 C 239.617188 355.769531 238.171875 356.433594 236.722656 357.085938 C 216.207031 366.285156 193.480469 371.398438 169.546875 371.398438 C 145.609375 371.398438 122.882812 366.285156 102.378906 357.085938 C 100.910156 356.433594 99.460938 355.769531 98.035156 355.070312 C 88.59375 350.503906 79.652344 345.070312 71.335938 338.851562 C 72.792969 306.308594 90.082031 277.882812 115.691406 261.09375 C 131.160156 250.945312 149.660156 245.046875 169.546875 245.046875 C 172.578125 245.046875 175.582031 245.1875 178.527344 245.457031 C 195.003906 246.945312 210.289062 252.488281 223.398438 261.09375 C 235.191406 268.824219 245.210938 279.019531 252.738281 290.9375 C 261.570312 304.925781 266.960938 321.292969 267.753906 338.851562 " fill-opacity="1" fill-rule="nonzero"/></g><path fill="#a15bfa" d="M 223.398438 261.09375 C 221.898438 272.445312 216.890625 282.707031 209.484375 290.722656 C 199.558594 301.476562 185.34375 308.21875 169.546875 308.21875 C 144.238281 308.21875 122.96875 290.90625 116.933594 267.472656 C 116.398438 265.394531 115.980469 263.261719 115.691406 261.09375 C 131.160156 250.945312 149.660156 245.046875 169.546875 245.046875 C 172.578125 245.046875 175.582031 245.175781 178.539062 245.457031 C 179.054688 245.5 179.566406 245.550781 180.070312 245.605469 C 180.394531 245.636719 180.714844 245.671875 181.027344 245.714844 C 181.378906 245.746094 181.734375 245.796875 182.074219 245.839844 C 182.289062 245.863281 182.515625 245.894531 182.730469 245.925781 C 183.039062 245.960938 183.363281 246.011719 183.683594 246.054688 C 183.929688 246.089844 184.175781 246.132812 184.433594 246.164062 C 184.648438 246.195312 184.863281 246.226562 185.078125 246.269531 C 185.441406 246.324219 185.796875 246.386719 186.160156 246.441406 C 187.726562 246.710938 189.28125 247.011719 190.8125 247.351562 L 191.839844 247.578125 C 192.035156 247.632812 192.238281 247.675781 192.429688 247.726562 C 192.796875 247.8125 193.171875 247.898438 193.523438 247.996094 C 193.589844 248.007812 193.640625 248.019531 193.683594 248.027344 C 194.144531 248.144531 194.605469 248.265625 195.058594 248.394531 C 195.550781 248.511719 196.03125 248.648438 196.503906 248.789062 C 197.050781 248.941406 197.585938 249.101562 198.132812 249.261719 C 198.550781 249.390625 198.96875 249.519531 199.386719 249.65625 C 199.65625 249.742188 199.933594 249.828125 200.191406 249.914062 C 200.632812 250.054688 201.070312 250.203125 201.5 250.355469 C 202.035156 250.535156 202.5625 250.71875 203.085938 250.910156 C 203.128906 250.933594 203.160156 250.945312 203.191406 250.953125 C 203.738281 251.148438 204.277344 251.351562 204.8125 251.554688 C 205.207031 251.714844 205.617188 251.867188 206.023438 252.039062 C 207.085938 252.457031 208.125 252.894531 209.152344 253.34375 L 210.503906 253.957031 C 210.910156 254.136719 211.316406 254.332031 211.726562 254.523438 C 212.101562 254.707031 212.464844 254.878906 212.828125 255.058594 C 213.171875 255.222656 213.503906 255.390625 213.835938 255.5625 C 214.050781 255.671875 214.277344 255.777344 214.492188 255.894531 C 215.382812 256.347656 216.25 256.816406 217.105469 257.289062 C 217.417969 257.460938 217.738281 257.644531 218.039062 257.816406 C 218.242188 257.933594 218.4375 258.039062 218.628906 258.148438 L 219.359375 258.574219 L 220.097656 259.027344 L 220.578125 259.316406 C 221.039062 259.582031 221.492188 259.863281 221.941406 260.152344 C 222.433594 260.460938 222.917969 260.773438 223.398438 261.09375 " fill-opacity="1" fill-rule="nonzero"/><path fill="#a15bfa" d="M 193.480469 218.089844 L 193.480469 265.179688 C 193.480469 277.089844 183.738281 286.84375 171.828125 286.84375 L 167.261719 286.84375 C 155.351562 286.84375 145.621094 277.089844 145.621094 265.179688 L 145.621094 218.089844 C 145.621094 206.179688 155.351562 196.445312 167.261719 196.445312 L 171.828125 196.445312 C 183.738281 196.445312 193.480469 206.179688 193.480469 218.089844 " fill-opacity="1" fill-rule="nonzero"/><path fill="#3f2463" d="M 193.480469 218.089844 L 193.480469 243.011719 C 186.363281 246.96875 178.816406 249.261719 171.152344 249.261719 C 162.117188 249.261719 153.5 246.753906 145.621094 242.367188 L 145.621094 218.089844 C 145.621094 206.179688 155.351562 196.445312 167.261719 196.445312 L 171.828125 196.445312 C 183.738281 196.445312 193.480469 206.179688 193.480469 218.089844 " fill-opacity="1" fill-rule="nonzero"/><path fill="#a15bfa" d="M 227.910156 199.929688 C 227.910156 199.929688 239.125 196.113281 246.285156 183.617188 C 254.066406 170.046875 249.179688 161.589844 247.636719 159.753906 C 243.421875 154.75 236.914062 157.964844 235.84375 159.753906 C 234.773438 161.546875 219.25 189.738281 227.910156 199.929688 " fill-opacity="1" fill-rule="nonzero"/><path fill="#3f2463" d="M 238.898438 164.203125 C 238.898438 164.203125 246.015625 165.113281 243.519531 175.117188 C 241.011719 185.128906 234.441406 189.082031 225.5 194.195312 C 216.570312 199.308594 229.96875 166.238281 238.898438 164.203125 " fill-opacity="1" fill-rule="nonzero"/><path fill="#a15bfa" d="M 114.09375 199.929688 C 114.09375 199.929688 102.882812 196.113281 95.722656 183.617188 C 87.929688 170.046875 92.816406 161.589844 94.359375 159.753906 C 98.574219 154.75 105.078125 157.964844 106.152344 159.753906 C 107.222656 161.546875 122.753906 189.738281 114.09375 199.929688 " fill-opacity="1" fill-rule="nonzero"/><path fill="#3f2463" d="M 103.097656 164.203125 C 103.097656 164.203125 95.988281 165.113281 98.488281 175.117188 C 100.984375 185.128906 107.566406 189.082031 116.496094 194.195312 C 125.433594 199.308594 112.035156 166.238281 103.097656 164.203125 " fill-opacity="1" fill-rule="nonzero"/><path fill="#a15bfa" d="M 238.898438 157.601562 C 238.898438 116.511719 208.574219 83.199219 171.152344 83.199219 C 133.742188 83.199219 103.394531 116.511719 103.394531 157.601562 C 103.394531 198.6875 133.742188 241.640625 171.152344 241.640625 C 206.3125 241.640625 238.898438 198.34375 238.898438 157.601562 " fill-opacity="1" fill-rule="nonzero"/><path fill="#ff657a" d="M 177.253906 127.597656 C 177.253906 127.597656 189.996094 168.597656 237.933594 164.535156 C 237.933594 164.535156 246.304688 152.433594 243.476562 126.117188 C 240.28125 96.457031 214.007812 71.503906 171.152344 80.433594 C 171.152344 80.433594 167.242188 101.515625 177.253906 127.597656 " fill-opacity="1" fill-rule="nonzero"/><path fill="#ff657a" d="M 179.394531 83.199219 C 179.394531 83.199219 181.175781 75.4375 174.742188 69.359375 C 168.3125 63.28125 77.753906 78.597656 100.296875 165.511719 C 100.296875 165.511719 123.25 108.65625 175.816406 104.367188 L 179.394531 83.199219 " fill-opacity="1" fill-rule="nonzero"/><path fill="#b3f4f0" d="M 139.433594 321.25 L 199.539062 321.25 C 205.992188 321.25 211.222656 326.480469 211.222656 332.933594 L 211.222656 356.300781 C 211.222656 362.753906 205.992188 367.988281 199.539062 367.988281 L 139.433594 367.988281 C 132.980469 367.988281 127.75 362.753906 127.75 356.300781 L 127.75 332.933594 C 127.75 326.480469 132.980469 321.25 139.433594 321.25 Z M 139.433594 321.25 " fill-opacity="0.61" fill-rule="nonzero"/><g fill="#000000" fill-opacity="1"><g transform="translate(139.316785, 355.168854)"><g><path d="M 4.25 -6.015625 L 4.25 -8.984375 C 4.726562 -9.617188 5.207031 -10.226562 5.6875 -10.8125 C 6.164062 -11.394531 6.65625 -11.96875 7.15625 -12.53125 C 7.65625 -13.101562 8.164062 -13.671875 8.6875 -14.234375 L 14.984375 -21.03125 L 18.46875 -21.03125 L 9.484375 -11.421875 L 9.34375 -11.4375 Z M 2.4375 0 L 2.4375 -21.03125 L 5.09375 -21.03125 L 5.09375 -13.796875 L 5.046875 -9.28125 L 5.09375 -7.984375 L 5.09375 0 Z M 15.34375 0 L 7.703125 -10.734375 L 9.34375 -12.78125 L 18.46875 0 Z M 15.34375 0 "/></g></g></g><g fill="#000000" fill-opacity="1"><g transform="translate(157.354335, 355.168854)"><g><path d="M 1.96875 5.765625 L 2.453125 3.578125 L 3 3.625 C 3.46875 3.726562 3.894531 3.742188 4.28125 3.671875 C 4.664062 3.597656 5.007812 3.390625 5.3125 3.046875 C 5.613281 2.710938 5.882812 2.207031 6.125 1.53125 L 6.65625 0.046875 L 0.6875 -15.578125 L 3.4375 -15.578125 L 6.765625 -6.390625 C 7.097656 -5.484375 7.382812 -4.570312 7.625 -3.65625 C 7.875 -2.75 8.128906 -1.867188 8.390625 -1.015625 L 7.53125 -1.015625 C 7.800781 -1.867188 8.0625 -2.75 8.3125 -3.65625 C 8.5625 -4.570312 8.847656 -5.484375 9.171875 -6.390625 L 12.515625 -15.578125 L 15.234375 -15.578125 L 8.3125 2.4375 C 8.007812 3.238281 7.640625 3.898438 7.203125 4.421875 C 6.765625 4.953125 6.253906 5.34375 5.671875 5.59375 C 5.097656 5.851562 4.445312 5.984375 3.71875 5.984375 C 3.320312 5.984375 2.96875 5.957031 2.65625 5.90625 C 2.34375 5.851562 2.113281 5.804688 1.96875 5.765625 Z M 1.96875 5.765625 "/></g></g></g><g fill="#000000" fill-opacity="1"><g transform="translate(173.27496, 355.168854)"><g><path d="M 2.125 0 L 2.125 -15.578125 L 4.546875 -15.578125 L 4.546875 -13.1875 L 4.6875 -13.1875 C 4.976562 -13.976562 5.476562 -14.613281 6.1875 -15.09375 C 6.90625 -15.570312 7.734375 -15.8125 8.671875 -15.8125 C 8.867188 -15.8125 9.085938 -15.804688 9.328125 -15.796875 C 9.578125 -15.785156 9.765625 -15.773438 9.890625 -15.765625 L 9.890625 -13.234375 C 9.816406 -13.253906 9.628906 -13.28125 9.328125 -13.3125 C 9.035156 -13.351562 8.722656 -13.375 8.390625 -13.375 C 7.679688 -13.375 7.039062 -13.222656 6.46875 -12.921875 C 5.90625 -12.628906 5.457031 -12.207031 5.125 -11.65625 C 4.800781 -11.113281 4.640625 -10.46875 4.640625 -9.71875 L 4.640625 0 Z M 2.125 0 "/></g></g></g><g fill="#000000" fill-opacity="1"><g transform="translate(183.705209, 355.168854)"><g><path d="M 6.578125 0.34375 C 5.578125 0.34375 4.675781 0.160156 3.875 -0.203125 C 3.070312 -0.578125 2.429688 -1.117188 1.953125 -1.828125 C 1.472656 -2.546875 1.234375 -3.421875 1.234375 -4.453125 C 1.234375 -5.335938 1.410156 -6.054688 1.765625 -6.609375 C 2.117188 -7.171875 2.585938 -7.613281 3.171875 -7.9375 C 3.765625 -8.257812 4.421875 -8.5 5.140625 -8.65625 C 5.859375 -8.820312 6.585938 -8.953125 7.328125 -9.046875 C 8.273438 -9.171875 9.035156 -9.265625 9.609375 -9.328125 C 10.191406 -9.390625 10.617188 -9.5 10.890625 -9.65625 C 11.171875 -9.8125 11.3125 -10.082031 11.3125 -10.46875 L 11.3125 -10.578125 C 11.3125 -11.203125 11.1875 -11.738281 10.9375 -12.1875 C 10.695312 -12.644531 10.332031 -12.992188 9.84375 -13.234375 C 9.351562 -13.472656 8.742188 -13.59375 8.015625 -13.59375 C 7.273438 -13.59375 6.640625 -13.476562 6.109375 -13.25 C 5.578125 -13.019531 5.144531 -12.722656 4.8125 -12.359375 C 4.476562 -11.992188 4.242188 -11.609375 4.109375 -11.203125 L 1.671875 -11.84375 C 1.984375 -12.789062 2.460938 -13.550781 3.109375 -14.125 C 3.765625 -14.707031 4.515625 -15.132812 5.359375 -15.40625 C 6.203125 -15.675781 7.066406 -15.8125 7.953125 -15.8125 C 8.554688 -15.8125 9.195312 -15.734375 9.875 -15.578125 C 10.550781 -15.421875 11.1875 -15.148438 11.78125 -14.765625 C 12.382812 -14.378906 12.875 -13.828125 13.25 -13.109375 C 13.625 -12.398438 13.8125 -11.488281 13.8125 -10.375 L 13.8125 0 L 11.34375 0 L 11.34375 -2.140625 L 11.203125 -2.140625 C 11.023438 -1.773438 10.742188 -1.398438 10.359375 -1.015625 C 9.972656 -0.628906 9.46875 -0.304688 8.84375 -0.046875 C 8.226562 0.210938 7.472656 0.34375 6.578125 0.34375 Z M 6.984375 -1.890625 C 7.929688 -1.890625 8.722656 -2.070312 9.359375 -2.4375 C 10.003906 -2.800781 10.488281 -3.273438 10.8125 -3.859375 C 11.144531 -4.441406 11.3125 -5.050781 11.3125 -5.6875 L 11.3125 -7.8125 C 11.21875 -7.695312 11.003906 -7.59375 10.671875 -7.5 C 10.347656 -7.40625 9.972656 -7.316406 9.546875 -7.234375 C 9.117188 -7.160156 8.695312 -7.097656 8.28125 -7.046875 C 7.863281 -6.992188 7.507812 -6.953125 7.21875 -6.921875 C 6.613281 -6.835938 6.046875 -6.703125 5.515625 -6.515625 C 4.992188 -6.335938 4.570312 -6.070312 4.25 -5.71875 C 3.925781 -5.375 3.765625 -4.90625 3.765625 -4.3125 C 3.765625 -3.789062 3.898438 -3.347656 4.171875 -2.984375 C 4.453125 -2.617188 4.832031 -2.34375 5.3125 -2.15625 C 5.800781 -1.976562 6.359375 -1.890625 6.984375 -1.890625 Z M 6.984375 -1.890625 "/></g></g></g></g></g></svg>