<svg xmlns="http://www.w3.org/2000/svg" xmlns:xlink="http://www.w3.org/1999/xlink" width="500" zoomAndPan="magnify" viewBox="0 0 375 374.999991" height="500" preserveAspectRatio="xMidYMid meet" version="1.0"><defs><g/></defs><path fill="#154272" d="M 188.453125 85.449219 C 137.039062 84.925781 94.933594 126.179688 94.40625 177.59375 C 93.878906 229.007812 135.136719 271.117188 186.550781 271.636719 C 237.96875 272.164062 280.070312 230.910156 280.597656 179.5 C 281.125 128.078125 239.871094 85.972656 188.453125 85.445312 " fill-opacity="1" fill-rule="nonzero"/><path fill="#ffffff" d="M 240.863281 272.453125 C 236.21875 275.84375 231.246094 278.800781 226 281.265625 C 225.207031 281.644531 224.398438 282.007812 223.59375 282.359375 C 212.199219 287.324219 199.597656 290.027344 186.367188 289.890625 C 173.128906 289.757812 160.589844 286.796875 149.296875 281.597656 C 148.496094 281.230469 147.695312 280.851562 146.914062 280.460938 C 141.714844 277.882812 136.800781 274.824219 132.238281 271.34375 C 133.226562 253.351562 142.953125 237.730469 157.207031 228.589844 C 165.820312 223.066406 176.085938 219.914062 187.078125 220.019531 C 188.753906 220.035156 190.414062 220.132812 192.050781 220.296875 C 201.144531 221.210938 209.566406 224.371094 216.769531 229.203125 C 223.242188 233.539062 228.726562 239.238281 232.824219 245.871094 C 237.632812 253.65625 240.523438 262.734375 240.863281 272.453125 " fill-opacity="1" fill-rule="nonzero"/><path fill="#507196" d="M 216.765625 229.203125 C 215.875 235.46875 213.046875 241.117188 208.902344 245.503906 C 203.355469 251.394531 195.460938 255.042969 186.722656 254.953125 C 172.726562 254.808594 161.066406 245.117188 157.859375 232.125 C 157.574219 230.972656 157.355469 229.792969 157.207031 228.589844 C 165.820312 223.066406 176.082031 219.914062 187.078125 220.023438 C 188.753906 220.042969 190.414062 220.132812 192.050781 220.296875 C 192.335938 220.328125 192.621094 220.355469 192.898438 220.390625 C 193.074219 220.410156 193.246094 220.429688 193.421875 220.457031 C 193.617188 220.476562 193.8125 220.503906 194 220.535156 C 194.121094 220.546875 194.242188 220.5625 194.363281 220.582031 C 194.535156 220.605469 194.710938 220.636719 194.890625 220.660156 C 195.027344 220.683594 195.164062 220.707031 195.304688 220.722656 C 195.421875 220.742188 195.542969 220.761719 195.660156 220.789062 C 195.863281 220.820312 196.058594 220.855469 196.257812 220.882812 C 197.117188 221.042969 197.980469 221.222656 198.828125 221.417969 C 199.015625 221.460938 199.207031 221.507812 199.394531 221.546875 C 199.503906 221.578125 199.609375 221.601562 199.714844 221.636719 C 199.917969 221.683594 200.125 221.730469 200.320312 221.792969 C 200.355469 221.792969 200.386719 221.804688 200.410156 221.808594 C 200.664062 221.875 200.917969 221.941406 201.167969 222.015625 C 201.441406 222.085938 201.703125 222.164062 201.960938 222.242188 C 202.265625 222.332031 202.5625 222.417969 202.863281 222.515625 C 203.09375 222.585938 203.324219 222.664062 203.558594 222.738281 C 203.703125 222.789062 203.851562 222.839844 203.996094 222.886719 C 204.238281 222.972656 204.480469 223.054688 204.71875 223.136719 C 205.015625 223.242188 205.304688 223.34375 205.589844 223.457031 C 205.613281 223.46875 205.632812 223.476562 205.648438 223.480469 C 205.953125 223.585938 206.25 223.707031 206.542969 223.820312 C 206.765625 223.914062 206.984375 223.996094 207.207031 224.089844 C 207.796875 224.335938 208.363281 224.578125 208.933594 224.832031 C 209.183594 224.949219 209.429688 225.0625 209.675781 225.183594 C 209.898438 225.28125 210.125 225.390625 210.351562 225.503906 C 210.550781 225.601562 210.753906 225.699219 210.953125 225.804688 C 211.144531 225.894531 211.328125 225.996094 211.511719 226.089844 C 211.628906 226.148438 211.75 226.207031 211.867188 226.273438 C 212.359375 226.527344 212.839844 226.792969 213.308594 227.0625 C 213.480469 227.15625 213.65625 227.261719 213.824219 227.359375 C 213.929688 227.421875 214.039062 227.480469 214.144531 227.542969 L 214.546875 227.785156 C 214.683594 227.867188 214.820312 227.957031 214.957031 228.039062 C 215.039062 228.09375 215.128906 228.144531 215.21875 228.199219 C 215.472656 228.355469 215.722656 228.507812 215.964844 228.671875 C 216.238281 228.84375 216.503906 229.023438 216.765625 229.203125 " fill-opacity="1" fill-rule="nonzero"/><path fill="#507196" d="M 200.46875 205.246094 L 200.203125 231.289062 C 200.128906 237.875 194.6875 243.214844 188.101562 243.148438 L 185.578125 243.121094 C 178.992188 243.054688 173.660156 237.605469 173.734375 231.019531 L 174 204.980469 C 174.066406 198.394531 179.507812 193.0625 186.09375 193.136719 L 188.613281 193.160156 C 195.199219 193.222656 200.535156 198.667969 200.46875 205.246094 " fill-opacity="1" fill-rule="nonzero"/><path fill="#154272" d="M 200.46875 205.246094 L 200.324219 219.027344 C 196.367188 221.179688 192.179688 222.40625 187.941406 222.359375 C 182.945312 222.3125 178.191406 220.871094 173.863281 218.40625 L 174 204.980469 C 174.066406 198.394531 179.507812 193.0625 186.09375 193.136719 L 188.613281 193.160156 C 195.199219 193.222656 200.535156 198.667969 200.46875 205.246094 " fill-opacity="1" fill-rule="nonzero"/><path fill="#507196" d="M 219.605469 195.40625 C 219.605469 195.40625 225.828125 193.355469 229.867188 186.488281 C 234.246094 179.027344 231.589844 174.320312 230.75 173.300781 C 228.441406 170.507812 224.828125 172.25 224.226562 173.230469 C 223.625 174.214844 214.878906 189.714844 219.605469 195.40625 " fill-opacity="1" fill-rule="nonzero"/><path fill="#154272" d="M 225.894531 175.707031 C 225.894531 175.707031 229.816406 176.253906 228.378906 181.769531 C 226.9375 187.289062 223.277344 189.441406 218.3125 192.222656 C 213.34375 194.996094 220.9375 176.78125 225.894531 175.707031 " fill-opacity="1" fill-rule="nonzero"/><path fill="#507196" d="M 156.671875 194.757812 C 156.671875 194.757812 150.488281 192.585938 146.601562 185.636719 C 142.367188 178.085938 145.117188 173.4375 145.984375 172.433594 C 148.34375 169.691406 151.925781 171.503906 152.503906 172.5 C 153.085938 173.488281 161.515625 189.167969 156.671875 194.757812 " fill-opacity="1" fill-rule="nonzero"/><path fill="#154272" d="M 150.792969 174.941406 C 150.792969 174.941406 146.855469 175.40625 148.183594 180.953125 C 149.503906 186.496094 153.121094 188.726562 158.03125 191.605469 C 162.945312 194.480469 155.71875 176.117188 150.792969 174.941406 " fill-opacity="1" fill-rule="nonzero"/><path fill="#c5d0dc" d="M 151.40625 127.433594 C 151.675781 131.726562 151 171.289062 151 171.289062 L 225.929688 172.054688 C 225.929688 172.054688 230.238281 137.71875 226.375 128.496094 C 222.507812 119.265625 218.851562 128.121094 218.851562 128.121094 C 218.851562 128.121094 213.6875 120.011719 201.285156 125.273438 C 201.285156 125.273438 199.378906 120.113281 191.363281 121.714844 C 191.363281 121.714844 181.972656 112.332031 176.257812 119.976562 C 176.257812 119.976562 167.734375 113.367188 164.105469 120.445312 C 164.105469 120.445312 150.671875 115.863281 151.40625 127.433594 " fill-opacity="1" fill-rule="nonzero"/><path fill="#507196" d="M 225.929688 172.054688 C 226.160156 149.332031 209.574219 130.742188 188.886719 130.535156 C 168.191406 130.324219 151.230469 148.570312 151 171.289062 C 150.769531 194.011719 167.296875 217.9375 187.984375 218.144531 C 207.433594 218.347656 225.699219 194.585938 225.929688 172.054688 " fill-opacity="1" fill-rule="nonzero"/><path fill="#c5d0dc" d="M 225.746094 137.382812 L 193.09375 126.078125 L 189.738281 126.046875 L 188.042969 126.023438 L 184.6875 125.996094 L 151.8125 136.625 L 150.921875 171.289062 C 151.78125 163.585938 158.71875 143.511719 165.203125 146.835938 C 170.472656 149.539062 183.1875 150.757812 187.78125 151.117188 L 187.78125 151.21875 C 187.78125 151.21875 188.089844 151.207031 188.628906 151.175781 C 189.167969 151.21875 189.476562 151.234375 189.476562 151.234375 L 189.484375 151.136719 C 194.082031 150.867188 206.824219 149.914062 212.140625 147.316406 C 218.695312 144.128906 225.222656 164.332031 225.929688 172.054688 L 225.746094 137.382812 " fill-opacity="1" fill-rule="nonzero"/><path fill="#154272" d="M 141 297.578125 L 141 293.78125 C 141 291.796875 140.210938 289.898438 138.808594 288.496094 C 137.40625 287.09375 135.503906 286.304688 133.523438 286.304688 L 95.238281 286.304688 C 91.109375 286.304688 87.761719 282.957031 87.761719 278.828125 L 87.761719 263.875 C 87.761719 259.746094 91.109375 256.398438 95.238281 256.398438 L 279.75 256.398438 C 283.878906 256.398438 287.226562 259.746094 287.226562 263.875 L 287.226562 278.828125 C 287.226562 282.957031 283.878906 286.304688 279.75 286.304688 L 241.476562 286.304688 C 237.347656 286.304688 234 289.652344 234 293.78125 L 234 297.578125 C 234 301.707031 230.652344 305.054688 226.523438 305.054688 L 148.476562 305.054688 C 144.347656 305.054688 141 301.707031 141 297.578125 Z M 141 297.578125 " fill-opacity="0.61" fill-rule="nonzero"/><g fill="#ffffff" fill-opacity="1"><g transform="translate(95.167966, 278.10045)"><g><path d="M 1.5625 0 L 1.5625 -13.46875 L 6.359375 -13.46875 C 7.285156 -13.46875 8.054688 -13.304688 8.671875 -12.984375 C 9.296875 -12.671875 9.765625 -12.242188 10.078125 -11.703125 C 10.390625 -11.171875 10.546875 -10.570312 10.546875 -9.90625 C 10.546875 -9.332031 10.441406 -8.859375 10.234375 -8.484375 C 10.035156 -8.109375 9.769531 -7.804688 9.4375 -7.578125 C 9.113281 -7.347656 8.742188 -7.171875 8.328125 -7.046875 L 8.328125 -6.9375 C 8.773438 -6.90625 9.207031 -6.757812 9.625 -6.5 C 10.039062 -6.238281 10.382812 -5.867188 10.65625 -5.390625 C 10.9375 -4.910156 11.078125 -4.328125 11.078125 -3.640625 C 11.078125 -2.929688 10.914062 -2.304688 10.59375 -1.765625 C 10.269531 -1.222656 9.769531 -0.789062 9.09375 -0.46875 C 8.425781 -0.15625 7.554688 0 6.484375 0 Z M 3.265625 -1.5 L 6.453125 -1.5 C 7.492188 -1.5 8.25 -1.695312 8.71875 -2.09375 C 9.1875 -2.5 9.421875 -3.015625 9.421875 -3.640625 C 9.421875 -4.097656 9.300781 -4.515625 9.0625 -4.890625 C 8.832031 -5.265625 8.503906 -5.5625 8.078125 -5.78125 C 7.648438 -6 7.140625 -6.109375 6.546875 -6.109375 L 3.265625 -6.109375 Z M 3.265625 -7.5625 L 6.296875 -7.5625 C 6.796875 -7.5625 7.242188 -7.65625 7.640625 -7.84375 C 8.035156 -8.03125 8.34375 -8.296875 8.5625 -8.640625 C 8.789062 -8.984375 8.90625 -9.382812 8.90625 -9.84375 C 8.90625 -10.457031 8.691406 -10.960938 8.265625 -11.359375 C 7.847656 -11.765625 7.207031 -11.96875 6.34375 -11.96875 L 3.265625 -11.96875 Z M 3.265625 -7.5625 "/></g></g></g><g fill="#ffffff" fill-opacity="1"><g transform="translate(107.219395, 278.10045)"><g><path d="M 5.546875 0.21875 C 4.578125 0.21875 3.742188 0.00390625 3.046875 -0.421875 C 2.347656 -0.859375 1.8125 -1.460938 1.4375 -2.234375 C 1.0625 -3.015625 0.875 -3.910156 0.875 -4.921875 C 0.875 -5.941406 1.054688 -6.84375 1.421875 -7.625 C 1.796875 -8.414062 2.320312 -9.03125 3 -9.46875 C 3.675781 -9.90625 4.46875 -10.125 5.375 -10.125 C 5.9375 -10.125 6.476562 -10.03125 7 -9.84375 C 7.53125 -9.65625 8.003906 -9.351562 8.421875 -8.9375 C 8.835938 -8.53125 9.164062 -8.007812 9.40625 -7.375 C 9.644531 -6.738281 9.765625 -5.976562 9.765625 -5.09375 L 9.765625 -4.46875 L 1.921875 -4.46875 L 1.921875 -5.828125 L 8.890625 -5.828125 L 8.15625 -5.328125 C 8.15625 -5.984375 8.046875 -6.566406 7.828125 -7.078125 C 7.617188 -7.585938 7.304688 -7.984375 6.890625 -8.265625 C 6.484375 -8.554688 5.976562 -8.703125 5.375 -8.703125 C 4.769531 -8.703125 4.253906 -8.554688 3.828125 -8.265625 C 3.398438 -7.972656 3.070312 -7.585938 2.84375 -7.109375 C 2.613281 -6.628906 2.5 -6.101562 2.5 -5.53125 L 2.5 -4.6875 C 2.5 -3.957031 2.625 -3.332031 2.875 -2.8125 C 3.125 -2.289062 3.476562 -1.894531 3.9375 -1.625 C 4.394531 -1.351562 4.929688 -1.21875 5.546875 -1.21875 C 5.960938 -1.21875 6.332031 -1.273438 6.65625 -1.390625 C 6.988281 -1.515625 7.269531 -1.691406 7.5 -1.921875 C 7.738281 -2.160156 7.914062 -2.453125 8.03125 -2.796875 L 9.59375 -2.453125 C 9.445312 -1.929688 9.1875 -1.46875 8.8125 -1.0625 C 8.4375 -0.664062 7.96875 -0.351562 7.40625 -0.125 C 6.851562 0.101562 6.234375 0.21875 5.546875 0.21875 Z M 5.546875 0.21875 "/></g></g></g><g fill="#ffffff" fill-opacity="1"><g transform="translate(117.824291, 278.10045)"><g><path d="M 5.390625 -9.984375 L 5.390625 -8.609375 L 0.171875 -8.609375 L 0.171875 -9.984375 Z M 1.734375 -12.4375 L 3.34375 -12.4375 L 3.34375 -2.546875 C 3.34375 -2.117188 3.429688 -1.804688 3.609375 -1.609375 C 3.785156 -1.410156 4.082031 -1.3125 4.5 -1.3125 C 4.613281 -1.3125 4.75 -1.320312 4.90625 -1.34375 C 5.0625 -1.363281 5.207031 -1.382812 5.34375 -1.40625 L 5.609375 -0.046875 C 5.441406 0.00390625 5.253906 0.0390625 5.046875 0.0625 C 4.835938 0.0820312 4.632812 0.09375 4.4375 0.09375 C 3.570312 0.09375 2.90625 -0.125 2.4375 -0.5625 C 1.96875 -1 1.734375 -1.617188 1.734375 -2.421875 Z M 1.734375 -12.4375 "/></g></g></g><g fill="#ffffff" fill-opacity="1"><g transform="translate(123.673698, 278.10045)"><g><path d="M 5.390625 -9.984375 L 5.390625 -8.609375 L 0.171875 -8.609375 L 0.171875 -9.984375 Z M 1.734375 -12.4375 L 3.34375 -12.4375 L 3.34375 -2.546875 C 3.34375 -2.117188 3.429688 -1.804688 3.609375 -1.609375 C 3.785156 -1.410156 4.082031 -1.3125 4.5 -1.3125 C 4.613281 -1.3125 4.75 -1.320312 4.90625 -1.34375 C 5.0625 -1.363281 5.207031 -1.382812 5.34375 -1.40625 L 5.609375 -0.046875 C 5.441406 0.00390625 5.253906 0.0390625 5.046875 0.0625 C 4.835938 0.0820312 4.632812 0.09375 4.4375 0.09375 C 3.570312 0.09375 2.90625 -0.125 2.4375 -0.5625 C 1.96875 -1 1.734375 -1.617188 1.734375 -2.421875 Z M 1.734375 -12.4375 "/></g></g></g><g fill="#ffffff" fill-opacity="1"><g transform="translate(129.48693, 278.10045)"><g><path d="M 5.546875 0.21875 C 4.578125 0.21875 3.742188 0.00390625 3.046875 -0.421875 C 2.347656 -0.859375 1.8125 -1.460938 1.4375 -2.234375 C 1.0625 -3.015625 0.875 -3.910156 0.875 -4.921875 C 0.875 -5.941406 1.054688 -6.84375 1.421875 -7.625 C 1.796875 -8.414062 2.320312 -9.03125 3 -9.46875 C 3.675781 -9.90625 4.46875 -10.125 5.375 -10.125 C 5.9375 -10.125 6.476562 -10.03125 7 -9.84375 C 7.53125 -9.65625 8.003906 -9.351562 8.421875 -8.9375 C 8.835938 -8.53125 9.164062 -8.007812 9.40625 -7.375 C 9.644531 -6.738281 9.765625 -5.976562 9.765625 -5.09375 L 9.765625 -4.46875 L 1.921875 -4.46875 L 1.921875 -5.828125 L 8.890625 -5.828125 L 8.15625 -5.328125 C 8.15625 -5.984375 8.046875 -6.566406 7.828125 -7.078125 C 7.617188 -7.585938 7.304688 -7.984375 6.890625 -8.265625 C 6.484375 -8.554688 5.976562 -8.703125 5.375 -8.703125 C 4.769531 -8.703125 4.253906 -8.554688 3.828125 -8.265625 C 3.398438 -7.972656 3.070312 -7.585938 2.84375 -7.109375 C 2.613281 -6.628906 2.5 -6.101562 2.5 -5.53125 L 2.5 -4.6875 C 2.5 -3.957031 2.625 -3.332031 2.875 -2.8125 C 3.125 -2.289062 3.476562 -1.894531 3.9375 -1.625 C 4.394531 -1.351562 4.929688 -1.21875 5.546875 -1.21875 C 5.960938 -1.21875 6.332031 -1.273438 6.65625 -1.390625 C 6.988281 -1.515625 7.269531 -1.691406 7.5 -1.921875 C 7.738281 -2.160156 7.914062 -2.453125 8.03125 -2.796875 L 9.59375 -2.453125 C 9.445312 -1.929688 9.1875 -1.46875 8.8125 -1.0625 C 8.4375 -0.664062 7.96875 -0.351562 7.40625 -0.125 C 6.851562 0.101562 6.234375 0.21875 5.546875 0.21875 Z M 5.546875 0.21875 "/></g></g></g><g fill="#ffffff" fill-opacity="1"><g transform="translate(140.091826, 278.10045)"><g><path d="M 1.359375 0 L 1.359375 -9.984375 L 2.90625 -9.984375 L 2.90625 -8.4375 L 3 -8.4375 C 3.1875 -8.945312 3.507812 -9.351562 3.96875 -9.65625 C 4.425781 -9.96875 4.953125 -10.125 5.546875 -10.125 C 5.671875 -10.125 5.8125 -10.117188 5.96875 -10.109375 C 6.132812 -10.109375 6.257812 -10.101562 6.34375 -10.09375 L 6.34375 -8.484375 C 6.289062 -8.492188 6.171875 -8.507812 5.984375 -8.53125 C 5.796875 -8.5625 5.59375 -8.578125 5.375 -8.578125 C 4.914062 -8.578125 4.503906 -8.476562 4.140625 -8.28125 C 3.773438 -8.082031 3.488281 -7.804688 3.28125 -7.453125 C 3.070312 -7.109375 2.96875 -6.703125 2.96875 -6.234375 L 2.96875 0 Z M 1.359375 0 "/></g></g></g><g fill="#ffffff" fill-opacity="1"><g transform="translate(146.836286, 278.10045)"><g/></g></g><g fill="#ffffff" fill-opacity="1"><g transform="translate(151.917234, 278.10045)"><g><path d="M 3.59375 0 L 0.546875 -9.984375 L 2.25 -9.984375 L 3.484375 -5.625 C 3.648438 -5.007812 3.828125 -4.328125 4.015625 -3.578125 C 4.203125 -2.835938 4.390625 -2.019531 4.578125 -1.125 L 4.3125 -1.125 C 4.488281 -1.988281 4.671875 -2.789062 4.859375 -3.53125 C 5.046875 -4.28125 5.222656 -4.976562 5.390625 -5.625 L 6.609375 -9.984375 L 8.296875 -9.984375 L 9.5 -5.625 C 9.664062 -5 9.835938 -4.3125 10.015625 -3.5625 C 10.203125 -2.820312 10.382812 -2.007812 10.5625 -1.125 L 10.28125 -1.125 C 10.46875 -2 10.65625 -2.804688 10.84375 -3.546875 C 11.03125 -4.296875 11.21875 -4.988281 11.40625 -5.625 L 12.625 -9.984375 L 14.328125 -9.984375 L 11.28125 0 L 9.671875 0 L 8.375 -4.515625 C 8.238281 -4.972656 8.109375 -5.4375 7.984375 -5.90625 C 7.859375 -6.382812 7.734375 -6.867188 7.609375 -7.359375 C 7.492188 -7.859375 7.375 -8.363281 7.25 -8.875 L 7.625 -8.875 C 7.507812 -8.375 7.390625 -7.875 7.265625 -7.375 C 7.140625 -6.875 7.015625 -6.382812 6.890625 -5.90625 C 6.765625 -5.4375 6.640625 -4.972656 6.515625 -4.515625 L 5.203125 0 Z M 3.59375 0 "/></g></g></g><g fill="#ffffff" fill-opacity="1"><g transform="translate(166.463899, 278.10045)"><g><path d="M 5.546875 0.21875 C 4.578125 0.21875 3.742188 0.00390625 3.046875 -0.421875 C 2.347656 -0.859375 1.8125 -1.460938 1.4375 -2.234375 C 1.0625 -3.015625 0.875 -3.910156 0.875 -4.921875 C 0.875 -5.941406 1.054688 -6.84375 1.421875 -7.625 C 1.796875 -8.414062 2.320312 -9.03125 3 -9.46875 C 3.675781 -9.90625 4.46875 -10.125 5.375 -10.125 C 5.9375 -10.125 6.476562 -10.03125 7 -9.84375 C 7.53125 -9.65625 8.003906 -9.351562 8.421875 -8.9375 C 8.835938 -8.53125 9.164062 -8.007812 9.40625 -7.375 C 9.644531 -6.738281 9.765625 -5.976562 9.765625 -5.09375 L 9.765625 -4.46875 L 1.921875 -4.46875 L 1.921875 -5.828125 L 8.890625 -5.828125 L 8.15625 -5.328125 C 8.15625 -5.984375 8.046875 -6.566406 7.828125 -7.078125 C 7.617188 -7.585938 7.304688 -7.984375 6.890625 -8.265625 C 6.484375 -8.554688 5.976562 -8.703125 5.375 -8.703125 C 4.769531 -8.703125 4.253906 -8.554688 3.828125 -8.265625 C 3.398438 -7.972656 3.070312 -7.585938 2.84375 -7.109375 C 2.613281 -6.628906 2.5 -6.101562 2.5 -5.53125 L 2.5 -4.6875 C 2.5 -3.957031 2.625 -3.332031 2.875 -2.8125 C 3.125 -2.289062 3.476562 -1.894531 3.9375 -1.625 C 4.394531 -1.351562 4.929688 -1.21875 5.546875 -1.21875 C 5.960938 -1.21875 6.332031 -1.273438 6.65625 -1.390625 C 6.988281 -1.515625 7.269531 -1.691406 7.5 -1.921875 C 7.738281 -2.160156 7.914062 -2.453125 8.03125 -2.796875 L 9.59375 -2.453125 C 9.445312 -1.929688 9.1875 -1.46875 8.8125 -1.0625 C 8.4375 -0.664062 7.96875 -0.351562 7.40625 -0.125 C 6.851562 0.101562 6.234375 0.21875 5.546875 0.21875 Z M 5.546875 0.21875 "/></g></g></g><g fill="#ffffff" fill-opacity="1"><g transform="translate(177.068794, 278.10045)"><g/></g></g><g fill="#ffffff" fill-opacity="1"><g transform="translate(182.149742, 278.10045)"><g><path d="M 1.359375 -9.984375 L 2.96875 -9.984375 L 2.96875 0.859375 C 2.96875 1.453125 2.859375 1.96875 2.640625 2.40625 C 2.429688 2.851562 2.113281 3.191406 1.6875 3.421875 C 1.257812 3.660156 0.734375 3.78125 0.109375 3.78125 L -0.296875 3.78125 L -0.296875 2.3125 L 0.046875 2.3125 C 0.503906 2.3125 0.835938 2.179688 1.046875 1.921875 C 1.253906 1.671875 1.359375 1.296875 1.359375 0.796875 Z M 2.171875 -11.6875 C 1.867188 -11.6875 1.609375 -11.789062 1.390625 -12 C 1.171875 -12.207031 1.0625 -12.457031 1.0625 -12.75 C 1.0625 -13.050781 1.171875 -13.304688 1.390625 -13.515625 C 1.609375 -13.722656 1.867188 -13.828125 2.171875 -13.828125 C 2.484375 -13.828125 2.75 -13.722656 2.96875 -13.515625 C 3.1875 -13.304688 3.296875 -13.050781 3.296875 -12.75 C 3.296875 -12.457031 3.1875 -12.207031 2.96875 -12 C 2.75 -11.789062 2.484375 -11.6875 2.171875 -11.6875 Z M 2.171875 -11.6875 "/></g></g></g><g fill="#ffffff" fill-opacity="1"><g transform="translate(186.489341, 278.10045)"><g><path d="M 4.8125 0.140625 C 4.132812 0.140625 3.535156 0 3.015625 -0.28125 C 2.492188 -0.5625 2.085938 -0.984375 1.796875 -1.546875 C 1.503906 -2.109375 1.359375 -2.816406 1.359375 -3.671875 L 1.359375 -9.984375 L 2.96875 -9.984375 L 2.96875 -3.8125 C 2.96875 -3.019531 3.171875 -2.40625 3.578125 -1.96875 C 3.984375 -1.53125 4.539062 -1.3125 5.25 -1.3125 C 5.726562 -1.3125 6.15625 -1.414062 6.53125 -1.625 C 6.914062 -1.832031 7.21875 -2.132812 7.4375 -2.53125 C 7.664062 -2.9375 7.78125 -3.4375 7.78125 -4.03125 L 7.78125 -9.984375 L 9.40625 -9.984375 L 9.40625 0 L 7.84375 0 L 7.84375 -2.421875 L 8.109375 -2.421875 C 7.796875 -1.492188 7.351562 -0.832031 6.78125 -0.4375 C 6.207031 -0.0507812 5.550781 0.140625 4.8125 0.140625 Z M 4.8125 0.140625 "/></g></g></g><g fill="#ffffff" fill-opacity="1"><g transform="translate(197.256972, 278.10045)"><g><path d="M 4.78125 0.21875 C 4.09375 0.21875 3.472656 0.113281 2.921875 -0.09375 C 2.378906 -0.300781 1.929688 -0.609375 1.578125 -1.015625 C 1.234375 -1.429688 1.007812 -1.941406 0.90625 -2.546875 L 2.453125 -2.828125 C 2.578125 -2.265625 2.835938 -1.847656 3.234375 -1.578125 C 3.628906 -1.316406 4.132812 -1.1875 4.75 -1.1875 C 5.445312 -1.1875 6 -1.332031 6.40625 -1.625 C 6.820312 -1.925781 7.03125 -2.285156 7.03125 -2.703125 C 7.03125 -3.054688 6.90625 -3.347656 6.65625 -3.578125 C 6.40625 -3.804688 6.039062 -3.972656 5.5625 -4.078125 L 3.90625 -4.46875 C 3 -4.6875 2.320312 -5.019531 1.875 -5.46875 C 1.425781 -5.925781 1.203125 -6.507812 1.203125 -7.21875 C 1.203125 -7.789062 1.359375 -8.296875 1.671875 -8.734375 C 1.992188 -9.171875 2.429688 -9.507812 2.984375 -9.75 C 3.535156 -10 4.164062 -10.125 4.875 -10.125 C 5.5625 -10.125 6.148438 -10.015625 6.640625 -9.796875 C 7.140625 -9.578125 7.539062 -9.273438 7.84375 -8.890625 C 8.15625 -8.503906 8.367188 -8.0625 8.484375 -7.5625 L 7.015625 -7.265625 C 6.910156 -7.648438 6.6875 -7.992188 6.34375 -8.296875 C 6.007812 -8.609375 5.523438 -8.765625 4.890625 -8.765625 C 4.285156 -8.765625 3.789062 -8.625 3.40625 -8.34375 C 3.019531 -8.0625 2.828125 -7.710938 2.828125 -7.296875 C 2.828125 -6.921875 2.960938 -6.617188 3.234375 -6.390625 C 3.503906 -6.171875 3.914062 -6 4.46875 -5.875 L 6 -5.5 C 6.914062 -5.289062 7.59375 -4.957031 8.03125 -4.5 C 8.46875 -4.050781 8.6875 -3.484375 8.6875 -2.796875 C 8.6875 -2.203125 8.519531 -1.675781 8.1875 -1.21875 C 7.851562 -0.769531 7.394531 -0.414062 6.8125 -0.15625 C 6.226562 0.09375 5.550781 0.21875 4.78125 0.21875 Z M 4.78125 0.21875 "/></g></g></g><g fill="#ffffff" fill-opacity="1"><g transform="translate(206.849295, 278.10045)"><g><path d="M 5.390625 -9.984375 L 5.390625 -8.609375 L 0.171875 -8.609375 L 0.171875 -9.984375 Z M 1.734375 -12.4375 L 3.34375 -12.4375 L 3.34375 -2.546875 C 3.34375 -2.117188 3.429688 -1.804688 3.609375 -1.609375 C 3.785156 -1.410156 4.082031 -1.3125 4.5 -1.3125 C 4.613281 -1.3125 4.75 -1.320312 4.90625 -1.34375 C 5.0625 -1.363281 5.207031 -1.382812 5.34375 -1.40625 L 5.609375 -0.046875 C 5.441406 0.00390625 5.253906 0.0390625 5.046875 0.0625 C 4.835938 0.0820312 4.632812 0.09375 4.4375 0.09375 C 3.570312 0.09375 2.90625 -0.125 2.4375 -0.5625 C 1.96875 -1 1.734375 -1.617188 1.734375 -2.421875 Z M 1.734375 -12.4375 "/></g></g></g><g fill="#ffffff" fill-opacity="1"><g transform="translate(212.843366, 278.10045)"><g/></g></g><g fill="#ffffff" fill-opacity="1"><g transform="translate(217.924314, 278.10045)"><g><path d="M 5.4375 0.21875 C 4.53125 0.21875 3.734375 0.00390625 3.046875 -0.421875 C 2.367188 -0.859375 1.835938 -1.460938 1.453125 -2.234375 C 1.066406 -3.015625 0.875 -3.914062 0.875 -4.9375 C 0.875 -5.96875 1.066406 -6.875 1.453125 -7.65625 C 1.835938 -8.4375 2.367188 -9.039062 3.046875 -9.46875 C 3.734375 -9.90625 4.53125 -10.125 5.4375 -10.125 C 5.9375 -10.125 6.40625 -10.054688 6.84375 -9.921875 C 7.289062 -9.796875 7.691406 -9.601562 8.046875 -9.34375 C 8.398438 -9.09375 8.703125 -8.785156 8.953125 -8.421875 C 9.210938 -8.066406 9.398438 -7.664062 9.515625 -7.21875 L 7.953125 -6.875 C 7.890625 -7.132812 7.78125 -7.375 7.625 -7.59375 C 7.476562 -7.8125 7.300781 -8.003906 7.09375 -8.171875 C 6.882812 -8.335938 6.640625 -8.460938 6.359375 -8.546875 C 6.085938 -8.640625 5.78125 -8.6875 5.4375 -8.6875 C 4.78125 -8.6875 4.234375 -8.515625 3.796875 -8.171875 C 3.367188 -7.835938 3.046875 -7.382812 2.828125 -6.8125 C 2.609375 -6.25 2.5 -5.625 2.5 -4.9375 C 2.5 -4.257812 2.609375 -3.640625 2.828125 -3.078125 C 3.046875 -2.515625 3.367188 -2.0625 3.796875 -1.71875 C 4.234375 -1.382812 4.78125 -1.21875 5.4375 -1.21875 C 5.78125 -1.21875 6.09375 -1.257812 6.375 -1.34375 C 6.65625 -1.4375 6.898438 -1.566406 7.109375 -1.734375 C 7.328125 -1.910156 7.507812 -2.113281 7.65625 -2.34375 C 7.800781 -2.570312 7.910156 -2.820312 7.984375 -3.09375 L 9.546875 -2.75 C 9.421875 -2.300781 9.234375 -1.894531 8.984375 -1.53125 C 8.734375 -1.164062 8.425781 -0.851562 8.0625 -0.59375 C 7.707031 -0.332031 7.304688 -0.132812 6.859375 0 C 6.410156 0.144531 5.9375 0.21875 5.4375 0.21875 Z M 5.4375 0.21875 "/></g></g></g><g fill="#ffffff" fill-opacity="1"><g transform="translate(228.465935, 278.10045)"><g><path d="M 4.21875 0.21875 C 3.570312 0.21875 2.988281 0.101562 2.46875 -0.125 C 1.957031 -0.363281 1.550781 -0.710938 1.25 -1.171875 C 0.945312 -1.628906 0.796875 -2.1875 0.796875 -2.84375 C 0.796875 -3.414062 0.90625 -3.878906 1.125 -4.234375 C 1.351562 -4.597656 1.65625 -4.878906 2.03125 -5.078125 C 2.414062 -5.285156 2.835938 -5.441406 3.296875 -5.546875 C 3.753906 -5.648438 4.21875 -5.734375 4.6875 -5.796875 C 5.300781 -5.867188 5.789062 -5.925781 6.15625 -5.96875 C 6.53125 -6.019531 6.804688 -6.09375 6.984375 -6.1875 C 7.160156 -6.289062 7.25 -6.460938 7.25 -6.703125 L 7.25 -6.765625 C 7.25 -7.171875 7.164062 -7.519531 7 -7.8125 C 6.84375 -8.101562 6.609375 -8.320312 6.296875 -8.46875 C 5.984375 -8.625 5.597656 -8.703125 5.140625 -8.703125 C 4.660156 -8.703125 4.25 -8.628906 3.90625 -8.484375 C 3.570312 -8.335938 3.296875 -8.144531 3.078125 -7.90625 C 2.859375 -7.675781 2.707031 -7.429688 2.625 -7.171875 L 1.0625 -7.578125 C 1.269531 -8.191406 1.582031 -8.679688 2 -9.046875 C 2.414062 -9.421875 2.890625 -9.691406 3.421875 -9.859375 C 3.960938 -10.035156 4.519531 -10.125 5.09375 -10.125 C 5.476562 -10.125 5.890625 -10.070312 6.328125 -9.96875 C 6.765625 -9.875 7.171875 -9.703125 7.546875 -9.453125 C 7.929688 -9.210938 8.242188 -8.863281 8.484375 -8.40625 C 8.722656 -7.945312 8.84375 -7.359375 8.84375 -6.640625 L 8.84375 0 L 7.265625 0 L 7.265625 -1.375 L 7.171875 -1.375 C 7.054688 -1.132812 6.875 -0.890625 6.625 -0.640625 C 6.382812 -0.398438 6.066406 -0.195312 5.671875 -0.03125 C 5.273438 0.132812 4.789062 0.21875 4.21875 0.21875 Z M 4.46875 -1.21875 C 5.082031 -1.21875 5.59375 -1.332031 6 -1.5625 C 6.414062 -1.789062 6.726562 -2.09375 6.9375 -2.46875 C 7.144531 -2.84375 7.25 -3.234375 7.25 -3.640625 L 7.25 -5 C 7.1875 -4.925781 7.050781 -4.859375 6.84375 -4.796875 C 6.632812 -4.734375 6.390625 -4.675781 6.109375 -4.625 C 5.835938 -4.582031 5.566406 -4.546875 5.296875 -4.515625 C 5.035156 -4.484375 4.8125 -4.457031 4.625 -4.4375 C 4.238281 -4.382812 3.875 -4.296875 3.53125 -4.171875 C 3.195312 -4.054688 2.925781 -3.890625 2.71875 -3.671875 C 2.507812 -3.453125 2.40625 -3.148438 2.40625 -2.765625 C 2.40625 -2.429688 2.492188 -2.144531 2.671875 -1.90625 C 2.859375 -1.675781 3.101562 -1.503906 3.40625 -1.390625 C 3.71875 -1.273438 4.070312 -1.21875 4.46875 -1.21875 Z M 4.46875 -1.21875 "/></g></g></g><g fill="#ffffff" fill-opacity="1"><g transform="translate(238.682075, 278.10045)"><g><path d="M 2.96875 -13.46875 L 2.96875 0 L 1.359375 0 L 1.359375 -13.46875 Z M 2.96875 -13.46875 "/></g></g></g><g fill="#ffffff" fill-opacity="1"><g transform="translate(243.021675, 278.10045)"><g><path d="M 2.96875 -13.46875 L 2.96875 0 L 1.359375 0 L 1.359375 -13.46875 Z M 2.96875 -13.46875 "/></g></g></g><g fill="#ffffff" fill-opacity="1"><g transform="translate(247.361274, 278.10045)"><g/></g></g><g fill="#ffffff" fill-opacity="1"><g transform="translate(252.442222, 278.10045)"><g><path d="M 5.390625 -9.984375 L 5.390625 -8.609375 L 0.171875 -8.609375 L 0.171875 -9.984375 Z M 1.734375 -12.4375 L 3.34375 -12.4375 L 3.34375 -2.546875 C 3.34375 -2.117188 3.429688 -1.804688 3.609375 -1.609375 C 3.785156 -1.410156 4.082031 -1.3125 4.5 -1.3125 C 4.613281 -1.3125 4.75 -1.320312 4.90625 -1.34375 C 5.0625 -1.363281 5.207031 -1.382812 5.34375 -1.40625 L 5.609375 -0.046875 C 5.441406 0.00390625 5.253906 0.0390625 5.046875 0.0625 C 4.835938 0.0820312 4.632812 0.09375 4.4375 0.09375 C 3.570312 0.09375 2.90625 -0.125 2.4375 -0.5625 C 1.96875 -1 1.734375 -1.617188 1.734375 -2.421875 Z M 1.734375 -12.4375 "/></g></g></g><g fill="#ffffff" fill-opacity="1"><g transform="translate(258.436293, 278.10045)"><g><path d="M 2.96875 -5.953125 L 2.96875 0 L 1.359375 0 L 1.359375 -13.46875 L 2.96875 -13.46875 L 2.96875 -7.5625 L 2.65625 -7.5625 C 2.957031 -8.476562 3.390625 -9.132812 3.953125 -9.53125 C 4.523438 -9.925781 5.191406 -10.125 5.953125 -10.125 C 6.628906 -10.125 7.226562 -9.984375 7.75 -9.703125 C 8.269531 -9.421875 8.675781 -9 8.96875 -8.4375 C 9.257812 -7.875 9.40625 -7.164062 9.40625 -6.3125 L 9.40625 0 L 7.78125 0 L 7.78125 -6.1875 C 7.78125 -6.96875 7.578125 -7.578125 7.171875 -8.015625 C 6.773438 -8.453125 6.222656 -8.671875 5.515625 -8.671875 C 5.035156 -8.671875 4.601562 -8.566406 4.21875 -8.359375 C 3.832031 -8.160156 3.523438 -7.859375 3.296875 -7.453125 C 3.078125 -7.046875 2.96875 -6.546875 2.96875 -5.953125 Z M 2.96875 -5.953125 "/></g></g></g><g fill="#ffffff" fill-opacity="1"><g transform="translate(269.203924, 278.10045)"><g><path d="M 5.546875 0.21875 C 4.578125 0.21875 3.742188 0.00390625 3.046875 -0.421875 C 2.347656 -0.859375 1.8125 -1.460938 1.4375 -2.234375 C 1.0625 -3.015625 0.875 -3.910156 0.875 -4.921875 C 0.875 -5.941406 1.054688 -6.84375 1.421875 -7.625 C 1.796875 -8.414062 2.320312 -9.03125 3 -9.46875 C 3.675781 -9.90625 4.46875 -10.125 5.375 -10.125 C 5.9375 -10.125 6.476562 -10.03125 7 -9.84375 C 7.53125 -9.65625 8.003906 -9.351562 8.421875 -8.9375 C 8.835938 -8.53125 9.164062 -8.007812 9.40625 -7.375 C 9.644531 -6.738281 9.765625 -5.976562 9.765625 -5.09375 L 9.765625 -4.46875 L 1.921875 -4.46875 L 1.921875 -5.828125 L 8.890625 -5.828125 L 8.15625 -5.328125 C 8.15625 -5.984375 8.046875 -6.566406 7.828125 -7.078125 C 7.617188 -7.585938 7.304688 -7.984375 6.890625 -8.265625 C 6.484375 -8.554688 5.976562 -8.703125 5.375 -8.703125 C 4.769531 -8.703125 4.253906 -8.554688 3.828125 -8.265625 C 3.398438 -7.972656 3.070312 -7.585938 2.84375 -7.109375 C 2.613281 -6.628906 2.5 -6.101562 2.5 -5.53125 L 2.5 -4.6875 C 2.5 -3.957031 2.625 -3.332031 2.875 -2.8125 C 3.125 -2.289062 3.476562 -1.894531 3.9375 -1.625 C 4.394531 -1.351562 4.929688 -1.21875 5.546875 -1.21875 C 5.960938 -1.21875 6.332031 -1.273438 6.65625 -1.390625 C 6.988281 -1.515625 7.269531 -1.691406 7.5 -1.921875 C 7.738281 -2.160156 7.914062 -2.453125 8.03125 -2.796875 L 9.59375 -2.453125 C 9.445312 -1.929688 9.1875 -1.46875 8.8125 -1.0625 C 8.4375 -0.664062 7.96875 -0.351562 7.40625 -0.125 C 6.851562 0.101562 6.234375 0.21875 5.546875 0.21875 Z M 5.546875 0.21875 "/></g></g></g><g fill="#ffffff" fill-opacity="1"><g transform="translate(148.406244, 296.850449)"><g><path d="M 3.265625 -13.46875 L 3.265625 0 L 1.5625 0 L 1.5625 -13.46875 Z M 3.265625 -13.46875 "/></g></g></g><g fill="#ffffff" fill-opacity="1"><g transform="translate(153.234048, 296.850449)"><g><path d="M 1.5625 0 L 1.5625 -13.46875 L 3.546875 -13.46875 L 9.046875 -4.8125 C 9.191406 -4.601562 9.363281 -4.328125 9.5625 -3.984375 C 9.757812 -3.648438 9.972656 -3.269531 10.203125 -2.84375 C 10.429688 -2.425781 10.660156 -1.984375 10.890625 -1.515625 L 10.65625 -1.4375 C 10.613281 -1.914062 10.582031 -2.382812 10.5625 -2.84375 C 10.539062 -3.3125 10.523438 -3.742188 10.515625 -4.140625 C 10.515625 -4.535156 10.515625 -4.859375 10.515625 -5.109375 L 10.515625 -13.46875 L 12.203125 -13.46875 L 12.203125 0 L 10.203125 0 L 5.3125 -7.6875 C 5.101562 -8.019531 4.882812 -8.367188 4.65625 -8.734375 C 4.4375 -9.109375 4.175781 -9.550781 3.875 -10.0625 C 3.582031 -10.582031 3.234375 -11.203125 2.828125 -11.921875 L 3.125 -12.03125 C 3.15625 -11.351562 3.179688 -10.734375 3.203125 -10.171875 C 3.222656 -9.609375 3.238281 -9.117188 3.25 -8.703125 C 3.257812 -8.285156 3.265625 -7.957031 3.265625 -7.71875 L 3.265625 0 Z M 1.5625 0 "/></g></g></g><g fill="#ffffff" fill-opacity="1"><g transform="translate(167.003235, 296.850449)"><g><path d="M 5.765625 0 L 2.5 0 L 2.5 -1.5 L 5.65625 -1.5 C 6.75 -1.5 7.65625 -1.707031 8.375 -2.125 C 9.101562 -2.550781 9.644531 -3.15625 10 -3.9375 C 10.351562 -4.726562 10.53125 -5.671875 10.53125 -6.765625 C 10.53125 -7.835938 10.351562 -8.765625 10 -9.546875 C 9.644531 -10.328125 9.117188 -10.925781 8.421875 -11.34375 C 7.734375 -11.757812 6.863281 -11.96875 5.8125 -11.96875 L 2.4375 -11.96875 L 2.4375 -13.46875 L 5.9375 -13.46875 C 7.25 -13.46875 8.367188 -13.195312 9.296875 -12.65625 C 10.222656 -12.125 10.9375 -11.351562 11.4375 -10.34375 C 11.9375 -9.34375 12.1875 -8.148438 12.1875 -6.765625 C 12.1875 -5.359375 11.9375 -4.148438 11.4375 -3.140625 C 10.9375 -2.128906 10.207031 -1.351562 9.25 -0.8125 C 8.289062 -0.269531 7.128906 0 5.765625 0 Z M 3.265625 -13.46875 L 3.265625 0 L 1.5625 0 L 1.5625 -13.46875 Z M 3.265625 -13.46875 "/></g></g></g><g fill="#ffffff" fill-opacity="1"><g transform="translate(180.229973, 296.850449)"><g/></g></g><g fill="#ffffff" fill-opacity="1"><g transform="translate(185.31092, 296.850449)"><g><path d="M 1.359375 0 L 1.359375 -9.984375 L 2.96875 -9.984375 L 2.96875 0 Z M 2.171875 -11.6875 C 1.867188 -11.6875 1.609375 -11.789062 1.390625 -12 C 1.171875 -12.207031 1.0625 -12.457031 1.0625 -12.75 C 1.0625 -13.050781 1.171875 -13.304688 1.390625 -13.515625 C 1.609375 -13.722656 1.867188 -13.828125 2.171875 -13.828125 C 2.484375 -13.828125 2.75 -13.722656 2.96875 -13.515625 C 3.1875 -13.304688 3.296875 -13.050781 3.296875 -12.75 C 3.296875 -12.457031 3.1875 -12.207031 2.96875 -12 C 2.75 -11.789062 2.484375 -11.6875 2.171875 -11.6875 Z M 2.171875 -11.6875 "/></g></g></g><g fill="#ffffff" fill-opacity="1"><g transform="translate(189.686683, 296.850449)"><g><path d="M 5.390625 -9.984375 L 5.390625 -8.609375 L 0.171875 -8.609375 L 0.171875 -9.984375 Z M 1.734375 -12.4375 L 3.34375 -12.4375 L 3.34375 -2.546875 C 3.34375 -2.117188 3.429688 -1.804688 3.609375 -1.609375 C 3.785156 -1.410156 4.082031 -1.3125 4.5 -1.3125 C 4.613281 -1.3125 4.75 -1.320312 4.90625 -1.34375 C 5.0625 -1.363281 5.207031 -1.382812 5.34375 -1.40625 L 5.609375 -0.046875 C 5.441406 0.00390625 5.253906 0.0390625 5.046875 0.0625 C 4.835938 0.0820312 4.632812 0.09375 4.4375 0.09375 C 3.570312 0.09375 2.90625 -0.125 2.4375 -0.5625 C 1.96875 -1 1.734375 -1.617188 1.734375 -2.421875 Z M 1.734375 -12.4375 "/></g></g></g><g fill="#ffffff" fill-opacity="1"><g transform="translate(195.499915, 296.850449)"><g><path d="M 4.78125 0.21875 C 4.09375 0.21875 3.472656 0.113281 2.921875 -0.09375 C 2.378906 -0.300781 1.929688 -0.609375 1.578125 -1.015625 C 1.234375 -1.429688 1.007812 -1.941406 0.90625 -2.546875 L 2.453125 -2.828125 C 2.578125 -2.265625 2.835938 -1.847656 3.234375 -1.578125 C 3.628906 -1.316406 4.132812 -1.1875 4.75 -1.1875 C 5.445312 -1.1875 6 -1.332031 6.40625 -1.625 C 6.820312 -1.925781 7.03125 -2.285156 7.03125 -2.703125 C 7.03125 -3.054688 6.90625 -3.347656 6.65625 -3.578125 C 6.40625 -3.804688 6.039062 -3.972656 5.5625 -4.078125 L 3.90625 -4.46875 C 3 -4.6875 2.320312 -5.019531 1.875 -5.46875 C 1.425781 -5.925781 1.203125 -6.507812 1.203125 -7.21875 C 1.203125 -7.789062 1.359375 -8.296875 1.671875 -8.734375 C 1.992188 -9.171875 2.429688 -9.507812 2.984375 -9.75 C 3.535156 -10 4.164062 -10.125 4.875 -10.125 C 5.5625 -10.125 6.148438 -10.015625 6.640625 -9.796875 C 7.140625 -9.578125 7.539062 -9.273438 7.84375 -8.890625 C 8.15625 -8.503906 8.367188 -8.0625 8.484375 -7.5625 L 7.015625 -7.265625 C 6.910156 -7.648438 6.6875 -7.992188 6.34375 -8.296875 C 6.007812 -8.609375 5.523438 -8.765625 4.890625 -8.765625 C 4.285156 -8.765625 3.789062 -8.625 3.40625 -8.34375 C 3.019531 -8.0625 2.828125 -7.710938 2.828125 -7.296875 C 2.828125 -6.921875 2.960938 -6.617188 3.234375 -6.390625 C 3.503906 -6.171875 3.914062 -6 4.46875 -5.875 L 6 -5.5 C 6.914062 -5.289062 7.59375 -4.957031 8.03125 -4.5 C 8.46875 -4.050781 8.6875 -3.484375 8.6875 -2.796875 C 8.6875 -2.203125 8.519531 -1.675781 8.1875 -1.21875 C 7.851562 -0.769531 7.394531 -0.414062 6.8125 -0.15625 C 6.226562 0.09375 5.550781 0.21875 4.78125 0.21875 Z M 4.78125 0.21875 "/></g></g></g><g fill="#ffffff" fill-opacity="1"><g transform="translate(205.056074, 296.850449)"><g><path d="M 5.546875 0.21875 C 4.578125 0.21875 3.742188 0.00390625 3.046875 -0.421875 C 2.347656 -0.859375 1.8125 -1.460938 1.4375 -2.234375 C 1.0625 -3.015625 0.875 -3.910156 0.875 -4.921875 C 0.875 -5.941406 1.054688 -6.84375 1.421875 -7.625 C 1.796875 -8.414062 2.320312 -9.03125 3 -9.46875 C 3.675781 -9.90625 4.46875 -10.125 5.375 -10.125 C 5.9375 -10.125 6.476562 -10.03125 7 -9.84375 C 7.53125 -9.65625 8.003906 -9.351562 8.421875 -8.9375 C 8.835938 -8.53125 9.164062 -8.007812 9.40625 -7.375 C 9.644531 -6.738281 9.765625 -5.976562 9.765625 -5.09375 L 9.765625 -4.46875 L 1.921875 -4.46875 L 1.921875 -5.828125 L 8.890625 -5.828125 L 8.15625 -5.328125 C 8.15625 -5.984375 8.046875 -6.566406 7.828125 -7.078125 C 7.617188 -7.585938 7.304688 -7.984375 6.890625 -8.265625 C 6.484375 -8.554688 5.976562 -8.703125 5.375 -8.703125 C 4.769531 -8.703125 4.253906 -8.554688 3.828125 -8.265625 C 3.398438 -7.972656 3.070312 -7.585938 2.84375 -7.109375 C 2.613281 -6.628906 2.5 -6.101562 2.5 -5.53125 L 2.5 -4.6875 C 2.5 -3.957031 2.625 -3.332031 2.875 -2.8125 C 3.125 -2.289062 3.476562 -1.894531 3.9375 -1.625 C 4.394531 -1.351562 4.929688 -1.21875 5.546875 -1.21875 C 5.960938 -1.21875 6.332031 -1.273438 6.65625 -1.390625 C 6.988281 -1.515625 7.269531 -1.691406 7.5 -1.921875 C 7.738281 -2.160156 7.914062 -2.453125 8.03125 -2.796875 L 9.59375 -2.453125 C 9.445312 -1.929688 9.1875 -1.46875 8.8125 -1.0625 C 8.4375 -0.664062 7.96875 -0.351562 7.40625 -0.125 C 6.851562 0.101562 6.234375 0.21875 5.546875 0.21875 Z M 5.546875 0.21875 "/></g></g></g><g fill="#ffffff" fill-opacity="1"><g transform="translate(215.66097, 296.850449)"><g><path d="M 2.96875 -13.46875 L 2.96875 0 L 1.359375 0 L 1.359375 -13.46875 Z M 2.96875 -13.46875 "/></g></g></g><g fill="#ffffff" fill-opacity="1"><g transform="translate(220.000569, 296.850449)"><g><path d="M 5.953125 -9.984375 L 5.953125 -8.609375 L 0.171875 -8.609375 L 0.171875 -9.984375 Z M 2.09375 0 L 2.09375 -11.40625 C 2.09375 -11.957031 2.222656 -12.421875 2.484375 -12.796875 C 2.742188 -13.179688 3.085938 -13.46875 3.515625 -13.65625 C 3.941406 -13.851562 4.398438 -13.953125 4.890625 -13.953125 C 5.234375 -13.953125 5.523438 -13.925781 5.765625 -13.875 C 6.003906 -13.832031 6.175781 -13.789062 6.28125 -13.75 L 5.9375 -12.375 C 5.851562 -12.394531 5.738281 -12.421875 5.59375 -12.453125 C 5.445312 -12.484375 5.273438 -12.5 5.078125 -12.5 C 4.585938 -12.5 4.234375 -12.378906 4.015625 -12.140625 C 3.804688 -11.898438 3.703125 -11.546875 3.703125 -11.078125 L 3.703125 0 Z M 2.09375 0 "/></g></g></g></svg>