<svg xmlns="http://www.w3.org/2000/svg" xmlns:xlink="http://www.w3.org/1999/xlink" width="500" zoomAndPan="magnify" viewBox="0 0 375 374.999991" height="500" preserveAspectRatio="xMidYMid meet" version="1.0"><defs><g/><clipPath id="49971fda55"><path d="M 80.917969 66.261719 L 296.167969 66.261719 L 296.167969 282 L 80.917969 282 Z M 80.917969 66.261719 " clip-rule="nonzero"/></clipPath><clipPath id="45e48f4879"><path d="M 125 221 L 252 221 L 252 302.511719 L 125 302.511719 Z M 125 221 " clip-rule="nonzero"/></clipPath></defs><rect x="-37.5" width="450" fill="#ffffff" y="-37.499999" height="449.999989" fill-opacity="1"/><rect x="-37.5" width="450" fill="#ffffff" y="-37.499999" height="449.999989" fill-opacity="1"/><g clip-path="url(#49971fda55)"><path fill="#b3f4f0" d="M 296.367188 173.992188 C 296.367188 233.476562 248.152344 281.691406 188.667969 281.691406 C 129.1875 281.691406 80.96875 233.476562 80.96875 173.992188 C 80.96875 114.511719 129.1875 66.292969 188.667969 66.292969 C 248.152344 66.292969 296.367188 114.511719 296.367188 173.992188 " fill-opacity="1" fill-rule="nonzero"/></g><path fill="#ff657a" d="M 234.511719 159.296875 C 234.511719 159.296875 234.644531 197.699219 233.039062 203.53125 C 231.441406 209.359375 226.296875 215.570312 226.296875 215.570312 C 226.296875 215.570312 222.527344 218.019531 219.78125 215.570312 L 219.78125 206.617188 L 216.695312 215.570312 C 216.695312 215.570312 209.03125 219.996094 200.355469 216.660156 C 191.671875 213.324219 200.355469 184.480469 200.355469 184.480469 L 234.519531 157.925781 " fill-opacity="1" fill-rule="nonzero"/><path fill="#ff657a" d="M 142.875 159.296875 C 142.875 159.296875 142.742188 197.699219 144.347656 203.53125 C 145.945312 209.359375 151.089844 215.570312 151.089844 215.570312 C 151.089844 215.570312 154.863281 218.019531 157.605469 215.570312 L 157.605469 206.617188 L 160.691406 215.570312 C 160.691406 215.570312 168.355469 219.996094 177.03125 216.660156 C 185.714844 213.324219 177.03125 184.480469 177.03125 184.480469 L 142.875 157.925781 " fill-opacity="1" fill-rule="nonzero"/><g clip-path="url(#45e48f4879)"><path fill="#ffffff" d="M 251.5 281.988281 C 246.175781 285.964844 240.457031 289.449219 234.417969 292.363281 C 233.496094 292.808594 232.570312 293.234375 231.644531 293.652344 C 218.519531 299.535156 203.984375 302.808594 188.667969 302.808594 C 173.355469 302.808594 158.816406 299.535156 145.699219 293.652344 C 144.761719 293.234375 143.835938 292.808594 142.921875 292.363281 C 136.878906 289.441406 131.160156 285.964844 125.839844 281.988281 C 126.773438 261.167969 137.832031 242.980469 154.214844 232.242188 C 164.113281 225.75 175.949219 221.976562 188.667969 221.976562 C 190.609375 221.976562 192.53125 222.066406 194.417969 222.238281 C 204.957031 223.191406 214.734375 226.734375 223.121094 232.242188 C 230.664062 237.1875 237.078125 243.707031 241.890625 251.335938 C 247.542969 260.285156 250.992188 270.753906 251.5 281.988281 " fill-opacity="1" fill-rule="nonzero"/></g><path fill="#a15bfa" d="M 223.121094 232.242188 C 222.164062 239.503906 218.960938 246.066406 214.222656 251.195312 C 207.871094 258.074219 198.777344 262.390625 188.667969 262.390625 C 172.480469 262.390625 158.875 251.3125 155.011719 236.324219 C 154.667969 234.992188 154.402344 233.628906 154.21875 232.242188 C 164.113281 225.75 175.949219 221.976562 188.667969 221.976562 C 190.609375 221.976562 192.53125 222.058594 194.421875 222.238281 C 194.753906 222.265625 195.082031 222.300781 195.402344 222.332031 C 195.609375 222.355469 195.816406 222.375 196.015625 222.402344 C 196.242188 222.421875 196.464844 222.457031 196.6875 222.484375 C 196.824219 222.496094 196.96875 222.519531 197.105469 222.539062 C 197.304688 222.558594 197.507812 222.59375 197.714844 222.621094 C 197.871094 222.640625 198.03125 222.667969 198.195312 222.691406 C 198.332031 222.710938 198.46875 222.730469 198.605469 222.757812 C 198.839844 222.792969 199.066406 222.832031 199.300781 222.867188 C 200.300781 223.039062 201.292969 223.230469 202.273438 223.449219 L 202.933594 223.59375 C 203.058594 223.628906 203.1875 223.65625 203.3125 223.691406 C 203.542969 223.746094 203.785156 223.800781 204.011719 223.863281 C 204.050781 223.871094 204.085938 223.875 204.113281 223.882812 C 204.40625 223.957031 204.703125 224.035156 204.992188 224.117188 C 205.304688 224.191406 205.613281 224.28125 205.917969 224.371094 C 206.265625 224.464844 206.609375 224.570312 206.957031 224.671875 C 207.226562 224.753906 207.492188 224.835938 207.761719 224.925781 C 207.933594 224.980469 208.109375 225.035156 208.277344 225.089844 C 208.558594 225.179688 208.835938 225.273438 209.113281 225.371094 C 209.453125 225.488281 209.789062 225.605469 210.128906 225.726562 C 210.15625 225.742188 210.175781 225.75 210.195312 225.753906 C 210.546875 225.878906 210.886719 226.007812 211.230469 226.140625 C 211.484375 226.242188 211.746094 226.339844 212.007812 226.449219 C 212.683594 226.714844 213.351562 226.996094 214.007812 227.285156 L 214.871094 227.675781 C 215.132812 227.792969 215.394531 227.914062 215.652344 228.039062 C 215.894531 228.15625 216.128906 228.265625 216.359375 228.382812 C 216.578125 228.484375 216.792969 228.59375 217.003906 228.703125 C 217.140625 228.773438 217.285156 228.839844 217.421875 228.917969 C 217.992188 229.203125 218.546875 229.507812 219.097656 229.808594 C 219.296875 229.917969 219.5 230.035156 219.695312 230.144531 C 219.824219 230.21875 219.945312 230.289062 220.070312 230.355469 L 220.535156 230.632812 L 221.011719 230.917969 L 221.320312 231.105469 C 221.613281 231.277344 221.902344 231.453125 222.191406 231.640625 C 222.503906 231.839844 222.8125 232.035156 223.121094 232.242188 " fill-opacity="1" fill-rule="nonzero"/><path fill="#a15bfa" d="M 203.984375 204.730469 L 203.984375 234.855469 C 203.984375 242.472656 197.75 248.714844 190.128906 248.714844 L 187.207031 248.714844 C 179.589844 248.714844 173.363281 242.472656 173.363281 234.855469 L 173.363281 204.730469 C 173.363281 197.109375 179.589844 190.882812 187.207031 190.882812 L 190.128906 190.882812 C 197.75 190.882812 203.984375 197.109375 203.984375 204.730469 " fill-opacity="1" fill-rule="nonzero"/><path fill="#3f2463" d="M 203.984375 204.730469 L 203.984375 220.671875 C 199.429688 223.203125 194.601562 224.671875 189.699219 224.671875 C 183.917969 224.671875 178.402344 223.066406 173.363281 220.261719 L 173.363281 204.730469 C 173.363281 197.109375 179.589844 190.882812 187.207031 190.882812 L 190.128906 190.882812 C 197.75 190.882812 203.984375 197.109375 203.984375 204.730469 " fill-opacity="1" fill-rule="nonzero"/><path fill="#a15bfa" d="M 226.007812 193.113281 C 226.007812 193.113281 233.183594 190.671875 237.761719 182.675781 C 242.742188 173.992188 239.613281 168.582031 238.628906 167.410156 C 235.933594 164.207031 231.769531 166.265625 231.082031 167.410156 C 230.398438 168.554688 220.46875 186.589844 226.007812 193.113281 " fill-opacity="1" fill-rule="nonzero"/><path fill="#3f2463" d="M 233.039062 170.257812 C 233.039062 170.257812 237.59375 170.839844 235.992188 177.238281 C 234.390625 183.644531 230.1875 186.171875 224.464844 189.445312 C 218.753906 192.714844 227.324219 171.558594 233.039062 170.257812 " fill-opacity="1" fill-rule="nonzero"/><path fill="#a15bfa" d="M 153.195312 193.113281 C 153.195312 193.113281 146.023438 190.671875 141.441406 182.675781 C 136.457031 173.992188 139.582031 168.582031 140.570312 167.410156 C 143.265625 164.207031 147.429688 166.265625 148.113281 167.410156 C 148.800781 168.554688 158.734375 186.589844 153.195312 193.113281 " fill-opacity="1" fill-rule="nonzero"/><path fill="#3f2463" d="M 146.160156 170.257812 C 146.160156 170.257812 141.613281 170.839844 143.210938 177.238281 C 144.808594 183.644531 149.019531 186.171875 154.730469 189.445312 C 160.449219 192.714844 151.878906 171.558594 146.160156 170.257812 " fill-opacity="1" fill-rule="nonzero"/><path fill="#a15bfa" d="M 233.039062 166.03125 C 233.039062 139.746094 213.636719 118.433594 189.699219 118.433594 C 165.765625 118.433594 146.351562 139.746094 146.351562 166.03125 C 146.351562 192.316406 165.765625 219.796875 189.699219 219.796875 C 212.191406 219.796875 233.039062 192.097656 233.039062 166.03125 " fill-opacity="1" fill-rule="nonzero"/><path fill="#ff657a" d="M 193.601562 146.835938 C 193.601562 146.835938 201.753906 173.066406 232.421875 170.46875 C 232.421875 170.46875 237.777344 162.726562 235.964844 145.890625 C 233.921875 126.917969 217.113281 110.953125 189.699219 116.664062 C 189.699219 116.664062 187.195312 130.152344 193.601562 146.835938 " fill-opacity="1" fill-rule="nonzero"/><path fill="#ff657a" d="M 194.972656 118.433594 C 194.972656 118.433594 196.109375 113.46875 191.996094 109.582031 C 187.882812 105.691406 129.949219 115.492188 144.371094 171.09375 C 144.371094 171.09375 159.050781 134.71875 192.679688 131.976562 L 194.972656 118.433594 " fill-opacity="1" fill-rule="nonzero"/><path fill="#b3f4f0" d="M 59.222656 86.496094 L 59.222656 72.125 C 59.222656 70.558594 60.207031 69.164062 61.683594 68.640625 C 63.160156 68.117188 64.144531 66.722656 64.144531 65.15625 L 64.144531 59.59375 C 64.144531 56.304688 66.808594 53.640625 70.097656 53.640625 L 304.886719 53.640625 C 308.171875 53.640625 310.839844 56.304688 310.839844 59.59375 L 310.839844 65.15625 C 310.839844 66.722656 311.824219 68.117188 313.300781 68.640625 C 314.773438 69.164062 315.761719 70.558594 315.761719 72.125 L 315.761719 86.496094 C 315.761719 89.78125 313.09375 92.449219 309.808594 92.449219 L 65.175781 92.449219 C 61.886719 92.449219 59.222656 89.78125 59.222656 86.496094 Z M 59.222656 86.496094 " fill-opacity="0.61" fill-rule="nonzero"/><g fill="#000000" fill-opacity="1"><g transform="translate(69.952148, 70.793952)"><g><path d="M 0.3125 0 L 4.171875 -10.5625 L 5.703125 -10.5625 L 9.578125 0 L 8.171875 0 L 5.9375 -6.28125 C 5.800781 -6.675781 5.640625 -7.160156 5.453125 -7.734375 C 5.273438 -8.304688 5.054688 -9.039062 4.796875 -9.9375 L 5.0625 -9.9375 C 4.800781 -9.03125 4.578125 -8.285156 4.390625 -7.703125 C 4.210938 -7.128906 4.054688 -6.65625 3.921875 -6.28125 L 1.734375 0 Z M 2.265625 -2.953125 L 2.265625 -4.125 L 7.640625 -4.125 L 7.640625 -2.953125 Z M 2.265625 -2.953125 "/></g></g></g><g fill="#000000" fill-opacity="1"><g transform="translate(79.841262, 70.793952)"><g><path d="M 3.75 0.171875 C 3.207031 0.171875 2.722656 0.09375 2.296875 -0.0625 C 1.867188 -0.226562 1.519531 -0.472656 1.25 -0.796875 C 0.976562 -1.117188 0.800781 -1.515625 0.71875 -1.984375 L 1.921875 -2.21875 C 2.015625 -1.78125 2.21875 -1.453125 2.53125 -1.234375 C 2.84375 -1.023438 3.242188 -0.921875 3.734375 -0.921875 C 4.273438 -0.921875 4.707031 -1.035156 5.03125 -1.265625 C 5.351562 -1.503906 5.515625 -1.789062 5.515625 -2.125 C 5.515625 -2.394531 5.414062 -2.617188 5.21875 -2.796875 C 5.019531 -2.972656 4.734375 -3.109375 4.359375 -3.203125 L 3.0625 -3.515625 C 2.34375 -3.671875 1.804688 -3.925781 1.453125 -4.28125 C 1.109375 -4.644531 0.9375 -5.101562 0.9375 -5.65625 C 0.9375 -6.101562 1.0625 -6.5 1.3125 -6.84375 C 1.5625 -7.1875 1.898438 -7.453125 2.328125 -7.640625 C 2.765625 -7.835938 3.265625 -7.9375 3.828125 -7.9375 C 4.367188 -7.9375 4.832031 -7.847656 5.21875 -7.671875 C 5.601562 -7.503906 5.914062 -7.269531 6.15625 -6.96875 C 6.394531 -6.664062 6.5625 -6.316406 6.65625 -5.921875 L 5.5 -5.6875 C 5.414062 -6 5.238281 -6.273438 4.96875 -6.515625 C 4.707031 -6.753906 4.328125 -6.875 3.828125 -6.875 C 3.359375 -6.875 2.972656 -6.765625 2.671875 -6.546875 C 2.367188 -6.328125 2.21875 -6.050781 2.21875 -5.71875 C 2.21875 -5.425781 2.320312 -5.191406 2.53125 -5.015625 C 2.738281 -4.835938 3.066406 -4.695312 3.515625 -4.59375 L 4.703125 -4.3125 C 5.421875 -4.144531 5.953125 -3.882812 6.296875 -3.53125 C 6.640625 -3.175781 6.8125 -2.726562 6.8125 -2.1875 C 6.8125 -1.726562 6.679688 -1.320312 6.421875 -0.96875 C 6.160156 -0.613281 5.800781 -0.332031 5.34375 -0.125 C 4.882812 0.0703125 4.351562 0.171875 3.75 0.171875 Z M 3.75 0.171875 "/></g></g></g><g fill="#000000" fill-opacity="1"><g transform="translate(87.328936, 70.793952)"><g><path d="M 2.25 -2.8125 L 2.25 -4.359375 L 2.453125 -4.359375 L 5.859375 -7.828125 L 7.4375 -7.828125 L 3.78125 -4.109375 L 3.640625 -4.109375 Z M 1.0625 0 L 1.0625 -10.5625 L 2.328125 -10.5625 L 2.328125 0 Z M 6.078125 0 L 3.03125 -3.828125 L 3.921875 -4.71875 L 7.6875 0 Z M 6.078125 0 "/></g></g></g><g fill="#000000" fill-opacity="1"><g transform="translate(95.156637, 70.793952)"><g/></g></g><g fill="#000000" fill-opacity="1"><g transform="translate(99.137784, 70.793952)"><g><path d="M 0.984375 2.890625 L 1.234375 1.796875 L 1.5 1.828125 C 1.738281 1.878906 1.953125 1.882812 2.140625 1.84375 C 2.335938 1.800781 2.515625 1.695312 2.671875 1.53125 C 2.828125 1.363281 2.960938 1.109375 3.078125 0.765625 L 3.34375 0.015625 L 0.34375 -7.828125 L 1.71875 -7.828125 L 3.390625 -3.203125 C 3.566406 -2.742188 3.710938 -2.285156 3.828125 -1.828125 C 3.953125 -1.378906 4.082031 -0.941406 4.21875 -0.515625 L 3.78125 -0.515625 C 3.914062 -0.941406 4.046875 -1.378906 4.171875 -1.828125 C 4.296875 -2.285156 4.441406 -2.742188 4.609375 -3.203125 L 6.28125 -7.828125 L 7.640625 -7.828125 L 4.171875 1.21875 C 4.023438 1.625 3.835938 1.957031 3.609375 2.21875 C 3.390625 2.488281 3.132812 2.6875 2.84375 2.8125 C 2.5625 2.9375 2.238281 3 1.875 3 C 1.664062 3 1.484375 2.984375 1.328125 2.953125 C 1.171875 2.929688 1.054688 2.910156 0.984375 2.890625 Z M 0.984375 2.890625 "/></g></g></g><g fill="#000000" fill-opacity="1"><g transform="translate(107.128415, 70.793952)"><g><path d="M 4.265625 0.171875 C 3.554688 0.171875 2.929688 0.00390625 2.390625 -0.328125 C 1.859375 -0.671875 1.441406 -1.144531 1.140625 -1.75 C 0.835938 -2.363281 0.6875 -3.070312 0.6875 -3.875 C 0.6875 -4.6875 0.835938 -5.394531 1.140625 -6 C 1.441406 -6.613281 1.859375 -7.085938 2.390625 -7.421875 C 2.929688 -7.765625 3.554688 -7.9375 4.265625 -7.9375 C 4.984375 -7.9375 5.609375 -7.765625 6.140625 -7.421875 C 6.679688 -7.085938 7.101562 -6.613281 7.40625 -6 C 7.707031 -5.394531 7.859375 -4.6875 7.859375 -3.875 C 7.859375 -3.070312 7.707031 -2.363281 7.40625 -1.75 C 7.101562 -1.144531 6.679688 -0.671875 6.140625 -0.328125 C 5.609375 0.00390625 4.984375 0.171875 4.265625 0.171875 Z M 4.265625 -0.953125 C 4.785156 -0.953125 5.21875 -1.082031 5.5625 -1.34375 C 5.90625 -1.613281 6.160156 -1.96875 6.328125 -2.40625 C 6.492188 -2.851562 6.578125 -3.34375 6.578125 -3.875 C 6.578125 -4.40625 6.492188 -4.894531 6.328125 -5.34375 C 6.160156 -5.789062 5.90625 -6.144531 5.5625 -6.40625 C 5.21875 -6.675781 4.785156 -6.8125 4.265625 -6.8125 C 3.753906 -6.8125 3.328125 -6.675781 2.984375 -6.40625 C 2.640625 -6.144531 2.382812 -5.789062 2.21875 -5.34375 C 2.050781 -4.894531 1.96875 -4.40625 1.96875 -3.875 C 1.96875 -3.34375 2.050781 -2.851562 2.21875 -2.40625 C 2.382812 -1.96875 2.632812 -1.613281 2.96875 -1.34375 C 3.3125 -1.082031 3.742188 -0.953125 4.265625 -0.953125 Z M 4.265625 -0.953125 "/></g></g></g><g fill="#000000" fill-opacity="1"><g transform="translate(115.664505, 70.793952)"><g><path d="M 3.765625 0.109375 C 3.242188 0.109375 2.773438 0 2.359375 -0.21875 C 1.953125 -0.4375 1.632812 -0.765625 1.40625 -1.203125 C 1.175781 -1.648438 1.0625 -2.207031 1.0625 -2.875 L 1.0625 -7.828125 L 2.328125 -7.828125 L 2.328125 -2.984375 C 2.328125 -2.367188 2.484375 -1.890625 2.796875 -1.546875 C 3.117188 -1.203125 3.5625 -1.03125 4.125 -1.03125 C 4.488281 -1.03125 4.820312 -1.109375 5.125 -1.265625 C 5.425781 -1.429688 5.664062 -1.671875 5.84375 -1.984375 C 6.019531 -2.304688 6.109375 -2.695312 6.109375 -3.15625 L 6.109375 -7.828125 L 7.375 -7.828125 L 7.375 0 L 6.15625 0 L 6.15625 -1.90625 L 6.359375 -1.90625 C 6.109375 -1.175781 5.757812 -0.65625 5.3125 -0.34375 C 4.863281 -0.0390625 4.347656 0.109375 3.765625 0.109375 Z M 3.765625 0.109375 "/></g></g></g><g fill="#000000" fill-opacity="1"><g transform="translate(124.101421, 70.793952)"><g><path d="M 1.0625 0 L 1.0625 -7.828125 L 2.28125 -7.828125 L 2.28125 -6.625 L 2.359375 -6.625 C 2.503906 -7.019531 2.753906 -7.335938 3.109375 -7.578125 C 3.472656 -7.816406 3.890625 -7.9375 4.359375 -7.9375 C 4.453125 -7.9375 4.5625 -7.929688 4.6875 -7.921875 C 4.8125 -7.921875 4.90625 -7.921875 4.96875 -7.921875 L 4.96875 -6.640625 C 4.925781 -6.648438 4.832031 -6.664062 4.6875 -6.6875 C 4.539062 -6.707031 4.378906 -6.71875 4.203125 -6.71875 C 3.847656 -6.71875 3.53125 -6.640625 3.25 -6.484375 C 2.96875 -6.335938 2.742188 -6.125 2.578125 -5.84375 C 2.410156 -5.570312 2.328125 -5.253906 2.328125 -4.890625 L 2.328125 0 Z M 1.0625 0 "/></g></g></g><g fill="#000000" fill-opacity="1"><g transform="translate(129.386005, 70.793952)"><g/></g></g><g fill="#000000" fill-opacity="1"><g transform="translate(133.367152, 70.793952)"><g><path d="M 4.65625 -7.828125 L 4.65625 -6.75 L 0.140625 -6.75 L 0.140625 -7.828125 Z M 1.640625 0 L 1.640625 -8.9375 C 1.640625 -9.375 1.738281 -9.738281 1.9375 -10.03125 C 2.144531 -10.332031 2.414062 -10.554688 2.75 -10.703125 C 3.082031 -10.859375 3.441406 -10.9375 3.828125 -10.9375 C 4.097656 -10.9375 4.328125 -10.914062 4.515625 -10.875 C 4.710938 -10.84375 4.847656 -10.8125 4.921875 -10.78125 L 4.65625 -9.703125 C 4.59375 -9.722656 4.5 -9.742188 4.375 -9.765625 C 4.257812 -9.785156 4.125 -9.796875 3.96875 -9.796875 C 3.59375 -9.796875 3.320312 -9.703125 3.15625 -9.515625 C 2.988281 -9.328125 2.90625 -9.050781 2.90625 -8.6875 L 2.90625 0 Z M 1.640625 0 "/></g></g></g><g fill="#000000" fill-opacity="1"><g transform="translate(138.53131, 70.793952)"><g><path d="M 1.0625 0 L 1.0625 -7.828125 L 2.28125 -7.828125 L 2.28125 -6.625 L 2.359375 -6.625 C 2.503906 -7.019531 2.753906 -7.335938 3.109375 -7.578125 C 3.472656 -7.816406 3.890625 -7.9375 4.359375 -7.9375 C 4.453125 -7.9375 4.5625 -7.929688 4.6875 -7.921875 C 4.8125 -7.921875 4.90625 -7.921875 4.96875 -7.921875 L 4.96875 -6.640625 C 4.925781 -6.648438 4.832031 -6.664062 4.6875 -6.6875 C 4.539062 -6.707031 4.378906 -6.71875 4.203125 -6.71875 C 3.847656 -6.71875 3.53125 -6.640625 3.25 -6.484375 C 2.96875 -6.335938 2.742188 -6.125 2.578125 -5.84375 C 2.410156 -5.570312 2.328125 -5.253906 2.328125 -4.890625 L 2.328125 0 Z M 1.0625 0 "/></g></g></g><g fill="#000000" fill-opacity="1"><g transform="translate(143.815893, 70.793952)"><g><path d="M 1.0625 0 L 1.0625 -7.828125 L 2.328125 -7.828125 L 2.328125 0 Z M 1.6875 -9.15625 C 1.457031 -9.15625 1.253906 -9.238281 1.078125 -9.40625 C 0.910156 -9.570312 0.828125 -9.769531 0.828125 -10 C 0.828125 -10.226562 0.910156 -10.425781 1.078125 -10.59375 C 1.253906 -10.757812 1.457031 -10.84375 1.6875 -10.84375 C 1.9375 -10.84375 2.144531 -10.757812 2.3125 -10.59375 C 2.488281 -10.425781 2.578125 -10.226562 2.578125 -10 C 2.578125 -9.769531 2.488281 -9.570312 2.3125 -9.40625 C 2.144531 -9.238281 1.9375 -9.15625 1.6875 -9.15625 Z M 1.6875 -9.15625 "/></g></g></g><g fill="#000000" fill-opacity="1"><g transform="translate(147.216162, 70.793952)"><g><path d="M 4.34375 0.171875 C 3.582031 0.171875 2.925781 0.00390625 2.375 -0.328125 C 1.832031 -0.671875 1.414062 -1.144531 1.125 -1.75 C 0.832031 -2.363281 0.6875 -3.066406 0.6875 -3.859375 C 0.6875 -4.660156 0.832031 -5.367188 1.125 -5.984375 C 1.414062 -6.597656 1.828125 -7.078125 2.359375 -7.421875 C 2.890625 -7.765625 3.503906 -7.9375 4.203125 -7.9375 C 4.648438 -7.9375 5.078125 -7.859375 5.484375 -7.703125 C 5.898438 -7.554688 6.269531 -7.320312 6.59375 -7 C 6.925781 -6.6875 7.1875 -6.28125 7.375 -5.78125 C 7.5625 -5.28125 7.65625 -4.679688 7.65625 -3.984375 L 7.65625 -3.5 L 1.5 -3.5 L 1.5 -4.5625 L 6.96875 -4.5625 L 6.390625 -4.1875 C 6.390625 -4.695312 6.304688 -5.148438 6.140625 -5.546875 C 5.972656 -5.941406 5.726562 -6.25 5.40625 -6.46875 C 5.082031 -6.695312 4.679688 -6.8125 4.203125 -6.8125 C 3.742188 -6.8125 3.34375 -6.695312 3 -6.46875 C 2.664062 -6.25 2.40625 -5.953125 2.21875 -5.578125 C 2.039062 -5.203125 1.953125 -4.789062 1.953125 -4.34375 L 1.953125 -3.671875 C 1.953125 -3.097656 2.050781 -2.609375 2.25 -2.203125 C 2.445312 -1.796875 2.722656 -1.484375 3.078125 -1.265625 C 3.441406 -1.054688 3.867188 -0.953125 4.359375 -0.953125 C 4.671875 -0.953125 4.957031 -1 5.21875 -1.09375 C 5.476562 -1.1875 5.695312 -1.328125 5.875 -1.515625 C 6.0625 -1.703125 6.203125 -1.929688 6.296875 -2.203125 L 7.53125 -1.921875 C 7.40625 -1.515625 7.195312 -1.148438 6.90625 -0.828125 C 6.613281 -0.515625 6.25 -0.269531 5.8125 -0.09375 C 5.375 0.0820312 4.882812 0.171875 4.34375 0.171875 Z M 4.34375 0.171875 "/></g></g></g><g fill="#000000" fill-opacity="1"><g transform="translate(155.525568, 70.793952)"><g><path d="M 2.328125 -4.65625 L 2.328125 0 L 1.0625 0 L 1.0625 -7.828125 L 2.28125 -7.828125 L 2.296875 -5.9375 L 2.078125 -5.9375 C 2.316406 -6.65625 2.65625 -7.164062 3.09375 -7.46875 C 3.539062 -7.78125 4.066406 -7.9375 4.671875 -7.9375 C 5.203125 -7.9375 5.664062 -7.828125 6.0625 -7.609375 C 6.46875 -7.390625 6.785156 -7.054688 7.015625 -6.609375 C 7.242188 -6.171875 7.359375 -5.617188 7.359375 -4.953125 L 7.359375 0 L 6.109375 0 L 6.109375 -4.84375 C 6.109375 -5.457031 5.945312 -5.9375 5.625 -6.28125 C 5.3125 -6.625 4.878906 -6.796875 4.328125 -6.796875 C 3.941406 -6.796875 3.597656 -6.710938 3.296875 -6.546875 C 3.003906 -6.390625 2.769531 -6.148438 2.59375 -5.828125 C 2.414062 -5.515625 2.328125 -5.125 2.328125 -4.65625 Z M 2.328125 -4.65625 "/></g></g></g><g fill="#000000" fill-opacity="1"><g transform="translate(163.955399, 70.793952)"><g><path d="M 4.015625 0.15625 C 3.359375 0.15625 2.78125 -0.0078125 2.28125 -0.34375 C 1.78125 -0.675781 1.390625 -1.144531 1.109375 -1.75 C 0.828125 -2.351562 0.6875 -3.066406 0.6875 -3.890625 C 0.6875 -4.710938 0.828125 -5.425781 1.109375 -6.03125 C 1.390625 -6.644531 1.78125 -7.113281 2.28125 -7.4375 C 2.789062 -7.769531 3.367188 -7.9375 4.015625 -7.9375 C 4.492188 -7.9375 4.882812 -7.859375 5.1875 -7.703125 C 5.488281 -7.554688 5.726562 -7.378906 5.90625 -7.171875 C 6.082031 -6.960938 6.222656 -6.769531 6.328125 -6.59375 L 6.40625 -6.59375 L 6.40625 -10.5625 L 7.671875 -10.5625 L 7.671875 0 L 6.453125 0 L 6.453125 -1.203125 L 6.34375 -1.203125 C 6.226562 -1.023438 6.078125 -0.828125 5.890625 -0.609375 C 5.710938 -0.398438 5.472656 -0.21875 5.171875 -0.0625 C 4.867188 0.0820312 4.484375 0.15625 4.015625 0.15625 Z M 4.203125 -0.96875 C 4.679688 -0.96875 5.085938 -1.085938 5.421875 -1.328125 C 5.753906 -1.578125 6.003906 -1.921875 6.171875 -2.359375 C 6.347656 -2.804688 6.4375 -3.320312 6.4375 -3.90625 C 6.4375 -4.488281 6.347656 -4.992188 6.171875 -5.421875 C 6.003906 -5.859375 5.753906 -6.195312 5.421875 -6.4375 C 5.085938 -6.6875 4.679688 -6.8125 4.203125 -6.8125 C 3.722656 -6.8125 3.316406 -6.6875 2.984375 -6.4375 C 2.648438 -6.1875 2.394531 -5.84375 2.21875 -5.40625 C 2.050781 -4.96875 1.96875 -4.46875 1.96875 -3.90625 C 1.96875 -3.34375 2.050781 -2.835938 2.21875 -2.390625 C 2.394531 -1.953125 2.648438 -1.601562 2.984375 -1.34375 C 3.316406 -1.09375 3.722656 -0.96875 4.203125 -0.96875 Z M 4.203125 -0.96875 "/></g></g></g><g fill="#000000" fill-opacity="1"><g transform="translate(172.689839, 70.793952)"><g/></g></g><g fill="#000000" fill-opacity="1"><g transform="translate(176.670986, 70.793952)"><g><path d="M 2.828125 0 L 0.4375 -7.828125 L 1.765625 -7.828125 L 2.734375 -4.40625 C 2.859375 -3.925781 2.992188 -3.394531 3.140625 -2.8125 C 3.296875 -2.226562 3.445312 -1.585938 3.59375 -0.890625 L 3.375 -0.890625 C 3.519531 -1.566406 3.664062 -2.195312 3.8125 -2.78125 C 3.957031 -3.363281 4.097656 -3.90625 4.234375 -4.40625 L 5.1875 -7.828125 L 6.5 -7.828125 L 7.4375 -4.40625 C 7.570312 -3.914062 7.710938 -3.378906 7.859375 -2.796875 C 8.003906 -2.210938 8.144531 -1.578125 8.28125 -0.890625 L 8.0625 -0.890625 C 8.207031 -1.566406 8.351562 -2.195312 8.5 -2.78125 C 8.644531 -3.363281 8.789062 -3.90625 8.9375 -4.40625 L 9.90625 -7.828125 L 11.234375 -7.828125 L 8.84375 0 L 7.578125 0 L 6.5625 -3.546875 C 6.457031 -3.898438 6.351562 -4.257812 6.25 -4.625 C 6.15625 -5 6.0625 -5.378906 5.96875 -5.765625 C 5.875 -6.160156 5.78125 -6.554688 5.6875 -6.953125 L 5.984375 -6.953125 C 5.890625 -6.554688 5.789062 -6.160156 5.6875 -5.765625 C 5.59375 -5.378906 5.5 -5 5.40625 -4.625 C 5.3125 -4.257812 5.210938 -3.898438 5.109375 -3.546875 L 4.078125 0 Z M 2.828125 0 "/></g></g></g><g fill="#000000" fill-opacity="1"><g transform="translate(188.331073, 70.793952)"><g><path d="M 2.328125 -4.65625 L 2.328125 0 L 1.0625 0 L 1.0625 -10.5625 L 2.328125 -10.5625 L 2.328125 -5.9375 L 2.078125 -5.9375 C 2.316406 -6.65625 2.65625 -7.164062 3.09375 -7.46875 C 3.539062 -7.78125 4.066406 -7.9375 4.671875 -7.9375 C 5.203125 -7.9375 5.671875 -7.828125 6.078125 -7.609375 C 6.484375 -7.390625 6.800781 -7.054688 7.03125 -6.609375 C 7.257812 -6.171875 7.375 -5.617188 7.375 -4.953125 L 7.375 0 L 6.109375 0 L 6.109375 -4.84375 C 6.109375 -5.457031 5.945312 -5.9375 5.625 -6.28125 C 5.3125 -6.625 4.878906 -6.796875 4.328125 -6.796875 C 3.941406 -6.796875 3.597656 -6.710938 3.296875 -6.546875 C 3.003906 -6.390625 2.769531 -6.148438 2.59375 -5.828125 C 2.414062 -5.515625 2.328125 -5.125 2.328125 -4.65625 Z M 2.328125 -4.65625 "/></g></g></g><g fill="#000000" fill-opacity="1"><g transform="translate(196.767989, 70.793952)"><g><path d="M 4.265625 0.171875 C 3.554688 0.171875 2.929688 0.00390625 2.390625 -0.328125 C 1.859375 -0.671875 1.441406 -1.144531 1.140625 -1.75 C 0.835938 -2.363281 0.6875 -3.070312 0.6875 -3.875 C 0.6875 -4.6875 0.835938 -5.394531 1.140625 -6 C 1.441406 -6.613281 1.859375 -7.085938 2.390625 -7.421875 C 2.929688 -7.765625 3.554688 -7.9375 4.265625 -7.9375 C 4.984375 -7.9375 5.609375 -7.765625 6.140625 -7.421875 C 6.679688 -7.085938 7.101562 -6.613281 7.40625 -6 C 7.707031 -5.394531 7.859375 -4.6875 7.859375 -3.875 C 7.859375 -3.070312 7.707031 -2.363281 7.40625 -1.75 C 7.101562 -1.144531 6.679688 -0.671875 6.140625 -0.328125 C 5.609375 0.00390625 4.984375 0.171875 4.265625 0.171875 Z M 4.265625 -0.953125 C 4.785156 -0.953125 5.21875 -1.082031 5.5625 -1.34375 C 5.90625 -1.613281 6.160156 -1.96875 6.328125 -2.40625 C 6.492188 -2.851562 6.578125 -3.34375 6.578125 -3.875 C 6.578125 -4.40625 6.492188 -4.894531 6.328125 -5.34375 C 6.160156 -5.789062 5.90625 -6.144531 5.5625 -6.40625 C 5.21875 -6.675781 4.785156 -6.8125 4.265625 -6.8125 C 3.753906 -6.8125 3.328125 -6.675781 2.984375 -6.40625 C 2.640625 -6.144531 2.382812 -5.789062 2.21875 -5.34375 C 2.050781 -4.894531 1.96875 -4.40625 1.96875 -3.875 C 1.96875 -3.34375 2.050781 -2.851562 2.21875 -2.40625 C 2.382812 -1.96875 2.632812 -1.613281 2.96875 -1.34375 C 3.3125 -1.082031 3.742188 -0.953125 4.265625 -0.953125 Z M 4.265625 -0.953125 "/></g></g></g><g fill="#000000" fill-opacity="1"><g transform="translate(205.304079, 70.793952)"><g/></g></g><g fill="#000000" fill-opacity="1"><g transform="translate(209.285227, 70.793952)"><g><path d="M 4.21875 -7.828125 L 4.21875 -6.75 L 0.140625 -6.75 L 0.140625 -7.828125 Z M 1.359375 -9.75 L 2.609375 -9.75 L 2.609375 -2 C 2.609375 -1.664062 2.675781 -1.421875 2.8125 -1.265625 C 2.957031 -1.109375 3.195312 -1.03125 3.53125 -1.03125 C 3.613281 -1.03125 3.71875 -1.035156 3.84375 -1.046875 C 3.96875 -1.066406 4.082031 -1.082031 4.1875 -1.09375 L 4.390625 -0.03125 C 4.265625 0 4.117188 0.0234375 3.953125 0.046875 C 3.785156 0.0664062 3.625 0.078125 3.46875 0.078125 C 2.789062 0.078125 2.269531 -0.09375 1.90625 -0.4375 C 1.539062 -0.78125 1.359375 -1.269531 1.359375 -1.90625 Z M 1.359375 -9.75 "/></g></g></g><g fill="#000000" fill-opacity="1"><g transform="translate(213.981847, 70.793952)"><g><path d="M 4.265625 0.171875 C 3.554688 0.171875 2.929688 0.00390625 2.390625 -0.328125 C 1.859375 -0.671875 1.441406 -1.144531 1.140625 -1.75 C 0.835938 -2.363281 0.6875 -3.070312 0.6875 -3.875 C 0.6875 -4.6875 0.835938 -5.394531 1.140625 -6 C 1.441406 -6.613281 1.859375 -7.085938 2.390625 -7.421875 C 2.929688 -7.765625 3.554688 -7.9375 4.265625 -7.9375 C 4.984375 -7.9375 5.609375 -7.765625 6.140625 -7.421875 C 6.679688 -7.085938 7.101562 -6.613281 7.40625 -6 C 7.707031 -5.394531 7.859375 -4.6875 7.859375 -3.875 C 7.859375 -3.070312 7.707031 -2.363281 7.40625 -1.75 C 7.101562 -1.144531 6.679688 -0.671875 6.140625 -0.328125 C 5.609375 0.00390625 4.984375 0.171875 4.265625 0.171875 Z M 4.265625 -0.953125 C 4.785156 -0.953125 5.21875 -1.082031 5.5625 -1.34375 C 5.90625 -1.613281 6.160156 -1.96875 6.328125 -2.40625 C 6.492188 -2.851562 6.578125 -3.34375 6.578125 -3.875 C 6.578125 -4.40625 6.492188 -4.894531 6.328125 -5.34375 C 6.160156 -5.789062 5.90625 -6.144531 5.5625 -6.40625 C 5.21875 -6.675781 4.785156 -6.8125 4.265625 -6.8125 C 3.753906 -6.8125 3.328125 -6.675781 2.984375 -6.40625 C 2.640625 -6.144531 2.382812 -5.789062 2.21875 -5.34375 C 2.050781 -4.894531 1.96875 -4.40625 1.96875 -3.875 C 1.96875 -3.34375 2.050781 -2.851562 2.21875 -2.40625 C 2.382812 -1.96875 2.632812 -1.613281 2.96875 -1.34375 C 3.3125 -1.082031 3.742188 -0.953125 4.265625 -0.953125 Z M 4.265625 -0.953125 "/></g></g></g><g fill="#000000" fill-opacity="1"><g transform="translate(222.517938, 70.793952)"><g><path d="M 4.265625 0.171875 C 3.554688 0.171875 2.929688 0.00390625 2.390625 -0.328125 C 1.859375 -0.671875 1.441406 -1.144531 1.140625 -1.75 C 0.835938 -2.363281 0.6875 -3.070312 0.6875 -3.875 C 0.6875 -4.6875 0.835938 -5.394531 1.140625 -6 C 1.441406 -6.613281 1.859375 -7.085938 2.390625 -7.421875 C 2.929688 -7.765625 3.554688 -7.9375 4.265625 -7.9375 C 4.984375 -7.9375 5.609375 -7.765625 6.140625 -7.421875 C 6.679688 -7.085938 7.101562 -6.613281 7.40625 -6 C 7.707031 -5.394531 7.859375 -4.6875 7.859375 -3.875 C 7.859375 -3.070312 7.707031 -2.363281 7.40625 -1.75 C 7.101562 -1.144531 6.679688 -0.671875 6.140625 -0.328125 C 5.609375 0.00390625 4.984375 0.171875 4.265625 0.171875 Z M 4.265625 -0.953125 C 4.785156 -0.953125 5.21875 -1.082031 5.5625 -1.34375 C 5.90625 -1.613281 6.160156 -1.96875 6.328125 -2.40625 C 6.492188 -2.851562 6.578125 -3.34375 6.578125 -3.875 C 6.578125 -4.40625 6.492188 -4.894531 6.328125 -5.34375 C 6.160156 -5.789062 5.90625 -6.144531 5.5625 -6.40625 C 5.21875 -6.675781 4.785156 -6.8125 4.265625 -6.8125 C 3.753906 -6.8125 3.328125 -6.675781 2.984375 -6.40625 C 2.640625 -6.144531 2.382812 -5.789062 2.21875 -5.34375 C 2.050781 -4.894531 1.96875 -4.40625 1.96875 -3.875 C 1.96875 -3.34375 2.050781 -2.851562 2.21875 -2.40625 C 2.382812 -1.96875 2.632812 -1.613281 2.96875 -1.34375 C 3.3125 -1.082031 3.742188 -0.953125 4.265625 -0.953125 Z M 4.265625 -0.953125 "/></g></g></g><g fill="#000000" fill-opacity="1"><g transform="translate(231.054028, 70.793952)"><g><path d="M 2.25 -2.8125 L 2.25 -4.359375 L 2.453125 -4.359375 L 5.859375 -7.828125 L 7.4375 -7.828125 L 3.78125 -4.109375 L 3.640625 -4.109375 Z M 1.0625 0 L 1.0625 -10.5625 L 2.328125 -10.5625 L 2.328125 0 Z M 6.078125 0 L 3.03125 -3.828125 L 3.921875 -4.71875 L 7.6875 0 Z M 6.078125 0 "/></g></g></g><g fill="#000000" fill-opacity="1"><g transform="translate(238.881729, 70.793952)"><g/></g></g><g fill="#000000" fill-opacity="1"><g transform="translate(242.862876, 70.793952)"><g><path d="M 3.296875 0.171875 C 2.796875 0.171875 2.34375 0.0820312 1.9375 -0.09375 C 1.539062 -0.28125 1.222656 -0.550781 0.984375 -0.90625 C 0.742188 -1.269531 0.625 -1.710938 0.625 -2.234375 C 0.625 -2.679688 0.710938 -3.046875 0.890625 -3.328125 C 1.066406 -3.609375 1.300781 -3.828125 1.59375 -3.984375 C 1.894531 -4.148438 2.222656 -4.269531 2.578125 -4.34375 C 2.941406 -4.425781 3.304688 -4.492188 3.671875 -4.546875 C 4.148438 -4.609375 4.535156 -4.65625 4.828125 -4.6875 C 5.117188 -4.71875 5.332031 -4.769531 5.46875 -4.84375 C 5.613281 -4.925781 5.6875 -5.066406 5.6875 -5.265625 L 5.6875 -5.3125 C 5.6875 -5.625 5.625 -5.894531 5.5 -6.125 C 5.375 -6.351562 5.1875 -6.523438 4.9375 -6.640625 C 4.695312 -6.765625 4.394531 -6.828125 4.03125 -6.828125 C 3.65625 -6.828125 3.332031 -6.769531 3.0625 -6.65625 C 2.800781 -6.539062 2.582031 -6.390625 2.40625 -6.203125 C 2.238281 -6.023438 2.125 -5.832031 2.0625 -5.625 L 0.84375 -5.953125 C 1 -6.421875 1.238281 -6.800781 1.5625 -7.09375 C 1.894531 -7.382812 2.269531 -7.597656 2.6875 -7.734375 C 3.113281 -7.867188 3.550781 -7.9375 4 -7.9375 C 4.300781 -7.9375 4.617188 -7.894531 4.953125 -7.8125 C 5.296875 -7.738281 5.617188 -7.601562 5.921875 -7.40625 C 6.222656 -7.21875 6.46875 -6.941406 6.65625 -6.578125 C 6.84375 -6.222656 6.9375 -5.765625 6.9375 -5.203125 L 6.9375 0 L 5.703125 0 L 5.703125 -1.078125 L 5.625 -1.078125 C 5.539062 -0.890625 5.398438 -0.695312 5.203125 -0.5 C 5.003906 -0.3125 4.75 -0.148438 4.4375 -0.015625 C 4.125 0.109375 3.742188 0.171875 3.296875 0.171875 Z M 3.515625 -0.953125 C 3.984375 -0.953125 4.378906 -1.039062 4.703125 -1.21875 C 5.023438 -1.40625 5.269531 -1.644531 5.4375 -1.9375 C 5.601562 -2.226562 5.6875 -2.535156 5.6875 -2.859375 L 5.6875 -3.921875 C 5.632812 -3.859375 5.523438 -3.800781 5.359375 -3.75 C 5.203125 -3.707031 5.015625 -3.664062 4.796875 -3.625 C 4.578125 -3.59375 4.363281 -3.5625 4.15625 -3.53125 C 3.945312 -3.507812 3.769531 -3.488281 3.625 -3.46875 C 3.320312 -3.4375 3.035156 -3.375 2.765625 -3.28125 C 2.503906 -3.1875 2.289062 -3.050781 2.125 -2.875 C 1.96875 -2.695312 1.890625 -2.460938 1.890625 -2.171875 C 1.890625 -1.898438 1.957031 -1.671875 2.09375 -1.484375 C 2.238281 -1.304688 2.429688 -1.171875 2.671875 -1.078125 C 2.910156 -0.992188 3.191406 -0.953125 3.515625 -0.953125 Z M 3.515625 -0.953125 "/></g></g></g><g fill="#000000" fill-opacity="1"><g transform="translate(250.867675, 70.793952)"><g/></g></g><g fill="#000000" fill-opacity="1"><g transform="translate(254.848822, 70.793952)"><g><path d="M 4.265625 0.171875 C 3.554688 0.171875 2.929688 0.00390625 2.390625 -0.328125 C 1.859375 -0.671875 1.441406 -1.144531 1.140625 -1.75 C 0.835938 -2.363281 0.6875 -3.070312 0.6875 -3.875 C 0.6875 -4.6875 0.835938 -5.394531 1.140625 -6 C 1.441406 -6.613281 1.859375 -7.085938 2.390625 -7.421875 C 2.929688 -7.765625 3.554688 -7.9375 4.265625 -7.9375 C 4.660156 -7.9375 5.03125 -7.882812 5.375 -7.78125 C 5.71875 -7.675781 6.023438 -7.523438 6.296875 -7.328125 C 6.578125 -7.128906 6.816406 -6.890625 7.015625 -6.609375 C 7.222656 -6.328125 7.375 -6.007812 7.46875 -5.65625 L 6.234375 -5.390625 C 6.179688 -5.597656 6.097656 -5.785156 5.984375 -5.953125 C 5.867188 -6.128906 5.726562 -6.28125 5.5625 -6.40625 C 5.394531 -6.53125 5.203125 -6.628906 4.984375 -6.703125 C 4.765625 -6.773438 4.523438 -6.8125 4.265625 -6.8125 C 3.753906 -6.8125 3.328125 -6.675781 2.984375 -6.40625 C 2.640625 -6.144531 2.382812 -5.789062 2.21875 -5.34375 C 2.050781 -4.894531 1.96875 -4.40625 1.96875 -3.875 C 1.96875 -3.34375 2.050781 -2.851562 2.21875 -2.40625 C 2.382812 -1.96875 2.632812 -1.613281 2.96875 -1.34375 C 3.3125 -1.082031 3.742188 -0.953125 4.265625 -0.953125 C 4.523438 -0.953125 4.765625 -0.988281 4.984375 -1.0625 C 5.210938 -1.132812 5.410156 -1.234375 5.578125 -1.359375 C 5.742188 -1.492188 5.882812 -1.648438 6 -1.828125 C 6.113281 -2.015625 6.203125 -2.21875 6.265625 -2.4375 L 7.484375 -2.15625 C 7.390625 -1.800781 7.242188 -1.476562 7.046875 -1.1875 C 6.847656 -0.90625 6.609375 -0.660156 6.328125 -0.453125 C 6.046875 -0.253906 5.726562 -0.101562 5.375 0 C 5.03125 0.113281 4.660156 0.171875 4.265625 0.171875 Z M 4.265625 0.171875 "/></g></g></g><g fill="#000000" fill-opacity="1"><g transform="translate(262.981142, 70.793952)"><g><path d="M 4.265625 0.171875 C 3.554688 0.171875 2.929688 0.00390625 2.390625 -0.328125 C 1.859375 -0.671875 1.441406 -1.144531 1.140625 -1.75 C 0.835938 -2.363281 0.6875 -3.070312 0.6875 -3.875 C 0.6875 -4.6875 0.835938 -5.394531 1.140625 -6 C 1.441406 -6.613281 1.859375 -7.085938 2.390625 -7.421875 C 2.929688 -7.765625 3.554688 -7.9375 4.265625 -7.9375 C 4.984375 -7.9375 5.609375 -7.765625 6.140625 -7.421875 C 6.679688 -7.085938 7.101562 -6.613281 7.40625 -6 C 7.707031 -5.394531 7.859375 -4.6875 7.859375 -3.875 C 7.859375 -3.070312 7.707031 -2.363281 7.40625 -1.75 C 7.101562 -1.144531 6.679688 -0.671875 6.140625 -0.328125 C 5.609375 0.00390625 4.984375 0.171875 4.265625 0.171875 Z M 4.265625 -0.953125 C 4.785156 -0.953125 5.21875 -1.082031 5.5625 -1.34375 C 5.90625 -1.613281 6.160156 -1.96875 6.328125 -2.40625 C 6.492188 -2.851562 6.578125 -3.34375 6.578125 -3.875 C 6.578125 -4.40625 6.492188 -4.894531 6.328125 -5.34375 C 6.160156 -5.789062 5.90625 -6.144531 5.5625 -6.40625 C 5.21875 -6.675781 4.785156 -6.8125 4.265625 -6.8125 C 3.753906 -6.8125 3.328125 -6.675781 2.984375 -6.40625 C 2.640625 -6.144531 2.382812 -5.789062 2.21875 -5.34375 C 2.050781 -4.894531 1.96875 -4.40625 1.96875 -3.875 C 1.96875 -3.34375 2.050781 -2.851562 2.21875 -2.40625 C 2.382812 -1.96875 2.632812 -1.613281 2.96875 -1.34375 C 3.3125 -1.082031 3.742188 -0.953125 4.265625 -0.953125 Z M 4.265625 -0.953125 "/></g></g></g><g fill="#000000" fill-opacity="1"><g transform="translate(271.517221, 70.793952)"><g><path d="M 3.765625 0.109375 C 3.242188 0.109375 2.773438 0 2.359375 -0.21875 C 1.953125 -0.4375 1.632812 -0.765625 1.40625 -1.203125 C 1.175781 -1.648438 1.0625 -2.207031 1.0625 -2.875 L 1.0625 -7.828125 L 2.328125 -7.828125 L 2.328125 -2.984375 C 2.328125 -2.367188 2.484375 -1.890625 2.796875 -1.546875 C 3.117188 -1.203125 3.5625 -1.03125 4.125 -1.03125 C 4.488281 -1.03125 4.820312 -1.109375 5.125 -1.265625 C 5.425781 -1.429688 5.664062 -1.671875 5.84375 -1.984375 C 6.019531 -2.304688 6.109375 -2.695312 6.109375 -3.15625 L 6.109375 -7.828125 L 7.375 -7.828125 L 7.375 0 L 6.15625 0 L 6.15625 -1.90625 L 6.359375 -1.90625 C 6.109375 -1.175781 5.757812 -0.65625 5.3125 -0.34375 C 4.863281 -0.0390625 4.347656 0.109375 3.765625 0.109375 Z M 3.765625 0.109375 "/></g></g></g><g fill="#000000" fill-opacity="1"><g transform="translate(279.954148, 70.793952)"><g><path d="M 1.0625 0 L 1.0625 -7.828125 L 2.28125 -7.828125 L 2.28125 -6.625 L 2.359375 -6.625 C 2.503906 -7.019531 2.753906 -7.335938 3.109375 -7.578125 C 3.472656 -7.816406 3.890625 -7.9375 4.359375 -7.9375 C 4.453125 -7.9375 4.5625 -7.929688 4.6875 -7.921875 C 4.8125 -7.921875 4.90625 -7.921875 4.96875 -7.921875 L 4.96875 -6.640625 C 4.925781 -6.648438 4.832031 -6.664062 4.6875 -6.6875 C 4.539062 -6.707031 4.378906 -6.71875 4.203125 -6.71875 C 3.847656 -6.71875 3.53125 -6.640625 3.25 -6.484375 C 2.96875 -6.335938 2.742188 -6.125 2.578125 -5.84375 C 2.410156 -5.570312 2.328125 -5.253906 2.328125 -4.890625 L 2.328125 0 Z M 1.0625 0 "/></g></g></g><g fill="#000000" fill-opacity="1"><g transform="translate(285.238709, 70.793952)"><g><path d="M 3.75 0.171875 C 3.207031 0.171875 2.722656 0.09375 2.296875 -0.0625 C 1.867188 -0.226562 1.519531 -0.472656 1.25 -0.796875 C 0.976562 -1.117188 0.800781 -1.515625 0.71875 -1.984375 L 1.921875 -2.21875 C 2.015625 -1.78125 2.21875 -1.453125 2.53125 -1.234375 C 2.84375 -1.023438 3.242188 -0.921875 3.734375 -0.921875 C 4.273438 -0.921875 4.707031 -1.035156 5.03125 -1.265625 C 5.351562 -1.503906 5.515625 -1.789062 5.515625 -2.125 C 5.515625 -2.394531 5.414062 -2.617188 5.21875 -2.796875 C 5.019531 -2.972656 4.734375 -3.109375 4.359375 -3.203125 L 3.0625 -3.515625 C 2.34375 -3.671875 1.804688 -3.925781 1.453125 -4.28125 C 1.109375 -4.644531 0.9375 -5.101562 0.9375 -5.65625 C 0.9375 -6.101562 1.0625 -6.5 1.3125 -6.84375 C 1.5625 -7.1875 1.898438 -7.453125 2.328125 -7.640625 C 2.765625 -7.835938 3.265625 -7.9375 3.828125 -7.9375 C 4.367188 -7.9375 4.832031 -7.847656 5.21875 -7.671875 C 5.601562 -7.503906 5.914062 -7.269531 6.15625 -6.96875 C 6.394531 -6.664062 6.5625 -6.316406 6.65625 -5.921875 L 5.5 -5.6875 C 5.414062 -6 5.238281 -6.273438 4.96875 -6.515625 C 4.707031 -6.753906 4.328125 -6.875 3.828125 -6.875 C 3.359375 -6.875 2.972656 -6.765625 2.671875 -6.546875 C 2.367188 -6.328125 2.21875 -6.050781 2.21875 -5.71875 C 2.21875 -5.425781 2.320312 -5.191406 2.53125 -5.015625 C 2.738281 -4.835938 3.066406 -4.695312 3.515625 -4.59375 L 4.703125 -4.3125 C 5.421875 -4.144531 5.953125 -3.882812 6.296875 -3.53125 C 6.640625 -3.175781 6.8125 -2.726562 6.8125 -2.1875 C 6.8125 -1.726562 6.679688 -1.320312 6.421875 -0.96875 C 6.160156 -0.613281 5.800781 -0.332031 5.34375 -0.125 C 4.882812 0.0703125 4.351562 0.171875 3.75 0.171875 Z M 3.75 0.171875 "/></g></g></g><g fill="#000000" fill-opacity="1"><g transform="translate(292.726395, 70.793952)"><g><path d="M 4.34375 0.171875 C 3.582031 0.171875 2.925781 0.00390625 2.375 -0.328125 C 1.832031 -0.671875 1.414062 -1.144531 1.125 -1.75 C 0.832031 -2.363281 0.6875 -3.066406 0.6875 -3.859375 C 0.6875 -4.660156 0.832031 -5.367188 1.125 -5.984375 C 1.414062 -6.597656 1.828125 -7.078125 2.359375 -7.421875 C 2.890625 -7.765625 3.503906 -7.9375 4.203125 -7.9375 C 4.648438 -7.9375 5.078125 -7.859375 5.484375 -7.703125 C 5.898438 -7.554688 6.269531 -7.320312 6.59375 -7 C 6.925781 -6.6875 7.1875 -6.28125 7.375 -5.78125 C 7.5625 -5.28125 7.65625 -4.679688 7.65625 -3.984375 L 7.65625 -3.5 L 1.5 -3.5 L 1.5 -4.5625 L 6.96875 -4.5625 L 6.390625 -4.1875 C 6.390625 -4.695312 6.304688 -5.148438 6.140625 -5.546875 C 5.972656 -5.941406 5.726562 -6.25 5.40625 -6.46875 C 5.082031 -6.695312 4.679688 -6.8125 4.203125 -6.8125 C 3.742188 -6.8125 3.34375 -6.695312 3 -6.46875 C 2.664062 -6.25 2.40625 -5.953125 2.21875 -5.578125 C 2.039062 -5.203125 1.953125 -4.789062 1.953125 -4.34375 L 1.953125 -3.671875 C 1.953125 -3.097656 2.050781 -2.609375 2.25 -2.203125 C 2.445312 -1.796875 2.722656 -1.484375 3.078125 -1.265625 C 3.441406 -1.054688 3.867188 -0.953125 4.359375 -0.953125 C 4.671875 -0.953125 4.957031 -1 5.21875 -1.09375 C 5.476562 -1.1875 5.695312 -1.328125 5.875 -1.515625 C 6.0625 -1.703125 6.203125 -1.929688 6.296875 -2.203125 L 7.53125 -1.921875 C 7.40625 -1.515625 7.195312 -1.148438 6.90625 -0.828125 C 6.613281 -0.515625 6.25 -0.269531 5.8125 -0.09375 C 5.375 0.0820312 4.882812 0.171875 4.34375 0.171875 Z M 4.34375 0.171875 "/></g></g></g><g fill="#000000" fill-opacity="1"><g transform="translate(301.045886, 70.793952)"><g/></g></g><g fill="#000000" fill-opacity="1"><g transform="translate(65.030273, 85.793951)"><g><path d="M 1.0625 0 L 1.0625 -7.828125 L 2.328125 -7.828125 L 2.328125 0 Z M 1.6875 -9.15625 C 1.457031 -9.15625 1.253906 -9.238281 1.078125 -9.40625 C 0.910156 -9.570312 0.828125 -9.769531 0.828125 -10 C 0.828125 -10.226562 0.910156 -10.425781 1.078125 -10.59375 C 1.253906 -10.757812 1.457031 -10.84375 1.6875 -10.84375 C 1.9375 -10.84375 2.144531 -10.757812 2.3125 -10.59375 C 2.488281 -10.425781 2.578125 -10.226562 2.578125 -10 C 2.578125 -9.769531 2.488281 -9.570312 2.3125 -9.40625 C 2.144531 -9.238281 1.9375 -9.15625 1.6875 -9.15625 Z M 1.6875 -9.15625 "/></g></g></g><g fill="#000000" fill-opacity="1"><g transform="translate(68.430542, 85.793951)"><g><path d="M 2.328125 -4.65625 L 2.328125 0 L 1.0625 0 L 1.0625 -7.828125 L 2.28125 -7.828125 L 2.296875 -5.9375 L 2.078125 -5.9375 C 2.316406 -6.65625 2.65625 -7.164062 3.09375 -7.46875 C 3.539062 -7.78125 4.066406 -7.9375 4.671875 -7.9375 C 5.203125 -7.9375 5.664062 -7.828125 6.0625 -7.609375 C 6.46875 -7.390625 6.785156 -7.054688 7.015625 -6.609375 C 7.242188 -6.171875 7.359375 -5.617188 7.359375 -4.953125 L 7.359375 0 L 6.109375 0 L 6.109375 -4.84375 C 6.109375 -5.457031 5.945312 -5.9375 5.625 -6.28125 C 5.3125 -6.625 4.878906 -6.796875 4.328125 -6.796875 C 3.941406 -6.796875 3.597656 -6.710938 3.296875 -6.546875 C 3.003906 -6.390625 2.769531 -6.148438 2.59375 -5.828125 C 2.414062 -5.515625 2.328125 -5.125 2.328125 -4.65625 Z M 2.328125 -4.65625 "/></g></g></g><g fill="#000000" fill-opacity="1"><g transform="translate(76.860373, 85.793951)"><g/></g></g><g fill="#000000" fill-opacity="1"><g transform="translate(80.841521, 85.793951)"><g><path d="M 4.21875 -7.828125 L 4.21875 -6.75 L 0.140625 -6.75 L 0.140625 -7.828125 Z M 1.359375 -9.75 L 2.609375 -9.75 L 2.609375 -2 C 2.609375 -1.664062 2.675781 -1.421875 2.8125 -1.265625 C 2.957031 -1.109375 3.195312 -1.03125 3.53125 -1.03125 C 3.613281 -1.03125 3.71875 -1.035156 3.84375 -1.046875 C 3.96875 -1.066406 4.082031 -1.082031 4.1875 -1.09375 L 4.390625 -0.03125 C 4.265625 0 4.117188 0.0234375 3.953125 0.046875 C 3.785156 0.0664062 3.625 0.078125 3.46875 0.078125 C 2.789062 0.078125 2.269531 -0.09375 1.90625 -0.4375 C 1.539062 -0.78125 1.359375 -1.269531 1.359375 -1.90625 Z M 1.359375 -9.75 "/></g></g></g><g fill="#000000" fill-opacity="1"><g transform="translate(85.538142, 85.793951)"><g><path d="M 2.328125 -4.65625 L 2.328125 0 L 1.0625 0 L 1.0625 -10.5625 L 2.328125 -10.5625 L 2.328125 -5.9375 L 2.078125 -5.9375 C 2.316406 -6.65625 2.65625 -7.164062 3.09375 -7.46875 C 3.539062 -7.78125 4.066406 -7.9375 4.671875 -7.9375 C 5.203125 -7.9375 5.671875 -7.828125 6.078125 -7.609375 C 6.484375 -7.390625 6.800781 -7.054688 7.03125 -6.609375 C 7.257812 -6.171875 7.375 -5.617188 7.375 -4.953125 L 7.375 0 L 6.109375 0 L 6.109375 -4.84375 C 6.109375 -5.457031 5.945312 -5.9375 5.625 -6.28125 C 5.3125 -6.625 4.878906 -6.796875 4.328125 -6.796875 C 3.941406 -6.796875 3.597656 -6.710938 3.296875 -6.546875 C 3.003906 -6.390625 2.769531 -6.148438 2.59375 -5.828125 C 2.414062 -5.515625 2.328125 -5.125 2.328125 -4.65625 Z M 2.328125 -4.65625 "/></g></g></g><g fill="#000000" fill-opacity="1"><g transform="translate(93.975057, 85.793951)"><g><path d="M 1.0625 0 L 1.0625 -7.828125 L 2.328125 -7.828125 L 2.328125 0 Z M 1.6875 -9.15625 C 1.457031 -9.15625 1.253906 -9.238281 1.078125 -9.40625 C 0.910156 -9.570312 0.828125 -9.769531 0.828125 -10 C 0.828125 -10.226562 0.910156 -10.425781 1.078125 -10.59375 C 1.253906 -10.757812 1.457031 -10.84375 1.6875 -10.84375 C 1.9375 -10.84375 2.144531 -10.757812 2.3125 -10.59375 C 2.488281 -10.425781 2.578125 -10.226562 2.578125 -10 C 2.578125 -9.769531 2.488281 -9.570312 2.3125 -9.40625 C 2.144531 -9.238281 1.9375 -9.15625 1.6875 -9.15625 Z M 1.6875 -9.15625 "/></g></g></g><g fill="#000000" fill-opacity="1"><g transform="translate(97.375326, 85.793951)"><g><path d="M 3.75 0.171875 C 3.207031 0.171875 2.722656 0.09375 2.296875 -0.0625 C 1.867188 -0.226562 1.519531 -0.472656 1.25 -0.796875 C 0.976562 -1.117188 0.800781 -1.515625 0.71875 -1.984375 L 1.921875 -2.21875 C 2.015625 -1.78125 2.21875 -1.453125 2.53125 -1.234375 C 2.84375 -1.023438 3.242188 -0.921875 3.734375 -0.921875 C 4.273438 -0.921875 4.707031 -1.035156 5.03125 -1.265625 C 5.351562 -1.503906 5.515625 -1.789062 5.515625 -2.125 C 5.515625 -2.394531 5.414062 -2.617188 5.21875 -2.796875 C 5.019531 -2.972656 4.734375 -3.109375 4.359375 -3.203125 L 3.0625 -3.515625 C 2.34375 -3.671875 1.804688 -3.925781 1.453125 -4.28125 C 1.109375 -4.644531 0.9375 -5.101562 0.9375 -5.65625 C 0.9375 -6.101562 1.0625 -6.5 1.3125 -6.84375 C 1.5625 -7.1875 1.898438 -7.453125 2.328125 -7.640625 C 2.765625 -7.835938 3.265625 -7.9375 3.828125 -7.9375 C 4.367188 -7.9375 4.832031 -7.847656 5.21875 -7.671875 C 5.601562 -7.503906 5.914062 -7.269531 6.15625 -6.96875 C 6.394531 -6.664062 6.5625 -6.316406 6.65625 -5.921875 L 5.5 -5.6875 C 5.414062 -6 5.238281 -6.273438 4.96875 -6.515625 C 4.707031 -6.753906 4.328125 -6.875 3.828125 -6.875 C 3.359375 -6.875 2.972656 -6.765625 2.671875 -6.546875 C 2.367188 -6.328125 2.21875 -6.050781 2.21875 -5.71875 C 2.21875 -5.425781 2.320312 -5.191406 2.53125 -5.015625 C 2.738281 -4.835938 3.066406 -4.695312 3.515625 -4.59375 L 4.703125 -4.3125 C 5.421875 -4.144531 5.953125 -3.882812 6.296875 -3.53125 C 6.640625 -3.175781 6.8125 -2.726562 6.8125 -2.1875 C 6.8125 -1.726562 6.679688 -1.320312 6.421875 -0.96875 C 6.160156 -0.613281 5.800781 -0.332031 5.34375 -0.125 C 4.882812 0.0703125 4.351562 0.171875 3.75 0.171875 Z M 3.75 0.171875 "/></g></g></g><g fill="#000000" fill-opacity="1"><g transform="translate(104.863, 85.793951)"><g/></g></g><g fill="#000000" fill-opacity="1"><g transform="translate(108.844147, 85.793951)"><g><path d="M 2.328125 -10.5625 L 2.328125 0 L 1.0625 0 L 1.0625 -10.5625 Z M 2.328125 -10.5625 "/></g></g></g><g fill="#000000" fill-opacity="1"><g transform="translate(112.244416, 85.793951)"><g><path d="M 3.296875 0.171875 C 2.796875 0.171875 2.34375 0.0820312 1.9375 -0.09375 C 1.539062 -0.28125 1.222656 -0.550781 0.984375 -0.90625 C 0.742188 -1.269531 0.625 -1.710938 0.625 -2.234375 C 0.625 -2.679688 0.710938 -3.046875 0.890625 -3.328125 C 1.066406 -3.609375 1.300781 -3.828125 1.59375 -3.984375 C 1.894531 -4.148438 2.222656 -4.269531 2.578125 -4.34375 C 2.941406 -4.425781 3.304688 -4.492188 3.671875 -4.546875 C 4.148438 -4.609375 4.535156 -4.65625 4.828125 -4.6875 C 5.117188 -4.71875 5.332031 -4.769531 5.46875 -4.84375 C 5.613281 -4.925781 5.6875 -5.066406 5.6875 -5.265625 L 5.6875 -5.3125 C 5.6875 -5.625 5.625 -5.894531 5.5 -6.125 C 5.375 -6.351562 5.1875 -6.523438 4.9375 -6.640625 C 4.695312 -6.765625 4.394531 -6.828125 4.03125 -6.828125 C 3.65625 -6.828125 3.332031 -6.769531 3.0625 -6.65625 C 2.800781 -6.539062 2.582031 -6.390625 2.40625 -6.203125 C 2.238281 -6.023438 2.125 -5.832031 2.0625 -5.625 L 0.84375 -5.953125 C 1 -6.421875 1.238281 -6.800781 1.5625 -7.09375 C 1.894531 -7.382812 2.269531 -7.597656 2.6875 -7.734375 C 3.113281 -7.867188 3.550781 -7.9375 4 -7.9375 C 4.300781 -7.9375 4.617188 -7.894531 4.953125 -7.8125 C 5.296875 -7.738281 5.617188 -7.601562 5.921875 -7.40625 C 6.222656 -7.21875 6.46875 -6.941406 6.65625 -6.578125 C 6.84375 -6.222656 6.9375 -5.765625 6.9375 -5.203125 L 6.9375 0 L 5.703125 0 L 5.703125 -1.078125 L 5.625 -1.078125 C 5.539062 -0.890625 5.398438 -0.695312 5.203125 -0.5 C 5.003906 -0.3125 4.75 -0.148438 4.4375 -0.015625 C 4.125 0.109375 3.742188 0.171875 3.296875 0.171875 Z M 3.515625 -0.953125 C 3.984375 -0.953125 4.378906 -1.039062 4.703125 -1.21875 C 5.023438 -1.40625 5.269531 -1.644531 5.4375 -1.9375 C 5.601562 -2.226562 5.6875 -2.535156 5.6875 -2.859375 L 5.6875 -3.921875 C 5.632812 -3.859375 5.523438 -3.800781 5.359375 -3.75 C 5.203125 -3.707031 5.015625 -3.664062 4.796875 -3.625 C 4.578125 -3.59375 4.363281 -3.5625 4.15625 -3.53125 C 3.945312 -3.507812 3.769531 -3.488281 3.625 -3.46875 C 3.320312 -3.4375 3.035156 -3.375 2.765625 -3.28125 C 2.503906 -3.1875 2.289062 -3.050781 2.125 -2.875 C 1.96875 -2.695312 1.890625 -2.460938 1.890625 -2.171875 C 1.890625 -1.898438 1.957031 -1.671875 2.09375 -1.484375 C 2.238281 -1.304688 2.429688 -1.171875 2.671875 -1.078125 C 2.910156 -0.992188 3.191406 -0.953125 3.515625 -0.953125 Z M 3.515625 -0.953125 "/></g></g></g><g fill="#000000" fill-opacity="1"><g transform="translate(120.249214, 85.793951)"><g><path d="M 2.328125 -4.65625 L 2.328125 0 L 1.0625 0 L 1.0625 -7.828125 L 2.28125 -7.828125 L 2.296875 -5.9375 L 2.078125 -5.9375 C 2.316406 -6.65625 2.65625 -7.164062 3.09375 -7.46875 C 3.539062 -7.78125 4.066406 -7.9375 4.671875 -7.9375 C 5.203125 -7.9375 5.664062 -7.828125 6.0625 -7.609375 C 6.46875 -7.390625 6.785156 -7.054688 7.015625 -6.609375 C 7.242188 -6.171875 7.359375 -5.617188 7.359375 -4.953125 L 7.359375 0 L 6.109375 0 L 6.109375 -4.84375 C 6.109375 -5.457031 5.945312 -5.9375 5.625 -6.28125 C 5.3125 -6.625 4.878906 -6.796875 4.328125 -6.796875 C 3.941406 -6.796875 3.597656 -6.710938 3.296875 -6.546875 C 3.003906 -6.390625 2.769531 -6.148438 2.59375 -5.828125 C 2.414062 -5.515625 2.328125 -5.125 2.328125 -4.65625 Z M 2.328125 -4.65625 "/></g></g></g><g fill="#000000" fill-opacity="1"><g transform="translate(128.679046, 85.793951)"><g><path d="M 4.265625 3.125 C 3.679688 3.125 3.171875 3.046875 2.734375 2.890625 C 2.304688 2.734375 1.945312 2.519531 1.65625 2.25 C 1.375 1.988281 1.164062 1.691406 1.03125 1.359375 L 2.109375 0.84375 C 2.210938 1.019531 2.347656 1.195312 2.515625 1.375 C 2.679688 1.5625 2.90625 1.710938 3.1875 1.828125 C 3.46875 1.953125 3.828125 2.015625 4.265625 2.015625 C 4.898438 2.015625 5.414062 1.859375 5.8125 1.546875 C 6.21875 1.234375 6.421875 0.753906 6.421875 0.109375 L 6.421875 -1.375 L 6.328125 -1.375 C 6.210938 -1.195312 6.066406 -1.003906 5.890625 -0.796875 C 5.710938 -0.597656 5.472656 -0.425781 5.171875 -0.28125 C 4.867188 -0.144531 4.484375 -0.078125 4.015625 -0.078125 C 3.378906 -0.078125 2.804688 -0.226562 2.296875 -0.53125 C 1.796875 -0.832031 1.398438 -1.269531 1.109375 -1.84375 C 0.828125 -2.425781 0.6875 -3.125 0.6875 -3.9375 C 0.6875 -4.75 0.828125 -5.453125 1.109375 -6.046875 C 1.390625 -6.648438 1.78125 -7.113281 2.28125 -7.4375 C 2.789062 -7.769531 3.375 -7.9375 4.03125 -7.9375 C 4.5 -7.9375 4.882812 -7.859375 5.1875 -7.703125 C 5.488281 -7.554688 5.726562 -7.375 5.90625 -7.15625 C 6.09375 -6.945312 6.242188 -6.753906 6.359375 -6.578125 L 6.453125 -6.578125 L 6.453125 -7.828125 L 7.671875 -7.828125 L 7.671875 0.15625 C 7.671875 0.851562 7.519531 1.421875 7.21875 1.859375 C 6.914062 2.296875 6.503906 2.613281 5.984375 2.8125 C 5.460938 3.019531 4.890625 3.125 4.265625 3.125 Z M 4.21875 -1.1875 C 4.695312 -1.1875 5.101562 -1.296875 5.4375 -1.515625 C 5.769531 -1.742188 6.019531 -2.066406 6.1875 -2.484375 C 6.363281 -2.898438 6.453125 -3.394531 6.453125 -3.96875 C 6.453125 -4.53125 6.363281 -5.023438 6.1875 -5.453125 C 6.019531 -5.878906 5.769531 -6.210938 5.4375 -6.453125 C 5.101562 -6.691406 4.695312 -6.8125 4.21875 -6.8125 C 3.726562 -6.8125 3.316406 -6.6875 2.984375 -6.4375 C 2.648438 -6.1875 2.394531 -5.847656 2.21875 -5.421875 C 2.050781 -4.992188 1.96875 -4.507812 1.96875 -3.96875 C 1.96875 -3.40625 2.050781 -2.914062 2.21875 -2.5 C 2.394531 -2.082031 2.648438 -1.757812 2.984375 -1.53125 C 3.328125 -1.300781 3.738281 -1.1875 4.21875 -1.1875 Z M 4.21875 -1.1875 "/></g></g></g><g fill="#000000" fill-opacity="1"><g transform="translate(137.420569, 85.793951)"><g><path d="M 3.765625 0.109375 C 3.242188 0.109375 2.773438 0 2.359375 -0.21875 C 1.953125 -0.4375 1.632812 -0.765625 1.40625 -1.203125 C 1.175781 -1.648438 1.0625 -2.207031 1.0625 -2.875 L 1.0625 -7.828125 L 2.328125 -7.828125 L 2.328125 -2.984375 C 2.328125 -2.367188 2.484375 -1.890625 2.796875 -1.546875 C 3.117188 -1.203125 3.5625 -1.03125 4.125 -1.03125 C 4.488281 -1.03125 4.820312 -1.109375 5.125 -1.265625 C 5.425781 -1.429688 5.664062 -1.671875 5.84375 -1.984375 C 6.019531 -2.304688 6.109375 -2.695312 6.109375 -3.15625 L 6.109375 -7.828125 L 7.375 -7.828125 L 7.375 0 L 6.15625 0 L 6.15625 -1.90625 L 6.359375 -1.90625 C 6.109375 -1.175781 5.757812 -0.65625 5.3125 -0.34375 C 4.863281 -0.0390625 4.347656 0.109375 3.765625 0.109375 Z M 3.765625 0.109375 "/></g></g></g><g fill="#000000" fill-opacity="1"><g transform="translate(145.857485, 85.793951)"><g><path d="M 3.296875 0.171875 C 2.796875 0.171875 2.34375 0.0820312 1.9375 -0.09375 C 1.539062 -0.28125 1.222656 -0.550781 0.984375 -0.90625 C 0.742188 -1.269531 0.625 -1.710938 0.625 -2.234375 C 0.625 -2.679688 0.710938 -3.046875 0.890625 -3.328125 C 1.066406 -3.609375 1.300781 -3.828125 1.59375 -3.984375 C 1.894531 -4.148438 2.222656 -4.269531 2.578125 -4.34375 C 2.941406 -4.425781 3.304688 -4.492188 3.671875 -4.546875 C 4.148438 -4.609375 4.535156 -4.65625 4.828125 -4.6875 C 5.117188 -4.71875 5.332031 -4.769531 5.46875 -4.84375 C 5.613281 -4.925781 5.6875 -5.066406 5.6875 -5.265625 L 5.6875 -5.3125 C 5.6875 -5.625 5.625 -5.894531 5.5 -6.125 C 5.375 -6.351562 5.1875 -6.523438 4.9375 -6.640625 C 4.695312 -6.765625 4.394531 -6.828125 4.03125 -6.828125 C 3.65625 -6.828125 3.332031 -6.769531 3.0625 -6.65625 C 2.800781 -6.539062 2.582031 -6.390625 2.40625 -6.203125 C 2.238281 -6.023438 2.125 -5.832031 2.0625 -5.625 L 0.84375 -5.953125 C 1 -6.421875 1.238281 -6.800781 1.5625 -7.09375 C 1.894531 -7.382812 2.269531 -7.597656 2.6875 -7.734375 C 3.113281 -7.867188 3.550781 -7.9375 4 -7.9375 C 4.300781 -7.9375 4.617188 -7.894531 4.953125 -7.8125 C 5.296875 -7.738281 5.617188 -7.601562 5.921875 -7.40625 C 6.222656 -7.21875 6.46875 -6.941406 6.65625 -6.578125 C 6.84375 -6.222656 6.9375 -5.765625 6.9375 -5.203125 L 6.9375 0 L 5.703125 0 L 5.703125 -1.078125 L 5.625 -1.078125 C 5.539062 -0.890625 5.398438 -0.695312 5.203125 -0.5 C 5.003906 -0.3125 4.75 -0.148438 4.4375 -0.015625 C 4.125 0.109375 3.742188 0.171875 3.296875 0.171875 Z M 3.515625 -0.953125 C 3.984375 -0.953125 4.378906 -1.039062 4.703125 -1.21875 C 5.023438 -1.40625 5.269531 -1.644531 5.4375 -1.9375 C 5.601562 -2.226562 5.6875 -2.535156 5.6875 -2.859375 L 5.6875 -3.921875 C 5.632812 -3.859375 5.523438 -3.800781 5.359375 -3.75 C 5.203125 -3.707031 5.015625 -3.664062 4.796875 -3.625 C 4.578125 -3.59375 4.363281 -3.5625 4.15625 -3.53125 C 3.945312 -3.507812 3.769531 -3.488281 3.625 -3.46875 C 3.320312 -3.4375 3.035156 -3.375 2.765625 -3.28125 C 2.503906 -3.1875 2.289062 -3.050781 2.125 -2.875 C 1.96875 -2.695312 1.890625 -2.460938 1.890625 -2.171875 C 1.890625 -1.898438 1.957031 -1.671875 2.09375 -1.484375 C 2.238281 -1.304688 2.429688 -1.171875 2.671875 -1.078125 C 2.910156 -0.992188 3.191406 -0.953125 3.515625 -0.953125 Z M 3.515625 -0.953125 "/></g></g></g><g fill="#000000" fill-opacity="1"><g transform="translate(153.862283, 85.793951)"><g><path d="M 4.265625 3.125 C 3.679688 3.125 3.171875 3.046875 2.734375 2.890625 C 2.304688 2.734375 1.945312 2.519531 1.65625 2.25 C 1.375 1.988281 1.164062 1.691406 1.03125 1.359375 L 2.109375 0.84375 C 2.210938 1.019531 2.347656 1.195312 2.515625 1.375 C 2.679688 1.5625 2.90625 1.710938 3.1875 1.828125 C 3.46875 1.953125 3.828125 2.015625 4.265625 2.015625 C 4.898438 2.015625 5.414062 1.859375 5.8125 1.546875 C 6.21875 1.234375 6.421875 0.753906 6.421875 0.109375 L 6.421875 -1.375 L 6.328125 -1.375 C 6.210938 -1.195312 6.066406 -1.003906 5.890625 -0.796875 C 5.710938 -0.597656 5.472656 -0.425781 5.171875 -0.28125 C 4.867188 -0.144531 4.484375 -0.078125 4.015625 -0.078125 C 3.378906 -0.078125 2.804688 -0.226562 2.296875 -0.53125 C 1.796875 -0.832031 1.398438 -1.269531 1.109375 -1.84375 C 0.828125 -2.425781 0.6875 -3.125 0.6875 -3.9375 C 0.6875 -4.75 0.828125 -5.453125 1.109375 -6.046875 C 1.390625 -6.648438 1.78125 -7.113281 2.28125 -7.4375 C 2.789062 -7.769531 3.375 -7.9375 4.03125 -7.9375 C 4.5 -7.9375 4.882812 -7.859375 5.1875 -7.703125 C 5.488281 -7.554688 5.726562 -7.375 5.90625 -7.15625 C 6.09375 -6.945312 6.242188 -6.753906 6.359375 -6.578125 L 6.453125 -6.578125 L 6.453125 -7.828125 L 7.671875 -7.828125 L 7.671875 0.15625 C 7.671875 0.851562 7.519531 1.421875 7.21875 1.859375 C 6.914062 2.296875 6.503906 2.613281 5.984375 2.8125 C 5.460938 3.019531 4.890625 3.125 4.265625 3.125 Z M 4.21875 -1.1875 C 4.695312 -1.1875 5.101562 -1.296875 5.4375 -1.515625 C 5.769531 -1.742188 6.019531 -2.066406 6.1875 -2.484375 C 6.363281 -2.898438 6.453125 -3.394531 6.453125 -3.96875 C 6.453125 -4.53125 6.363281 -5.023438 6.1875 -5.453125 C 6.019531 -5.878906 5.769531 -6.210938 5.4375 -6.453125 C 5.101562 -6.691406 4.695312 -6.8125 4.21875 -6.8125 C 3.726562 -6.8125 3.316406 -6.6875 2.984375 -6.4375 C 2.648438 -6.1875 2.394531 -5.847656 2.21875 -5.421875 C 2.050781 -4.992188 1.96875 -4.507812 1.96875 -3.96875 C 1.96875 -3.40625 2.050781 -2.914062 2.21875 -2.5 C 2.394531 -2.082031 2.648438 -1.757812 2.984375 -1.53125 C 3.328125 -1.300781 3.738281 -1.1875 4.21875 -1.1875 Z M 4.21875 -1.1875 "/></g></g></g><g fill="#000000" fill-opacity="1"><g transform="translate(162.603807, 85.793951)"><g><path d="M 4.34375 0.171875 C 3.582031 0.171875 2.925781 0.00390625 2.375 -0.328125 C 1.832031 -0.671875 1.414062 -1.144531 1.125 -1.75 C 0.832031 -2.363281 0.6875 -3.066406 0.6875 -3.859375 C 0.6875 -4.660156 0.832031 -5.367188 1.125 -5.984375 C 1.414062 -6.597656 1.828125 -7.078125 2.359375 -7.421875 C 2.890625 -7.765625 3.503906 -7.9375 4.203125 -7.9375 C 4.648438 -7.9375 5.078125 -7.859375 5.484375 -7.703125 C 5.898438 -7.554688 6.269531 -7.320312 6.59375 -7 C 6.925781 -6.6875 7.1875 -6.28125 7.375 -5.78125 C 7.5625 -5.28125 7.65625 -4.679688 7.65625 -3.984375 L 7.65625 -3.5 L 1.5 -3.5 L 1.5 -4.5625 L 6.96875 -4.5625 L 6.390625 -4.1875 C 6.390625 -4.695312 6.304688 -5.148438 6.140625 -5.546875 C 5.972656 -5.941406 5.726562 -6.25 5.40625 -6.46875 C 5.082031 -6.695312 4.679688 -6.8125 4.203125 -6.8125 C 3.742188 -6.8125 3.34375 -6.695312 3 -6.46875 C 2.664062 -6.25 2.40625 -5.953125 2.21875 -5.578125 C 2.039062 -5.203125 1.953125 -4.789062 1.953125 -4.34375 L 1.953125 -3.671875 C 1.953125 -3.097656 2.050781 -2.609375 2.25 -2.203125 C 2.445312 -1.796875 2.722656 -1.484375 3.078125 -1.265625 C 3.441406 -1.054688 3.867188 -0.953125 4.359375 -0.953125 C 4.671875 -0.953125 4.957031 -1 5.21875 -1.09375 C 5.476562 -1.1875 5.695312 -1.328125 5.875 -1.515625 C 6.0625 -1.703125 6.203125 -1.929688 6.296875 -2.203125 L 7.53125 -1.921875 C 7.40625 -1.515625 7.195312 -1.148438 6.90625 -0.828125 C 6.613281 -0.515625 6.25 -0.269531 5.8125 -0.09375 C 5.375 0.0820312 4.882812 0.171875 4.34375 0.171875 Z M 4.34375 0.171875 "/></g></g></g><g fill="#000000" fill-opacity="1"><g transform="translate(170.913212, 85.793951)"><g/></g></g><g fill="#000000" fill-opacity="1"><g transform="translate(174.89436, 85.793951)"><g><path d="M 4.484375 0.15625 C 3.785156 0.15625 3.164062 0.03125 2.625 -0.21875 C 2.082031 -0.476562 1.648438 -0.828125 1.328125 -1.265625 C 1.015625 -1.703125 0.851562 -2.21875 0.84375 -2.8125 L 2.1875 -2.8125 C 2.207031 -2.4375 2.316406 -2.113281 2.515625 -1.84375 C 2.710938 -1.582031 2.976562 -1.378906 3.3125 -1.234375 C 3.644531 -1.085938 4.023438 -1.015625 4.453125 -1.015625 C 4.898438 -1.015625 5.296875 -1.09375 5.640625 -1.25 C 5.992188 -1.40625 6.269531 -1.625 6.46875 -1.90625 C 6.675781 -2.195312 6.78125 -2.53125 6.78125 -2.90625 C 6.78125 -3.289062 6.679688 -3.625 6.484375 -3.90625 C 6.285156 -4.195312 6 -4.421875 5.625 -4.578125 C 5.257812 -4.742188 4.8125 -4.828125 4.28125 -4.828125 L 3.4375 -4.828125 L 3.4375 -6 L 4.28125 -6 C 4.707031 -6 5.078125 -6.070312 5.390625 -6.21875 C 5.710938 -6.363281 5.960938 -6.566406 6.140625 -6.828125 C 6.328125 -7.097656 6.421875 -7.414062 6.421875 -7.78125 C 6.421875 -8.132812 6.335938 -8.441406 6.171875 -8.703125 C 6.015625 -8.972656 5.789062 -9.179688 5.5 -9.328125 C 5.207031 -9.472656 4.863281 -9.546875 4.46875 -9.546875 C 4.082031 -9.546875 3.734375 -9.476562 3.421875 -9.34375 C 3.109375 -9.207031 2.851562 -9.007812 2.65625 -8.75 C 2.46875 -8.488281 2.367188 -8.175781 2.359375 -7.8125 L 1.0625 -7.8125 C 1.082031 -8.382812 1.242188 -8.882812 1.546875 -9.3125 C 1.859375 -9.75 2.269531 -10.085938 2.78125 -10.328125 C 3.289062 -10.578125 3.863281 -10.703125 4.5 -10.703125 C 5.144531 -10.703125 5.707031 -10.570312 6.1875 -10.3125 C 6.675781 -10.050781 7.050781 -9.703125 7.3125 -9.265625 C 7.582031 -8.835938 7.71875 -8.363281 7.71875 -7.84375 C 7.71875 -7.257812 7.554688 -6.757812 7.234375 -6.34375 C 6.921875 -5.9375 6.488281 -5.648438 5.9375 -5.484375 L 5.9375 -5.40625 C 6.382812 -5.332031 6.769531 -5.179688 7.09375 -4.953125 C 7.414062 -4.722656 7.660156 -4.429688 7.828125 -4.078125 C 8.003906 -3.722656 8.09375 -3.328125 8.09375 -2.890625 C 8.09375 -2.304688 7.9375 -1.785156 7.625 -1.328125 C 7.3125 -0.867188 6.878906 -0.503906 6.328125 -0.234375 C 5.785156 0.0234375 5.171875 0.15625 4.484375 0.15625 Z M 4.484375 0.15625 "/></g></g></g><g fill="#000000" fill-opacity="1"><g transform="translate(183.791729, 85.793951)"><g/></g></g><g fill="#000000" fill-opacity="1"><g transform="translate(187.772876, 85.793951)"><g><path d="M 0.984375 2.890625 L 1.234375 1.796875 L 1.5 1.828125 C 1.738281 1.878906 1.953125 1.882812 2.140625 1.84375 C 2.335938 1.800781 2.515625 1.695312 2.671875 1.53125 C 2.828125 1.363281 2.960938 1.109375 3.078125 0.765625 L 3.34375 0.015625 L 0.34375 -7.828125 L 1.71875 -7.828125 L 3.390625 -3.203125 C 3.566406 -2.742188 3.710938 -2.285156 3.828125 -1.828125 C 3.953125 -1.378906 4.082031 -0.941406 4.21875 -0.515625 L 3.78125 -0.515625 C 3.914062 -0.941406 4.046875 -1.378906 4.171875 -1.828125 C 4.296875 -2.285156 4.441406 -2.742188 4.609375 -3.203125 L 6.28125 -7.828125 L 7.640625 -7.828125 L 4.171875 1.21875 C 4.023438 1.625 3.835938 1.957031 3.609375 2.21875 C 3.390625 2.488281 3.132812 2.6875 2.84375 2.8125 C 2.5625 2.9375 2.238281 3 1.875 3 C 1.664062 3 1.484375 2.984375 1.328125 2.953125 C 1.171875 2.929688 1.054688 2.910156 0.984375 2.890625 Z M 0.984375 2.890625 "/></g></g></g><g fill="#000000" fill-opacity="1"><g transform="translate(195.763507, 85.793951)"><g><path d="M 4.34375 0.171875 C 3.582031 0.171875 2.925781 0.00390625 2.375 -0.328125 C 1.832031 -0.671875 1.414062 -1.144531 1.125 -1.75 C 0.832031 -2.363281 0.6875 -3.066406 0.6875 -3.859375 C 0.6875 -4.660156 0.832031 -5.367188 1.125 -5.984375 C 1.414062 -6.597656 1.828125 -7.078125 2.359375 -7.421875 C 2.890625 -7.765625 3.503906 -7.9375 4.203125 -7.9375 C 4.648438 -7.9375 5.078125 -7.859375 5.484375 -7.703125 C 5.898438 -7.554688 6.269531 -7.320312 6.59375 -7 C 6.925781 -6.6875 7.1875 -6.28125 7.375 -5.78125 C 7.5625 -5.28125 7.65625 -4.679688 7.65625 -3.984375 L 7.65625 -3.5 L 1.5 -3.5 L 1.5 -4.5625 L 6.96875 -4.5625 L 6.390625 -4.1875 C 6.390625 -4.695312 6.304688 -5.148438 6.140625 -5.546875 C 5.972656 -5.941406 5.726562 -6.25 5.40625 -6.46875 C 5.082031 -6.695312 4.679688 -6.8125 4.203125 -6.8125 C 3.742188 -6.8125 3.34375 -6.695312 3 -6.46875 C 2.664062 -6.25 2.40625 -5.953125 2.21875 -5.578125 C 2.039062 -5.203125 1.953125 -4.789062 1.953125 -4.34375 L 1.953125 -3.671875 C 1.953125 -3.097656 2.050781 -2.609375 2.25 -2.203125 C 2.445312 -1.796875 2.722656 -1.484375 3.078125 -1.265625 C 3.441406 -1.054688 3.867188 -0.953125 4.359375 -0.953125 C 4.671875 -0.953125 4.957031 -1 5.21875 -1.09375 C 5.476562 -1.1875 5.695312 -1.328125 5.875 -1.515625 C 6.0625 -1.703125 6.203125 -1.929688 6.296875 -2.203125 L 7.53125 -1.921875 C 7.40625 -1.515625 7.195312 -1.148438 6.90625 -0.828125 C 6.613281 -0.515625 6.25 -0.269531 5.8125 -0.09375 C 5.375 0.0820312 4.882812 0.171875 4.34375 0.171875 Z M 4.34375 0.171875 "/></g></g></g><g fill="#000000" fill-opacity="1"><g transform="translate(204.072912, 85.793951)"><g><path d="M 3.296875 0.171875 C 2.796875 0.171875 2.34375 0.0820312 1.9375 -0.09375 C 1.539062 -0.28125 1.222656 -0.550781 0.984375 -0.90625 C 0.742188 -1.269531 0.625 -1.710938 0.625 -2.234375 C 0.625 -2.679688 0.710938 -3.046875 0.890625 -3.328125 C 1.066406 -3.609375 1.300781 -3.828125 1.59375 -3.984375 C 1.894531 -4.148438 2.222656 -4.269531 2.578125 -4.34375 C 2.941406 -4.425781 3.304688 -4.492188 3.671875 -4.546875 C 4.148438 -4.609375 4.535156 -4.65625 4.828125 -4.6875 C 5.117188 -4.71875 5.332031 -4.769531 5.46875 -4.84375 C 5.613281 -4.925781 5.6875 -5.066406 5.6875 -5.265625 L 5.6875 -5.3125 C 5.6875 -5.625 5.625 -5.894531 5.5 -6.125 C 5.375 -6.351562 5.1875 -6.523438 4.9375 -6.640625 C 4.695312 -6.765625 4.394531 -6.828125 4.03125 -6.828125 C 3.65625 -6.828125 3.332031 -6.769531 3.0625 -6.65625 C 2.800781 -6.539062 2.582031 -6.390625 2.40625 -6.203125 C 2.238281 -6.023438 2.125 -5.832031 2.0625 -5.625 L 0.84375 -5.953125 C 1 -6.421875 1.238281 -6.800781 1.5625 -7.09375 C 1.894531 -7.382812 2.269531 -7.597656 2.6875 -7.734375 C 3.113281 -7.867188 3.550781 -7.9375 4 -7.9375 C 4.300781 -7.9375 4.617188 -7.894531 4.953125 -7.8125 C 5.296875 -7.738281 5.617188 -7.601562 5.921875 -7.40625 C 6.222656 -7.21875 6.46875 -6.941406 6.65625 -6.578125 C 6.84375 -6.222656 6.9375 -5.765625 6.9375 -5.203125 L 6.9375 0 L 5.703125 0 L 5.703125 -1.078125 L 5.625 -1.078125 C 5.539062 -0.890625 5.398438 -0.695312 5.203125 -0.5 C 5.003906 -0.3125 4.75 -0.148438 4.4375 -0.015625 C 4.125 0.109375 3.742188 0.171875 3.296875 0.171875 Z M 3.515625 -0.953125 C 3.984375 -0.953125 4.378906 -1.039062 4.703125 -1.21875 C 5.023438 -1.40625 5.269531 -1.644531 5.4375 -1.9375 C 5.601562 -2.226562 5.6875 -2.535156 5.6875 -2.859375 L 5.6875 -3.921875 C 5.632812 -3.859375 5.523438 -3.800781 5.359375 -3.75 C 5.203125 -3.707031 5.015625 -3.664062 4.796875 -3.625 C 4.578125 -3.59375 4.363281 -3.5625 4.15625 -3.53125 C 3.945312 -3.507812 3.769531 -3.488281 3.625 -3.46875 C 3.320312 -3.4375 3.035156 -3.375 2.765625 -3.28125 C 2.503906 -3.1875 2.289062 -3.050781 2.125 -2.875 C 1.96875 -2.695312 1.890625 -2.460938 1.890625 -2.171875 C 1.890625 -1.898438 1.957031 -1.671875 2.09375 -1.484375 C 2.238281 -1.304688 2.429688 -1.171875 2.671875 -1.078125 C 2.910156 -0.992188 3.191406 -0.953125 3.515625 -0.953125 Z M 3.515625 -0.953125 "/></g></g></g><g fill="#000000" fill-opacity="1"><g transform="translate(212.077711, 85.793951)"><g><path d="M 1.0625 0 L 1.0625 -7.828125 L 2.28125 -7.828125 L 2.28125 -6.625 L 2.359375 -6.625 C 2.503906 -7.019531 2.753906 -7.335938 3.109375 -7.578125 C 3.472656 -7.816406 3.890625 -7.9375 4.359375 -7.9375 C 4.453125 -7.9375 4.5625 -7.929688 4.6875 -7.921875 C 4.8125 -7.921875 4.90625 -7.921875 4.96875 -7.921875 L 4.96875 -6.640625 C 4.925781 -6.648438 4.832031 -6.664062 4.6875 -6.6875 C 4.539062 -6.707031 4.378906 -6.71875 4.203125 -6.71875 C 3.847656 -6.71875 3.53125 -6.640625 3.25 -6.484375 C 2.96875 -6.335938 2.742188 -6.125 2.578125 -5.84375 C 2.410156 -5.570312 2.328125 -5.253906 2.328125 -4.890625 L 2.328125 0 Z M 1.0625 0 "/></g></g></g><g fill="#000000" fill-opacity="1"><g transform="translate(217.362295, 85.793951)"><g><path d="M 3.75 0.171875 C 3.207031 0.171875 2.722656 0.09375 2.296875 -0.0625 C 1.867188 -0.226562 1.519531 -0.472656 1.25 -0.796875 C 0.976562 -1.117188 0.800781 -1.515625 0.71875 -1.984375 L 1.921875 -2.21875 C 2.015625 -1.78125 2.21875 -1.453125 2.53125 -1.234375 C 2.84375 -1.023438 3.242188 -0.921875 3.734375 -0.921875 C 4.273438 -0.921875 4.707031 -1.035156 5.03125 -1.265625 C 5.351562 -1.503906 5.515625 -1.789062 5.515625 -2.125 C 5.515625 -2.394531 5.414062 -2.617188 5.21875 -2.796875 C 5.019531 -2.972656 4.734375 -3.109375 4.359375 -3.203125 L 3.0625 -3.515625 C 2.34375 -3.671875 1.804688 -3.925781 1.453125 -4.28125 C 1.109375 -4.644531 0.9375 -5.101562 0.9375 -5.65625 C 0.9375 -6.101562 1.0625 -6.5 1.3125 -6.84375 C 1.5625 -7.1875 1.898438 -7.453125 2.328125 -7.640625 C 2.765625 -7.835938 3.265625 -7.9375 3.828125 -7.9375 C 4.367188 -7.9375 4.832031 -7.847656 5.21875 -7.671875 C 5.601562 -7.503906 5.914062 -7.269531 6.15625 -6.96875 C 6.394531 -6.664062 6.5625 -6.316406 6.65625 -5.921875 L 5.5 -5.6875 C 5.414062 -6 5.238281 -6.273438 4.96875 -6.515625 C 4.707031 -6.753906 4.328125 -6.875 3.828125 -6.875 C 3.359375 -6.875 2.972656 -6.765625 2.671875 -6.546875 C 2.367188 -6.328125 2.21875 -6.050781 2.21875 -5.71875 C 2.21875 -5.425781 2.320312 -5.191406 2.53125 -5.015625 C 2.738281 -4.835938 3.066406 -4.695312 3.515625 -4.59375 L 4.703125 -4.3125 C 5.421875 -4.144531 5.953125 -3.882812 6.296875 -3.53125 C 6.640625 -3.175781 6.8125 -2.726562 6.8125 -2.1875 C 6.8125 -1.726562 6.679688 -1.320312 6.421875 -0.96875 C 6.160156 -0.613281 5.800781 -0.332031 5.34375 -0.125 C 4.882812 0.0703125 4.351562 0.171875 3.75 0.171875 Z M 3.75 0.171875 "/></g></g></g><g fill="#000000" fill-opacity="1"><g transform="translate(224.849969, 85.793951)"><g/></g></g><g fill="#000000" fill-opacity="1"><g transform="translate(228.831116, 85.793951)"><g><path d="M 3.296875 0.171875 C 2.796875 0.171875 2.34375 0.0820312 1.9375 -0.09375 C 1.539062 -0.28125 1.222656 -0.550781 0.984375 -0.90625 C 0.742188 -1.269531 0.625 -1.710938 0.625 -2.234375 C 0.625 -2.679688 0.710938 -3.046875 0.890625 -3.328125 C 1.066406 -3.609375 1.300781 -3.828125 1.59375 -3.984375 C 1.894531 -4.148438 2.222656 -4.269531 2.578125 -4.34375 C 2.941406 -4.425781 3.304688 -4.492188 3.671875 -4.546875 C 4.148438 -4.609375 4.535156 -4.65625 4.828125 -4.6875 C 5.117188 -4.71875 5.332031 -4.769531 5.46875 -4.84375 C 5.613281 -4.925781 5.6875 -5.066406 5.6875 -5.265625 L 5.6875 -5.3125 C 5.6875 -5.625 5.625 -5.894531 5.5 -6.125 C 5.375 -6.351562 5.1875 -6.523438 4.9375 -6.640625 C 4.695312 -6.765625 4.394531 -6.828125 4.03125 -6.828125 C 3.65625 -6.828125 3.332031 -6.769531 3.0625 -6.65625 C 2.800781 -6.539062 2.582031 -6.390625 2.40625 -6.203125 C 2.238281 -6.023438 2.125 -5.832031 2.0625 -5.625 L 0.84375 -5.953125 C 1 -6.421875 1.238281 -6.800781 1.5625 -7.09375 C 1.894531 -7.382812 2.269531 -7.597656 2.6875 -7.734375 C 3.113281 -7.867188 3.550781 -7.9375 4 -7.9375 C 4.300781 -7.9375 4.617188 -7.894531 4.953125 -7.8125 C 5.296875 -7.738281 5.617188 -7.601562 5.921875 -7.40625 C 6.222656 -7.21875 6.46875 -6.941406 6.65625 -6.578125 C 6.84375 -6.222656 6.9375 -5.765625 6.9375 -5.203125 L 6.9375 0 L 5.703125 0 L 5.703125 -1.078125 L 5.625 -1.078125 C 5.539062 -0.890625 5.398438 -0.695312 5.203125 -0.5 C 5.003906 -0.3125 4.75 -0.148438 4.4375 -0.015625 C 4.125 0.109375 3.742188 0.171875 3.296875 0.171875 Z M 3.515625 -0.953125 C 3.984375 -0.953125 4.378906 -1.039062 4.703125 -1.21875 C 5.023438 -1.40625 5.269531 -1.644531 5.4375 -1.9375 C 5.601562 -2.226562 5.6875 -2.535156 5.6875 -2.859375 L 5.6875 -3.921875 C 5.632812 -3.859375 5.523438 -3.800781 5.359375 -3.75 C 5.203125 -3.707031 5.015625 -3.664062 4.796875 -3.625 C 4.578125 -3.59375 4.363281 -3.5625 4.15625 -3.53125 C 3.945312 -3.507812 3.769531 -3.488281 3.625 -3.46875 C 3.320312 -3.4375 3.035156 -3.375 2.765625 -3.28125 C 2.503906 -3.1875 2.289062 -3.050781 2.125 -2.875 C 1.96875 -2.695312 1.890625 -2.460938 1.890625 -2.171875 C 1.890625 -1.898438 1.957031 -1.671875 2.09375 -1.484375 C 2.238281 -1.304688 2.429688 -1.171875 2.671875 -1.078125 C 2.910156 -0.992188 3.191406 -0.953125 3.515625 -0.953125 Z M 3.515625 -0.953125 "/></g></g></g><g fill="#000000" fill-opacity="1"><g transform="translate(236.835915, 85.793951)"><g><path d="M 4.265625 3.125 C 3.679688 3.125 3.171875 3.046875 2.734375 2.890625 C 2.304688 2.734375 1.945312 2.519531 1.65625 2.25 C 1.375 1.988281 1.164062 1.691406 1.03125 1.359375 L 2.109375 0.84375 C 2.210938 1.019531 2.347656 1.195312 2.515625 1.375 C 2.679688 1.5625 2.90625 1.710938 3.1875 1.828125 C 3.46875 1.953125 3.828125 2.015625 4.265625 2.015625 C 4.898438 2.015625 5.414062 1.859375 5.8125 1.546875 C 6.21875 1.234375 6.421875 0.753906 6.421875 0.109375 L 6.421875 -1.375 L 6.328125 -1.375 C 6.210938 -1.195312 6.066406 -1.003906 5.890625 -0.796875 C 5.710938 -0.597656 5.472656 -0.425781 5.171875 -0.28125 C 4.867188 -0.144531 4.484375 -0.078125 4.015625 -0.078125 C 3.378906 -0.078125 2.804688 -0.226562 2.296875 -0.53125 C 1.796875 -0.832031 1.398438 -1.269531 1.109375 -1.84375 C 0.828125 -2.425781 0.6875 -3.125 0.6875 -3.9375 C 0.6875 -4.75 0.828125 -5.453125 1.109375 -6.046875 C 1.390625 -6.648438 1.78125 -7.113281 2.28125 -7.4375 C 2.789062 -7.769531 3.375 -7.9375 4.03125 -7.9375 C 4.5 -7.9375 4.882812 -7.859375 5.1875 -7.703125 C 5.488281 -7.554688 5.726562 -7.375 5.90625 -7.15625 C 6.09375 -6.945312 6.242188 -6.753906 6.359375 -6.578125 L 6.453125 -6.578125 L 6.453125 -7.828125 L 7.671875 -7.828125 L 7.671875 0.15625 C 7.671875 0.851562 7.519531 1.421875 7.21875 1.859375 C 6.914062 2.296875 6.503906 2.613281 5.984375 2.8125 C 5.460938 3.019531 4.890625 3.125 4.265625 3.125 Z M 4.21875 -1.1875 C 4.695312 -1.1875 5.101562 -1.296875 5.4375 -1.515625 C 5.769531 -1.742188 6.019531 -2.066406 6.1875 -2.484375 C 6.363281 -2.898438 6.453125 -3.394531 6.453125 -3.96875 C 6.453125 -4.53125 6.363281 -5.023438 6.1875 -5.453125 C 6.019531 -5.878906 5.769531 -6.210938 5.4375 -6.453125 C 5.101562 -6.691406 4.695312 -6.8125 4.21875 -6.8125 C 3.726562 -6.8125 3.316406 -6.6875 2.984375 -6.4375 C 2.648438 -6.1875 2.394531 -5.847656 2.21875 -5.421875 C 2.050781 -4.992188 1.96875 -4.507812 1.96875 -3.96875 C 1.96875 -3.40625 2.050781 -2.914062 2.21875 -2.5 C 2.394531 -2.082031 2.648438 -1.757812 2.984375 -1.53125 C 3.328125 -1.300781 3.738281 -1.1875 4.21875 -1.1875 Z M 4.21875 -1.1875 "/></g></g></g><g fill="#000000" fill-opacity="1"><g transform="translate(245.577438, 85.793951)"><g><path d="M 4.265625 0.171875 C 3.554688 0.171875 2.929688 0.00390625 2.390625 -0.328125 C 1.859375 -0.671875 1.441406 -1.144531 1.140625 -1.75 C 0.835938 -2.363281 0.6875 -3.070312 0.6875 -3.875 C 0.6875 -4.6875 0.835938 -5.394531 1.140625 -6 C 1.441406 -6.613281 1.859375 -7.085938 2.390625 -7.421875 C 2.929688 -7.765625 3.554688 -7.9375 4.265625 -7.9375 C 4.984375 -7.9375 5.609375 -7.765625 6.140625 -7.421875 C 6.679688 -7.085938 7.101562 -6.613281 7.40625 -6 C 7.707031 -5.394531 7.859375 -4.6875 7.859375 -3.875 C 7.859375 -3.070312 7.707031 -2.363281 7.40625 -1.75 C 7.101562 -1.144531 6.679688 -0.671875 6.140625 -0.328125 C 5.609375 0.00390625 4.984375 0.171875 4.265625 0.171875 Z M 4.265625 -0.953125 C 4.785156 -0.953125 5.21875 -1.082031 5.5625 -1.34375 C 5.90625 -1.613281 6.160156 -1.96875 6.328125 -2.40625 C 6.492188 -2.851562 6.578125 -3.34375 6.578125 -3.875 C 6.578125 -4.40625 6.492188 -4.894531 6.328125 -5.34375 C 6.160156 -5.789062 5.90625 -6.144531 5.5625 -6.40625 C 5.21875 -6.675781 4.785156 -6.8125 4.265625 -6.8125 C 3.753906 -6.8125 3.328125 -6.675781 2.984375 -6.40625 C 2.640625 -6.144531 2.382812 -5.789062 2.21875 -5.34375 C 2.050781 -4.894531 1.96875 -4.40625 1.96875 -3.875 C 1.96875 -3.34375 2.050781 -2.851562 2.21875 -2.40625 C 2.382812 -1.96875 2.632812 -1.613281 2.96875 -1.34375 C 3.3125 -1.082031 3.742188 -0.953125 4.265625 -0.953125 Z M 4.265625 -0.953125 "/></g></g></g><g fill="#000000" fill-opacity="1"><g transform="translate(254.113528, 85.793951)"><g/></g></g><g fill="#000000" fill-opacity="1"><g transform="translate(258.094676, 85.793951)"><g><path d="M 4.65625 -7.828125 L 4.65625 -6.75 L 0.140625 -6.75 L 0.140625 -7.828125 Z M 1.640625 0 L 1.640625 -8.9375 C 1.640625 -9.375 1.738281 -9.738281 1.9375 -10.03125 C 2.144531 -10.332031 2.414062 -10.554688 2.75 -10.703125 C 3.082031 -10.859375 3.441406 -10.9375 3.828125 -10.9375 C 4.097656 -10.9375 4.328125 -10.914062 4.515625 -10.875 C 4.710938 -10.84375 4.847656 -10.8125 4.921875 -10.78125 L 4.65625 -9.703125 C 4.59375 -9.722656 4.5 -9.742188 4.375 -9.765625 C 4.257812 -9.785156 4.125 -9.796875 3.96875 -9.796875 C 3.59375 -9.796875 3.320312 -9.703125 3.15625 -9.515625 C 2.988281 -9.328125 2.90625 -9.050781 2.90625 -8.6875 L 2.90625 0 Z M 1.640625 0 "/></g></g></g><g fill="#000000" fill-opacity="1"><g transform="translate(263.258822, 85.793951)"><g><path d="M 4.265625 0.171875 C 3.554688 0.171875 2.929688 0.00390625 2.390625 -0.328125 C 1.859375 -0.671875 1.441406 -1.144531 1.140625 -1.75 C 0.835938 -2.363281 0.6875 -3.070312 0.6875 -3.875 C 0.6875 -4.6875 0.835938 -5.394531 1.140625 -6 C 1.441406 -6.613281 1.859375 -7.085938 2.390625 -7.421875 C 2.929688 -7.765625 3.554688 -7.9375 4.265625 -7.9375 C 4.984375 -7.9375 5.609375 -7.765625 6.140625 -7.421875 C 6.679688 -7.085938 7.101562 -6.613281 7.40625 -6 C 7.707031 -5.394531 7.859375 -4.6875 7.859375 -3.875 C 7.859375 -3.070312 7.707031 -2.363281 7.40625 -1.75 C 7.101562 -1.144531 6.679688 -0.671875 6.140625 -0.328125 C 5.609375 0.00390625 4.984375 0.171875 4.265625 0.171875 Z M 4.265625 -0.953125 C 4.785156 -0.953125 5.21875 -1.082031 5.5625 -1.34375 C 5.90625 -1.613281 6.160156 -1.96875 6.328125 -2.40625 C 6.492188 -2.851562 6.578125 -3.34375 6.578125 -3.875 C 6.578125 -4.40625 6.492188 -4.894531 6.328125 -5.34375 C 6.160156 -5.789062 5.90625 -6.144531 5.5625 -6.40625 C 5.21875 -6.675781 4.785156 -6.8125 4.265625 -6.8125 C 3.753906 -6.8125 3.328125 -6.675781 2.984375 -6.40625 C 2.640625 -6.144531 2.382812 -5.789062 2.21875 -5.34375 C 2.050781 -4.894531 1.96875 -4.40625 1.96875 -3.875 C 1.96875 -3.34375 2.050781 -2.851562 2.21875 -2.40625 C 2.382812 -1.96875 2.632812 -1.613281 2.96875 -1.34375 C 3.3125 -1.082031 3.742188 -0.953125 4.265625 -0.953125 Z M 4.265625 -0.953125 "/></g></g></g><g fill="#000000" fill-opacity="1"><g transform="translate(271.794923, 85.793951)"><g><path d="M 1.0625 0 L 1.0625 -7.828125 L 2.28125 -7.828125 L 2.28125 -6.625 L 2.359375 -6.625 C 2.503906 -7.019531 2.753906 -7.335938 3.109375 -7.578125 C 3.472656 -7.816406 3.890625 -7.9375 4.359375 -7.9375 C 4.453125 -7.9375 4.5625 -7.929688 4.6875 -7.921875 C 4.8125 -7.921875 4.90625 -7.921875 4.96875 -7.921875 L 4.96875 -6.640625 C 4.925781 -6.648438 4.832031 -6.664062 4.6875 -6.6875 C 4.539062 -6.707031 4.378906 -6.71875 4.203125 -6.71875 C 3.847656 -6.71875 3.53125 -6.640625 3.25 -6.484375 C 2.96875 -6.335938 2.742188 -6.125 2.578125 -5.84375 C 2.410156 -5.570312 2.328125 -5.253906 2.328125 -4.890625 L 2.328125 0 Z M 1.0625 0 "/></g></g></g><g fill="#000000" fill-opacity="1"><g transform="translate(277.079507, 85.793951)"><g/></g></g><g fill="#000000" fill-opacity="1"><g transform="translate(281.060655, 85.793951)"><g><path d="M 2.328125 -4.65625 L 2.328125 0 L 1.0625 0 L 1.0625 -10.5625 L 2.328125 -10.5625 L 2.328125 -5.9375 L 2.078125 -5.9375 C 2.316406 -6.65625 2.65625 -7.164062 3.09375 -7.46875 C 3.539062 -7.78125 4.066406 -7.9375 4.671875 -7.9375 C 5.203125 -7.9375 5.671875 -7.828125 6.078125 -7.609375 C 6.484375 -7.390625 6.800781 -7.054688 7.03125 -6.609375 C 7.257812 -6.171875 7.375 -5.617188 7.375 -4.953125 L 7.375 0 L 6.109375 0 L 6.109375 -4.84375 C 6.109375 -5.457031 5.945312 -5.9375 5.625 -6.28125 C 5.3125 -6.625 4.878906 -6.796875 4.328125 -6.796875 C 3.941406 -6.796875 3.597656 -6.710938 3.296875 -6.546875 C 3.003906 -6.390625 2.769531 -6.148438 2.59375 -5.828125 C 2.414062 -5.515625 2.328125 -5.125 2.328125 -4.65625 Z M 2.328125 -4.65625 "/></g></g></g><g fill="#000000" fill-opacity="1"><g transform="translate(289.497559, 85.793951)"><g><path d="M 4.34375 0.171875 C 3.582031 0.171875 2.925781 0.00390625 2.375 -0.328125 C 1.832031 -0.671875 1.414062 -1.144531 1.125 -1.75 C 0.832031 -2.363281 0.6875 -3.066406 0.6875 -3.859375 C 0.6875 -4.660156 0.832031 -5.367188 1.125 -5.984375 C 1.414062 -6.597656 1.828125 -7.078125 2.359375 -7.421875 C 2.890625 -7.765625 3.503906 -7.9375 4.203125 -7.9375 C 4.648438 -7.9375 5.078125 -7.859375 5.484375 -7.703125 C 5.898438 -7.554688 6.269531 -7.320312 6.59375 -7 C 6.925781 -6.6875 7.1875 -6.28125 7.375 -5.78125 C 7.5625 -5.28125 7.65625 -4.679688 7.65625 -3.984375 L 7.65625 -3.5 L 1.5 -3.5 L 1.5 -4.5625 L 6.96875 -4.5625 L 6.390625 -4.1875 C 6.390625 -4.695312 6.304688 -5.148438 6.140625 -5.546875 C 5.972656 -5.941406 5.726562 -6.25 5.40625 -6.46875 C 5.082031 -6.695312 4.679688 -6.8125 4.203125 -6.8125 C 3.742188 -6.8125 3.34375 -6.695312 3 -6.46875 C 2.664062 -6.25 2.40625 -5.953125 2.21875 -5.578125 C 2.039062 -5.203125 1.953125 -4.789062 1.953125 -4.34375 L 1.953125 -3.671875 C 1.953125 -3.097656 2.050781 -2.609375 2.25 -2.203125 C 2.445312 -1.796875 2.722656 -1.484375 3.078125 -1.265625 C 3.441406 -1.054688 3.867188 -0.953125 4.359375 -0.953125 C 4.671875 -0.953125 4.957031 -1 5.21875 -1.09375 C 5.476562 -1.1875 5.695312 -1.328125 5.875 -1.515625 C 6.0625 -1.703125 6.203125 -1.929688 6.296875 -2.203125 L 7.53125 -1.921875 C 7.40625 -1.515625 7.195312 -1.148438 6.90625 -0.828125 C 6.613281 -0.515625 6.25 -0.269531 5.8125 -0.09375 C 5.375 0.0820312 4.882812 0.171875 4.34375 0.171875 Z M 4.34375 0.171875 "/></g></g></g><g fill="#000000" fill-opacity="1"><g transform="translate(297.806976, 85.793951)"><g><path d="M 2.328125 -10.5625 L 2.328125 0 L 1.0625 0 L 1.0625 -10.5625 Z M 2.328125 -10.5625 "/></g></g></g><g fill="#000000" fill-opacity="1"><g transform="translate(301.207244, 85.793951)"><g><path d="M 1.0625 2.96875 L 1.0625 -7.828125 L 2.296875 -7.828125 L 2.296875 -6.59375 L 2.40625 -6.59375 C 2.507812 -6.769531 2.648438 -6.960938 2.828125 -7.171875 C 3.003906 -7.378906 3.242188 -7.554688 3.546875 -7.703125 C 3.847656 -7.859375 4.238281 -7.9375 4.71875 -7.9375 C 5.375 -7.9375 5.953125 -7.769531 6.453125 -7.4375 C 6.953125 -7.113281 7.34375 -6.644531 7.625 -6.03125 C 7.90625 -5.425781 8.046875 -4.710938 8.046875 -3.890625 C 8.046875 -3.066406 7.90625 -2.351562 7.625 -1.75 C 7.34375 -1.144531 6.953125 -0.675781 6.453125 -0.34375 C 5.960938 -0.0078125 5.382812 0.15625 4.71875 0.15625 C 4.257812 0.15625 3.878906 0.0820312 3.578125 -0.0625 C 3.273438 -0.21875 3.03125 -0.398438 2.84375 -0.609375 C 2.664062 -0.828125 2.519531 -1.023438 2.40625 -1.203125 L 2.328125 -1.203125 L 2.328125 2.96875 Z M 4.53125 -0.96875 C 5.007812 -0.96875 5.414062 -1.09375 5.75 -1.34375 C 6.082031 -1.601562 6.332031 -1.953125 6.5 -2.390625 C 6.675781 -2.835938 6.765625 -3.34375 6.765625 -3.90625 C 6.765625 -4.46875 6.679688 -4.96875 6.515625 -5.40625 C 6.347656 -5.84375 6.097656 -6.1875 5.765625 -6.4375 C 5.429688 -6.6875 5.019531 -6.8125 4.53125 -6.8125 C 4.050781 -6.8125 3.644531 -6.6875 3.3125 -6.4375 C 2.976562 -6.195312 2.722656 -5.859375 2.546875 -5.421875 C 2.378906 -4.992188 2.296875 -4.488281 2.296875 -3.90625 C 2.296875 -3.320312 2.378906 -2.804688 2.546875 -2.359375 C 2.722656 -1.921875 2.976562 -1.578125 3.3125 -1.328125 C 3.644531 -1.085938 4.050781 -0.96875 4.53125 -0.96875 Z M 4.53125 -0.96875 "/></g></g></g></svg>