<svg xmlns="http://www.w3.org/2000/svg" xmlns:xlink="http://www.w3.org/1999/xlink" width="500" zoomAndPan="magnify" viewBox="0 0 375 374.999991" height="500" preserveAspectRatio="xMidYMid meet" version="1.0"><defs><g/><clipPath id="0c6d3b93e1"><path d="M 102.464844 94.148438 L 272.714844 94.148438 L 272.714844 265 L 102.464844 265 Z M 102.464844 94.148438 " clip-rule="nonzero"/></clipPath><clipPath id="faa0b528e2"><path d="M 139 217 L 239 217 L 239 280.898438 L 139 280.898438 Z M 139 217 " clip-rule="nonzero"/></clipPath></defs><g clip-path="url(#0c6d3b93e1)"><path fill="#e87e8d" d="M 102.511719 179.1875 C 102.511719 226.136719 140.574219 264.195312 187.523438 264.195312 C 234.472656 264.195312 272.53125 226.136719 272.53125 179.1875 C 272.53125 132.234375 234.472656 94.175781 187.523438 94.175781 C 140.570312 94.175781 102.511719 132.234375 102.511719 179.1875 " fill-opacity="1" fill-rule="nonzero"/></g><path fill="#ffed71" d="M 220.917969 181.296875 C 220.917969 181.296875 219.78125 201.324219 223.253906 208.632812 C 223.253906 208.632812 217.484375 212.828125 214.285156 208.632812 L 214.285156 207.820312 C 214.285156 207.820312 208.910156 217.367188 199.6875 213 C 190.46875 208.632812 199.6875 183.457031 199.6875 183.457031 L 211.039062 162.621094 L 220.917969 181.296875 " fill-opacity="1" fill-rule="nonzero"/><g clip-path="url(#faa0b528e2)"><path fill="#ffffff" d="M 238.320312 264.429688 C 234.113281 267.566406 229.597656 270.316406 224.828125 272.617188 C 224.105469 272.96875 223.378906 273.304688 222.644531 273.636719 C 212.289062 278.28125 200.808594 280.863281 188.71875 280.863281 C 176.632812 280.863281 165.15625 278.28125 154.796875 273.636719 C 154.066406 273.304688 153.332031 272.96875 152.609375 272.617188 C 147.84375 270.3125 143.328125 267.566406 139.128906 264.429688 C 139.863281 247.996094 148.59375 233.640625 161.527344 225.164062 C 169.335938 220.039062 178.683594 217.058594 188.71875 217.058594 C 190.253906 217.058594 191.769531 217.128906 193.261719 217.265625 C 201.578125 218.019531 209.296875 220.816406 215.914062 225.164062 C 221.871094 229.066406 226.929688 234.214844 230.730469 240.234375 C 235.191406 247.296875 237.917969 255.5625 238.320312 264.429688 " fill-opacity="1" fill-rule="nonzero"/></g><path fill="#1495ff" d="M 215.914062 225.164062 C 215.15625 230.894531 212.628906 236.074219 208.890625 240.125 C 203.875 245.554688 196.699219 248.957031 188.71875 248.957031 C 175.941406 248.957031 165.203125 240.214844 162.152344 228.382812 C 161.882812 227.335938 161.671875 226.257812 161.527344 225.164062 C 169.335938 220.039062 178.679688 217.058594 188.71875 217.058594 C 190.253906 217.058594 191.769531 217.125 193.261719 217.265625 C 193.523438 217.289062 193.78125 217.316406 194.035156 217.339844 C 194.199219 217.359375 194.359375 217.375 194.519531 217.394531 C 194.695312 217.414062 194.875 217.4375 195.046875 217.460938 C 195.15625 217.472656 195.269531 217.488281 195.378906 217.503906 C 195.535156 217.519531 195.699219 217.546875 195.859375 217.570312 C 195.984375 217.585938 196.109375 217.605469 196.238281 217.625 C 196.347656 217.640625 196.457031 217.65625 196.5625 217.675781 C 196.746094 217.703125 196.925781 217.738281 197.109375 217.765625 C 197.902344 217.898438 198.6875 218.050781 199.460938 218.222656 L 199.980469 218.335938 C 200.078125 218.363281 200.179688 218.386719 200.277344 218.414062 C 200.460938 218.457031 200.652344 218.5 200.828125 218.550781 C 200.863281 218.554688 200.890625 218.558594 200.910156 218.566406 C 201.144531 218.625 201.375 218.683594 201.601562 218.75 C 201.851562 218.808594 202.097656 218.878906 202.335938 218.949219 C 202.609375 219.023438 202.878906 219.105469 203.15625 219.1875 C 203.367188 219.253906 203.578125 219.316406 203.789062 219.386719 C 203.925781 219.429688 204.066406 219.472656 204.195312 219.519531 C 204.417969 219.589844 204.640625 219.664062 204.855469 219.738281 C 205.128906 219.832031 205.390625 219.921875 205.65625 220.019531 C 205.679688 220.03125 205.695312 220.039062 205.710938 220.042969 C 205.988281 220.140625 206.257812 220.242188 206.527344 220.347656 C 206.730469 220.425781 206.933594 220.503906 207.140625 220.589844 C 207.675781 220.800781 208.203125 221.023438 208.722656 221.25 L 209.402344 221.558594 C 209.609375 221.652344 209.816406 221.746094 210.019531 221.84375 C 210.210938 221.9375 210.394531 222.023438 210.578125 222.117188 C 210.75 222.195312 210.917969 222.285156 211.085938 222.371094 C 211.195312 222.425781 211.308594 222.480469 211.417969 222.539062 C 211.867188 222.765625 212.304688 223.003906 212.738281 223.242188 C 212.894531 223.328125 213.058594 223.421875 213.207031 223.507812 C 213.3125 223.566406 213.410156 223.621094 213.507812 223.675781 L 213.875 223.890625 L 214.246094 224.117188 L 214.492188 224.265625 C 214.722656 224.398438 214.953125 224.539062 215.179688 224.6875 C 215.429688 224.84375 215.671875 225 215.914062 225.164062 " fill-opacity="1" fill-rule="nonzero"/><path fill="#1495ff" d="M 200.808594 203.445312 L 200.808594 227.226562 C 200.808594 233.238281 195.886719 238.164062 189.875 238.164062 L 187.566406 238.164062 C 181.554688 238.164062 176.640625 233.238281 176.640625 227.226562 L 176.640625 203.445312 C 176.640625 197.433594 181.554688 192.519531 187.566406 192.519531 L 189.875 192.519531 C 195.886719 192.519531 200.808594 197.433594 200.808594 203.445312 " fill-opacity="1" fill-rule="nonzero"/><path fill="#5e17eb" d="M 200.808594 203.445312 L 200.808594 216.03125 C 197.214844 218.027344 193.402344 219.1875 189.53125 219.1875 C 184.96875 219.1875 180.617188 217.921875 176.640625 215.707031 L 176.640625 203.445312 C 176.640625 197.433594 181.554688 192.519531 187.566406 192.519531 L 189.875 192.519531 C 195.886719 192.519531 200.808594 197.433594 200.808594 203.445312 " fill-opacity="1" fill-rule="nonzero"/><path fill="#1495ff" d="M 218.195312 194.277344 C 218.195312 194.277344 223.855469 192.351562 227.472656 186.039062 C 231.40625 179.1875 228.9375 174.914062 228.160156 173.988281 C 226.027344 171.460938 222.746094 173.085938 222.203125 173.988281 C 221.664062 174.894531 213.820312 189.128906 218.195312 194.277344 " fill-opacity="1" fill-rule="nonzero"/><path fill="#5e17eb" d="M 223.746094 176.234375 C 223.746094 176.234375 227.335938 176.695312 226.074219 181.746094 C 224.808594 186.800781 221.492188 188.800781 216.980469 191.382812 C 212.46875 193.964844 219.234375 177.265625 223.746094 176.234375 " fill-opacity="1" fill-rule="nonzero"/><path fill="#1495ff" d="M 160.71875 194.277344 C 160.71875 194.277344 155.058594 192.351562 151.441406 186.039062 C 147.511719 179.1875 149.976562 174.914062 150.757812 173.988281 C 152.886719 171.460938 156.171875 173.085938 156.714844 173.988281 C 157.253906 174.894531 165.09375 189.128906 160.71875 194.277344 " fill-opacity="1" fill-rule="nonzero"/><path fill="#5e17eb" d="M 155.164062 176.234375 C 155.164062 176.234375 151.578125 176.695312 152.839844 181.746094 C 154.105469 186.800781 157.421875 188.800781 161.933594 191.382812 C 166.445312 193.964844 159.679688 177.265625 155.164062 176.234375 " fill-opacity="1" fill-rule="nonzero"/><path fill="#1495ff" d="M 223.746094 172.902344 C 223.746094 152.152344 208.429688 135.332031 189.53125 135.332031 C 170.640625 135.332031 155.324219 152.152344 155.324219 172.902344 C 155.324219 193.648438 170.640625 215.339844 189.53125 215.339844 C 207.285156 215.339844 223.746094 193.476562 223.746094 172.902344 " fill-opacity="1" fill-rule="nonzero"/><path fill="#ffed71" d="M 192.613281 157.75 C 192.613281 157.75 199.046875 178.457031 223.253906 176.402344 C 223.253906 176.402344 227.480469 170.292969 226.054688 157.003906 C 224.441406 142.027344 211.171875 129.425781 189.53125 133.933594 C 189.53125 133.933594 187.558594 144.582031 192.613281 157.75 " fill-opacity="1" fill-rule="nonzero"/><path fill="#ffed71" d="M 193.695312 135.332031 C 193.695312 135.332031 194.59375 131.410156 191.347656 128.34375 C 188.097656 125.273438 145.097656 131.574219 155.324219 172.902344 C 155.324219 172.902344 165.34375 148.1875 191.886719 146.019531 L 193.695312 135.332031 " fill-opacity="1" fill-rule="nonzero"/><path fill="#ffed71" d="M 175.351562 143.941406 C 175.351562 143.941406 175.171875 144.117188 174.875 144.453125 C 172.632812 146.980469 163.59375 158.648438 172.585938 173.464844 C 172.585938 173.464844 181.46875 154.578125 191.925781 150.714844 C 202.382812 146.859375 187.140625 140.542969 187.140625 140.542969 " fill-opacity="1" fill-rule="nonzero"/><path fill="#e87e8d" d="M 136.546875 110.625 L 136.546875 106.828125 C 136.546875 104.847656 135.761719 102.945312 134.359375 101.542969 C 132.957031 100.140625 131.054688 99.351562 129.070312 99.351562 L 82.359375 99.351562 C 78.230469 99.351562 74.882812 96.003906 74.882812 91.875 L 74.882812 76.921875 C 74.882812 72.792969 78.230469 69.445312 82.359375 69.445312 L 292.621094 69.445312 C 296.75 69.445312 300.097656 72.792969 300.097656 76.921875 L 300.097656 91.875 C 300.097656 96.003906 296.75 99.351562 292.621094 99.351562 L 245.921875 99.351562 C 241.792969 99.351562 238.445312 102.699219 238.445312 106.828125 L 238.445312 110.625 C 238.445312 114.753906 235.097656 118.101562 230.96875 118.101562 L 144.023438 118.101562 C 139.894531 118.101562 136.546875 114.753906 136.546875 110.625 Z M 136.546875 110.625 " fill-opacity="0.61" fill-rule="nonzero"/><g fill="#000000" fill-opacity="1"><g transform="translate(82.291991, 91.149258)"><g><path d="M 1.5625 0 L 1.5625 -13.46875 L 3.265625 -13.46875 L 3.265625 -7.640625 L 10.359375 -7.640625 L 10.359375 -13.46875 L 12.046875 -13.46875 L 12.046875 0 L 10.359375 0 L 10.359375 -6.140625 L 3.265625 -6.140625 L 3.265625 0 Z M 1.5625 0 "/></g></g></g><g fill="#000000" fill-opacity="1"><g transform="translate(95.907484, 91.149258)"><g><path d="M 5.546875 0.21875 C 4.578125 0.21875 3.742188 0.00390625 3.046875 -0.421875 C 2.347656 -0.859375 1.8125 -1.460938 1.4375 -2.234375 C 1.0625 -3.015625 0.875 -3.910156 0.875 -4.921875 C 0.875 -5.941406 1.054688 -6.84375 1.421875 -7.625 C 1.796875 -8.414062 2.320312 -9.03125 3 -9.46875 C 3.675781 -9.90625 4.46875 -10.125 5.375 -10.125 C 5.9375 -10.125 6.476562 -10.03125 7 -9.84375 C 7.53125 -9.65625 8.003906 -9.351562 8.421875 -8.9375 C 8.835938 -8.53125 9.164062 -8.007812 9.40625 -7.375 C 9.644531 -6.738281 9.765625 -5.976562 9.765625 -5.09375 L 9.765625 -4.46875 L 1.921875 -4.46875 L 1.921875 -5.828125 L 8.890625 -5.828125 L 8.15625 -5.328125 C 8.15625 -5.984375 8.046875 -6.566406 7.828125 -7.078125 C 7.617188 -7.585938 7.304688 -7.984375 6.890625 -8.265625 C 6.484375 -8.554688 5.976562 -8.703125 5.375 -8.703125 C 4.769531 -8.703125 4.253906 -8.554688 3.828125 -8.265625 C 3.398438 -7.972656 3.070312 -7.585938 2.84375 -7.109375 C 2.613281 -6.628906 2.5 -6.101562 2.5 -5.53125 L 2.5 -4.6875 C 2.5 -3.957031 2.625 -3.332031 2.875 -2.8125 C 3.125 -2.289062 3.476562 -1.894531 3.9375 -1.625 C 4.394531 -1.351562 4.929688 -1.21875 5.546875 -1.21875 C 5.960938 -1.21875 6.332031 -1.273438 6.65625 -1.390625 C 6.988281 -1.515625 7.269531 -1.691406 7.5 -1.921875 C 7.738281 -2.160156 7.914062 -2.453125 8.03125 -2.796875 L 9.59375 -2.453125 C 9.445312 -1.929688 9.1875 -1.46875 8.8125 -1.0625 C 8.4375 -0.664062 7.96875 -0.351562 7.40625 -0.125 C 6.851562 0.101562 6.234375 0.21875 5.546875 0.21875 Z M 5.546875 0.21875 "/></g></g></g><g fill="#000000" fill-opacity="1"><g transform="translate(106.675126, 91.149258)"><g><path d="M 4.21875 0.21875 C 3.570312 0.21875 2.988281 0.101562 2.46875 -0.125 C 1.957031 -0.363281 1.550781 -0.710938 1.25 -1.171875 C 0.945312 -1.628906 0.796875 -2.1875 0.796875 -2.84375 C 0.796875 -3.414062 0.90625 -3.878906 1.125 -4.234375 C 1.351562 -4.597656 1.65625 -4.878906 2.03125 -5.078125 C 2.414062 -5.285156 2.835938 -5.441406 3.296875 -5.546875 C 3.753906 -5.648438 4.21875 -5.734375 4.6875 -5.796875 C 5.300781 -5.867188 5.789062 -5.925781 6.15625 -5.96875 C 6.53125 -6.019531 6.804688 -6.09375 6.984375 -6.1875 C 7.160156 -6.289062 7.25 -6.460938 7.25 -6.703125 L 7.25 -6.765625 C 7.25 -7.171875 7.164062 -7.519531 7 -7.8125 C 6.84375 -8.101562 6.609375 -8.320312 6.296875 -8.46875 C 5.984375 -8.625 5.597656 -8.703125 5.140625 -8.703125 C 4.660156 -8.703125 4.25 -8.628906 3.90625 -8.484375 C 3.570312 -8.335938 3.296875 -8.144531 3.078125 -7.90625 C 2.859375 -7.675781 2.707031 -7.429688 2.625 -7.171875 L 1.0625 -7.578125 C 1.269531 -8.191406 1.582031 -8.679688 2 -9.046875 C 2.414062 -9.421875 2.890625 -9.691406 3.421875 -9.859375 C 3.960938 -10.035156 4.519531 -10.125 5.09375 -10.125 C 5.476562 -10.125 5.890625 -10.070312 6.328125 -9.96875 C 6.765625 -9.875 7.171875 -9.703125 7.546875 -9.453125 C 7.929688 -9.210938 8.242188 -8.863281 8.484375 -8.40625 C 8.722656 -7.945312 8.84375 -7.359375 8.84375 -6.640625 L 8.84375 0 L 7.265625 0 L 7.265625 -1.375 L 7.171875 -1.375 C 7.054688 -1.132812 6.875 -0.890625 6.625 -0.640625 C 6.382812 -0.398438 6.066406 -0.195312 5.671875 -0.03125 C 5.273438 0.132812 4.789062 0.21875 4.21875 0.21875 Z M 4.46875 -1.21875 C 5.082031 -1.21875 5.59375 -1.332031 6 -1.5625 C 6.414062 -1.789062 6.726562 -2.09375 6.9375 -2.46875 C 7.144531 -2.84375 7.25 -3.234375 7.25 -3.640625 L 7.25 -5 C 7.1875 -4.925781 7.050781 -4.859375 6.84375 -4.796875 C 6.632812 -4.734375 6.390625 -4.675781 6.109375 -4.625 C 5.835938 -4.582031 5.566406 -4.546875 5.296875 -4.515625 C 5.035156 -4.484375 4.8125 -4.457031 4.625 -4.4375 C 4.238281 -4.382812 3.875 -4.296875 3.53125 -4.171875 C 3.195312 -4.054688 2.925781 -3.890625 2.71875 -3.671875 C 2.507812 -3.453125 2.40625 -3.148438 2.40625 -2.765625 C 2.40625 -2.429688 2.492188 -2.144531 2.671875 -1.90625 C 2.859375 -1.675781 3.101562 -1.503906 3.40625 -1.390625 C 3.71875 -1.273438 4.070312 -1.21875 4.46875 -1.21875 Z M 4.46875 -1.21875 "/></g></g></g><g fill="#000000" fill-opacity="1"><g transform="translate(116.891267, 91.149258)"><g><path d="M 1.359375 0 L 1.359375 -9.984375 L 2.90625 -9.984375 L 2.90625 -8.4375 L 3 -8.4375 C 3.1875 -8.945312 3.507812 -9.351562 3.96875 -9.65625 C 4.425781 -9.96875 4.953125 -10.125 5.546875 -10.125 C 5.671875 -10.125 5.8125 -10.117188 5.96875 -10.109375 C 6.132812 -10.109375 6.257812 -10.101562 6.34375 -10.09375 L 6.34375 -8.484375 C 6.289062 -8.492188 6.171875 -8.507812 5.984375 -8.53125 C 5.796875 -8.5625 5.59375 -8.578125 5.375 -8.578125 C 4.914062 -8.578125 4.503906 -8.476562 4.140625 -8.28125 C 3.773438 -8.082031 3.488281 -7.804688 3.28125 -7.453125 C 3.070312 -7.109375 2.96875 -6.703125 2.96875 -6.234375 L 2.96875 0 Z M 1.359375 0 "/></g></g></g><g fill="#000000" fill-opacity="1"><g transform="translate(123.635727, 91.149258)"><g/></g></g><g fill="#000000" fill-opacity="1"><g transform="translate(128.716675, 91.149258)"><g><path d="M 3.59375 0 L 0.546875 -9.984375 L 2.25 -9.984375 L 3.484375 -5.625 C 3.648438 -5.007812 3.828125 -4.328125 4.015625 -3.578125 C 4.203125 -2.835938 4.390625 -2.019531 4.578125 -1.125 L 4.3125 -1.125 C 4.488281 -1.988281 4.671875 -2.789062 4.859375 -3.53125 C 5.046875 -4.28125 5.222656 -4.976562 5.390625 -5.625 L 6.609375 -9.984375 L 8.296875 -9.984375 L 9.5 -5.625 C 9.664062 -5 9.835938 -4.3125 10.015625 -3.5625 C 10.203125 -2.820312 10.382812 -2.007812 10.5625 -1.125 L 10.28125 -1.125 C 10.46875 -2 10.65625 -2.804688 10.84375 -3.546875 C 11.03125 -4.296875 11.21875 -4.988281 11.40625 -5.625 L 12.625 -9.984375 L 14.328125 -9.984375 L 11.28125 0 L 9.671875 0 L 8.375 -4.515625 C 8.238281 -4.972656 8.109375 -5.4375 7.984375 -5.90625 C 7.859375 -6.382812 7.734375 -6.867188 7.609375 -7.359375 C 7.492188 -7.859375 7.375 -8.363281 7.25 -8.875 L 7.625 -8.875 C 7.507812 -8.375 7.390625 -7.875 7.265625 -7.375 C 7.140625 -6.875 7.015625 -6.382812 6.890625 -5.90625 C 6.765625 -5.4375 6.640625 -4.972656 6.515625 -4.515625 L 5.203125 0 Z M 3.59375 0 "/></g></g></g><g fill="#000000" fill-opacity="1"><g transform="translate(143.597884, 91.149258)"><g><path d="M 2.96875 -5.953125 L 2.96875 0 L 1.359375 0 L 1.359375 -13.46875 L 2.96875 -13.46875 L 2.96875 -7.5625 L 2.65625 -7.5625 C 2.957031 -8.476562 3.390625 -9.132812 3.953125 -9.53125 C 4.523438 -9.925781 5.191406 -10.125 5.953125 -10.125 C 6.628906 -10.125 7.226562 -9.984375 7.75 -9.703125 C 8.269531 -9.421875 8.675781 -9 8.96875 -8.4375 C 9.257812 -7.875 9.40625 -7.164062 9.40625 -6.3125 L 9.40625 0 L 7.78125 0 L 7.78125 -6.1875 C 7.78125 -6.96875 7.578125 -7.578125 7.171875 -8.015625 C 6.773438 -8.453125 6.222656 -8.671875 5.515625 -8.671875 C 5.035156 -8.671875 4.601562 -8.566406 4.21875 -8.359375 C 3.832031 -8.160156 3.523438 -7.859375 3.296875 -7.453125 C 3.078125 -7.046875 2.96875 -6.546875 2.96875 -5.953125 Z M 2.96875 -5.953125 "/></g></g></g><g fill="#000000" fill-opacity="1"><g transform="translate(154.365515, 91.149258)"><g><path d="M 4.21875 0.21875 C 3.570312 0.21875 2.988281 0.101562 2.46875 -0.125 C 1.957031 -0.363281 1.550781 -0.710938 1.25 -1.171875 C 0.945312 -1.628906 0.796875 -2.1875 0.796875 -2.84375 C 0.796875 -3.414062 0.90625 -3.878906 1.125 -4.234375 C 1.351562 -4.597656 1.65625 -4.878906 2.03125 -5.078125 C 2.414062 -5.285156 2.835938 -5.441406 3.296875 -5.546875 C 3.753906 -5.648438 4.21875 -5.734375 4.6875 -5.796875 C 5.300781 -5.867188 5.789062 -5.925781 6.15625 -5.96875 C 6.53125 -6.019531 6.804688 -6.09375 6.984375 -6.1875 C 7.160156 -6.289062 7.25 -6.460938 7.25 -6.703125 L 7.25 -6.765625 C 7.25 -7.171875 7.164062 -7.519531 7 -7.8125 C 6.84375 -8.101562 6.609375 -8.320312 6.296875 -8.46875 C 5.984375 -8.625 5.597656 -8.703125 5.140625 -8.703125 C 4.660156 -8.703125 4.25 -8.628906 3.90625 -8.484375 C 3.570312 -8.335938 3.296875 -8.144531 3.078125 -7.90625 C 2.859375 -7.675781 2.707031 -7.429688 2.625 -7.171875 L 1.0625 -7.578125 C 1.269531 -8.191406 1.582031 -8.679688 2 -9.046875 C 2.414062 -9.421875 2.890625 -9.691406 3.421875 -9.859375 C 3.960938 -10.035156 4.519531 -10.125 5.09375 -10.125 C 5.476562 -10.125 5.890625 -10.070312 6.328125 -9.96875 C 6.765625 -9.875 7.171875 -9.703125 7.546875 -9.453125 C 7.929688 -9.210938 8.242188 -8.863281 8.484375 -8.40625 C 8.722656 -7.945312 8.84375 -7.359375 8.84375 -6.640625 L 8.84375 0 L 7.265625 0 L 7.265625 -1.375 L 7.171875 -1.375 C 7.054688 -1.132812 6.875 -0.890625 6.625 -0.640625 C 6.382812 -0.398438 6.066406 -0.195312 5.671875 -0.03125 C 5.273438 0.132812 4.789062 0.21875 4.21875 0.21875 Z M 4.46875 -1.21875 C 5.082031 -1.21875 5.59375 -1.332031 6 -1.5625 C 6.414062 -1.789062 6.726562 -2.09375 6.9375 -2.46875 C 7.144531 -2.84375 7.25 -3.234375 7.25 -3.640625 L 7.25 -5 C 7.1875 -4.925781 7.050781 -4.859375 6.84375 -4.796875 C 6.632812 -4.734375 6.390625 -4.675781 6.109375 -4.625 C 5.835938 -4.582031 5.566406 -4.546875 5.296875 -4.515625 C 5.035156 -4.484375 4.8125 -4.457031 4.625 -4.4375 C 4.238281 -4.382812 3.875 -4.296875 3.53125 -4.171875 C 3.195312 -4.054688 2.925781 -3.890625 2.71875 -3.671875 C 2.507812 -3.453125 2.40625 -3.148438 2.40625 -2.765625 C 2.40625 -2.429688 2.492188 -2.144531 2.671875 -1.90625 C 2.859375 -1.675781 3.101562 -1.503906 3.40625 -1.390625 C 3.71875 -1.273438 4.070312 -1.21875 4.46875 -1.21875 Z M 4.46875 -1.21875 "/></g></g></g><g fill="#000000" fill-opacity="1"><g transform="translate(164.581655, 91.149258)"><g><path d="M 5.390625 -9.984375 L 5.390625 -8.609375 L 0.171875 -8.609375 L 0.171875 -9.984375 Z M 1.734375 -12.4375 L 3.34375 -12.4375 L 3.34375 -2.546875 C 3.34375 -2.117188 3.429688 -1.804688 3.609375 -1.609375 C 3.785156 -1.410156 4.082031 -1.3125 4.5 -1.3125 C 4.613281 -1.3125 4.75 -1.320312 4.90625 -1.34375 C 5.0625 -1.363281 5.207031 -1.382812 5.34375 -1.40625 L 5.609375 -0.046875 C 5.441406 0.00390625 5.253906 0.0390625 5.046875 0.0625 C 4.835938 0.0820312 4.632812 0.09375 4.4375 0.09375 C 3.570312 0.09375 2.90625 -0.125 2.4375 -0.5625 C 1.96875 -1 1.734375 -1.617188 1.734375 -2.421875 Z M 1.734375 -12.4375 "/></g></g></g><g fill="#000000" fill-opacity="1"><g transform="translate(170.575727, 91.149258)"><g/></g></g><g fill="#000000" fill-opacity="1"><g transform="translate(175.656674, 91.149258)"><g><path d="M 4.21875 0.21875 C 3.570312 0.21875 2.988281 0.101562 2.46875 -0.125 C 1.957031 -0.363281 1.550781 -0.710938 1.25 -1.171875 C 0.945312 -1.628906 0.796875 -2.1875 0.796875 -2.84375 C 0.796875 -3.414062 0.90625 -3.878906 1.125 -4.234375 C 1.351562 -4.597656 1.65625 -4.878906 2.03125 -5.078125 C 2.414062 -5.285156 2.835938 -5.441406 3.296875 -5.546875 C 3.753906 -5.648438 4.21875 -5.734375 4.6875 -5.796875 C 5.300781 -5.867188 5.789062 -5.925781 6.15625 -5.96875 C 6.53125 -6.019531 6.804688 -6.09375 6.984375 -6.1875 C 7.160156 -6.289062 7.25 -6.460938 7.25 -6.703125 L 7.25 -6.765625 C 7.25 -7.171875 7.164062 -7.519531 7 -7.8125 C 6.84375 -8.101562 6.609375 -8.320312 6.296875 -8.46875 C 5.984375 -8.625 5.597656 -8.703125 5.140625 -8.703125 C 4.660156 -8.703125 4.25 -8.628906 3.90625 -8.484375 C 3.570312 -8.335938 3.296875 -8.144531 3.078125 -7.90625 C 2.859375 -7.675781 2.707031 -7.429688 2.625 -7.171875 L 1.0625 -7.578125 C 1.269531 -8.191406 1.582031 -8.679688 2 -9.046875 C 2.414062 -9.421875 2.890625 -9.691406 3.421875 -9.859375 C 3.960938 -10.035156 4.519531 -10.125 5.09375 -10.125 C 5.476562 -10.125 5.890625 -10.070312 6.328125 -9.96875 C 6.765625 -9.875 7.171875 -9.703125 7.546875 -9.453125 C 7.929688 -9.210938 8.242188 -8.863281 8.484375 -8.40625 C 8.722656 -7.945312 8.84375 -7.359375 8.84375 -6.640625 L 8.84375 0 L 7.265625 0 L 7.265625 -1.375 L 7.171875 -1.375 C 7.054688 -1.132812 6.875 -0.890625 6.625 -0.640625 C 6.382812 -0.398438 6.066406 -0.195312 5.671875 -0.03125 C 5.273438 0.132812 4.789062 0.21875 4.21875 0.21875 Z M 4.46875 -1.21875 C 5.082031 -1.21875 5.59375 -1.332031 6 -1.5625 C 6.414062 -1.789062 6.726562 -2.09375 6.9375 -2.46875 C 7.144531 -2.84375 7.25 -3.234375 7.25 -3.640625 L 7.25 -5 C 7.1875 -4.925781 7.050781 -4.859375 6.84375 -4.796875 C 6.632812 -4.734375 6.390625 -4.675781 6.109375 -4.625 C 5.835938 -4.582031 5.566406 -4.546875 5.296875 -4.515625 C 5.035156 -4.484375 4.8125 -4.457031 4.625 -4.4375 C 4.238281 -4.382812 3.875 -4.296875 3.53125 -4.171875 C 3.195312 -4.054688 2.925781 -3.890625 2.71875 -3.671875 C 2.507812 -3.453125 2.40625 -3.148438 2.40625 -2.765625 C 2.40625 -2.429688 2.492188 -2.144531 2.671875 -1.90625 C 2.859375 -1.675781 3.101562 -1.503906 3.40625 -1.390625 C 3.71875 -1.273438 4.070312 -1.21875 4.46875 -1.21875 Z M 4.46875 -1.21875 "/></g></g></g><g fill="#000000" fill-opacity="1"><g transform="translate(185.872814, 91.149258)"><g><path d="M 2.96875 -5.953125 L 2.96875 0 L 1.359375 0 L 1.359375 -9.984375 L 2.90625 -9.984375 L 2.921875 -7.5625 L 2.65625 -7.5625 C 2.957031 -8.476562 3.390625 -9.132812 3.953125 -9.53125 C 4.523438 -9.925781 5.191406 -10.125 5.953125 -10.125 C 6.628906 -10.125 7.222656 -9.984375 7.734375 -9.703125 C 8.253906 -9.421875 8.660156 -9 8.953125 -8.4375 C 9.242188 -7.875 9.390625 -7.164062 9.390625 -6.3125 L 9.390625 0 L 7.78125 0 L 7.78125 -6.1875 C 7.78125 -6.96875 7.578125 -7.578125 7.171875 -8.015625 C 6.773438 -8.453125 6.222656 -8.671875 5.515625 -8.671875 C 5.035156 -8.671875 4.601562 -8.566406 4.21875 -8.359375 C 3.832031 -8.160156 3.523438 -7.859375 3.296875 -7.453125 C 3.078125 -7.046875 2.96875 -6.546875 2.96875 -5.953125 Z M 2.96875 -5.953125 "/></g></g></g><g fill="#000000" fill-opacity="1"><g transform="translate(196.631404, 91.149258)"><g/></g></g><g fill="#000000" fill-opacity="1"><g transform="translate(201.712352, 91.149258)"><g><path d="M 1.359375 0 L 1.359375 -9.984375 L 2.96875 -9.984375 L 2.96875 0 Z M 2.171875 -11.6875 C 1.867188 -11.6875 1.609375 -11.789062 1.390625 -12 C 1.171875 -12.207031 1.0625 -12.457031 1.0625 -12.75 C 1.0625 -13.050781 1.171875 -13.304688 1.390625 -13.515625 C 1.609375 -13.722656 1.867188 -13.828125 2.171875 -13.828125 C 2.484375 -13.828125 2.75 -13.722656 2.96875 -13.515625 C 3.1875 -13.304688 3.296875 -13.050781 3.296875 -12.75 C 3.296875 -12.457031 3.1875 -12.207031 2.96875 -12 C 2.75 -11.789062 2.484375 -11.6875 2.171875 -11.6875 Z M 2.171875 -11.6875 "/></g></g></g><g fill="#000000" fill-opacity="1"><g transform="translate(206.051951, 91.149258)"><g><path d="M 2.96875 -5.953125 L 2.96875 0 L 1.359375 0 L 1.359375 -9.984375 L 2.90625 -9.984375 L 2.921875 -7.5625 L 2.65625 -7.5625 C 2.957031 -8.476562 3.390625 -9.132812 3.953125 -9.53125 C 4.523438 -9.925781 5.191406 -10.125 5.953125 -10.125 C 6.628906 -10.125 7.222656 -9.984375 7.734375 -9.703125 C 8.253906 -9.421875 8.660156 -9 8.953125 -8.4375 C 9.242188 -7.875 9.390625 -7.164062 9.390625 -6.3125 L 9.390625 0 L 7.78125 0 L 7.78125 -6.1875 C 7.78125 -6.96875 7.578125 -7.578125 7.171875 -8.015625 C 6.773438 -8.453125 6.222656 -8.671875 5.515625 -8.671875 C 5.035156 -8.671875 4.601562 -8.566406 4.21875 -8.359375 C 3.832031 -8.160156 3.523438 -7.859375 3.296875 -7.453125 C 3.078125 -7.046875 2.96875 -6.546875 2.96875 -5.953125 Z M 2.96875 -5.953125 "/></g></g></g><g fill="#000000" fill-opacity="1"><g transform="translate(216.810541, 91.149258)"><g><path d="M 5.953125 -9.984375 L 5.953125 -8.609375 L 0.171875 -8.609375 L 0.171875 -9.984375 Z M 2.09375 0 L 2.09375 -11.40625 C 2.09375 -11.957031 2.222656 -12.421875 2.484375 -12.796875 C 2.742188 -13.179688 3.085938 -13.46875 3.515625 -13.65625 C 3.941406 -13.851562 4.398438 -13.953125 4.890625 -13.953125 C 5.234375 -13.953125 5.523438 -13.925781 5.765625 -13.875 C 6.003906 -13.832031 6.175781 -13.789062 6.28125 -13.75 L 5.9375 -12.375 C 5.851562 -12.394531 5.738281 -12.421875 5.59375 -12.453125 C 5.445312 -12.484375 5.273438 -12.5 5.078125 -12.5 C 4.585938 -12.5 4.234375 -12.378906 4.015625 -12.140625 C 3.804688 -11.898438 3.703125 -11.546875 3.703125 -11.078125 L 3.703125 0 Z M 2.09375 0 "/></g></g></g><g fill="#000000" fill-opacity="1"><g transform="translate(223.401308, 91.149258)"><g><path d="M 2.96875 -13.46875 L 2.96875 0 L 1.359375 0 L 1.359375 -13.46875 Z M 2.96875 -13.46875 "/></g></g></g><g fill="#000000" fill-opacity="1"><g transform="translate(227.740907, 91.149258)"><g><path d="M 4.8125 0.140625 C 4.132812 0.140625 3.535156 0 3.015625 -0.28125 C 2.492188 -0.5625 2.085938 -0.984375 1.796875 -1.546875 C 1.503906 -2.109375 1.359375 -2.816406 1.359375 -3.671875 L 1.359375 -9.984375 L 2.96875 -9.984375 L 2.96875 -3.8125 C 2.96875 -3.019531 3.171875 -2.40625 3.578125 -1.96875 C 3.984375 -1.53125 4.539062 -1.3125 5.25 -1.3125 C 5.726562 -1.3125 6.15625 -1.414062 6.53125 -1.625 C 6.914062 -1.832031 7.21875 -2.132812 7.4375 -2.53125 C 7.664062 -2.9375 7.78125 -3.4375 7.78125 -4.03125 L 7.78125 -9.984375 L 9.40625 -9.984375 L 9.40625 0 L 7.84375 0 L 7.84375 -2.421875 L 8.109375 -2.421875 C 7.796875 -1.492188 7.351562 -0.832031 6.78125 -0.4375 C 6.207031 -0.0507812 5.550781 0.140625 4.8125 0.140625 Z M 4.8125 0.140625 "/></g></g></g><g fill="#000000" fill-opacity="1"><g transform="translate(238.508538, 91.149258)"><g><path d="M 5.546875 0.21875 C 4.578125 0.21875 3.742188 0.00390625 3.046875 -0.421875 C 2.347656 -0.859375 1.8125 -1.460938 1.4375 -2.234375 C 1.0625 -3.015625 0.875 -3.910156 0.875 -4.921875 C 0.875 -5.941406 1.054688 -6.84375 1.421875 -7.625 C 1.796875 -8.414062 2.320312 -9.03125 3 -9.46875 C 3.675781 -9.90625 4.46875 -10.125 5.375 -10.125 C 5.9375 -10.125 6.476562 -10.03125 7 -9.84375 C 7.53125 -9.65625 8.003906 -9.351562 8.421875 -8.9375 C 8.835938 -8.53125 9.164062 -8.007812 9.40625 -7.375 C 9.644531 -6.738281 9.765625 -5.976562 9.765625 -5.09375 L 9.765625 -4.46875 L 1.921875 -4.46875 L 1.921875 -5.828125 L 8.890625 -5.828125 L 8.15625 -5.328125 C 8.15625 -5.984375 8.046875 -6.566406 7.828125 -7.078125 C 7.617188 -7.585938 7.304688 -7.984375 6.890625 -8.265625 C 6.484375 -8.554688 5.976562 -8.703125 5.375 -8.703125 C 4.769531 -8.703125 4.253906 -8.554688 3.828125 -8.265625 C 3.398438 -7.972656 3.070312 -7.585938 2.84375 -7.109375 C 2.613281 -6.628906 2.5 -6.101562 2.5 -5.53125 L 2.5 -4.6875 C 2.5 -3.957031 2.625 -3.332031 2.875 -2.8125 C 3.125 -2.289062 3.476562 -1.894531 3.9375 -1.625 C 4.394531 -1.351562 4.929688 -1.21875 5.546875 -1.21875 C 5.960938 -1.21875 6.332031 -1.273438 6.65625 -1.390625 C 6.988281 -1.515625 7.269531 -1.691406 7.5 -1.921875 C 7.738281 -2.160156 7.914062 -2.453125 8.03125 -2.796875 L 9.59375 -2.453125 C 9.445312 -1.929688 9.1875 -1.46875 8.8125 -1.0625 C 8.4375 -0.664062 7.96875 -0.351562 7.40625 -0.125 C 6.851562 0.101562 6.234375 0.21875 5.546875 0.21875 Z M 5.546875 0.21875 "/></g></g></g><g fill="#000000" fill-opacity="1"><g transform="translate(249.113434, 91.149258)"><g><path d="M 2.96875 -5.953125 L 2.96875 0 L 1.359375 0 L 1.359375 -9.984375 L 2.90625 -9.984375 L 2.921875 -7.5625 L 2.65625 -7.5625 C 2.957031 -8.476562 3.390625 -9.132812 3.953125 -9.53125 C 4.523438 -9.925781 5.191406 -10.125 5.953125 -10.125 C 6.628906 -10.125 7.222656 -9.984375 7.734375 -9.703125 C 8.253906 -9.421875 8.660156 -9 8.953125 -8.4375 C 9.242188 -7.875 9.390625 -7.164062 9.390625 -6.3125 L 9.390625 0 L 7.78125 0 L 7.78125 -6.1875 C 7.78125 -6.96875 7.578125 -7.578125 7.171875 -8.015625 C 6.773438 -8.453125 6.222656 -8.671875 5.515625 -8.671875 C 5.035156 -8.671875 4.601562 -8.566406 4.21875 -8.359375 C 3.832031 -8.160156 3.523438 -7.859375 3.296875 -7.453125 C 3.078125 -7.046875 2.96875 -6.546875 2.96875 -5.953125 Z M 2.96875 -5.953125 "/></g></g></g><g fill="#000000" fill-opacity="1"><g transform="translate(259.872024, 91.149258)"><g><path d="M 5.4375 0.21875 C 4.53125 0.21875 3.734375 0.00390625 3.046875 -0.421875 C 2.367188 -0.859375 1.835938 -1.460938 1.453125 -2.234375 C 1.066406 -3.015625 0.875 -3.914062 0.875 -4.9375 C 0.875 -5.96875 1.066406 -6.875 1.453125 -7.65625 C 1.835938 -8.4375 2.367188 -9.039062 3.046875 -9.46875 C 3.734375 -9.90625 4.53125 -10.125 5.4375 -10.125 C 5.9375 -10.125 6.40625 -10.054688 6.84375 -9.921875 C 7.289062 -9.796875 7.691406 -9.601562 8.046875 -9.34375 C 8.398438 -9.09375 8.703125 -8.785156 8.953125 -8.421875 C 9.210938 -8.066406 9.398438 -7.664062 9.515625 -7.21875 L 7.953125 -6.875 C 7.890625 -7.132812 7.78125 -7.375 7.625 -7.59375 C 7.476562 -7.8125 7.300781 -8.003906 7.09375 -8.171875 C 6.882812 -8.335938 6.640625 -8.460938 6.359375 -8.546875 C 6.085938 -8.640625 5.78125 -8.6875 5.4375 -8.6875 C 4.78125 -8.6875 4.234375 -8.515625 3.796875 -8.171875 C 3.367188 -7.835938 3.046875 -7.382812 2.828125 -6.8125 C 2.609375 -6.25 2.5 -5.625 2.5 -4.9375 C 2.5 -4.257812 2.609375 -3.640625 2.828125 -3.078125 C 3.046875 -2.515625 3.367188 -2.0625 3.796875 -1.71875 C 4.234375 -1.382812 4.78125 -1.21875 5.4375 -1.21875 C 5.78125 -1.21875 6.09375 -1.257812 6.375 -1.34375 C 6.65625 -1.4375 6.898438 -1.566406 7.109375 -1.734375 C 7.328125 -1.910156 7.507812 -2.113281 7.65625 -2.34375 C 7.800781 -2.570312 7.910156 -2.820312 7.984375 -3.09375 L 9.546875 -2.75 C 9.421875 -2.300781 9.234375 -1.894531 8.984375 -1.53125 C 8.734375 -1.164062 8.425781 -0.851562 8.0625 -0.59375 C 7.707031 -0.332031 7.304688 -0.132812 6.859375 0 C 6.410156 0.144531 5.9375 0.21875 5.4375 0.21875 Z M 5.4375 0.21875 "/></g></g></g><g fill="#000000" fill-opacity="1"><g transform="translate(270.250899, 91.149258)"><g><path d="M 5.546875 0.21875 C 4.578125 0.21875 3.742188 0.00390625 3.046875 -0.421875 C 2.347656 -0.859375 1.8125 -1.460938 1.4375 -2.234375 C 1.0625 -3.015625 0.875 -3.910156 0.875 -4.921875 C 0.875 -5.941406 1.054688 -6.84375 1.421875 -7.625 C 1.796875 -8.414062 2.320312 -9.03125 3 -9.46875 C 3.675781 -9.90625 4.46875 -10.125 5.375 -10.125 C 5.9375 -10.125 6.476562 -10.03125 7 -9.84375 C 7.53125 -9.65625 8.003906 -9.351562 8.421875 -8.9375 C 8.835938 -8.53125 9.164062 -8.007812 9.40625 -7.375 C 9.644531 -6.738281 9.765625 -5.976562 9.765625 -5.09375 L 9.765625 -4.46875 L 1.921875 -4.46875 L 1.921875 -5.828125 L 8.890625 -5.828125 L 8.15625 -5.328125 C 8.15625 -5.984375 8.046875 -6.566406 7.828125 -7.078125 C 7.617188 -7.585938 7.304688 -7.984375 6.890625 -8.265625 C 6.484375 -8.554688 5.976562 -8.703125 5.375 -8.703125 C 4.769531 -8.703125 4.253906 -8.554688 3.828125 -8.265625 C 3.398438 -7.972656 3.070312 -7.585938 2.84375 -7.109375 C 2.613281 -6.628906 2.5 -6.101562 2.5 -5.53125 L 2.5 -4.6875 C 2.5 -3.957031 2.625 -3.332031 2.875 -2.8125 C 3.125 -2.289062 3.476562 -1.894531 3.9375 -1.625 C 4.394531 -1.351562 4.929688 -1.21875 5.546875 -1.21875 C 5.960938 -1.21875 6.332031 -1.273438 6.65625 -1.390625 C 6.988281 -1.515625 7.269531 -1.691406 7.5 -1.921875 C 7.738281 -2.160156 7.914062 -2.453125 8.03125 -2.796875 L 9.59375 -2.453125 C 9.445312 -1.929688 9.1875 -1.46875 8.8125 -1.0625 C 8.4375 -0.664062 7.96875 -0.351562 7.40625 -0.125 C 6.851562 0.101562 6.234375 0.21875 5.546875 0.21875 Z M 5.546875 0.21875 "/></g></g></g><g fill="#000000" fill-opacity="1"><g transform="translate(280.855806, 91.149258)"><g><path d="M 1.359375 0 L 1.359375 -9.984375 L 2.90625 -9.984375 L 2.90625 -8.4375 L 3 -8.4375 C 3.1875 -8.945312 3.507812 -9.351562 3.96875 -9.65625 C 4.425781 -9.96875 4.953125 -10.125 5.546875 -10.125 C 5.671875 -10.125 5.8125 -10.117188 5.96875 -10.109375 C 6.132812 -10.109375 6.257812 -10.101562 6.34375 -10.09375 L 6.34375 -8.484375 C 6.289062 -8.492188 6.171875 -8.507812 5.984375 -8.53125 C 5.796875 -8.5625 5.59375 -8.578125 5.375 -8.578125 C 4.914062 -8.578125 4.503906 -8.476562 4.140625 -8.28125 C 3.773438 -8.082031 3.488281 -7.804688 3.28125 -7.453125 C 3.070312 -7.109375 2.96875 -6.703125 2.96875 -6.234375 L 2.96875 0 Z M 1.359375 0 "/></g></g></g><g fill="#000000" fill-opacity="1"><g transform="translate(287.604478, 91.149258)"><g/></g></g><g fill="#000000" fill-opacity="1"><g transform="translate(143.95605, 109.899257)"><g><path d="M 2.96875 -5.953125 L 2.96875 0 L 1.359375 0 L 1.359375 -13.46875 L 2.96875 -13.46875 L 2.96875 -7.5625 L 2.65625 -7.5625 C 2.957031 -8.476562 3.390625 -9.132812 3.953125 -9.53125 C 4.523438 -9.925781 5.191406 -10.125 5.953125 -10.125 C 6.628906 -10.125 7.226562 -9.984375 7.75 -9.703125 C 8.269531 -9.421875 8.675781 -9 8.96875 -8.4375 C 9.257812 -7.875 9.40625 -7.164062 9.40625 -6.3125 L 9.40625 0 L 7.78125 0 L 7.78125 -6.1875 C 7.78125 -6.96875 7.578125 -7.578125 7.171875 -8.015625 C 6.773438 -8.453125 6.222656 -8.671875 5.515625 -8.671875 C 5.035156 -8.671875 4.601562 -8.566406 4.21875 -8.359375 C 3.832031 -8.160156 3.523438 -7.859375 3.296875 -7.453125 C 3.078125 -7.046875 2.96875 -6.546875 2.96875 -5.953125 Z M 2.96875 -5.953125 "/></g></g></g><g fill="#000000" fill-opacity="1"><g transform="translate(154.72368, 109.899257)"><g><path d="M 4.21875 0.21875 C 3.570312 0.21875 2.988281 0.101562 2.46875 -0.125 C 1.957031 -0.363281 1.550781 -0.710938 1.25 -1.171875 C 0.945312 -1.628906 0.796875 -2.1875 0.796875 -2.84375 C 0.796875 -3.414062 0.90625 -3.878906 1.125 -4.234375 C 1.351562 -4.597656 1.65625 -4.878906 2.03125 -5.078125 C 2.414062 -5.285156 2.835938 -5.441406 3.296875 -5.546875 C 3.753906 -5.648438 4.21875 -5.734375 4.6875 -5.796875 C 5.300781 -5.867188 5.789062 -5.925781 6.15625 -5.96875 C 6.53125 -6.019531 6.804688 -6.09375 6.984375 -6.1875 C 7.160156 -6.289062 7.25 -6.460938 7.25 -6.703125 L 7.25 -6.765625 C 7.25 -7.171875 7.164062 -7.519531 7 -7.8125 C 6.84375 -8.101562 6.609375 -8.320312 6.296875 -8.46875 C 5.984375 -8.625 5.597656 -8.703125 5.140625 -8.703125 C 4.660156 -8.703125 4.25 -8.628906 3.90625 -8.484375 C 3.570312 -8.335938 3.296875 -8.144531 3.078125 -7.90625 C 2.859375 -7.675781 2.707031 -7.429688 2.625 -7.171875 L 1.0625 -7.578125 C 1.269531 -8.191406 1.582031 -8.679688 2 -9.046875 C 2.414062 -9.421875 2.890625 -9.691406 3.421875 -9.859375 C 3.960938 -10.035156 4.519531 -10.125 5.09375 -10.125 C 5.476562 -10.125 5.890625 -10.070312 6.328125 -9.96875 C 6.765625 -9.875 7.171875 -9.703125 7.546875 -9.453125 C 7.929688 -9.210938 8.242188 -8.863281 8.484375 -8.40625 C 8.722656 -7.945312 8.84375 -7.359375 8.84375 -6.640625 L 8.84375 0 L 7.265625 0 L 7.265625 -1.375 L 7.171875 -1.375 C 7.054688 -1.132812 6.875 -0.890625 6.625 -0.640625 C 6.382812 -0.398438 6.066406 -0.195312 5.671875 -0.03125 C 5.273438 0.132812 4.789062 0.21875 4.21875 0.21875 Z M 4.46875 -1.21875 C 5.082031 -1.21875 5.59375 -1.332031 6 -1.5625 C 6.414062 -1.789062 6.726562 -2.09375 6.9375 -2.46875 C 7.144531 -2.84375 7.25 -3.234375 7.25 -3.640625 L 7.25 -5 C 7.1875 -4.925781 7.050781 -4.859375 6.84375 -4.796875 C 6.632812 -4.734375 6.390625 -4.675781 6.109375 -4.625 C 5.835938 -4.582031 5.566406 -4.546875 5.296875 -4.515625 C 5.035156 -4.484375 4.8125 -4.457031 4.625 -4.4375 C 4.238281 -4.382812 3.875 -4.296875 3.53125 -4.171875 C 3.195312 -4.054688 2.925781 -3.890625 2.71875 -3.671875 C 2.507812 -3.453125 2.40625 -3.148438 2.40625 -2.765625 C 2.40625 -2.429688 2.492188 -2.144531 2.671875 -1.90625 C 2.859375 -1.675781 3.101562 -1.503906 3.40625 -1.390625 C 3.71875 -1.273438 4.070312 -1.21875 4.46875 -1.21875 Z M 4.46875 -1.21875 "/></g></g></g><g fill="#000000" fill-opacity="1"><g transform="translate(164.93982, 109.899257)"><g><path d="M 4.78125 0.21875 C 4.09375 0.21875 3.472656 0.113281 2.921875 -0.09375 C 2.378906 -0.300781 1.929688 -0.609375 1.578125 -1.015625 C 1.234375 -1.429688 1.007812 -1.941406 0.90625 -2.546875 L 2.453125 -2.828125 C 2.578125 -2.265625 2.835938 -1.847656 3.234375 -1.578125 C 3.628906 -1.316406 4.132812 -1.1875 4.75 -1.1875 C 5.445312 -1.1875 6 -1.332031 6.40625 -1.625 C 6.820312 -1.925781 7.03125 -2.285156 7.03125 -2.703125 C 7.03125 -3.054688 6.90625 -3.347656 6.65625 -3.578125 C 6.40625 -3.804688 6.039062 -3.972656 5.5625 -4.078125 L 3.90625 -4.46875 C 3 -4.6875 2.320312 -5.019531 1.875 -5.46875 C 1.425781 -5.925781 1.203125 -6.507812 1.203125 -7.21875 C 1.203125 -7.789062 1.359375 -8.296875 1.671875 -8.734375 C 1.992188 -9.171875 2.429688 -9.507812 2.984375 -9.75 C 3.535156 -10 4.164062 -10.125 4.875 -10.125 C 5.5625 -10.125 6.148438 -10.015625 6.640625 -9.796875 C 7.140625 -9.578125 7.539062 -9.273438 7.84375 -8.890625 C 8.15625 -8.503906 8.367188 -8.0625 8.484375 -7.5625 L 7.015625 -7.265625 C 6.910156 -7.648438 6.6875 -7.992188 6.34375 -8.296875 C 6.007812 -8.609375 5.523438 -8.765625 4.890625 -8.765625 C 4.285156 -8.765625 3.789062 -8.625 3.40625 -8.34375 C 3.019531 -8.0625 2.828125 -7.710938 2.828125 -7.296875 C 2.828125 -6.921875 2.960938 -6.617188 3.234375 -6.390625 C 3.503906 -6.171875 3.914062 -6 4.46875 -5.875 L 6 -5.5 C 6.914062 -5.289062 7.59375 -4.957031 8.03125 -4.5 C 8.46875 -4.050781 8.6875 -3.484375 8.6875 -2.796875 C 8.6875 -2.203125 8.519531 -1.675781 8.1875 -1.21875 C 7.851562 -0.769531 7.394531 -0.414062 6.8125 -0.15625 C 6.226562 0.09375 5.550781 0.21875 4.78125 0.21875 Z M 4.78125 0.21875 "/></g></g></g><g fill="#000000" fill-opacity="1"><g transform="translate(174.49598, 109.899257)"><g/></g></g><g fill="#000000" fill-opacity="1"><g transform="translate(179.576927, 109.899257)"><g><path d="M 5.390625 -9.984375 L 5.390625 -8.609375 L 0.171875 -8.609375 L 0.171875 -9.984375 Z M 1.734375 -12.4375 L 3.34375 -12.4375 L 3.34375 -2.546875 C 3.34375 -2.117188 3.429688 -1.804688 3.609375 -1.609375 C 3.785156 -1.410156 4.082031 -1.3125 4.5 -1.3125 C 4.613281 -1.3125 4.75 -1.320312 4.90625 -1.34375 C 5.0625 -1.363281 5.207031 -1.382812 5.34375 -1.40625 L 5.609375 -0.046875 C 5.441406 0.00390625 5.253906 0.0390625 5.046875 0.0625 C 4.835938 0.0820312 4.632812 0.09375 4.4375 0.09375 C 3.570312 0.09375 2.90625 -0.125 2.4375 -0.5625 C 1.96875 -1 1.734375 -1.617188 1.734375 -2.421875 Z M 1.734375 -12.4375 "/></g></g></g><g fill="#000000" fill-opacity="1"><g transform="translate(185.390159, 109.899257)"><g><path d="M 5.4375 0.21875 C 4.53125 0.21875 3.734375 0.00390625 3.046875 -0.421875 C 2.367188 -0.859375 1.835938 -1.460938 1.453125 -2.234375 C 1.066406 -3.015625 0.875 -3.914062 0.875 -4.9375 C 0.875 -5.96875 1.066406 -6.875 1.453125 -7.65625 C 1.835938 -8.4375 2.367188 -9.039062 3.046875 -9.46875 C 3.734375 -9.90625 4.53125 -10.125 5.4375 -10.125 C 6.351562 -10.125 7.15625 -9.90625 7.84375 -9.46875 C 8.53125 -9.039062 9.0625 -8.4375 9.4375 -7.65625 C 9.820312 -6.875 10.015625 -5.96875 10.015625 -4.9375 C 10.015625 -3.914062 9.820312 -3.015625 9.4375 -2.234375 C 9.0625 -1.460938 8.53125 -0.859375 7.84375 -0.421875 C 7.15625 0.00390625 6.351562 0.21875 5.4375 0.21875 Z M 5.4375 -1.21875 C 6.101562 -1.21875 6.65625 -1.382812 7.09375 -1.71875 C 7.53125 -2.0625 7.851562 -2.515625 8.0625 -3.078125 C 8.28125 -3.640625 8.390625 -4.257812 8.390625 -4.9375 C 8.390625 -5.613281 8.28125 -6.238281 8.0625 -6.8125 C 7.851562 -7.382812 7.53125 -7.835938 7.09375 -8.171875 C 6.65625 -8.515625 6.101562 -8.6875 5.4375 -8.6875 C 4.78125 -8.6875 4.234375 -8.515625 3.796875 -8.171875 C 3.367188 -7.835938 3.046875 -7.382812 2.828125 -6.8125 C 2.609375 -6.25 2.5 -5.625 2.5 -4.9375 C 2.5 -4.257812 2.609375 -3.640625 2.828125 -3.078125 C 3.046875 -2.515625 3.367188 -2.0625 3.796875 -1.71875 C 4.234375 -1.382812 4.78125 -1.21875 5.4375 -1.21875 Z M 5.4375 -1.21875 "/></g></g></g><g fill="#000000" fill-opacity="1"><g transform="translate(196.284362, 109.899257)"><g/></g></g><g fill="#000000" fill-opacity="1"><g transform="translate(201.365309, 109.899257)"><g><path d="M 4.78125 0.21875 C 4.09375 0.21875 3.472656 0.113281 2.921875 -0.09375 C 2.378906 -0.300781 1.929688 -0.609375 1.578125 -1.015625 C 1.234375 -1.429688 1.007812 -1.941406 0.90625 -2.546875 L 2.453125 -2.828125 C 2.578125 -2.265625 2.835938 -1.847656 3.234375 -1.578125 C 3.628906 -1.316406 4.132812 -1.1875 4.75 -1.1875 C 5.445312 -1.1875 6 -1.332031 6.40625 -1.625 C 6.820312 -1.925781 7.03125 -2.285156 7.03125 -2.703125 C 7.03125 -3.054688 6.90625 -3.347656 6.65625 -3.578125 C 6.40625 -3.804688 6.039062 -3.972656 5.5625 -4.078125 L 3.90625 -4.46875 C 3 -4.6875 2.320312 -5.019531 1.875 -5.46875 C 1.425781 -5.925781 1.203125 -6.507812 1.203125 -7.21875 C 1.203125 -7.789062 1.359375 -8.296875 1.671875 -8.734375 C 1.992188 -9.171875 2.429688 -9.507812 2.984375 -9.75 C 3.535156 -10 4.164062 -10.125 4.875 -10.125 C 5.5625 -10.125 6.148438 -10.015625 6.640625 -9.796875 C 7.140625 -9.578125 7.539062 -9.273438 7.84375 -8.890625 C 8.15625 -8.503906 8.367188 -8.0625 8.484375 -7.5625 L 7.015625 -7.265625 C 6.910156 -7.648438 6.6875 -7.992188 6.34375 -8.296875 C 6.007812 -8.609375 5.523438 -8.765625 4.890625 -8.765625 C 4.285156 -8.765625 3.789062 -8.625 3.40625 -8.34375 C 3.019531 -8.0625 2.828125 -7.710938 2.828125 -7.296875 C 2.828125 -6.921875 2.960938 -6.617188 3.234375 -6.390625 C 3.503906 -6.171875 3.914062 -6 4.46875 -5.875 L 6 -5.5 C 6.914062 -5.289062 7.59375 -4.957031 8.03125 -4.5 C 8.46875 -4.050781 8.6875 -3.484375 8.6875 -2.796875 C 8.6875 -2.203125 8.519531 -1.675781 8.1875 -1.21875 C 7.851562 -0.769531 7.394531 -0.414062 6.8125 -0.15625 C 6.226562 0.09375 5.550781 0.21875 4.78125 0.21875 Z M 4.78125 0.21875 "/></g></g></g><g fill="#000000" fill-opacity="1"><g transform="translate(210.921469, 109.899257)"><g><path d="M 4.21875 0.21875 C 3.570312 0.21875 2.988281 0.101562 2.46875 -0.125 C 1.957031 -0.363281 1.550781 -0.710938 1.25 -1.171875 C 0.945312 -1.628906 0.796875 -2.1875 0.796875 -2.84375 C 0.796875 -3.414062 0.90625 -3.878906 1.125 -4.234375 C 1.351562 -4.597656 1.65625 -4.878906 2.03125 -5.078125 C 2.414062 -5.285156 2.835938 -5.441406 3.296875 -5.546875 C 3.753906 -5.648438 4.21875 -5.734375 4.6875 -5.796875 C 5.300781 -5.867188 5.789062 -5.925781 6.15625 -5.96875 C 6.53125 -6.019531 6.804688 -6.09375 6.984375 -6.1875 C 7.160156 -6.289062 7.25 -6.460938 7.25 -6.703125 L 7.25 -6.765625 C 7.25 -7.171875 7.164062 -7.519531 7 -7.8125 C 6.84375 -8.101562 6.609375 -8.320312 6.296875 -8.46875 C 5.984375 -8.625 5.597656 -8.703125 5.140625 -8.703125 C 4.660156 -8.703125 4.25 -8.628906 3.90625 -8.484375 C 3.570312 -8.335938 3.296875 -8.144531 3.078125 -7.90625 C 2.859375 -7.675781 2.707031 -7.429688 2.625 -7.171875 L 1.0625 -7.578125 C 1.269531 -8.191406 1.582031 -8.679688 2 -9.046875 C 2.414062 -9.421875 2.890625 -9.691406 3.421875 -9.859375 C 3.960938 -10.035156 4.519531 -10.125 5.09375 -10.125 C 5.476562 -10.125 5.890625 -10.070312 6.328125 -9.96875 C 6.765625 -9.875 7.171875 -9.703125 7.546875 -9.453125 C 7.929688 -9.210938 8.242188 -8.863281 8.484375 -8.40625 C 8.722656 -7.945312 8.84375 -7.359375 8.84375 -6.640625 L 8.84375 0 L 7.265625 0 L 7.265625 -1.375 L 7.171875 -1.375 C 7.054688 -1.132812 6.875 -0.890625 6.625 -0.640625 C 6.382812 -0.398438 6.066406 -0.195312 5.671875 -0.03125 C 5.273438 0.132812 4.789062 0.21875 4.21875 0.21875 Z M 4.46875 -1.21875 C 5.082031 -1.21875 5.59375 -1.332031 6 -1.5625 C 6.414062 -1.789062 6.726562 -2.09375 6.9375 -2.46875 C 7.144531 -2.84375 7.25 -3.234375 7.25 -3.640625 L 7.25 -5 C 7.1875 -4.925781 7.050781 -4.859375 6.84375 -4.796875 C 6.632812 -4.734375 6.390625 -4.675781 6.109375 -4.625 C 5.835938 -4.582031 5.566406 -4.546875 5.296875 -4.515625 C 5.035156 -4.484375 4.8125 -4.457031 4.625 -4.4375 C 4.238281 -4.382812 3.875 -4.296875 3.53125 -4.171875 C 3.195312 -4.054688 2.925781 -3.890625 2.71875 -3.671875 C 2.507812 -3.453125 2.40625 -3.148438 2.40625 -2.765625 C 2.40625 -2.429688 2.492188 -2.144531 2.671875 -1.90625 C 2.859375 -1.675781 3.101562 -1.503906 3.40625 -1.390625 C 3.71875 -1.273438 4.070312 -1.21875 4.46875 -1.21875 Z M 4.46875 -1.21875 "/></g></g></g><g fill="#000000" fill-opacity="1"><g transform="translate(220.830186, 109.899257)"><g><path d="M 1.25 3.6875 L 1.578125 2.28125 L 1.921875 2.328125 C 2.222656 2.390625 2.492188 2.394531 2.734375 2.34375 C 2.984375 2.300781 3.207031 2.171875 3.40625 1.953125 C 3.601562 1.734375 3.773438 1.40625 3.921875 0.96875 L 4.265625 0.03125 L 0.4375 -9.984375 L 2.203125 -9.984375 L 4.328125 -4.09375 C 4.546875 -3.507812 4.734375 -2.925781 4.890625 -2.34375 C 5.046875 -1.757812 5.207031 -1.195312 5.375 -0.65625 L 4.828125 -0.65625 C 4.992188 -1.195312 5.15625 -1.757812 5.3125 -2.34375 C 5.476562 -2.925781 5.664062 -3.507812 5.875 -4.09375 L 8.015625 -9.984375 L 9.75 -9.984375 L 5.328125 1.5625 C 5.128906 2.070312 4.890625 2.492188 4.609375 2.828125 C 4.328125 3.171875 4 3.421875 3.625 3.578125 C 3.257812 3.742188 2.847656 3.828125 2.390625 3.828125 C 2.128906 3.828125 1.898438 3.8125 1.703125 3.78125 C 1.503906 3.75 1.351562 3.71875 1.25 3.6875 Z M 1.25 3.6875 "/></g></g></g></svg>